<svg width="302" height="25" viewBox="0 0 302 25" fill="none" xmlns="http://www.w3.org/2000/svg">
<path d="M11.718 24.0826C10.2033 24.0826 8.77933 23.784 7.446 23.1866C6.11267 22.5786 4.93933 21.7413 3.926 20.6746C2.92333 19.608 2.134 18.376 1.558 16.9786C0.992667 15.5706 0.71 14.0666 0.71 12.4666C0.71 10.856 0.992667 9.35196 1.558 7.95463C2.134 6.54662 2.92333 5.31462 3.926 4.25863C4.93933 3.19196 6.11267 2.35996 7.446 1.76262C8.77933 1.15462 10.2033 0.850624 11.718 0.850624C13.5313 0.850624 15.2007 1.27196 16.726 2.11462C18.2513 2.94662 19.5153 4.06129 20.518 5.45863L17.03 7.33063C16.4007 6.55196 15.6167 5.92796 14.678 5.45863C13.75 4.98929 12.7633 4.75463 11.718 4.75463C10.7367 4.75463 9.814 4.95729 8.95 5.36263C8.086 5.75729 7.32867 6.31196 6.678 7.02662C6.02733 7.73063 5.52067 8.55196 5.158 9.49063C4.79533 10.4186 4.614 11.4106 4.614 12.4666C4.614 13.5333 4.79533 14.5306 5.158 15.4586C5.53133 16.3866 6.04333 17.208 6.694 17.9226C7.34467 18.6266 8.09667 19.1813 8.95 19.5866C9.814 19.9813 10.7367 20.1786 11.718 20.1786C12.7847 20.1786 13.7767 19.944 14.694 19.4746C15.622 18.9946 16.4007 18.3653 17.03 17.5866L20.518 19.4746C19.5153 20.8613 18.2513 21.976 16.726 22.8186C15.2007 23.6613 13.5313 24.0826 11.718 24.0826ZM33.148 11.6346C32.86 11.4426 32.5453 11.288 32.204 11.1706C31.8733 11.0533 31.5053 10.9946 31.1 10.9946C30.3213 10.9946 29.6493 11.1973 29.084 11.6026C28.5293 12.008 28.1027 12.552 27.804 13.2346C27.5053 13.9066 27.356 14.6533 27.356 15.4746V23.6666H23.42V7.66663H27.324V9.55463C27.8573 8.85063 28.492 8.29062 29.228 7.87463C29.9747 7.45863 30.8173 7.25063 31.756 7.25063C32.1187 7.25063 32.4653 7.26129 32.796 7.28263C33.1373 7.30396 33.4627 7.36263 33.772 7.45863L33.148 11.6346ZM42.1788 24.0826C40.7068 24.0826 39.3628 23.704 38.1468 22.9466C36.9414 22.1893 35.9761 21.1706 35.2508 19.8906C34.5361 18.6106 34.1788 17.1973 34.1788 15.6506C34.1788 14.488 34.3868 13.4 34.8028 12.3866C35.2188 11.3626 35.7894 10.4666 36.5148 9.69863C37.2508 8.91996 38.1041 8.31196 39.0748 7.87463C40.0454 7.43729 41.0801 7.21863 42.1788 7.21863C43.4268 7.21863 44.5681 7.48529 45.6028 8.01863C46.6481 8.54129 47.5334 9.26129 48.2588 10.1786C48.9841 11.096 49.5121 12.1413 49.8428 13.3146C50.1734 14.488 50.2481 15.7146 50.0668 16.9946H38.3708C38.5201 17.592 38.7654 18.1306 39.1068 18.6106C39.4481 19.08 39.8801 19.4586 40.4028 19.7466C40.9254 20.024 41.5174 20.168 42.1788 20.1786C42.8614 20.1893 43.4801 20.0293 44.0348 19.6986C44.6001 19.3573 45.0694 18.8986 45.4428 18.3226L49.4268 19.2506C48.7761 20.6693 47.8054 21.832 46.5148 22.7386C45.2241 23.6346 43.7788 24.0826 42.1788 24.0826ZM38.2428 14.0666H46.1148C45.9974 13.4266 45.7468 12.8506 45.3628 12.3386C44.9894 11.816 44.5254 11.4 43.9708 11.0906C43.4161 10.7813 42.8188 10.6266 42.1788 10.6266C41.5388 10.6266 40.9468 10.7813 40.4028 11.0906C39.8588 11.3893 39.3948 11.8 39.0108 12.3226C38.6374 12.8346 38.3814 13.416 38.2428 14.0666ZM64.9885 7.66663H68.8925V23.6666H64.9725L64.8125 21.6826C64.3645 22.3973 63.7778 22.9786 63.0525 23.4266C62.3378 23.864 61.4952 24.0826 60.5245 24.0826C59.3405 24.0826 58.2312 23.8586 57.1965 23.4106C56.1618 22.9626 55.2498 22.344 54.4605 21.5546C53.6712 20.7653 53.0578 19.8533 52.6205 18.8186C52.1832 17.784 51.9645 16.6746 51.9645 15.4906C51.9645 14.3493 52.1725 13.2773 52.5885 12.2746C53.0045 11.272 53.5912 10.392 54.3485 9.63463C55.1058 8.87729 55.9805 8.28529 56.9725 7.85863C57.9645 7.43196 59.0312 7.21863 60.1725 7.21863C61.2392 7.21863 62.1885 7.45329 63.0205 7.92263C63.8632 8.39196 64.5778 8.98929 65.1645 9.71463L64.9885 7.66663ZM60.6365 20.3226C61.4898 20.3226 62.2312 20.104 62.8605 19.6666C63.4898 19.2293 63.9645 18.648 64.2845 17.9226C64.6152 17.1866 64.7485 16.376 64.6845 15.4906C64.6098 14.6586 64.3645 13.9066 63.9485 13.2346C63.5325 12.552 62.9992 12.008 62.3485 11.6026C61.6978 11.1973 60.9672 10.9946 60.1565 10.9946C59.3138 10.9946 58.5565 11.2133 57.8845 11.6506C57.2232 12.088 56.7112 12.6746 56.3485 13.4106C55.9858 14.136 55.8418 14.9466 55.9165 15.8426C56.0018 16.664 56.2685 17.416 56.7165 18.0986C57.1645 18.7706 57.7298 19.3093 58.4125 19.7146C59.1058 20.12 59.8472 20.3226 60.6365 20.3226ZM81.3085 11.5706H78.2045V23.6666H74.3005V11.5706H71.9325V7.66663H74.3005V2.64263H78.2045V7.66663H81.3085V11.5706ZM90.7725 24.0826C89.3005 24.0826 87.9565 23.704 86.7405 22.9466C85.5352 22.1893 84.5698 21.1706 83.8445 19.8906C83.1298 18.6106 82.7725 17.1973 82.7725 15.6506C82.7725 14.488 82.9805 13.4 83.3965 12.3866C83.8125 11.3626 84.3832 10.4666 85.1085 9.69863C85.8445 8.91996 86.6978 8.31196 87.6685 7.87463C88.6392 7.43729 89.6738 7.21863 90.7725 7.21863C92.0205 7.21863 93.1618 7.48529 94.1965 8.01863C95.2418 8.54129 96.1272 9.26129 96.8525 10.1786C97.5778 11.096 98.1058 12.1413 98.4365 13.3146C98.7672 14.488 98.8418 15.7146 98.6605 16.9946H86.9645C87.1138 17.592 87.3592 18.1306 87.7005 18.6106C88.0418 19.08 88.4738 19.4586 88.9965 19.7466C89.5192 20.024 90.1112 20.168 90.7725 20.1786C91.4552 20.1893 92.0738 20.0293 92.6285 19.6986C93.1938 19.3573 93.6632 18.8986 94.0365 18.3226L98.0205 19.2506C97.3698 20.6693 96.3992 21.832 95.1085 22.7386C93.8178 23.6346 92.3725 24.0826 90.7725 24.0826ZM86.8365 14.0666H94.7085C94.5912 13.4266 94.3405 12.8506 93.9565 12.3386C93.5832 11.816 93.1192 11.4 92.5645 11.0906C92.0098 10.7813 91.4125 10.6266 90.7725 10.6266C90.1325 10.6266 89.5405 10.7813 88.9965 11.0906C88.4525 11.3893 87.9885 11.8 87.6045 12.3226C87.2312 12.8346 86.9752 13.416 86.8365 14.0666ZM123.054 1.26662H127.662L119.966 13.5706V23.6666H116.062V13.5706L108.366 1.26662H112.974L118.014 9.31463L123.054 1.26662ZM134.179 24.0826C132.707 24.0826 131.363 23.704 130.147 22.9466C128.941 22.1893 127.976 21.176 127.251 19.9066C126.536 18.6266 126.179 17.2133 126.179 15.6666C126.179 14.4933 126.387 13.4 126.803 12.3866C127.219 11.3626 127.789 10.4666 128.515 9.69863C129.251 8.91996 130.104 8.31196 131.075 7.87463C132.045 7.43729 133.08 7.21863 134.179 7.21863C135.651 7.21863 136.989 7.59729 138.195 8.35463C139.411 9.11196 140.376 10.1306 141.091 11.4106C141.816 12.6906 142.179 14.1093 142.179 15.6666C142.179 16.8293 141.971 17.9173 141.555 18.9306C141.139 19.944 140.563 20.84 139.827 21.6186C139.101 22.3866 138.253 22.9893 137.283 23.4266C136.323 23.864 135.288 24.0826 134.179 24.0826ZM134.179 20.1786C134.957 20.1786 135.656 19.9706 136.275 19.5546C136.893 19.1386 137.379 18.5893 137.731 17.9066C138.093 17.224 138.275 16.4773 138.275 15.6666C138.275 14.8346 138.088 14.0773 137.715 13.3946C137.352 12.7013 136.856 12.152 136.227 11.7466C135.608 11.3306 134.925 11.1226 134.179 11.1226C133.411 11.1226 132.717 11.3306 132.099 11.7466C131.48 12.1626 130.989 12.7173 130.627 13.4106C130.264 14.104 130.083 14.856 130.083 15.6666C130.083 16.5093 130.269 17.272 130.643 17.9546C131.016 18.6373 131.512 19.1813 132.131 19.5866C132.76 19.9813 133.443 20.1786 134.179 20.1786ZM144.326 15.9066V7.66663H148.23V15.8426C148.23 16.664 148.401 17.416 148.742 18.0986C149.084 18.7813 149.558 19.3253 150.166 19.7306C150.774 20.1253 151.468 20.3226 152.246 20.3226C153.025 20.3226 153.692 20.1253 154.246 19.7306C154.812 19.3253 155.244 18.7813 155.542 18.0986C155.852 17.416 156.006 16.664 156.006 15.8426V7.66663H159.91V23.6666H156.006V21.7626C155.484 22.4666 154.849 23.0373 154.102 23.4746C153.366 23.9013 152.529 24.1146 151.59 24.1146C150.108 24.1146 148.828 23.7466 147.75 23.0106C146.673 22.264 145.836 21.272 145.238 20.0346C144.641 18.7866 144.337 17.4106 144.326 15.9066ZM173.492 11.6346C173.204 11.4426 172.889 11.288 172.548 11.1706C172.217 11.0533 171.849 10.9946 171.444 10.9946C170.665 10.9946 169.993 11.1973 169.428 11.6026C168.873 12.008 168.446 12.552 168.148 13.2346C167.849 13.9066 167.7 14.6533 167.7 15.4746V23.6666H163.764V7.66663H167.668V9.55463C168.201 8.85063 168.836 8.29062 169.572 7.87463C170.318 7.45863 171.161 7.25063 172.1 7.25063C172.462 7.25063 172.809 7.26129 173.14 7.28263C173.481 7.30396 173.806 7.36263 174.116 7.45863L173.492 11.6346ZM191.689 1.26662H196.185L204.329 23.6666H200.185L198.745 19.6986H189.145L187.705 23.6666H183.561L191.689 1.26662ZM190.569 15.7946H197.305L193.929 6.56263L190.569 15.7946ZM215.84 18.8506L219.36 20.7546C218.624 21.7573 217.701 22.5626 216.592 23.1706C215.483 23.7786 214.272 24.0826 212.96 24.0826C211.488 24.0826 210.144 23.704 208.928 22.9466C207.723 22.1893 206.757 21.176 206.032 19.9066C205.317 18.6266 204.96 17.2133 204.96 15.6666C204.96 14.4933 205.168 13.4 205.584 12.3866C206 11.3626 206.571 10.4666 207.296 9.69863C208.032 8.91996 208.885 8.31196 209.856 7.87463C210.827 7.43729 211.861 7.21863 212.96 7.21863C214.272 7.21863 215.483 7.52263 216.592 8.13062C217.701 8.73863 218.624 9.55463 219.36 10.5786L215.84 12.4666C215.467 12.04 215.024 11.7093 214.512 11.4746C214.011 11.24 213.493 11.1226 212.96 11.1226C212.192 11.1226 211.499 11.336 210.88 11.7626C210.261 12.1786 209.771 12.7333 209.408 13.4266C209.045 14.1093 208.864 14.856 208.864 15.6666C208.864 16.4666 209.045 17.2133 209.408 17.9066C209.771 18.5893 210.261 19.1386 210.88 19.5546C211.499 19.9706 212.192 20.1786 212.96 20.1786C213.515 20.1786 214.043 20.0613 214.544 19.8266C215.045 19.5813 215.477 19.256 215.84 18.8506ZM231.528 18.8506L235.048 20.7546C234.312 21.7573 233.389 22.5626 232.28 23.1706C231.17 23.7786 229.96 24.0826 228.648 24.0826C227.176 24.0826 225.832 23.704 224.616 22.9466C223.41 22.1893 222.445 21.176 221.72 19.9066C221.005 18.6266 220.648 17.2133 220.648 15.6666C220.648 14.4933 220.856 13.4 221.272 12.3866C221.688 11.3626 222.258 10.4666 222.984 9.69863C223.72 8.91996 224.573 8.31196 225.544 7.87463C226.514 7.43729 227.549 7.21863 228.648 7.21863C229.96 7.21863 231.17 7.52263 232.28 8.13062C233.389 8.73863 234.312 9.55463 235.048 10.5786L231.528 12.4666C231.154 12.04 230.712 11.7093 230.2 11.4746C229.698 11.24 229.181 11.1226 228.648 11.1226C227.88 11.1226 227.186 11.336 226.568 11.7626C225.949 12.1786 225.458 12.7333 225.096 13.4266C224.733 14.1093 224.552 14.856 224.552 15.6666C224.552 16.4666 224.733 17.2133 225.096 17.9066C225.458 18.5893 225.949 19.1386 226.568 19.5546C227.186 19.9706 227.88 20.1786 228.648 20.1786C229.202 20.1786 229.73 20.0613 230.232 19.8266C230.733 19.5813 231.165 19.256 231.528 18.8506ZM244.335 24.0826C242.863 24.0826 241.519 23.704 240.303 22.9466C239.098 22.1893 238.132 21.176 237.407 19.9066C236.692 18.6266 236.335 17.2133 236.335 15.6666C236.335 14.4933 236.543 13.4 236.959 12.3866C237.375 11.3626 237.946 10.4666 238.671 9.69863C239.407 8.91996 240.26 8.31196 241.231 7.87463C242.202 7.43729 243.236 7.21863 244.335 7.21863C245.807 7.21863 247.146 7.59729 248.351 8.35463C249.567 9.11196 250.532 10.1306 251.247 11.4106C251.972 12.6906 252.335 14.1093 252.335 15.6666C252.335 16.8293 252.127 17.9173 251.711 18.9306C251.295 19.944 250.719 20.84 249.983 21.6186C249.258 22.3866 248.41 22.9893 247.439 23.4266C246.479 23.864 245.444 24.0826 244.335 24.0826ZM244.335 20.1786C245.114 20.1786 245.812 19.9706 246.431 19.5546C247.05 19.1386 247.535 18.5893 247.887 17.9066C248.25 17.224 248.431 16.4773 248.431 15.6666C248.431 14.8346 248.244 14.0773 247.871 13.3946C247.508 12.7013 247.012 12.152 246.383 11.7466C245.764 11.3306 245.082 11.1226 244.335 11.1226C243.567 11.1226 242.874 11.3306 242.255 11.7466C241.636 12.1626 241.146 12.7173 240.783 13.4106C240.42 14.104 240.239 14.856 240.239 15.6666C240.239 16.5093 240.426 17.272 240.799 17.9546C241.172 18.6373 241.668 19.1813 242.287 19.5866C242.916 19.9813 243.599 20.1786 244.335 20.1786ZM254.483 15.9066V7.66663H258.387V15.8426C258.387 16.664 258.557 17.416 258.899 18.0986C259.24 18.7813 259.715 19.3253 260.323 19.7306C260.931 20.1253 261.624 20.3226 262.403 20.3226C263.181 20.3226 263.848 20.1253 264.403 19.7306C264.968 19.3253 265.4 18.7813 265.699 18.0986C266.008 17.416 266.163 16.664 266.163 15.8426V7.66663H270.067V23.6666H266.163V21.7626C265.64 22.4666 265.005 23.0373 264.259 23.4746C263.523 23.9013 262.685 24.1146 261.747 24.1146C260.264 24.1146 258.984 23.7466 257.907 23.0106C256.829 22.264 255.992 21.272 255.395 20.0346C254.797 18.7866 254.493 17.4106 254.483 15.9066ZM289.184 15.3946V23.6666H285.28V15.4586C285.28 14.6373 285.109 13.8906 284.768 13.2186C284.427 12.536 283.952 11.992 283.344 11.5866C282.747 11.1813 282.053 10.9786 281.264 10.9786C280.496 10.9786 279.829 11.1813 279.264 11.5866C278.699 11.992 278.261 12.536 277.952 13.2186C277.653 13.8906 277.504 14.6373 277.504 15.4586V23.6666H273.6V7.66663H277.504V9.55463C278.037 8.83996 278.672 8.27463 279.408 7.85863C280.155 7.43196 280.997 7.21863 281.936 7.21863C283.408 7.21863 284.683 7.59196 285.76 8.33862C286.848 9.07463 287.685 10.0613 288.272 11.2986C288.869 12.536 289.173 13.9013 289.184 15.3946ZM301.277 11.5706H298.173V23.6666H294.269V11.5706H291.901V7.66663H294.269V2.64263H298.173V7.66663H301.277V11.5706Z" fill="#212121"/>
</svg>
