<svg width="89" height="61" viewBox="0 0 89 61" fill="none" xmlns="http://www.w3.org/2000/svg">
<rect x="1" y="0.666748" width="87" height="59" rx="15.5" fill="white"/>
<rect x="1" y="0.666748" width="87" height="59" rx="15.5" stroke="#EEEEEE"/>
<g clip-path="url(#clip0_81_4332)">
<path d="M49.2729 18.1788C49.2219 18.1218 47.3844 18.2013 45.7854 19.9368C44.1864 21.6708 44.4324 23.6598 44.4684 23.7108C44.5044 23.7618 46.7484 23.8413 48.1809 21.8238C49.6134 19.8063 49.3239 18.2373 49.2729 18.1788ZM54.2439 35.7783C54.1719 35.6343 50.7564 33.9273 51.0744 30.6453C51.3924 27.3618 53.5869 26.4618 53.6214 26.3643C53.6559 26.2668 52.7259 25.1793 51.7404 24.6288C51.0168 24.2406 50.216 24.0183 49.3959 23.9778C49.2339 23.9733 48.6714 23.8353 47.5149 24.1518C46.7529 24.3603 45.0354 25.0353 44.5629 25.0623C44.0889 25.0893 42.6789 24.2793 41.1624 24.0648C40.1919 23.8773 39.1629 24.2613 38.4264 24.5568C37.6914 24.8508 36.2934 25.6878 35.3154 27.9123C34.3374 30.1353 34.8489 33.6573 35.2149 34.7523C35.5809 35.8458 36.1524 37.6383 37.1244 38.9463C37.9884 40.4223 39.1344 41.4468 39.6129 41.7948C40.0914 42.1428 41.4414 42.3738 42.3774 41.8953C43.1304 41.4333 44.4894 41.1678 45.0264 41.1873C45.5619 41.2068 46.6179 41.4183 47.6994 41.9958C48.5559 42.2913 49.3659 42.1683 50.1774 41.8383C50.9889 41.5068 52.1634 40.2498 53.5344 37.7013C54.0549 36.5163 54.2919 35.8758 54.2439 35.7783Z" fill="black"/>
<path d="M49.2729 18.1788C49.2219 18.1218 47.3844 18.2013 45.7854 19.9368C44.1864 21.6708 44.4324 23.6598 44.4684 23.7108C44.5044 23.7618 46.7484 23.8413 48.1809 21.8238C49.6134 19.8063 49.3239 18.2373 49.2729 18.1788ZM54.2439 35.7783C54.1719 35.6343 50.7564 33.9273 51.0744 30.6453C51.3924 27.3618 53.5869 26.4618 53.6214 26.3643C53.6559 26.2668 52.7259 25.1793 51.7404 24.6288C51.0168 24.2406 50.216 24.0183 49.3959 23.9778C49.2339 23.9733 48.6714 23.8353 47.5149 24.1518C46.7529 24.3603 45.0354 25.0353 44.5629 25.0623C44.0889 25.0893 42.6789 24.2793 41.1624 24.0648C40.1919 23.8773 39.1629 24.2613 38.4264 24.5568C37.6914 24.8508 36.2934 25.6878 35.3154 27.9123C34.3374 30.1353 34.8489 33.6573 35.2149 34.7523C35.5809 35.8458 36.1524 37.6383 37.1244 38.9463C37.9884 40.4223 39.1344 41.4468 39.6129 41.7948C40.0914 42.1428 41.4414 42.3738 42.3774 41.8953C43.1304 41.4333 44.4894 41.1678 45.0264 41.1873C45.5619 41.2068 46.6179 41.4183 47.6994 41.9958C48.5559 42.2913 49.3659 42.1683 50.1774 41.8383C50.9889 41.5068 52.1634 40.2498 53.5344 37.7013C54.0549 36.5163 54.2919 35.8758 54.2439 35.7783Z" fill="black"/>
</g>
<defs>
<clipPath id="clip0_81_4332">
<rect width="24" height="24" fill="white" transform="translate(32.5 18.1667)"/>
</clipPath>
</defs>
</svg>
