<svg width="380" height="48" viewBox="0 0 380 48" fill="none" xmlns="http://www.w3.org/2000/svg">
<path d="M23.3335 24.3199C23.3335 24.7629 23.0043 25.129 22.5772 25.187L22.4585 25.1949L4.95849 25.1949C4.47525 25.1949 4.08349 24.8032 4.08349 24.3199C4.08349 23.877 4.41267 23.5109 4.83976 23.4529L4.95849 23.4449L22.4585 23.4449C22.9417 23.4449 23.3335 23.8367 23.3335 24.3199Z" fill="#212121"/>
<path d="M12.634 30.7284C12.9764 31.0694 12.9776 31.6234 12.6367 31.9658C12.3267 32.2771 11.8406 32.3064 11.4975 32.053L11.3992 31.9685L4.34088 24.9405C4.02864 24.6296 4.00024 24.1418 4.25568 23.7987L4.34083 23.7004L11.3992 16.6713C11.7416 16.3303 12.2956 16.3314 12.6366 16.6738C12.9466 16.9851 12.9738 17.4713 12.719 17.8133L12.634 17.9113L6.19867 24.3208L12.634 30.7284Z" fill="#212121"/>
</svg>
