<svg width="316" height="77" viewBox="0 0 316 77" fill="none" xmlns="http://www.w3.org/2000/svg">
<path d="M0 32.0995C0 14.3714 14.3715 0 32.0995 0H283.546C301.274 0 315.645 14.3715 315.645 32.0995V76.6796H32.0995C14.3714 76.6796 0 62.3082 0 44.5801V32.0995Z" fill="#FF9500"/>
<path d="M13.6797 25.8398V16.0398H14.8557V24.6638H19.2447V25.8398H13.6797ZM23.1854 26.0218C22.5414 26.0218 21.9534 25.8562 21.4214 25.5248C20.8941 25.1935 20.4718 24.7502 20.1544 24.1948C19.8418 23.6348 19.6854 23.0165 19.6854 22.3398C19.6854 21.8265 19.7764 21.3482 19.9584 20.9048C20.1404 20.4568 20.3901 20.0648 20.7074 19.7288C21.0294 19.3882 21.4028 19.1222 21.8274 18.9308C22.2521 18.7395 22.7048 18.6438 23.1854 18.6438C23.8294 18.6438 24.4151 18.8095 24.9424 19.1408C25.4744 19.4722 25.8968 19.9178 26.2094 20.4778C26.5268 21.0378 26.6854 21.6585 26.6854 22.3398C26.6854 22.8485 26.5944 23.3245 26.4124 23.7678C26.2304 24.2112 25.9784 24.6032 25.6564 24.9438C25.3391 25.2798 24.9681 25.5435 24.5434 25.7348C24.1234 25.9262 23.6708 26.0218 23.1854 26.0218ZM23.1854 24.8458C23.6241 24.8458 24.0184 24.7315 24.3684 24.5028C24.7231 24.2695 25.0008 23.9638 25.2014 23.5858C25.4068 23.2032 25.5094 22.7878 25.5094 22.3398C25.5094 21.8825 25.4044 21.4625 25.1944 21.0798C24.9891 20.6972 24.7114 20.3915 24.3614 20.1628C24.0114 19.9342 23.6194 19.8198 23.1854 19.8198C22.7468 19.8198 22.3524 19.9365 22.0024 20.1698C21.6524 20.3985 21.3748 20.7042 21.1694 21.0868C20.9641 21.4695 20.8614 21.8872 20.8614 22.3398C20.8614 22.8065 20.9664 23.2312 21.1764 23.6138C21.3864 23.9918 21.6688 24.2928 22.0234 24.5168C22.3781 24.7362 22.7654 24.8458 23.1854 24.8458ZM27.8437 25.8398V18.8398H29.0197V19.7148C29.2671 19.3882 29.5797 19.1292 29.9577 18.9378C30.3357 18.7418 30.7464 18.6438 31.1897 18.6438C31.4604 18.6438 31.7217 18.6788 31.9737 18.7488L31.4977 19.9248C31.3064 19.8642 31.1197 19.8338 30.9377 19.8338C30.5877 19.8338 30.2657 19.9202 29.9717 20.0928C29.6824 20.2608 29.4514 20.4895 29.2787 20.7788C29.1061 21.0682 29.0197 21.3902 29.0197 21.7448V25.8398H27.8437ZM35.5585 26.0218C34.9145 26.0218 34.3265 25.8562 33.7945 25.5248C33.2672 25.1935 32.8448 24.7502 32.5275 24.1948C32.2148 23.6348 32.0585 23.0165 32.0585 22.3398C32.0585 21.8265 32.1495 21.3482 32.3315 20.9048C32.5135 20.4568 32.7632 20.0648 33.0805 19.7288C33.4025 19.3882 33.7758 19.1222 34.2005 18.9308C34.6252 18.7395 35.0778 18.6438 35.5585 18.6438C36.0858 18.6438 36.5688 18.7512 37.0075 18.9658C37.4508 19.1758 37.8288 19.4698 38.1415 19.8478C38.4588 20.2258 38.6945 20.6645 38.8485 21.1638C39.0072 21.6632 39.0655 22.1975 39.0235 22.7668H33.3115C33.3675 23.1635 33.4982 23.5182 33.7035 23.8308C33.9088 24.1388 34.1702 24.3838 34.4875 24.5658C34.8095 24.7478 35.1665 24.8412 35.5585 24.8458C35.9785 24.8458 36.3588 24.7385 36.6995 24.5238C37.0402 24.3045 37.3155 24.0058 37.5255 23.6278L38.7225 23.9078C38.4425 24.5285 38.0202 25.0372 37.4555 25.4338C36.8908 25.8258 36.2585 26.0218 35.5585 26.0218ZM33.2765 21.8428H37.8405C37.8032 21.4508 37.6772 21.0938 37.4625 20.7718C37.2478 20.4452 36.9748 20.1838 36.6435 19.9878C36.3122 19.7918 35.9505 19.6938 35.5585 19.6938C35.1665 19.6938 34.8072 19.7895 34.4805 19.9808C34.1538 20.1722 33.8832 20.4312 33.6685 20.7578C33.4585 21.0798 33.3278 21.4415 33.2765 21.8428ZM40.2031 25.8398V18.8398H41.3791V19.7148C41.6264 19.3882 41.9368 19.1292 42.3101 18.9378C42.6881 18.7418 43.0988 18.6438 43.5421 18.6438C44.0601 18.6438 44.5338 18.7698 44.9631 19.0218C45.3924 19.2738 45.7308 19.6075 45.9781 20.0228C46.2254 19.6075 46.5614 19.2738 46.9861 19.0218C47.4154 18.7698 47.8868 18.6438 48.4001 18.6438C48.9274 18.6438 49.4058 18.7722 49.8351 19.0288C50.2644 19.2808 50.6051 19.6215 50.8571 20.0508C51.1138 20.4802 51.2421 20.9585 51.2421 21.4858V25.8398H50.0661V21.7658C50.0661 21.4205 49.9821 21.1008 49.8141 20.8068C49.6461 20.5128 49.4198 20.2772 49.1351 20.0998C48.8504 19.9225 48.5354 19.8338 48.1901 19.8338C47.8448 19.8338 47.5298 19.9178 47.2451 20.0858C46.9604 20.2492 46.7341 20.4778 46.5661 20.7718C46.3981 21.0612 46.3141 21.3925 46.3141 21.7658V25.8398H45.1381V21.7658C45.1381 21.3925 45.0541 21.0612 44.8861 20.7718C44.7181 20.4778 44.4894 20.2492 44.2001 20.0858C43.9154 19.9178 43.6004 19.8338 43.2551 19.8338C42.9144 19.8338 42.5994 19.9225 42.3101 20.0998C42.0254 20.2772 41.7991 20.5128 41.6311 20.8068C41.4631 21.1008 41.3791 21.4205 41.3791 21.7658V25.8398H40.2031ZM56.2178 25.8398V16.0398H57.3938V25.8398H56.2178ZM60.465 29.3398H59.289V18.8398H60.465V20.0368C60.703 19.6262 61.0204 19.2948 61.417 19.0428C61.8137 18.7862 62.285 18.6578 62.831 18.6578C63.3397 18.6578 63.8157 18.7535 64.259 18.9448C64.707 19.1362 65.099 19.4022 65.435 19.7428C65.771 20.0788 66.0347 20.4685 66.226 20.9118C66.4174 21.3552 66.513 21.8312 66.513 22.3398C66.513 22.8485 66.4174 23.3268 66.226 23.7748C66.0347 24.2228 65.771 24.6172 65.435 24.9578C65.099 25.2938 64.707 25.5575 64.259 25.7488C63.8157 25.9402 63.3397 26.0358 62.831 26.0358C62.285 26.0358 61.8137 25.9098 61.417 25.6578C61.0204 25.4012 60.703 25.0675 60.465 24.6568V29.3398ZM62.817 19.7988C62.3644 19.7988 61.9677 19.9132 61.627 20.1418C61.2864 20.3705 61.0227 20.6762 60.836 21.0588C60.654 21.4415 60.563 21.8685 60.563 22.3398C60.563 22.8065 60.654 23.2335 60.836 23.6208C61.0227 24.0082 61.284 24.3162 61.62 24.5448C61.9607 24.7735 62.3597 24.8878 62.817 24.8878C63.2697 24.8878 63.685 24.7758 64.063 24.5518C64.441 24.3232 64.7444 24.0175 64.973 23.6348C65.2017 23.2475 65.316 22.8158 65.316 22.3398C65.316 21.8732 65.204 21.4485 64.98 21.0658C64.756 20.6785 64.455 20.3705 64.077 20.1418C63.699 19.9132 63.279 19.7988 62.817 19.7988ZM69.8459 25.9728C69.4679 25.9588 69.0992 25.8888 68.7399 25.7628C68.3852 25.6322 68.0726 25.4572 67.8019 25.2378C67.5359 25.0138 67.3422 24.7572 67.2209 24.4678L68.2289 24.0338C68.2989 24.1925 68.4249 24.3418 68.6069 24.4818C68.7889 24.6218 68.9989 24.7338 69.2369 24.8178C69.4749 24.9018 69.7152 24.9438 69.9579 24.9438C70.2146 24.9438 70.4549 24.9042 70.6789 24.8248C70.9029 24.7455 71.0849 24.6288 71.2249 24.4748C71.3696 24.3162 71.4419 24.1272 71.4419 23.9078C71.4419 23.6745 71.3626 23.4925 71.2039 23.3618C71.0499 23.2265 70.8539 23.1215 70.6159 23.0468C70.3826 22.9675 70.1446 22.8928 69.9019 22.8228C69.4212 22.7015 68.9919 22.5568 68.6139 22.3888C68.2359 22.2162 67.9372 21.9992 67.7179 21.7378C67.5032 21.4718 67.3959 21.1335 67.3959 20.7228C67.3959 20.2888 67.5149 19.9132 67.7529 19.5958C67.9956 19.2785 68.3129 19.0335 68.7049 18.8608C69.0969 18.6882 69.5169 18.6018 69.9649 18.6018C70.5296 18.6018 71.0452 18.7232 71.5119 18.9658C71.9786 19.2085 72.3262 19.5375 72.5549 19.9528L71.6099 20.5058C71.5306 20.3378 71.4092 20.1908 71.2459 20.0648C71.0826 19.9342 70.8959 19.8315 70.6859 19.7568C70.4759 19.6822 70.2612 19.6425 70.0419 19.6378C69.7712 19.6285 69.5169 19.6635 69.2789 19.7428C69.0456 19.8222 68.8566 19.9435 68.7119 20.1068C68.5719 20.2655 68.5019 20.4638 68.5019 20.7018C68.5019 20.9352 68.5766 21.1125 68.7259 21.2338C68.8799 21.3552 69.0782 21.4532 69.3209 21.5278C69.5682 21.5978 69.8366 21.6795 70.1259 21.7728C70.5506 21.9082 70.9472 22.0645 71.3159 22.2418C71.6846 22.4192 71.9809 22.6408 72.2049 22.9068C72.4336 23.1728 72.5456 23.5018 72.5409 23.8938C72.5409 24.3232 72.4126 24.6988 72.1559 25.0208C71.8992 25.3382 71.5656 25.5808 71.1549 25.7488C70.7489 25.9168 70.3126 25.9915 69.8459 25.9728ZM73.4602 23.1798V18.8398H74.6362V22.9208C74.6362 23.2755 74.7225 23.5975 74.8952 23.8868C75.0679 24.1762 75.2989 24.4072 75.5882 24.5798C75.8822 24.7478 76.2042 24.8318 76.5542 24.8318C76.9089 24.8318 77.2285 24.7478 77.5132 24.5798C77.8025 24.4072 78.0335 24.1762 78.2062 23.8868C78.3789 23.5975 78.4652 23.2755 78.4652 22.9208V18.8398H79.6412L79.6482 25.8398H78.4722L78.4652 24.9508C78.2179 25.2775 77.9052 25.5388 77.5272 25.7348C77.1492 25.9262 76.7409 26.0218 76.3022 26.0218C75.7795 26.0218 75.3012 25.8958 74.8672 25.6438C74.4379 25.3872 74.0949 25.0442 73.8382 24.6148C73.5862 24.1855 73.4602 23.7072 73.4602 23.1798ZM81.0547 25.8398V18.8398H82.2307V19.7148C82.478 19.3882 82.7883 19.1292 83.1617 18.9378C83.5397 18.7418 83.9503 18.6438 84.3937 18.6438C84.9117 18.6438 85.3853 18.7698 85.8147 19.0218C86.244 19.2738 86.5823 19.6075 86.8297 20.0228C87.077 19.6075 87.413 19.2738 87.8377 19.0218C88.267 18.7698 88.7383 18.6438 89.2517 18.6438C89.779 18.6438 90.2573 18.7722 90.6867 19.0288C91.116 19.2808 91.4567 19.6215 91.7087 20.0508C91.9653 20.4802 92.0937 20.9585 92.0937 21.4858V25.8398H90.9177V21.7658C90.9177 21.4205 90.8337 21.1008 90.6657 20.8068C90.4977 20.5128 90.2713 20.2772 89.9867 20.0998C89.702 19.9225 89.387 19.8338 89.0417 19.8338C88.6963 19.8338 88.3813 19.9178 88.0967 20.0858C87.812 20.2492 87.5857 20.4778 87.4177 20.7718C87.2497 21.0612 87.1657 21.3925 87.1657 21.7658V25.8398H85.9897V21.7658C85.9897 21.3925 85.9057 21.0612 85.7377 20.7718C85.5697 20.4778 85.341 20.2492 85.0517 20.0858C84.767 19.9178 84.452 19.8338 84.1067 19.8338C83.766 19.8338 83.451 19.9225 83.1617 20.0998C82.877 20.2772 82.6507 20.5128 82.4827 20.8068C82.3147 21.1008 82.2307 21.4205 82.2307 21.7658V25.8398H81.0547ZM96.8593 25.8398V16.0398H100.1C100.777 16.0398 101.412 16.1682 102.004 16.4248C102.597 16.6768 103.117 17.0292 103.565 17.4818C104.013 17.9298 104.363 18.4502 104.615 19.0428C104.872 19.6308 105 20.2632 105 20.9398C105 21.6165 104.872 22.2512 104.615 22.8438C104.363 23.4318 104.013 23.9522 103.565 24.4048C103.117 24.8528 102.597 25.2052 102.004 25.4618C101.412 25.7138 100.777 25.8398 100.1 25.8398H96.8593ZM98.0353 24.6638H100.1C100.614 24.6638 101.094 24.5682 101.542 24.3768C101.995 24.1808 102.392 23.9125 102.732 23.5718C103.073 23.2312 103.339 22.8368 103.53 22.3888C103.726 21.9362 103.824 21.4532 103.824 20.9398C103.824 20.4265 103.726 19.9458 103.53 19.4978C103.339 19.0452 103.071 18.6485 102.725 18.3078C102.385 17.9672 101.99 17.7012 101.542 17.5098C101.094 17.3138 100.614 17.2158 100.1 17.2158H98.0353V24.6638ZM109.223 26.0218C108.579 26.0218 107.991 25.8562 107.459 25.5248C106.931 25.1935 106.509 24.7502 106.192 24.1948C105.879 23.6348 105.723 23.0165 105.723 22.3398C105.723 21.8265 105.814 21.3482 105.996 20.9048C106.178 20.4568 106.427 20.0648 106.745 19.7288C107.067 19.3882 107.44 19.1222 107.865 18.9308C108.289 18.7395 108.742 18.6438 109.223 18.6438C109.867 18.6438 110.452 18.8095 110.98 19.1408C111.512 19.4722 111.934 19.9178 112.247 20.4778C112.564 21.0378 112.723 21.6585 112.723 22.3398C112.723 22.8485 112.632 23.3245 112.45 23.7678C112.268 24.2112 112.016 24.6032 111.694 24.9438C111.376 25.2798 111.005 25.5435 110.581 25.7348C110.161 25.9262 109.708 26.0218 109.223 26.0218ZM109.223 24.8458C109.661 24.8458 110.056 24.7315 110.406 24.5028C110.76 24.2695 111.038 23.9638 111.239 23.5858C111.444 23.2032 111.547 22.7878 111.547 22.3398C111.547 21.8825 111.442 21.4625 111.232 21.0798C111.026 20.6972 110.749 20.3915 110.399 20.1628C110.049 19.9342 109.657 19.8198 109.223 19.8198C108.784 19.8198 108.39 19.9365 108.04 20.1698C107.69 20.3985 107.412 20.7042 107.207 21.0868C107.001 21.4695 106.899 21.8872 106.899 22.3398C106.899 22.8065 107.004 23.2312 107.214 23.6138C107.424 23.9918 107.706 24.2928 108.061 24.5168C108.415 24.7362 108.803 24.8458 109.223 24.8458ZM113.812 25.8398V15.3398H114.988V25.8398H113.812ZM119.682 26.0218C119.038 26.0218 118.45 25.8562 117.918 25.5248C117.39 25.1935 116.968 24.7502 116.651 24.1948C116.338 23.6348 116.182 23.0165 116.182 22.3398C116.182 21.8265 116.273 21.3482 116.455 20.9048C116.637 20.4568 116.886 20.0648 117.204 19.7288C117.526 19.3882 117.899 19.1222 118.324 18.9308C118.748 18.7395 119.201 18.6438 119.682 18.6438C120.326 18.6438 120.911 18.8095 121.439 19.1408C121.971 19.4722 122.393 19.9178 122.706 20.4778C123.023 21.0378 123.182 21.6585 123.182 22.3398C123.182 22.8485 123.091 23.3245 122.909 23.7678C122.727 24.2112 122.475 24.6032 122.153 24.9438C121.835 25.2798 121.464 25.5435 121.04 25.7348C120.62 25.9262 120.167 26.0218 119.682 26.0218ZM119.682 24.8458C120.12 24.8458 120.515 24.7315 120.865 24.5028C121.219 24.2695 121.497 23.9638 121.698 23.5858C121.903 23.2032 122.006 22.7878 122.006 22.3398C122.006 21.8825 121.901 21.4625 121.691 21.0798C121.485 20.6972 121.208 20.3915 120.858 20.1628C120.508 19.9342 120.116 19.8198 119.682 19.8198C119.243 19.8198 118.849 19.9365 118.499 20.1698C118.149 20.3985 117.871 20.7042 117.666 21.0868C117.46 21.4695 117.358 21.8872 117.358 22.3398C117.358 22.8065 117.463 23.2312 117.673 23.6138C117.883 23.9918 118.165 24.2928 118.52 24.5168C118.874 24.7362 119.262 24.8458 119.682 24.8458ZM124.34 25.8398V18.8398H125.516V19.7148C125.763 19.3882 126.076 19.1292 126.454 18.9378C126.832 18.7418 127.242 18.6438 127.686 18.6438C127.956 18.6438 128.218 18.6788 128.47 18.7488L127.994 19.9248C127.802 19.8642 127.616 19.8338 127.434 19.8338C127.084 19.8338 126.762 19.9202 126.468 20.0928C126.178 20.2608 125.947 20.4895 125.775 20.7788C125.602 21.0682 125.516 21.3902 125.516 21.7448V25.8398H124.34ZM136.267 26.0218C135.74 26.0218 135.231 25.9402 134.741 25.7768C134.251 25.6088 133.822 25.3708 133.453 25.0628C133.089 24.7548 132.83 24.3885 132.676 23.9638L133.775 23.5508C133.869 23.8122 134.041 24.0408 134.293 24.2368C134.55 24.4282 134.851 24.5775 135.196 24.6848C135.542 24.7922 135.899 24.8458 136.267 24.8458C136.687 24.8458 137.077 24.7782 137.436 24.6428C137.8 24.5028 138.094 24.3092 138.318 24.0618C138.542 23.8145 138.654 23.5252 138.654 23.1938C138.654 22.8532 138.538 22.5755 138.304 22.3608C138.071 22.1415 137.772 21.9688 137.408 21.8428C137.044 21.7122 136.664 21.6118 136.267 21.5418C135.591 21.4298 134.984 21.2712 134.447 21.0658C133.915 20.8558 133.493 20.5642 133.18 20.1908C132.872 19.8175 132.718 19.3252 132.718 18.7138C132.718 18.1445 132.882 17.6475 133.208 17.2228C133.54 16.7982 133.976 16.4692 134.517 16.2358C135.059 16.0025 135.642 15.8858 136.267 15.8858C136.785 15.8858 137.287 15.9675 137.772 16.1308C138.262 16.2895 138.694 16.5228 139.067 16.8308C139.441 17.1388 139.709 17.5145 139.872 17.9578L138.759 18.3638C138.666 18.0978 138.491 17.8692 138.234 17.6778C137.982 17.4818 137.684 17.3325 137.338 17.2298C136.998 17.1225 136.641 17.0688 136.267 17.0688C135.852 17.0642 135.465 17.1318 135.105 17.2718C134.746 17.4118 134.454 17.6055 134.23 17.8528C134.006 18.1002 133.894 18.3872 133.894 18.7138C133.894 19.1058 133.997 19.4068 134.202 19.6168C134.412 19.8222 134.697 19.9762 135.056 20.0788C135.416 20.1815 135.819 20.2725 136.267 20.3518C136.902 20.4592 137.49 20.6295 138.031 20.8628C138.573 21.0915 139.007 21.3972 139.333 21.7798C139.665 22.1625 139.83 22.6338 139.83 23.1938C139.83 23.7632 139.665 24.2602 139.333 24.6848C139.007 25.1095 138.573 25.4385 138.031 25.6718C137.49 25.9052 136.902 26.0218 136.267 26.0218ZM141.32 18.8398H142.496V25.8398H141.32V18.8398ZM141.922 17.6988C141.736 17.6988 141.579 17.6382 141.453 17.5168C141.327 17.3955 141.264 17.2438 141.264 17.0618C141.264 16.8798 141.327 16.7282 141.453 16.6068C141.579 16.4855 141.733 16.4248 141.915 16.4248C142.097 16.4248 142.251 16.4855 142.377 16.6068C142.503 16.7282 142.566 16.8798 142.566 17.0618C142.566 17.2438 142.503 17.3955 142.377 17.5168C142.256 17.6382 142.104 17.6988 141.922 17.6988ZM147.804 20.0158H146.215L146.208 25.8398H145.032L145.039 20.0158H143.835V18.8398H145.039L145.032 16.6418H146.208L146.215 18.8398H147.804V20.0158ZM155.705 16.0398H157.126L160.689 25.8398H159.443L158.715 23.8378H154.116L153.395 25.8398H152.142L155.705 16.0398ZM154.55 22.6618H158.281L156.412 17.5448L154.55 22.6618ZM161.896 25.8398V18.8398H163.072V19.7148C163.32 19.3882 163.63 19.1292 164.003 18.9378C164.381 18.7418 164.792 18.6438 165.235 18.6438C165.753 18.6438 166.227 18.7698 166.656 19.0218C167.086 19.2738 167.424 19.6075 167.671 20.0228C167.919 19.6075 168.255 19.2738 168.679 19.0218C169.109 18.7698 169.58 18.6438 170.093 18.6438C170.621 18.6438 171.099 18.7722 171.528 19.0288C171.958 19.2808 172.298 19.6215 172.55 20.0508C172.807 20.4802 172.935 20.9585 172.935 21.4858V25.8398H171.759V21.7658C171.759 21.4205 171.675 21.1008 171.507 20.8068C171.339 20.5128 171.113 20.2772 170.828 20.0998C170.544 19.9225 170.229 19.8338 169.883 19.8338C169.538 19.8338 169.223 19.9178 168.938 20.0858C168.654 20.2492 168.427 20.4778 168.259 20.7718C168.091 21.0612 168.007 21.3925 168.007 21.7658V25.8398H166.831V21.7658C166.831 21.3925 166.747 21.0612 166.579 20.7718C166.411 20.4778 166.183 20.2492 165.893 20.0858C165.609 19.9178 165.294 19.8338 164.948 19.8338C164.608 19.8338 164.293 19.9225 164.003 20.0998C163.719 20.2772 163.492 20.5128 163.324 20.8068C163.156 21.1008 163.072 21.4205 163.072 21.7658V25.8398H161.896ZM177.281 26.0218C176.637 26.0218 176.049 25.8562 175.517 25.5248C174.99 25.1935 174.567 24.7502 174.25 24.1948C173.937 23.6348 173.781 23.0165 173.781 22.3398C173.781 21.8265 173.872 21.3482 174.054 20.9048C174.236 20.4568 174.486 20.0648 174.803 19.7288C175.125 19.3882 175.498 19.1222 175.923 18.9308C176.348 18.7395 176.8 18.6438 177.281 18.6438C177.808 18.6438 178.291 18.7512 178.73 18.9658C179.173 19.1758 179.551 19.4698 179.864 19.8478C180.181 20.2258 180.417 20.6645 180.571 21.1638C180.73 21.6632 180.788 22.1975 180.746 22.7668H175.034C175.09 23.1635 175.221 23.5182 175.426 23.8308C175.631 24.1388 175.893 24.3838 176.21 24.5658C176.532 24.7478 176.889 24.8412 177.281 24.8458C177.701 24.8458 178.081 24.7385 178.422 24.5238C178.763 24.3045 179.038 24.0058 179.248 23.6278L180.445 23.9078C180.165 24.5285 179.743 25.0372 179.178 25.4338C178.613 25.8258 177.981 26.0218 177.281 26.0218ZM174.999 21.8428H179.563C179.526 21.4508 179.4 21.0938 179.185 20.7718C178.97 20.4452 178.697 20.1838 178.366 19.9878C178.035 19.7918 177.673 19.6938 177.281 19.6938C176.889 19.6938 176.53 19.7895 176.203 19.9808C175.876 20.1722 175.606 20.4312 175.391 20.7578C175.181 21.0798 175.05 21.4415 174.999 21.8428ZM185.47 20.0158H183.881L183.874 25.8398H182.698L182.705 20.0158H181.501V18.8398H182.705L182.698 16.6418H183.874L183.881 18.8398H185.47V20.0158ZM186.308 26.6238L186.742 24.2578H187.918L187.092 26.6238H186.308ZM197.495 26.0218C196.832 26.0218 196.209 25.8912 195.626 25.6298C195.043 25.3638 194.529 24.9998 194.086 24.5378C193.647 24.0712 193.302 23.5298 193.05 22.9138C192.803 22.2978 192.679 21.6398 192.679 20.9398C192.679 20.2398 192.803 19.5818 193.05 18.9658C193.302 18.3498 193.647 17.8108 194.086 17.3488C194.529 16.8822 195.043 16.5182 195.626 16.2568C196.209 15.9908 196.832 15.8578 197.495 15.8578C198.288 15.8578 199.019 16.0422 199.686 16.4108C200.353 16.7795 200.906 17.2695 201.345 17.8808L200.302 18.4408C199.975 18.0115 199.562 17.6708 199.063 17.4188C198.568 17.1622 198.046 17.0338 197.495 17.0338C196.986 17.0338 196.51 17.1365 196.067 17.3418C195.628 17.5472 195.243 17.8295 194.912 18.1888C194.581 18.5482 194.322 18.9635 194.135 19.4348C193.948 19.9062 193.855 20.4078 193.855 20.9398C193.855 21.4765 193.948 21.9805 194.135 22.4518C194.326 22.9232 194.588 23.3385 194.919 23.6978C195.255 24.0572 195.642 24.3395 196.081 24.5448C196.524 24.7455 196.996 24.8458 197.495 24.8458C198.064 24.8458 198.592 24.7175 199.077 24.4608C199.567 24.1995 199.975 23.8588 200.302 23.4388L201.345 24.0058C200.906 24.6172 200.353 25.1072 199.686 25.4758C199.019 25.8398 198.288 26.0218 197.495 26.0218ZM205.445 26.0218C204.801 26.0218 204.213 25.8562 203.681 25.5248C203.154 25.1935 202.732 24.7502 202.414 24.1948C202.102 23.6348 201.945 23.0165 201.945 22.3398C201.945 21.8265 202.036 21.3482 202.218 20.9048C202.4 20.4568 202.65 20.0648 202.967 19.7288C203.289 19.3882 203.663 19.1222 204.087 18.9308C204.512 18.7395 204.965 18.6438 205.445 18.6438C206.089 18.6438 206.675 18.8095 207.202 19.1408C207.734 19.4722 208.157 19.9178 208.469 20.4778C208.787 21.0378 208.945 21.6585 208.945 22.3398C208.945 22.8485 208.854 23.3245 208.672 23.7678C208.49 24.2112 208.238 24.6032 207.916 24.9438C207.599 25.2798 207.228 25.5435 206.803 25.7348C206.383 25.9262 205.931 26.0218 205.445 26.0218ZM205.445 24.8458C205.884 24.8458 206.278 24.7315 206.628 24.5028C206.983 24.2695 207.261 23.9638 207.461 23.5858C207.667 23.2032 207.769 22.7878 207.769 22.3398C207.769 21.8825 207.664 21.4625 207.454 21.0798C207.249 20.6972 206.971 20.3915 206.621 20.1628C206.271 19.9342 205.879 19.8198 205.445 19.8198C205.007 19.8198 204.612 19.9365 204.262 20.1698C203.912 20.3985 203.635 20.7042 203.429 21.0868C203.224 21.4695 203.121 21.8872 203.121 22.3398C203.121 22.8065 203.226 23.2312 203.436 23.6138C203.646 23.9918 203.929 24.2928 204.283 24.5168C204.638 24.7362 205.025 24.8458 205.445 24.8458ZM216.291 21.4858V25.8398H215.115V21.7448C215.115 21.3902 215.029 21.0682 214.856 20.7788C214.684 20.4895 214.453 20.2608 214.163 20.0928C213.874 19.9202 213.552 19.8338 213.197 19.8338C212.847 19.8338 212.525 19.9202 212.231 20.0928C211.942 20.2608 211.711 20.4895 211.538 20.7788C211.366 21.0682 211.279 21.3902 211.279 21.7448V25.8398H210.103V18.8398H211.279V19.7148C211.527 19.3882 211.839 19.1292 212.217 18.9378C212.595 18.7418 213.006 18.6438 213.449 18.6438C213.972 18.6438 214.448 18.7722 214.877 19.0288C215.311 19.2808 215.654 19.6215 215.906 20.0508C216.163 20.4802 216.291 20.9585 216.291 21.4858ZM219.826 25.9728C219.448 25.9588 219.08 25.8888 218.72 25.7628C218.366 25.6322 218.053 25.4572 217.782 25.2378C217.516 25.0138 217.323 24.7572 217.201 24.4678L218.209 24.0338C218.279 24.1925 218.405 24.3418 218.587 24.4818C218.769 24.6218 218.979 24.7338 219.217 24.8178C219.455 24.9018 219.696 24.9438 219.938 24.9438C220.195 24.9438 220.435 24.9042 220.659 24.8248C220.883 24.7455 221.065 24.6288 221.205 24.4748C221.35 24.3162 221.422 24.1272 221.422 23.9078C221.422 23.6745 221.343 23.4925 221.184 23.3618C221.03 23.2265 220.834 23.1215 220.596 23.0468C220.363 22.9675 220.125 22.8928 219.882 22.8228C219.402 22.7015 218.972 22.5568 218.594 22.3888C218.216 22.2162 217.918 21.9992 217.698 21.7378C217.484 21.4718 217.376 21.1335 217.376 20.7228C217.376 20.2888 217.495 19.9132 217.733 19.5958C217.976 19.2785 218.293 19.0335 218.685 18.8608C219.077 18.6882 219.497 18.6018 219.945 18.6018C220.51 18.6018 221.026 18.7232 221.492 18.9658C221.959 19.2085 222.307 19.5375 222.535 19.9528L221.59 20.5058C221.511 20.3378 221.39 20.1908 221.226 20.0648C221.063 19.9342 220.876 19.8315 220.666 19.7568C220.456 19.6822 220.242 19.6425 220.022 19.6378C219.752 19.6285 219.497 19.6635 219.259 19.7428C219.026 19.8222 218.837 19.9435 218.692 20.1068C218.552 20.2655 218.482 20.4638 218.482 20.7018C218.482 20.9352 218.557 21.1125 218.706 21.2338C218.86 21.3552 219.059 21.4532 219.301 21.5278C219.549 21.5978 219.817 21.6795 220.106 21.7728C220.531 21.9082 220.928 22.0645 221.296 22.2418C221.665 22.4192 221.961 22.6408 222.185 22.9068C222.414 23.1728 222.526 23.5018 222.521 23.8938C222.521 24.3232 222.393 24.6988 222.136 25.0208C221.88 25.3382 221.546 25.5808 221.135 25.7488C220.729 25.9168 220.293 25.9915 219.826 25.9728ZM226.732 26.0218C226.088 26.0218 225.5 25.8562 224.968 25.5248C224.441 25.1935 224.019 24.7502 223.701 24.1948C223.389 23.6348 223.232 23.0165 223.232 22.3398C223.232 21.8265 223.323 21.3482 223.505 20.9048C223.687 20.4568 223.937 20.0648 224.254 19.7288C224.576 19.3882 224.95 19.1222 225.374 18.9308C225.799 18.7395 226.252 18.6438 226.732 18.6438C227.26 18.6438 227.743 18.7512 228.181 18.9658C228.625 19.1758 229.003 19.4698 229.315 19.8478C229.633 20.2258 229.868 20.6645 230.022 21.1638C230.181 21.6632 230.239 22.1975 230.197 22.7668H224.485C224.541 23.1635 224.672 23.5182 224.877 23.8308C225.083 24.1388 225.344 24.3838 225.661 24.5658C225.983 24.7478 226.34 24.8412 226.732 24.8458C227.152 24.8458 227.533 24.7385 227.873 24.5238C228.214 24.3045 228.489 24.0058 228.699 23.6278L229.896 23.9078C229.616 24.5285 229.194 25.0372 228.629 25.4338C228.065 25.8258 227.432 26.0218 226.732 26.0218ZM224.45 21.8428H229.014C228.977 21.4508 228.851 21.0938 228.636 20.7718C228.422 20.4452 228.149 20.1838 227.817 19.9878C227.486 19.7918 227.124 19.6938 226.732 19.6938C226.34 19.6938 225.981 19.7895 225.654 19.9808C225.328 20.1722 225.057 20.4312 224.842 20.7578C224.632 21.0798 224.502 21.4415 224.45 21.8428ZM236.159 23.9918L237.209 24.5588C236.892 25.0022 236.488 25.3568 235.998 25.6228C235.513 25.8888 234.985 26.0218 234.416 26.0218C233.772 26.0218 233.184 25.8562 232.652 25.5248C232.125 25.1935 231.702 24.7502 231.385 24.1948C231.072 23.6348 230.916 23.0165 230.916 22.3398C230.916 21.8265 231.007 21.3482 231.189 20.9048C231.371 20.4568 231.621 20.0648 231.938 19.7288C232.26 19.3882 232.633 19.1222 233.058 18.9308C233.483 18.7395 233.935 18.6438 234.416 18.6438C234.985 18.6438 235.513 18.7768 235.998 19.0428C236.488 19.3088 236.892 19.6658 237.209 20.1138L236.159 20.6808C235.935 20.4055 235.669 20.1932 235.361 20.0438C235.053 19.8945 234.738 19.8198 234.416 19.8198C233.982 19.8198 233.588 19.9365 233.233 20.1698C232.883 20.3985 232.605 20.7042 232.4 21.0868C232.195 21.4695 232.092 21.8872 232.092 22.3398C232.092 22.7925 232.195 23.2102 232.4 23.5928C232.61 23.9708 232.89 24.2742 233.24 24.5028C233.595 24.7315 233.987 24.8458 234.416 24.8458C234.761 24.8458 235.086 24.7665 235.389 24.6078C235.692 24.4492 235.949 24.2438 236.159 23.9918ZM242.099 20.0158H240.51L240.503 25.8398H239.327L239.334 20.0158H238.13V18.8398H239.334L239.327 16.6418H240.503L240.51 18.8398H242.099V20.0158ZM246.256 26.0218C245.612 26.0218 245.024 25.8562 244.492 25.5248C243.964 25.1935 243.542 24.7502 243.225 24.1948C242.912 23.6348 242.756 23.0165 242.756 22.3398C242.756 21.8265 242.847 21.3482 243.029 20.9048C243.211 20.4568 243.46 20.0648 243.778 19.7288C244.1 19.3882 244.473 19.1222 244.898 18.9308C245.322 18.7395 245.775 18.6438 246.256 18.6438C246.783 18.6438 247.266 18.7512 247.705 18.9658C248.148 19.1758 248.526 19.4698 248.839 19.8478C249.156 20.2258 249.392 20.6645 249.546 21.1638C249.704 21.6632 249.763 22.1975 249.721 22.7668H244.009C244.065 23.1635 244.195 23.5182 244.401 23.8308C244.606 24.1388 244.867 24.3838 245.185 24.5658C245.507 24.7478 245.864 24.8412 246.256 24.8458C246.676 24.8458 247.056 24.7385 247.397 24.5238C247.737 24.3045 248.013 24.0058 248.223 23.6278L249.42 23.9078C249.14 24.5285 248.717 25.0372 248.153 25.4338C247.588 25.8258 246.956 26.0218 246.256 26.0218ZM243.974 21.8428H248.538C248.5 21.4508 248.374 21.0938 248.16 20.7718C247.945 20.4452 247.672 20.1838 247.341 19.9878C247.009 19.7918 246.648 19.6938 246.256 19.6938C245.864 19.6938 245.504 19.7895 245.178 19.9808C244.851 20.1722 244.58 20.4312 244.366 20.7578C244.156 21.0798 244.025 21.4415 243.974 21.8428ZM254.444 20.0158H252.855L252.848 25.8398H251.672L251.679 20.0158H250.475V18.8398H251.679L251.672 16.6418H252.848L252.855 18.8398H254.444V20.0158ZM255.419 23.1798V18.8398H256.595V22.9208C256.595 23.2755 256.682 23.5975 256.854 23.8868C257.027 24.1762 257.258 24.4072 257.547 24.5798C257.841 24.7478 258.163 24.8318 258.513 24.8318C258.868 24.8318 259.188 24.7478 259.472 24.5798C259.762 24.4072 259.993 24.1762 260.165 23.8868C260.338 23.5975 260.424 23.2755 260.424 22.9208V18.8398H261.6L261.607 25.8398H260.431L260.424 24.9508C260.177 25.2775 259.864 25.5388 259.486 25.7348C259.108 25.9262 258.7 26.0218 258.261 26.0218C257.739 26.0218 257.26 25.8958 256.826 25.6438C256.397 25.3872 256.054 25.0442 255.797 24.6148C255.545 24.1855 255.419 23.7072 255.419 23.1798ZM263.014 25.8398V18.8398H264.19V19.7148C264.437 19.3882 264.75 19.1292 265.128 18.9378C265.506 18.7418 265.916 18.6438 266.36 18.6438C266.63 18.6438 266.892 18.6788 267.144 18.7488L266.668 19.9248C266.476 19.8642 266.29 19.8338 266.108 19.8338C265.758 19.8338 265.436 19.9202 265.142 20.0928C264.852 20.2608 264.621 20.4895 264.449 20.7788C264.276 21.0682 264.19 21.3902 264.19 21.7448V25.8398H263.014ZM16.9627 33.0398H18.3837L21.9467 42.8398H20.7007L19.9727 40.8378H15.3737L14.6527 42.8398H13.3997L16.9627 33.0398ZM15.8077 39.6618H19.5387L17.6697 34.5448L15.8077 39.6618ZM28.2834 32.3398H29.4594V42.8398H28.2834V41.6498C28.0454 42.0605 27.7257 42.3918 27.3244 42.6438C26.9231 42.8958 26.4517 43.0218 25.9104 43.0218C25.4017 43.0218 24.9257 42.9262 24.4824 42.7348C24.0391 42.5435 23.6471 42.2798 23.3064 41.9438C22.9704 41.6032 22.7067 41.2112 22.5154 40.7678C22.3241 40.3245 22.2284 39.8485 22.2284 39.3398C22.2284 38.8312 22.3241 38.3552 22.5154 37.9118C22.7067 37.4638 22.9704 37.0718 23.3064 36.7358C23.6471 36.3952 24.0391 36.1292 24.4824 35.9378C24.9257 35.7465 25.4017 35.6508 25.9104 35.6508C26.4517 35.6508 26.9231 35.7768 27.3244 36.0288C27.7257 36.2808 28.0454 36.6122 28.2834 37.0228V32.3398ZM25.9244 41.8808C26.3864 41.8808 26.7854 41.7688 27.1214 41.5448C27.4621 41.3162 27.7234 41.0082 27.9054 40.6208C28.0921 40.2335 28.1854 39.8065 28.1854 39.3398C28.1854 38.8638 28.0921 38.4345 27.9054 38.0518C27.7187 37.6645 27.4551 37.3588 27.1144 37.1348C26.7784 36.9062 26.3817 36.7918 25.9244 36.7918C25.4624 36.7918 25.0424 36.9062 24.6644 37.1348C24.2911 37.3635 23.9924 37.6715 23.7684 38.0588C23.5444 38.4415 23.4324 38.8685 23.4324 39.3398C23.4324 39.8112 23.5467 40.2405 23.7754 40.6278C24.0041 41.0105 24.3074 41.3162 24.6854 41.5448C25.0634 41.7688 25.4764 41.8808 25.9244 41.8808ZM31.1386 35.8398H32.3146V42.8398H31.1386V35.8398ZM31.7406 34.6988C31.554 34.6988 31.3976 34.6382 31.2716 34.5168C31.1456 34.3955 31.0826 34.2438 31.0826 34.0618C31.0826 33.8798 31.1456 33.7282 31.2716 33.6068C31.3976 33.4855 31.5516 33.4248 31.7336 33.4248C31.9156 33.4248 32.0696 33.4855 32.1956 33.6068C32.3216 33.7282 32.3846 33.8798 32.3846 34.0618C32.3846 34.2438 32.3216 34.3955 32.1956 34.5168C32.0743 34.6382 31.9226 34.6988 31.7406 34.6988ZM35.1037 46.3398H33.9277V35.8398H35.1037V37.0368C35.3417 36.6262 35.659 36.2948 36.0557 36.0428C36.4524 35.7862 36.9237 35.6578 37.4697 35.6578C37.9784 35.6578 38.4544 35.7535 38.8977 35.9448C39.3457 36.1362 39.7377 36.4022 40.0737 36.7428C40.4097 37.0788 40.6734 37.4685 40.8647 37.9118C41.056 38.3552 41.1517 38.8312 41.1517 39.3398C41.1517 39.8485 41.056 40.3268 40.8647 40.7748C40.6734 41.2228 40.4097 41.6172 40.0737 41.9578C39.7377 42.2938 39.3457 42.5575 38.8977 42.7488C38.4544 42.9402 37.9784 43.0358 37.4697 43.0358C36.9237 43.0358 36.4524 42.9098 36.0557 42.6578C35.659 42.4012 35.3417 42.0675 35.1037 41.6568V46.3398ZM37.4557 36.7988C37.003 36.7988 36.6064 36.9132 36.2657 37.1418C35.925 37.3705 35.6614 37.6762 35.4747 38.0588C35.2927 38.4415 35.2017 38.8685 35.2017 39.3398C35.2017 39.8065 35.2927 40.2335 35.4747 40.6208C35.6614 41.0082 35.9227 41.3162 36.2587 41.5448C36.5994 41.7735 36.9984 41.8878 37.4557 41.8878C37.9084 41.8878 38.3237 41.7758 38.7017 41.5518C39.0797 41.3232 39.383 41.0175 39.6117 40.6348C39.8404 40.2475 39.9547 39.8158 39.9547 39.3398C39.9547 38.8732 39.8427 38.4485 39.6187 38.0658C39.3947 37.6785 39.0937 37.3705 38.7157 37.1418C38.3377 36.9132 37.9177 36.7988 37.4557 36.7988ZM42.2265 35.8398H43.4025V42.8398H42.2265V35.8398ZM42.8285 34.6988C42.6419 34.6988 42.4855 34.6382 42.3595 34.5168C42.2335 34.3955 42.1705 34.2438 42.1705 34.0618C42.1705 33.8798 42.2335 33.7282 42.3595 33.6068C42.4855 33.4855 42.6395 33.4248 42.8215 33.4248C43.0035 33.4248 43.1575 33.4855 43.2835 33.6068C43.4095 33.7282 43.4725 33.8798 43.4725 34.0618C43.4725 34.2438 43.4095 34.3955 43.2835 34.5168C43.1622 34.6382 43.0105 34.6988 42.8285 34.6988ZM47.1506 42.9728C46.7726 42.9588 46.4039 42.8888 46.0446 42.7628C45.6899 42.6322 45.3773 42.4572 45.1066 42.2378C44.8406 42.0138 44.6469 41.7572 44.5256 41.4678L45.5336 41.0338C45.6036 41.1925 45.7296 41.3418 45.9116 41.4818C46.0936 41.6218 46.3036 41.7338 46.5416 41.8178C46.7796 41.9018 47.0199 41.9438 47.2626 41.9438C47.5193 41.9438 47.7596 41.9042 47.9836 41.8248C48.2076 41.7455 48.3896 41.6288 48.5296 41.4748C48.6743 41.3162 48.7466 41.1272 48.7466 40.9078C48.7466 40.6745 48.6673 40.4925 48.5086 40.3618C48.3546 40.2265 48.1586 40.1215 47.9206 40.0468C47.6873 39.9675 47.4493 39.8928 47.2066 39.8228C46.7259 39.7015 46.2966 39.5568 45.9186 39.3888C45.5406 39.2162 45.2419 38.9992 45.0226 38.7378C44.8079 38.4718 44.7006 38.1335 44.7006 37.7228C44.7006 37.2888 44.8196 36.9132 45.0576 36.5958C45.3003 36.2785 45.6176 36.0335 46.0096 35.8608C46.4016 35.6882 46.8216 35.6018 47.2696 35.6018C47.8343 35.6018 48.3499 35.7232 48.8166 35.9658C49.2833 36.2085 49.6309 36.5375 49.8596 36.9528L48.9146 37.5058C48.8353 37.3378 48.7139 37.1908 48.5506 37.0648C48.3873 36.9342 48.2006 36.8315 47.9906 36.7568C47.7806 36.6822 47.5659 36.6425 47.3466 36.6378C47.0759 36.6285 46.8216 36.6635 46.5836 36.7428C46.3503 36.8222 46.1613 36.9435 46.0166 37.1068C45.8766 37.2655 45.8066 37.4638 45.8066 37.7018C45.8066 37.9352 45.8813 38.1125 46.0306 38.2338C46.1846 38.3552 46.3829 38.4532 46.6256 38.5278C46.8729 38.5978 47.1413 38.6795 47.4306 38.7728C47.8553 38.9082 48.2519 39.0645 48.6206 39.2418C48.9893 39.4192 49.2856 39.6408 49.5096 39.9068C49.7383 40.1728 49.8503 40.5018 49.8456 40.8938C49.8456 41.3232 49.7173 41.6988 49.4606 42.0208C49.2039 42.3382 48.8703 42.5808 48.4596 42.7488C48.0536 42.9168 47.6173 42.9915 47.1506 42.9728ZM55.7995 40.9918L56.8495 41.5588C56.5322 42.0022 56.1285 42.3568 55.6385 42.6228C55.1532 42.8888 54.6259 43.0218 54.0565 43.0218C53.4125 43.0218 52.8245 42.8562 52.2925 42.5248C51.7652 42.1935 51.3429 41.7502 51.0255 41.1948C50.7129 40.6348 50.5565 40.0165 50.5565 39.3398C50.5565 38.8265 50.6475 38.3482 50.8295 37.9048C51.0115 37.4568 51.2612 37.0648 51.5785 36.7288C51.9005 36.3882 52.2739 36.1222 52.6985 35.9308C53.1232 35.7395 53.5759 35.6438 54.0565 35.6438C54.6259 35.6438 55.1532 35.7768 55.6385 36.0428C56.1285 36.3088 56.5322 36.6658 56.8495 37.1138L55.7995 37.6808C55.5755 37.4055 55.3095 37.1932 55.0015 37.0438C54.6935 36.8945 54.3785 36.8198 54.0565 36.8198C53.6225 36.8198 53.2282 36.9365 52.8735 37.1698C52.5235 37.3985 52.2459 37.7042 52.0405 38.0868C51.8352 38.4695 51.7325 38.8872 51.7325 39.3398C51.7325 39.7925 51.8352 40.2102 52.0405 40.5928C52.2505 40.9708 52.5305 41.2742 52.8805 41.5028C53.2352 41.7315 53.6272 41.8458 54.0565 41.8458C54.4019 41.8458 54.7262 41.7665 55.0295 41.6078C55.3329 41.4492 55.5895 41.2438 55.7995 40.9918ZM57.9492 35.8398H59.1252V42.8398H57.9492V35.8398ZM58.5512 34.6988C58.3645 34.6988 58.2082 34.6382 58.0822 34.5168C57.9562 34.3955 57.8932 34.2438 57.8932 34.0618C57.8932 33.8798 57.9562 33.7282 58.0822 33.6068C58.2082 33.4855 58.3622 33.4248 58.5442 33.4248C58.7262 33.4248 58.8802 33.4855 59.0062 33.6068C59.1322 33.7282 59.1952 33.8798 59.1952 34.0618C59.1952 34.2438 59.1322 34.3955 59.0062 34.5168C58.8849 34.6382 58.7332 34.6988 58.5512 34.6988ZM66.9536 38.4858V42.8398H65.7776V38.7448C65.7776 38.3902 65.6913 38.0682 65.5186 37.7788C65.3459 37.4895 65.1149 37.2608 64.8256 37.0928C64.5363 36.9202 64.2143 36.8338 63.8596 36.8338C63.5096 36.8338 63.1876 36.9202 62.8936 37.0928C62.6043 37.2608 62.3733 37.4895 62.2006 37.7788C62.0279 38.0682 61.9416 38.3902 61.9416 38.7448V42.8398H60.7656V35.8398H61.9416V36.7148C62.1889 36.3882 62.5016 36.1292 62.8796 35.9378C63.2576 35.7418 63.6683 35.6438 64.1116 35.6438C64.6343 35.6438 65.1103 35.7722 65.5396 36.0288C65.9736 36.2808 66.3166 36.6215 66.5686 37.0508C66.8253 37.4802 66.9536 37.9585 66.9536 38.4858ZM73.6838 35.8398H74.8598V43.0638C74.8598 43.5258 74.7594 43.9552 74.5588 44.3518C74.3628 44.7532 74.0968 45.1008 73.7608 45.3948C73.4248 45.6935 73.0421 45.9245 72.6128 46.0878C72.1834 46.2558 71.7354 46.3398 71.2688 46.3398C70.7834 46.3398 70.3144 46.2302 69.8618 46.0108C69.4091 45.7962 69.0124 45.5068 68.6718 45.1428C68.3358 44.7835 68.0931 44.3798 67.9438 43.9318L69.0218 43.4418C69.1104 43.7638 69.2691 44.0532 69.4978 44.3098C69.7311 44.5712 70.0018 44.7765 70.3098 44.9258C70.6224 45.0798 70.9421 45.1568 71.2688 45.1568C71.5768 45.1568 71.8731 45.1032 72.1578 44.9958C72.4471 44.8885 72.7061 44.7392 72.9348 44.5478C73.1681 44.3612 73.3501 44.1395 73.4808 43.8828C73.6161 43.6308 73.6838 43.3578 73.6838 43.0638V41.6708C73.4458 42.0722 73.1308 42.3988 72.7388 42.6508C72.3514 42.8982 71.8988 43.0218 71.3808 43.0218C70.8861 43.0218 70.4218 42.9262 69.9878 42.7348C69.5538 42.5435 69.1734 42.2798 68.8468 41.9438C68.5201 41.6032 68.2634 41.2112 68.0768 40.7678C67.8901 40.3245 67.7968 39.8485 67.7968 39.3398C67.7968 38.8312 67.8901 38.3552 68.0768 37.9118C68.2634 37.4638 68.5201 37.0718 68.8468 36.7358C69.1734 36.3952 69.5538 36.1292 69.9878 35.9378C70.4218 35.7465 70.8861 35.6508 71.3808 35.6508C71.8988 35.6508 72.3514 35.7745 72.7388 36.0218C73.1308 36.2692 73.4458 36.5958 73.6838 37.0018V35.8398ZM71.3878 41.8808C71.8404 41.8808 72.2324 41.7642 72.5638 41.5308C72.8998 41.2975 73.1588 40.9872 73.3408 40.5998C73.5228 40.2125 73.6138 39.7925 73.6138 39.3398C73.6138 38.8732 73.5204 38.4485 73.3338 38.0658C73.1518 37.6785 72.8928 37.3705 72.5568 37.1418C72.2254 36.9085 71.8358 36.7918 71.3878 36.7918C70.9491 36.7918 70.5478 36.9062 70.1838 37.1348C69.8198 37.3635 69.5304 37.6715 69.3158 38.0588C69.1058 38.4415 69.0008 38.8685 69.0008 39.3398C69.0008 39.8112 69.1081 40.2405 69.3228 40.6278C69.5421 41.0105 69.8314 41.3162 70.1908 41.5448C70.5548 41.7688 70.9538 41.8808 71.3878 41.8808ZM79.9062 42.8398V33.0398H85.9192V34.2158H81.0822V37.0018H85.0442V38.1778H81.0822V41.6638H85.9192V42.8398H79.9062ZM87.5351 42.8398V32.3398H88.7111V42.8398H87.5351ZM90.3926 35.8398H91.5686V42.8398H90.3926V35.8398ZM90.9946 34.6988C90.8079 34.6988 90.6516 34.6382 90.5256 34.5168C90.3996 34.3955 90.3366 34.2438 90.3366 34.0618C90.3366 33.8798 90.3996 33.7282 90.5256 33.6068C90.6516 33.4855 90.8056 33.4248 90.9876 33.4248C91.1696 33.4248 91.3236 33.4855 91.4496 33.6068C91.5756 33.7282 91.6386 33.8798 91.6386 34.0618C91.6386 34.2438 91.5756 34.3955 91.4496 34.5168C91.3282 34.6382 91.1766 34.6988 90.9946 34.6988ZM96.876 37.0158H95.287L95.28 42.8398H94.104L94.111 37.0158H92.907V35.8398H94.111L94.104 33.6418H95.28L95.287 35.8398H96.876V37.0158ZM97.7141 43.6238L98.1481 41.2578H99.3241L98.4981 43.6238H97.7141ZM107.816 43.0218C107.289 43.0218 106.78 42.9402 106.29 42.7768C105.8 42.6088 105.371 42.3708 105.002 42.0628C104.638 41.7548 104.379 41.3885 104.225 40.9638L105.324 40.5508C105.418 40.8122 105.59 41.0408 105.842 41.2368C106.099 41.4282 106.4 41.5775 106.745 41.6848C107.091 41.7922 107.448 41.8458 107.816 41.8458C108.236 41.8458 108.626 41.7782 108.985 41.6428C109.349 41.5028 109.643 41.3092 109.867 41.0618C110.091 40.8145 110.203 40.5252 110.203 40.1938C110.203 39.8532 110.087 39.5755 109.853 39.3608C109.62 39.1415 109.321 38.9688 108.957 38.8428C108.593 38.7122 108.213 38.6118 107.816 38.5418C107.14 38.4298 106.533 38.2712 105.996 38.0658C105.464 37.8558 105.042 37.5642 104.729 37.1908C104.421 36.8175 104.267 36.3252 104.267 35.7138C104.267 35.1445 104.431 34.6475 104.757 34.2228C105.089 33.7982 105.525 33.4692 106.066 33.2358C106.608 33.0025 107.191 32.8858 107.816 32.8858C108.334 32.8858 108.836 32.9675 109.321 33.1308C109.811 33.2895 110.243 33.5228 110.616 33.8308C110.99 34.1388 111.258 34.5145 111.421 34.9578L110.308 35.3638C110.215 35.0978 110.04 34.8692 109.783 34.6778C109.531 34.4818 109.233 34.3325 108.887 34.2298C108.547 34.1225 108.19 34.0688 107.816 34.0688C107.401 34.0642 107.014 34.1318 106.654 34.2718C106.295 34.4118 106.003 34.6055 105.779 34.8528C105.555 35.1002 105.443 35.3872 105.443 35.7138C105.443 36.1058 105.546 36.4068 105.751 36.6168C105.961 36.8222 106.246 36.9762 106.605 37.0788C106.965 37.1815 107.368 37.2725 107.816 37.3518C108.451 37.4592 109.039 37.6295 109.58 37.8628C110.122 38.0915 110.556 38.3972 110.882 38.7798C111.214 39.1625 111.379 39.6338 111.379 40.1938C111.379 40.7632 111.214 41.2602 110.882 41.6848C110.556 42.1095 110.122 42.4385 109.58 42.6718C109.039 42.9052 108.451 43.0218 107.816 43.0218ZM115.922 43.0218C115.278 43.0218 114.69 42.8562 114.158 42.5248C113.63 42.1935 113.208 41.7502 112.891 41.1948C112.578 40.6348 112.422 40.0165 112.422 39.3398C112.422 38.8265 112.513 38.3482 112.695 37.9048C112.877 37.4568 113.126 37.0648 113.444 36.7288C113.766 36.3882 114.139 36.1222 114.564 35.9308C114.988 35.7395 115.441 35.6438 115.922 35.6438C116.449 35.6438 116.932 35.7512 117.371 35.9658C117.814 36.1758 118.192 36.4698 118.505 36.8478C118.822 37.2258 119.058 37.6645 119.212 38.1638C119.37 38.6632 119.429 39.1975 119.387 39.7668H113.675C113.731 40.1635 113.861 40.5182 114.067 40.8308C114.272 41.1388 114.533 41.3838 114.851 41.5658C115.173 41.7478 115.53 41.8412 115.922 41.8458C116.342 41.8458 116.722 41.7385 117.063 41.5238C117.403 41.3045 117.679 41.0058 117.889 40.6278L119.086 40.9078C118.806 41.5285 118.383 42.0372 117.819 42.4338C117.254 42.8258 116.622 43.0218 115.922 43.0218ZM113.64 38.8428H118.204C118.166 38.4508 118.04 38.0938 117.826 37.7718C117.611 37.4452 117.338 37.1838 117.007 36.9878C116.675 36.7918 116.314 36.6938 115.922 36.6938C115.53 36.6938 115.17 36.7895 114.844 36.9808C114.517 37.1722 114.246 37.4312 114.032 37.7578C113.822 38.0798 113.691 38.4415 113.64 38.8428ZM126.16 32.3398H127.336V42.8398H126.16V41.6498C125.922 42.0605 125.603 42.3918 125.201 42.6438C124.8 42.8958 124.329 43.0218 123.787 43.0218C123.279 43.0218 122.803 42.9262 122.359 42.7348C121.916 42.5435 121.524 42.2798 121.183 41.9438C120.847 41.6032 120.584 41.2112 120.392 40.7678C120.201 40.3245 120.105 39.8485 120.105 39.3398C120.105 38.8312 120.201 38.3552 120.392 37.9118C120.584 37.4638 120.847 37.0718 121.183 36.7358C121.524 36.3952 121.916 36.1292 122.359 35.9378C122.803 35.7465 123.279 35.6508 123.787 35.6508C124.329 35.6508 124.8 35.7768 125.201 36.0288C125.603 36.2808 125.922 36.6122 126.16 37.0228V32.3398ZM123.801 41.8808C124.263 41.8808 124.662 41.7688 124.998 41.5448C125.339 41.3162 125.6 41.0082 125.782 40.6208C125.969 40.2335 126.062 39.8065 126.062 39.3398C126.062 38.8638 125.969 38.4345 125.782 38.0518C125.596 37.6645 125.332 37.3588 124.991 37.1348C124.655 36.9062 124.259 36.7918 123.801 36.7918C123.339 36.7918 122.919 36.9062 122.541 37.1348C122.168 37.3635 121.869 37.6715 121.645 38.0588C121.421 38.4415 121.309 38.8685 121.309 39.3398C121.309 39.8112 121.424 40.2405 121.652 40.6278C121.881 41.0105 122.184 41.3162 122.562 41.5448C122.94 41.7688 123.353 41.8808 123.801 41.8808ZM132.379 42.8398V33.0398H135.62C136.297 33.0398 136.931 33.1682 137.524 33.4248C138.117 33.6768 138.637 34.0292 139.085 34.4818C139.533 34.9298 139.883 35.4502 140.135 36.0428C140.392 36.6308 140.52 37.2632 140.52 37.9398C140.52 38.6165 140.392 39.2512 140.135 39.8438C139.883 40.4318 139.533 40.9522 139.085 41.4048C138.637 41.8528 138.117 42.2052 137.524 42.4618C136.931 42.7138 136.297 42.8398 135.62 42.8398H132.379ZM133.555 41.6638H135.62C136.133 41.6638 136.614 41.5682 137.062 41.3768C137.515 41.1808 137.911 40.9125 138.252 40.5718C138.593 40.2312 138.859 39.8368 139.05 39.3888C139.246 38.9362 139.344 38.4532 139.344 37.9398C139.344 37.4265 139.246 36.9458 139.05 36.4978C138.859 36.0452 138.59 35.6485 138.245 35.3078C137.904 34.9672 137.51 34.7012 137.062 34.5098C136.614 34.3138 136.133 34.2158 135.62 34.2158H133.555V41.6638ZM144.742 43.0218C144.098 43.0218 143.51 42.8562 142.978 42.5248C142.451 42.1935 142.028 41.7502 141.711 41.1948C141.398 40.6348 141.242 40.0165 141.242 39.3398C141.242 38.8265 141.333 38.3482 141.515 37.9048C141.697 37.4568 141.947 37.0648 142.264 36.7288C142.586 36.3882 142.959 36.1222 143.384 35.9308C143.809 35.7395 144.261 35.6438 144.742 35.6438C145.386 35.6438 145.972 35.8095 146.499 36.1408C147.031 36.4722 147.453 36.9178 147.766 37.4778C148.083 38.0378 148.242 38.6585 148.242 39.3398C148.242 39.8485 148.151 40.3245 147.969 40.7678C147.787 41.2112 147.535 41.6032 147.213 41.9438C146.896 42.2798 146.525 42.5435 146.1 42.7348C145.68 42.9262 145.227 43.0218 144.742 43.0218ZM144.742 41.8458C145.181 41.8458 145.575 41.7315 145.925 41.5028C146.28 41.2695 146.557 40.9638 146.758 40.5858C146.963 40.2032 147.066 39.7878 147.066 39.3398C147.066 38.8825 146.961 38.4625 146.751 38.0798C146.546 37.6972 146.268 37.3915 145.918 37.1628C145.568 36.9342 145.176 36.8198 144.742 36.8198C144.303 36.8198 143.909 36.9365 143.559 37.1698C143.209 37.3985 142.931 37.7042 142.726 38.0868C142.521 38.4695 142.418 38.8872 142.418 39.3398C142.418 39.8065 142.523 40.2312 142.733 40.6138C142.943 40.9918 143.225 41.2928 143.58 41.5168C143.935 41.7362 144.322 41.8458 144.742 41.8458ZM152.859 42.8398V33.0398H158.872V34.2158H154.035V37.0018H157.997V38.1778H154.035V41.6638H158.872V42.8398H152.859ZM160.406 35.8398H161.582V42.8398H160.406V35.8398ZM161.008 34.6988C160.822 34.6988 160.665 34.6382 160.539 34.5168C160.413 34.3955 160.35 34.2438 160.35 34.0618C160.35 33.8798 160.413 33.7282 160.539 33.6068C160.665 33.4855 160.819 33.4248 161.001 33.4248C161.183 33.4248 161.337 33.4855 161.463 33.6068C161.589 33.7282 161.652 33.8798 161.652 34.0618C161.652 34.2438 161.589 34.3955 161.463 34.5168C161.342 34.6382 161.19 34.6988 161.008 34.6988ZM162.984 40.1798V35.8398H164.16V39.9208C164.16 40.2755 164.246 40.5975 164.419 40.8868C164.591 41.1762 164.822 41.4072 165.112 41.5798C165.406 41.7478 165.728 41.8318 166.078 41.8318C166.432 41.8318 166.752 41.7478 167.037 41.5798C167.326 41.4072 167.557 41.1762 167.73 40.8868C167.902 40.5975 167.989 40.2755 167.989 39.9208V35.8398H169.165L169.172 42.8398H167.996L167.989 41.9508C167.741 42.2775 167.429 42.5388 167.051 42.7348C166.673 42.9262 166.264 43.0218 165.826 43.0218C165.303 43.0218 164.825 42.8958 164.391 42.6438C163.961 42.3872 163.618 42.0442 163.362 41.6148C163.11 41.1855 162.984 40.7072 162.984 40.1798ZM172.713 42.9728C172.335 42.9588 171.966 42.8888 171.607 42.7628C171.252 42.6322 170.94 42.4572 170.669 42.2378C170.403 42.0138 170.209 41.7572 170.088 41.4678L171.096 41.0338C171.166 41.1925 171.292 41.3418 171.474 41.4818C171.656 41.6218 171.866 41.7338 172.104 41.8178C172.342 41.9018 172.582 41.9438 172.825 41.9438C173.082 41.9438 173.322 41.9042 173.546 41.8248C173.77 41.7455 173.952 41.6288 174.092 41.4748C174.237 41.3162 174.309 41.1272 174.309 40.9078C174.309 40.6745 174.23 40.4925 174.071 40.3618C173.917 40.2265 173.721 40.1215 173.483 40.0468C173.25 39.9675 173.012 39.8928 172.769 39.8228C172.288 39.7015 171.859 39.5568 171.481 39.3888C171.103 39.2162 170.804 38.9992 170.585 38.7378C170.37 38.4718 170.263 38.1335 170.263 37.7228C170.263 37.2888 170.382 36.9132 170.62 36.5958C170.863 36.2785 171.18 36.0335 171.572 35.8608C171.964 35.6882 172.384 35.6018 172.832 35.6018C173.397 35.6018 173.912 35.7232 174.379 35.9658C174.846 36.2085 175.193 36.5375 175.422 36.9528L174.477 37.5058C174.398 37.3378 174.276 37.1908 174.113 37.0648C173.95 36.9342 173.763 36.8315 173.553 36.7568C173.343 36.6822 173.128 36.6425 172.909 36.6378C172.638 36.6285 172.384 36.6635 172.146 36.7428C171.913 36.8222 171.724 36.9435 171.579 37.1068C171.439 37.2655 171.369 37.4638 171.369 37.7018C171.369 37.9352 171.444 38.1125 171.593 38.2338C171.747 38.3552 171.945 38.4532 172.188 38.5278C172.435 38.5978 172.704 38.6795 172.993 38.7728C173.418 38.9082 173.814 39.0645 174.183 39.2418C174.552 39.4192 174.848 39.6408 175.072 39.9068C175.301 40.1728 175.413 40.5018 175.408 40.8938C175.408 41.3232 175.28 41.6988 175.023 42.0208C174.766 42.3382 174.433 42.5808 174.022 42.7488C173.616 42.9168 173.18 42.9915 172.713 42.9728ZM176.607 42.8398V35.8398H177.783V36.7148C178.031 36.3882 178.341 36.1292 178.714 35.9378C179.092 35.7418 179.503 35.6438 179.946 35.6438C180.464 35.6438 180.938 35.7698 181.367 36.0218C181.797 36.2738 182.135 36.6075 182.382 37.0228C182.63 36.6075 182.966 36.2738 183.39 36.0218C183.82 35.7698 184.291 35.6438 184.804 35.6438C185.332 35.6438 185.81 35.7722 186.239 36.0288C186.669 36.2808 187.009 36.6215 187.261 37.0508C187.518 37.4802 187.646 37.9585 187.646 38.4858V42.8398H186.47V38.7658C186.47 38.4205 186.386 38.1008 186.218 37.8068C186.05 37.5128 185.824 37.2772 185.539 37.0998C185.255 36.9225 184.94 36.8338 184.594 36.8338C184.249 36.8338 183.934 36.9178 183.649 37.0858C183.365 37.2492 183.138 37.4778 182.97 37.7718C182.802 38.0612 182.718 38.3925 182.718 38.7658V42.8398H181.542V38.7658C181.542 38.3925 181.458 38.0612 181.29 37.7718C181.122 37.4778 180.894 37.2492 180.604 37.0858C180.32 36.9178 180.005 36.8338 179.659 36.8338C179.319 36.8338 179.004 36.9225 178.714 37.0998C178.43 37.2772 178.203 37.5128 178.035 37.8068C177.867 38.1008 177.783 38.4205 177.783 38.7658V42.8398H176.607ZM191.992 43.0218C191.348 43.0218 190.76 42.8562 190.228 42.5248C189.701 42.1935 189.278 41.7502 188.961 41.1948C188.648 40.6348 188.492 40.0165 188.492 39.3398C188.492 38.8265 188.583 38.3482 188.765 37.9048C188.947 37.4568 189.197 37.0648 189.514 36.7288C189.836 36.3882 190.209 36.1222 190.634 35.9308C191.059 35.7395 191.511 35.6438 191.992 35.6438C192.636 35.6438 193.222 35.8095 193.749 36.1408C194.281 36.4722 194.703 36.9178 195.016 37.4778C195.333 38.0378 195.492 38.6585 195.492 39.3398C195.492 39.8485 195.401 40.3245 195.219 40.7678C195.037 41.2112 194.785 41.6032 194.463 41.9438C194.146 42.2798 193.775 42.5435 193.35 42.7348C192.93 42.9262 192.477 43.0218 191.992 43.0218ZM191.992 41.8458C192.431 41.8458 192.825 41.7315 193.175 41.5028C193.53 41.2695 193.807 40.9638 194.008 40.5858C194.213 40.2032 194.316 39.7878 194.316 39.3398C194.316 38.8825 194.211 38.4625 194.001 38.0798C193.796 37.6972 193.518 37.3915 193.168 37.1628C192.818 36.9342 192.426 36.8198 191.992 36.8198C191.553 36.8198 191.159 36.9365 190.809 37.1698C190.459 37.3985 190.181 37.7042 189.976 38.0868C189.771 38.4695 189.668 38.8872 189.668 39.3398C189.668 39.8065 189.773 40.2312 189.983 40.6138C190.193 40.9918 190.475 41.2928 190.83 41.5168C191.185 41.7362 191.572 41.8458 191.992 41.8458ZM202.244 32.3398H203.42V42.8398H202.244V41.6498C202.006 42.0605 201.687 42.3918 201.285 42.6438C200.884 42.8958 200.413 43.0218 199.871 43.0218C199.363 43.0218 198.887 42.9262 198.443 42.7348C198 42.5435 197.608 42.2798 197.267 41.9438C196.931 41.6032 196.668 41.2112 196.476 40.7678C196.285 40.3245 196.189 39.8485 196.189 39.3398C196.189 38.8312 196.285 38.3552 196.476 37.9118C196.668 37.4638 196.931 37.0718 197.267 36.7358C197.608 36.3952 198 36.1292 198.443 35.9378C198.887 35.7465 199.363 35.6508 199.871 35.6508C200.413 35.6508 200.884 35.7768 201.285 36.0288C201.687 36.2808 202.006 36.6122 202.244 37.0228V32.3398ZM199.885 41.8808C200.347 41.8808 200.746 41.7688 201.082 41.5448C201.423 41.3162 201.684 41.0082 201.866 40.6208C202.053 40.2335 202.146 39.8065 202.146 39.3398C202.146 38.8638 202.053 38.4345 201.866 38.0518C201.68 37.6645 201.416 37.3588 201.075 37.1348C200.739 36.9062 200.343 36.7918 199.885 36.7918C199.423 36.7918 199.003 36.9062 198.625 37.1348C198.252 37.3635 197.953 37.6715 197.729 38.0588C197.505 38.4415 197.393 38.8685 197.393 39.3398C197.393 39.8112 197.508 40.2405 197.736 40.6278C197.965 41.0105 198.268 41.3162 198.646 41.5448C199.024 41.7688 199.437 41.8808 199.885 41.8808ZM215.876 33.0398V34.2158H212.614V42.8398H211.438V34.2158H208.183V33.0398H215.876ZM219.281 43.0218C218.637 43.0218 218.049 42.8562 217.517 42.5248C216.99 42.1935 216.567 41.7502 216.25 41.1948C215.937 40.6348 215.781 40.0165 215.781 39.3398C215.781 38.8265 215.872 38.3482 216.054 37.9048C216.236 37.4568 216.486 37.0648 216.803 36.7288C217.125 36.3882 217.498 36.1222 217.923 35.9308C218.348 35.7395 218.8 35.6438 219.281 35.6438C219.808 35.6438 220.291 35.7512 220.73 35.9658C221.173 36.1758 221.551 36.4698 221.864 36.8478C222.181 37.2258 222.417 37.6645 222.571 38.1638C222.73 38.6632 222.788 39.1975 222.746 39.7668H217.034C217.09 40.1635 217.221 40.5182 217.426 40.8308C217.631 41.1388 217.893 41.3838 218.21 41.5658C218.532 41.7478 218.889 41.8412 219.281 41.8458C219.701 41.8458 220.081 41.7385 220.422 41.5238C220.763 41.3045 221.038 41.0058 221.248 40.6278L222.445 40.9078C222.165 41.5285 221.743 42.0372 221.178 42.4338C220.613 42.8258 219.981 43.0218 219.281 43.0218ZM216.999 38.8428H221.563C221.526 38.4508 221.4 38.0938 221.185 37.7718C220.97 37.4452 220.697 37.1838 220.366 36.9878C220.035 36.7918 219.673 36.6938 219.281 36.6938C218.889 36.6938 218.53 36.7895 218.203 36.9808C217.876 37.1722 217.606 37.4312 217.391 37.7578C217.181 38.0798 217.05 38.4415 216.999 38.8428ZM223.926 42.8398V35.8398H225.102V36.7148C225.349 36.3882 225.659 36.1292 226.033 35.9378C226.411 35.7418 226.821 35.6438 227.265 35.6438C227.783 35.6438 228.256 35.7698 228.686 36.0218C229.115 36.2738 229.453 36.6075 229.701 37.0228C229.948 36.6075 230.284 36.2738 230.709 36.0218C231.138 35.7698 231.609 35.6438 232.123 35.6438C232.65 35.6438 233.128 35.7722 233.558 36.0288C233.987 36.2808 234.328 36.6215 234.58 37.0508C234.836 37.4802 234.965 37.9585 234.965 38.4858V42.8398H233.789V38.7658C233.789 38.4205 233.705 38.1008 233.537 37.8068C233.369 37.5128 233.142 37.2772 232.858 37.0998C232.573 36.9225 232.258 36.8338 231.913 36.8338C231.567 36.8338 231.252 36.9178 230.968 37.0858C230.683 37.2492 230.457 37.4778 230.289 37.7718C230.121 38.0612 230.037 38.3925 230.037 38.7658V42.8398H228.861V38.7658C228.861 38.3925 228.777 38.0612 228.609 37.7718C228.441 37.4778 228.212 37.2492 227.923 37.0858C227.638 36.9178 227.323 36.8338 226.978 36.8338C226.637 36.8338 226.322 36.9225 226.033 37.0998C225.748 37.2772 225.522 37.5128 225.354 37.8068C225.186 38.1008 225.102 38.4205 225.102 38.7658V42.8398H223.926ZM237.543 46.3398H236.367V35.8398H237.543V37.0368C237.781 36.6262 238.098 36.2948 238.495 36.0428C238.892 35.7862 239.363 35.6578 239.909 35.6578C240.418 35.6578 240.894 35.7535 241.337 35.9448C241.785 36.1362 242.177 36.4022 242.513 36.7428C242.849 37.0788 243.113 37.4685 243.304 37.9118C243.495 38.3552 243.591 38.8312 243.591 39.3398C243.591 39.8485 243.495 40.3268 243.304 40.7748C243.113 41.2228 242.849 41.6172 242.513 41.9578C242.177 42.2938 241.785 42.5575 241.337 42.7488C240.894 42.9402 240.418 43.0358 239.909 43.0358C239.363 43.0358 238.892 42.9098 238.495 42.6578C238.098 42.4012 237.781 42.0675 237.543 41.6568V46.3398ZM239.895 36.7988C239.442 36.7988 239.046 36.9132 238.705 37.1418C238.364 37.3705 238.101 37.6762 237.914 38.0588C237.732 38.4415 237.641 38.8685 237.641 39.3398C237.641 39.8065 237.732 40.2335 237.914 40.6208C238.101 41.0082 238.362 41.3162 238.698 41.5448C239.039 41.7735 239.438 41.8878 239.895 41.8878C240.348 41.8878 240.763 41.7758 241.141 41.5518C241.519 41.3232 241.822 41.0175 242.051 40.6348C242.28 40.2475 242.394 39.8158 242.394 39.3398C242.394 38.8732 242.282 38.4485 242.058 38.0658C241.834 37.6785 241.533 37.3705 241.155 37.1418C240.777 36.9132 240.357 36.7988 239.895 36.7988ZM247.801 43.0218C247.157 43.0218 246.569 42.8562 246.037 42.5248C245.509 42.1935 245.087 41.7502 244.77 41.1948C244.457 40.6348 244.301 40.0165 244.301 39.3398C244.301 38.8265 244.392 38.3482 244.574 37.9048C244.756 37.4568 245.005 37.0648 245.323 36.7288C245.645 36.3882 246.018 36.1222 246.443 35.9308C246.867 35.7395 247.32 35.6438 247.801 35.6438C248.445 35.6438 249.03 35.8095 249.558 36.1408C250.09 36.4722 250.512 36.9178 250.825 37.4778C251.142 38.0378 251.301 38.6585 251.301 39.3398C251.301 39.8485 251.21 40.3245 251.028 40.7678C250.846 41.2112 250.594 41.6032 250.272 41.9438C249.954 42.2798 249.583 42.5435 249.159 42.7348C248.739 42.9262 248.286 43.0218 247.801 43.0218ZM247.801 41.8458C248.239 41.8458 248.634 41.7315 248.984 41.5028C249.338 41.2695 249.616 40.9638 249.817 40.5858C250.022 40.2032 250.125 39.7878 250.125 39.3398C250.125 38.8825 250.02 38.4625 249.81 38.0798C249.604 37.6972 249.327 37.3915 248.977 37.1628C248.627 36.9342 248.235 36.8198 247.801 36.8198C247.362 36.8198 246.968 36.9365 246.618 37.1698C246.268 37.3985 245.99 37.7042 245.785 38.0868C245.579 38.4695 245.477 38.8872 245.477 39.3398C245.477 39.8065 245.582 40.2312 245.792 40.6138C246.002 40.9918 246.284 41.2928 246.639 41.5168C246.993 41.7362 247.381 41.8458 247.801 41.8458ZM252.459 42.8398V35.8398H253.635V36.7148C253.882 36.3882 254.195 36.1292 254.573 35.9378C254.951 35.7418 255.362 35.6438 255.805 35.6438C256.076 35.6438 256.337 35.6788 256.589 35.7488L256.113 36.9248C255.922 36.8642 255.735 36.8338 255.553 36.8338C255.203 36.8338 254.881 36.9202 254.587 37.0928C254.298 37.2608 254.067 37.4895 253.894 37.7788C253.721 38.0682 253.635 38.3902 253.635 38.7448V42.8398H252.459ZM13.8897 59.8398V50.0398H15.0657V59.8398H13.8897ZM23.1489 55.4858V59.8398H21.9729V55.7448C21.9729 55.3902 21.8866 55.0682 21.7139 54.7788C21.5412 54.4895 21.3102 54.2608 21.0209 54.0928C20.7316 53.9202 20.4096 53.8338 20.0549 53.8338C19.7049 53.8338 19.3829 53.9202 19.0889 54.0928C18.7996 54.2608 18.5686 54.4895 18.3959 54.7788C18.2232 55.0682 18.1369 55.3902 18.1369 55.7448V59.8398H16.9609V52.8398H18.1369V53.7148C18.3842 53.3882 18.6969 53.1292 19.0749 52.9378C19.4529 52.7418 19.8636 52.6438 20.3069 52.6438C20.8296 52.6438 21.3056 52.7722 21.7349 53.0288C22.1689 53.2808 22.5119 53.6215 22.7639 54.0508C23.0206 54.4802 23.1489 54.9585 23.1489 55.4858ZM29.2351 57.9918L30.2851 58.5588C29.9677 59.0022 29.5641 59.3568 29.0741 59.6228C28.5887 59.8888 28.0614 60.0218 27.4921 60.0218C26.8481 60.0218 26.2601 59.8562 25.7281 59.5248C25.2007 59.1935 24.7784 58.7502 24.4611 58.1948C24.1484 57.6348 23.9921 57.0165 23.9921 56.3398C23.9921 55.8265 24.0831 55.3482 24.2651 54.9048C24.4471 54.4568 24.6967 54.0648 25.0141 53.7288C25.3361 53.3882 25.7094 53.1222 26.1341 52.9308C26.5587 52.7395 27.0114 52.6438 27.4921 52.6438C28.0614 52.6438 28.5887 52.7768 29.0741 53.0428C29.5641 53.3088 29.9677 53.6658 30.2851 54.1138L29.2351 54.6808C29.0111 54.4055 28.7451 54.1932 28.4371 54.0438C28.1291 53.8945 27.8141 53.8198 27.4921 53.8198C27.0581 53.8198 26.6637 53.9365 26.3091 54.1698C25.9591 54.3985 25.6814 54.7042 25.4761 55.0868C25.2707 55.4695 25.1681 55.8872 25.1681 56.3398C25.1681 56.7925 25.2707 57.2102 25.4761 57.5928C25.6861 57.9708 25.9661 58.2742 26.3161 58.5028C26.6707 58.7315 27.0627 58.8458 27.4921 58.8458C27.8374 58.8458 28.1617 58.7665 28.4651 58.6078C28.7684 58.4492 29.0251 58.2438 29.2351 57.9918ZM31.3847 52.8398H32.5607V59.8398H31.3847V52.8398ZM31.9867 51.6988C31.8001 51.6988 31.6437 51.6382 31.5177 51.5168C31.3917 51.3955 31.3287 51.2438 31.3287 51.0618C31.3287 50.8798 31.3917 50.7282 31.5177 50.6068C31.6437 50.4855 31.7977 50.4248 31.9797 50.4248C32.1617 50.4248 32.3157 50.4855 32.4417 50.6068C32.5677 50.7282 32.6307 50.8798 32.6307 51.0618C32.6307 51.2438 32.5677 51.3955 32.4417 51.5168C32.3204 51.6382 32.1687 51.6988 31.9867 51.6988ZM39.7815 49.3398H40.9575V59.8398H39.7815V58.6498C39.5435 59.0605 39.2238 59.3918 38.8225 59.6438C38.4211 59.8958 37.9498 60.0218 37.4085 60.0218C36.8998 60.0218 36.4238 59.9262 35.9805 59.7348C35.5371 59.5435 35.1451 59.2798 34.8045 58.9438C34.4685 58.6032 34.2048 58.2112 34.0135 57.7678C33.8221 57.3245 33.7265 56.8485 33.7265 56.3398C33.7265 55.8312 33.8221 55.3552 34.0135 54.9118C34.2048 54.4638 34.4685 54.0718 34.8045 53.7358C35.1451 53.3952 35.5371 53.1292 35.9805 52.9378C36.4238 52.7465 36.8998 52.6508 37.4085 52.6508C37.9498 52.6508 38.4211 52.7768 38.8225 53.0288C39.2238 53.2808 39.5435 53.6122 39.7815 54.0228V49.3398ZM37.4225 58.8808C37.8845 58.8808 38.2835 58.7688 38.6195 58.5448C38.9601 58.3162 39.2215 58.0082 39.4035 57.6208C39.5901 57.2335 39.6835 56.8065 39.6835 56.3398C39.6835 55.8638 39.5901 55.4345 39.4035 55.0518C39.2168 54.6645 38.9531 54.3588 38.6125 54.1348C38.2765 53.9062 37.8798 53.7918 37.4225 53.7918C36.9605 53.7918 36.5405 53.9062 36.1625 54.1348C35.7891 54.3635 35.4905 54.6715 35.2665 55.0588C35.0425 55.4415 34.9305 55.8685 34.9305 56.3398C34.9305 56.8112 35.0448 57.2405 35.2735 57.6278C35.5021 58.0105 35.8055 58.3162 36.1835 58.5448C36.5615 58.7688 36.9745 58.8808 37.4225 58.8808ZM42.6367 52.8398H43.8127V59.8398H42.6367V52.8398ZM43.2387 51.6988C43.052 51.6988 42.8957 51.6382 42.7697 51.5168C42.6437 51.3955 42.5807 51.2438 42.5807 51.0618C42.5807 50.8798 42.6437 50.7282 42.7697 50.6068C42.8957 50.4855 43.0497 50.4248 43.2317 50.4248C43.4137 50.4248 43.5677 50.4855 43.6937 50.6068C43.8197 50.7282 43.8827 50.8798 43.8827 51.0618C43.8827 51.2438 43.8197 51.3955 43.6937 51.5168C43.5724 51.6382 43.4207 51.6988 43.2387 51.6988ZM51.0334 49.3398H52.2094V59.8398H51.0334V58.6498C50.7954 59.0605 50.4757 59.3918 50.0744 59.6438C49.6731 59.8958 49.2017 60.0218 48.6604 60.0218C48.1517 60.0218 47.6757 59.9262 47.2324 59.7348C46.7891 59.5435 46.3971 59.2798 46.0564 58.9438C45.7204 58.6032 45.4567 58.2112 45.2654 57.7678C45.0741 57.3245 44.9784 56.8485 44.9784 56.3398C44.9784 55.8312 45.0741 55.3552 45.2654 54.9118C45.4567 54.4638 45.7204 54.0718 46.0564 53.7358C46.3971 53.3952 46.7891 53.1292 47.2324 52.9378C47.6757 52.7465 48.1517 52.6508 48.6604 52.6508C49.2017 52.6508 49.6731 52.7768 50.0744 53.0288C50.4757 53.2808 50.7954 53.6122 51.0334 54.0228V49.3398ZM48.6744 58.8808C49.1364 58.8808 49.5354 58.7688 49.8714 58.5448C50.2121 58.3162 50.4734 58.0082 50.6554 57.6208C50.8421 57.2335 50.9354 56.8065 50.9354 56.3398C50.9354 55.8638 50.8421 55.4345 50.6554 55.0518C50.4687 54.6645 50.2051 54.3588 49.8644 54.1348C49.5284 53.9062 49.1317 53.7918 48.6744 53.7918C48.2124 53.7918 47.7924 53.9062 47.4144 54.1348C47.0411 54.3635 46.7424 54.6715 46.5184 55.0588C46.2944 55.4415 46.1824 55.8685 46.1824 56.3398C46.1824 56.8112 46.2967 57.2405 46.5254 57.6278C46.7541 58.0105 47.0574 58.3162 47.4354 58.5448C47.8134 58.7688 48.2264 58.8808 48.6744 58.8808ZM53.6086 57.1798V52.8398H54.7846V56.9208C54.7846 57.2755 54.871 57.5975 55.0436 57.8868C55.2163 58.1762 55.4473 58.4072 55.7366 58.5798C56.0306 58.7478 56.3526 58.8318 56.7026 58.8318C57.0573 58.8318 57.377 58.7478 57.6616 58.5798C57.951 58.4072 58.182 58.1762 58.3546 57.8868C58.5273 57.5975 58.6136 57.2755 58.6136 56.9208V52.8398H59.7896L59.7966 59.8398H58.6206L58.6136 58.9508C58.3663 59.2775 58.0536 59.5388 57.6756 59.7348C57.2976 59.9262 56.8893 60.0218 56.4506 60.0218C55.928 60.0218 55.4496 59.8958 55.0156 59.6438C54.5863 59.3872 54.2433 59.0442 53.9866 58.6148C53.7346 58.1855 53.6086 57.7072 53.6086 57.1798ZM67.3911 55.4858V59.8398H66.2151V55.7448C66.2151 55.3902 66.1288 55.0682 65.9561 54.7788C65.7834 54.4895 65.5524 54.2608 65.2631 54.0928C64.9738 53.9202 64.6518 53.8338 64.2971 53.8338C63.9471 53.8338 63.6251 53.9202 63.3311 54.0928C63.0418 54.2608 62.8108 54.4895 62.6381 54.7788C62.4654 55.0682 62.3791 55.3902 62.3791 55.7448V59.8398H61.2031V52.8398H62.3791V53.7148C62.6264 53.3882 62.9391 53.1292 63.3171 52.9378C63.6951 52.7418 64.1058 52.6438 64.5491 52.6438C65.0718 52.6438 65.5478 52.7722 65.9771 53.0288C66.4111 53.2808 66.7541 53.6215 67.0061 54.0508C67.2628 54.4802 67.3911 54.9585 67.3911 55.4858ZM72.417 54.0158H70.828L70.821 59.8398H69.645L69.652 54.0158H68.448V52.8398H69.652L69.645 50.6418H70.821L70.828 52.8398H72.417V54.0158ZM80.8711 60.0218C80.0871 60.0218 79.4058 59.8305 78.8271 59.4478C78.2531 59.0652 77.8098 58.5518 77.4971 57.9078C77.1891 57.2592 77.0351 56.5405 77.0351 55.7518V50.0398H78.2111V55.7518C78.2111 56.3118 78.3138 56.8275 78.5191 57.2988C78.7291 57.7702 79.0301 58.1458 79.4221 58.4258C79.8188 58.7058 80.3018 58.8458 80.8711 58.8458C81.4498 58.8458 81.9351 58.7058 82.3271 58.4258C82.7191 58.1412 83.0155 57.7655 83.2161 57.2988C83.4215 56.8275 83.5241 56.3118 83.5241 55.7518V50.0398H84.7001V55.7518C84.7001 56.3445 84.6115 56.8998 84.4341 57.4178C84.2568 57.9312 84.0001 58.3838 83.6641 58.7758C83.3328 59.1678 82.9315 59.4735 82.4601 59.6928C81.9888 59.9122 81.4591 60.0218 80.8711 60.0218ZM90.0127 54.0158H88.4237L88.4167 59.8398H87.2407L87.2477 54.0158H86.0437V52.8398H87.2477L87.2407 50.6418H88.4167L88.4237 52.8398H90.0127V54.0158ZM94.6308 59.8398V50.0398H95.8068V58.6638H100.196V59.8398H94.6308ZM106.685 52.8398H107.861V59.8398H106.685L106.636 58.6568C106.416 59.0628 106.113 59.3918 105.726 59.6438C105.343 59.8958 104.886 60.0218 104.354 60.0218C103.84 60.0218 103.36 59.9262 102.912 59.7348C102.464 59.5388 102.067 59.2705 101.722 58.9298C101.381 58.5845 101.115 58.1878 100.924 57.7398C100.732 57.2918 100.637 56.8088 100.637 56.2908C100.637 55.7915 100.73 55.3202 100.917 54.8768C101.103 54.4335 101.362 54.0462 101.694 53.7148C102.03 53.3788 102.417 53.1175 102.856 52.9308C103.294 52.7395 103.766 52.6438 104.27 52.6438C104.82 52.6438 105.303 52.7745 105.719 53.0358C106.134 53.2925 106.47 53.6262 106.727 54.0368L106.685 52.8398ZM104.333 58.8808C104.795 58.8808 105.194 58.7688 105.53 58.5448C105.87 58.3162 106.132 58.0082 106.314 57.6208C106.5 57.2335 106.594 56.8065 106.594 56.3398C106.594 55.8638 106.5 55.4345 106.314 55.0518C106.127 54.6645 105.863 54.3588 105.523 54.1348C105.187 53.9062 104.79 53.7918 104.333 53.7918C103.871 53.7918 103.451 53.9062 103.073 54.1348C102.695 54.3635 102.394 54.6715 102.17 55.0588C101.95 55.4415 101.841 55.8685 101.841 56.3398C101.841 56.8112 101.955 57.2405 102.184 57.6278C102.412 58.0105 102.716 58.3162 103.094 58.5448C103.472 58.7688 103.885 58.8808 104.333 58.8808ZM112.884 52.6438C113.565 52.6438 114.183 52.8095 114.739 53.1408C115.299 53.4722 115.744 53.9178 116.076 54.4778C116.407 55.0332 116.573 55.6515 116.573 56.3328C116.573 56.8415 116.477 57.3198 116.286 57.7678C116.094 58.2112 115.828 58.6032 115.488 58.9438C115.152 59.2798 114.76 59.5435 114.312 59.7348C113.868 59.9262 113.392 60.0218 112.884 60.0218C112.342 60.0218 111.871 59.8958 111.47 59.6438C111.073 59.3872 110.756 59.0535 110.518 58.6428V59.8398H109.342V49.3398H110.518V54.0228C110.756 53.6122 111.073 53.2808 111.47 53.0288C111.871 52.7722 112.342 52.6438 112.884 52.6438ZM112.87 58.8738C113.332 58.8738 113.752 58.7595 114.13 58.5308C114.508 58.3022 114.809 57.9965 115.033 57.6138C115.257 57.2265 115.369 56.7995 115.369 56.3328C115.369 55.8568 115.254 55.4275 115.026 55.0448C114.797 54.6575 114.494 54.3518 114.116 54.1278C113.738 53.8992 113.322 53.7848 112.87 53.7848C112.412 53.7848 112.013 53.8992 111.673 54.1278C111.337 54.3565 111.075 54.6645 110.889 55.0518C110.707 55.4392 110.616 55.8662 110.616 56.3328C110.616 56.8042 110.707 57.2335 110.889 57.6208C111.075 58.0035 111.339 58.3092 111.68 58.5378C112.02 58.7618 112.417 58.8738 112.87 58.8738ZM120.775 60.0218C120.131 60.0218 119.543 59.8562 119.011 59.5248C118.484 59.1935 118.062 58.7502 117.744 58.1948C117.432 57.6348 117.275 57.0165 117.275 56.3398C117.275 55.8265 117.366 55.3482 117.548 54.9048C117.73 54.4568 117.98 54.0648 118.297 53.7288C118.619 53.3882 118.993 53.1222 119.417 52.9308C119.842 52.7395 120.295 52.6438 120.775 52.6438C121.419 52.6438 122.005 52.8095 122.532 53.1408C123.064 53.4722 123.487 53.9178 123.799 54.4778C124.117 55.0378 124.275 55.6585 124.275 56.3398C124.275 56.8485 124.184 57.3245 124.002 57.7678C123.82 58.2112 123.568 58.6032 123.246 58.9438C122.929 59.2798 122.558 59.5435 122.133 59.7348C121.713 59.9262 121.261 60.0218 120.775 60.0218ZM120.775 58.8458C121.214 58.8458 121.608 58.7315 121.958 58.5028C122.313 58.2695 122.591 57.9638 122.791 57.5858C122.997 57.2032 123.099 56.7878 123.099 56.3398C123.099 55.8825 122.994 55.4625 122.784 55.0798C122.579 54.6972 122.301 54.3915 121.951 54.1628C121.601 53.9342 121.209 53.8198 120.775 53.8198C120.337 53.8198 119.942 53.9365 119.592 54.1698C119.242 54.3985 118.965 54.7042 118.759 55.0868C118.554 55.4695 118.451 55.8872 118.451 56.3398C118.451 56.8065 118.556 57.2312 118.766 57.6138C118.976 57.9918 119.259 58.2928 119.613 58.5168C119.968 58.7362 120.355 58.8458 120.775 58.8458ZM125.434 59.8398V52.8398H126.61V53.7148C126.857 53.3882 127.17 53.1292 127.548 52.9378C127.926 52.7418 128.336 52.6438 128.78 52.6438C129.05 52.6438 129.312 52.6788 129.564 52.7488L129.088 53.9248C128.896 53.8642 128.71 53.8338 128.528 53.8338C128.178 53.8338 127.856 53.9202 127.562 54.0928C127.272 54.2608 127.041 54.4895 126.869 54.7788C126.696 55.0682 126.61 55.3902 126.61 55.7448V59.8398H125.434ZM133.148 60.0218C132.504 60.0218 131.916 59.8562 131.384 59.5248C130.857 59.1935 130.435 58.7502 130.117 58.1948C129.805 57.6348 129.648 57.0165 129.648 56.3398C129.648 55.8265 129.739 55.3482 129.921 54.9048C130.103 54.4568 130.353 54.0648 130.67 53.7288C130.992 53.3882 131.366 53.1222 131.79 52.9308C132.215 52.7395 132.668 52.6438 133.148 52.6438C133.676 52.6438 134.159 52.7512 134.597 52.9658C135.041 53.1758 135.419 53.4698 135.731 53.8478C136.049 54.2258 136.284 54.6645 136.438 55.1638C136.597 55.6632 136.655 56.1975 136.613 56.7668H130.901C130.957 57.1635 131.088 57.5182 131.293 57.8308C131.499 58.1388 131.76 58.3838 132.077 58.5658C132.399 58.7478 132.756 58.8412 133.148 58.8458C133.568 58.8458 133.949 58.7385 134.289 58.5238C134.63 58.3045 134.905 58.0058 135.115 57.6278L136.312 57.9078C136.032 58.5285 135.61 59.0372 135.045 59.4338C134.481 59.8258 133.848 60.0218 133.148 60.0218ZM130.866 55.8428H135.43C135.393 55.4508 135.267 55.0938 135.052 54.7718C134.838 54.4452 134.565 54.1838 134.233 53.9878C133.902 53.7918 133.54 53.6938 133.148 53.6938C132.756 53.6938 132.397 53.7895 132.07 53.9808C131.744 54.1722 131.473 54.4312 131.258 54.7578C131.048 55.0798 130.918 55.4415 130.866 55.8428ZM141.252 59.8398V50.0398H147.265V51.2158H142.428V54.0018H146.39V55.1778H142.428V58.6638H147.265V59.8398H141.252ZM152.425 54.0158H150.836L150.829 59.8398H149.653L149.66 54.0158H148.456V52.8398H149.66L149.653 50.6418H150.829L150.836 52.8398H152.425V54.0158ZM157.043 59.8398V50.0398H160.284C160.961 50.0398 161.595 50.1682 162.188 50.4248C162.781 50.6768 163.301 51.0292 163.749 51.4818C164.197 51.9298 164.547 52.4502 164.799 53.0428C165.056 53.6308 165.184 54.2632 165.184 54.9398C165.184 55.6165 165.056 56.2512 164.799 56.8438C164.547 57.4318 164.197 57.9522 163.749 58.4048C163.301 58.8528 162.781 59.2052 162.188 59.4618C161.595 59.7138 160.961 59.8398 160.284 59.8398H157.043ZM158.219 58.6638H160.284C160.797 58.6638 161.278 58.5682 161.726 58.3768C162.179 58.1808 162.575 57.9125 162.916 57.5718C163.257 57.2312 163.523 56.8368 163.714 56.3888C163.91 55.9362 164.008 55.4532 164.008 54.9398C164.008 54.4265 163.91 53.9458 163.714 53.4978C163.523 53.0452 163.254 52.6485 162.909 52.3078C162.568 51.9672 162.174 51.7012 161.726 51.5098C161.278 51.3138 160.797 51.2158 160.284 51.2158H158.219V58.6638ZM169.406 60.0218C168.762 60.0218 168.174 59.8562 167.642 59.5248C167.115 59.1935 166.692 58.7502 166.375 58.1948C166.062 57.6348 165.906 57.0165 165.906 56.3398C165.906 55.8265 165.997 55.3482 166.179 54.9048C166.361 54.4568 166.611 54.0648 166.928 53.7288C167.25 53.3882 167.623 53.1222 168.048 52.9308C168.473 52.7395 168.925 52.6438 169.406 52.6438C170.05 52.6438 170.636 52.8095 171.163 53.1408C171.695 53.4722 172.117 53.9178 172.43 54.4778C172.747 55.0378 172.906 55.6585 172.906 56.3398C172.906 56.8485 172.815 57.3245 172.633 57.7678C172.451 58.2112 172.199 58.6032 171.877 58.9438C171.56 59.2798 171.189 59.5435 170.764 59.7348C170.344 59.9262 169.891 60.0218 169.406 60.0218ZM169.406 58.8458C169.845 58.8458 170.239 58.7315 170.589 58.5028C170.944 58.2695 171.221 57.9638 171.422 57.5858C171.627 57.2032 171.73 56.7878 171.73 56.3398C171.73 55.8825 171.625 55.4625 171.415 55.0798C171.21 54.6972 170.932 54.3915 170.582 54.1628C170.232 53.9342 169.84 53.8198 169.406 53.8198C168.967 53.8198 168.573 53.9365 168.223 54.1698C167.873 54.3985 167.595 54.7042 167.39 55.0868C167.185 55.4695 167.082 55.8872 167.082 56.3398C167.082 56.8065 167.187 57.2312 167.397 57.6138C167.607 57.9918 167.889 58.2928 168.244 58.5168C168.599 58.7362 168.986 58.8458 169.406 58.8458ZM173.996 59.8398V49.3398H175.172V59.8398H173.996ZM179.865 60.0218C179.221 60.0218 178.633 59.8562 178.101 59.5248C177.574 59.1935 177.151 58.7502 176.834 58.1948C176.521 57.6348 176.365 57.0165 176.365 56.3398C176.365 55.8265 176.456 55.3482 176.638 54.9048C176.82 54.4568 177.07 54.0648 177.387 53.7288C177.709 53.3882 178.082 53.1222 178.507 52.9308C178.932 52.7395 179.384 52.6438 179.865 52.6438C180.509 52.6438 181.095 52.8095 181.622 53.1408C182.154 53.4722 182.576 53.9178 182.889 54.4778C183.206 55.0378 183.365 55.6585 183.365 56.3398C183.365 56.8485 183.274 57.3245 183.092 57.7678C182.91 58.2112 182.658 58.6032 182.336 58.9438C182.019 59.2798 181.648 59.5435 181.223 59.7348C180.803 59.9262 180.35 60.0218 179.865 60.0218ZM179.865 58.8458C180.304 58.8458 180.698 58.7315 181.048 58.5028C181.403 58.2695 181.68 57.9638 181.881 57.5858C182.086 57.2032 182.189 56.7878 182.189 56.3398C182.189 55.8825 182.084 55.4625 181.874 55.0798C181.669 54.6972 181.391 54.3915 181.041 54.1628C180.691 53.9342 180.299 53.8198 179.865 53.8198C179.426 53.8198 179.032 53.9365 178.682 54.1698C178.332 54.3985 178.054 54.7042 177.849 55.0868C177.644 55.4695 177.541 55.8872 177.541 56.3398C177.541 56.8065 177.646 57.2312 177.856 57.6138C178.066 57.9918 178.348 58.2928 178.703 58.5168C179.058 58.7362 179.445 58.8458 179.865 58.8458ZM184.523 59.8398V52.8398H185.699V53.7148C185.947 53.3882 186.259 53.1292 186.637 52.9378C187.015 52.7418 187.426 52.6438 187.869 52.6438C188.14 52.6438 188.401 52.6788 188.653 52.7488L188.177 53.9248C187.986 53.8642 187.799 53.8338 187.617 53.8338C187.267 53.8338 186.945 53.9202 186.651 54.0928C186.362 54.2608 186.131 54.4895 185.958 54.7788C185.786 55.0682 185.699 55.3902 185.699 55.7448V59.8398H184.523ZM192.238 60.0218C191.594 60.0218 191.006 59.8562 190.474 59.5248C189.947 59.1935 189.525 58.7502 189.207 58.1948C188.895 57.6348 188.738 57.0165 188.738 56.3398C188.738 55.8265 188.829 55.3482 189.011 54.9048C189.193 54.4568 189.443 54.0648 189.76 53.7288C190.082 53.3882 190.456 53.1222 190.88 52.9308C191.305 52.7395 191.758 52.6438 192.238 52.6438C192.766 52.6438 193.249 52.7512 193.687 52.9658C194.131 53.1758 194.509 53.4698 194.821 53.8478C195.139 54.2258 195.374 54.6645 195.528 55.1638C195.687 55.6632 195.745 56.1975 195.703 56.7668H189.991C190.047 57.1635 190.178 57.5182 190.383 57.8308C190.589 58.1388 190.85 58.3838 191.167 58.5658C191.489 58.7478 191.846 58.8412 192.238 58.8458C192.658 58.8458 193.039 58.7385 193.379 58.5238C193.72 58.3045 193.995 58.0058 194.205 57.6278L195.402 57.9078C195.122 58.5285 194.7 59.0372 194.135 59.4338C193.571 59.8258 192.938 60.0218 192.238 60.0218ZM189.956 55.8428H194.52C194.483 55.4508 194.357 55.0938 194.142 54.7718C193.928 54.4452 193.655 54.1838 193.323 53.9878C192.992 53.7918 192.63 53.6938 192.238 53.6938C191.846 53.6938 191.487 53.7895 191.16 53.9808C190.834 54.1722 190.563 54.4312 190.348 54.7578C190.138 55.0798 190.008 55.4415 189.956 55.8428ZM197.199 60.0218C197.021 60.0218 196.87 59.9588 196.744 59.8328C196.622 59.7068 196.562 59.5528 196.562 59.3708C196.562 59.1982 196.622 59.0488 196.744 58.9228C196.87 58.7968 197.021 58.7338 197.199 58.7338C197.381 58.7338 197.535 58.7968 197.661 58.9228C197.787 59.0488 197.85 59.1982 197.85 59.3708C197.85 59.5528 197.787 59.7068 197.661 59.8328C197.535 59.9588 197.381 60.0218 197.199 60.0218Z" fill="#F2F2F2"/>
</svg>
