<svg width="316" height="95" viewBox="0 0 316 95" fill="none" xmlns="http://www.w3.org/2000/svg">
<path d="M0.338867 32.7386C0.338867 15.0105 14.7103 0.639038 32.4384 0.639038H283.885C301.613 0.639038 315.984 15.0105 315.984 32.7386V62.2192C315.984 79.9472 301.613 94.3187 283.885 94.3187H0.338867V32.7386Z" fill="#FFCC00"/>
<path d="M17.4697 26.6608C16.9423 26.6608 16.4337 26.5791 15.9437 26.4158C15.4537 26.2478 15.0243 26.0098 14.6557 25.7018C14.2917 25.3938 14.0327 25.0274 13.8787 24.6028L14.9777 24.1898C15.071 24.4511 15.2437 24.6798 15.4957 24.8758C15.7523 25.0671 16.0533 25.2164 16.3987 25.3238C16.744 25.4311 17.101 25.4848 17.4697 25.4848C17.8897 25.4848 18.2793 25.4171 18.6387 25.2818C19.0027 25.1418 19.2967 24.9481 19.5207 24.7008C19.7447 24.4534 19.8567 24.1641 19.8567 23.8328C19.8567 23.4921 19.74 23.2144 19.5067 22.9998C19.2733 22.7804 18.9747 22.6078 18.6107 22.4818C18.2467 22.3511 17.8663 22.2508 17.4697 22.1808C16.793 22.0688 16.1863 21.9101 15.6497 21.7048C15.1177 21.4948 14.6953 21.2031 14.3827 20.8298C14.0747 20.4564 13.9207 19.9641 13.9207 19.3528C13.9207 18.7834 14.084 18.2864 14.4107 17.8618C14.742 17.4371 15.1783 17.1081 15.7197 16.8748C16.261 16.6414 16.8443 16.5248 17.4697 16.5248C17.9877 16.5248 18.4893 16.6064 18.9747 16.7698C19.4647 16.9284 19.8963 17.1618 20.2697 17.4698C20.643 17.7778 20.9113 18.1534 21.0747 18.5968L19.9617 19.0028C19.8683 18.7368 19.6933 18.5081 19.4367 18.3168C19.1847 18.1208 18.886 17.9714 18.5407 17.8688C18.2 17.7614 17.843 17.7078 17.4697 17.7078C17.0543 17.7031 16.667 17.7708 16.3077 17.9108C15.9483 18.0508 15.6567 18.2444 15.4327 18.4918C15.2087 18.7391 15.0967 19.0261 15.0967 19.3528C15.0967 19.7448 15.1993 20.0458 15.4047 20.2558C15.6147 20.4611 15.8993 20.6151 16.2587 20.7178C16.618 20.8204 17.0217 20.9114 17.4697 20.9908C18.1043 21.0981 18.6923 21.2684 19.2337 21.5018C19.775 21.7304 20.209 22.0361 20.5357 22.4188C20.867 22.8014 21.0327 23.2728 21.0327 23.8328C21.0327 24.4021 20.867 24.8991 20.5357 25.3238C20.209 25.7484 19.775 26.0774 19.2337 26.3108C18.6923 26.5441 18.1043 26.6608 17.4697 26.6608ZM25.5752 26.6608C24.9312 26.6608 24.3432 26.4951 23.8112 26.1638C23.2839 25.8324 22.8616 25.3891 22.5442 24.8338C22.2316 24.2738 22.0752 23.6554 22.0752 22.9788C22.0752 22.4654 22.1662 21.9871 22.3482 21.5438C22.5302 21.0958 22.7799 20.7038 23.0972 20.3678C23.4192 20.0271 23.7926 19.7611 24.2172 19.5698C24.6419 19.3784 25.0946 19.2828 25.5752 19.2828C26.1026 19.2828 26.5856 19.3901 27.0242 19.6048C27.4676 19.8148 27.8456 20.1088 28.1582 20.4868C28.4756 20.8648 28.7112 21.3034 28.8652 21.8028C29.0239 22.3021 29.0822 22.8364 29.0402 23.4058H23.3282C23.3842 23.8024 23.5149 24.1571 23.7202 24.4698C23.9256 24.7778 24.1869 25.0228 24.5042 25.2048C24.8262 25.3868 25.1832 25.4801 25.5752 25.4848C25.9952 25.4848 26.3756 25.3774 26.7162 25.1628C27.0569 24.9434 27.3322 24.6448 27.5422 24.2668L28.7392 24.5468C28.4592 25.1674 28.0369 25.6761 27.4722 26.0728C26.9076 26.4648 26.2752 26.6608 25.5752 26.6608ZM23.2932 22.4818H27.8572C27.8199 22.0898 27.6939 21.7328 27.4792 21.4108C27.2646 21.0841 26.9916 20.8228 26.6602 20.6268C26.3289 20.4308 25.9672 20.3328 25.5752 20.3328C25.1832 20.3328 24.8239 20.4284 24.4972 20.6198C24.1706 20.8111 23.8999 21.0701 23.6852 21.3968C23.4752 21.7188 23.3446 22.0804 23.2932 22.4818ZM35.8138 15.9788H36.9898V26.4788H35.8138V25.2888C35.5758 25.6994 35.2562 26.0308 34.8548 26.2828C34.4535 26.5348 33.9822 26.6608 33.4408 26.6608C32.9322 26.6608 32.4562 26.5651 32.0128 26.3738C31.5695 26.1824 31.1775 25.9188 30.8368 25.5828C30.5008 25.2421 30.2372 24.8501 30.0458 24.4068C29.8545 23.9634 29.7588 23.4874 29.7588 22.9788C29.7588 22.4701 29.8545 21.9941 30.0458 21.5508C30.2372 21.1028 30.5008 20.7108 30.8368 20.3748C31.1775 20.0341 31.5695 19.7681 32.0128 19.5768C32.4562 19.3854 32.9322 19.2898 33.4408 19.2898C33.9822 19.2898 34.4535 19.4158 34.8548 19.6678C35.2562 19.9198 35.5758 20.2511 35.8138 20.6618V15.9788ZM33.4548 25.5198C33.9168 25.5198 34.3158 25.4078 34.6518 25.1838C34.9925 24.9551 35.2538 24.6471 35.4358 24.2598C35.6225 23.8724 35.7158 23.4454 35.7158 22.9788C35.7158 22.5028 35.6225 22.0734 35.4358 21.6908C35.2492 21.3034 34.9855 20.9978 34.6448 20.7738C34.3088 20.5451 33.9122 20.4308 33.4548 20.4308C32.9928 20.4308 32.5728 20.5451 32.1948 20.7738C31.8215 21.0024 31.5228 21.3104 31.2988 21.6978C31.0748 22.0804 30.9628 22.5074 30.9628 22.9788C30.9628 23.4501 31.0772 23.8794 31.3058 24.2668C31.5345 24.6494 31.8378 24.9551 32.2158 25.1838C32.5938 25.4078 33.0068 25.5198 33.4548 25.5198ZM42.0324 26.4788V16.6788H45.2734C45.95 16.6788 46.5847 16.8071 47.1774 17.0638C47.77 17.3158 48.2904 17.6681 48.7384 18.1208C49.1864 18.5688 49.5364 19.0891 49.7884 19.6818C50.045 20.2698 50.1734 20.9021 50.1734 21.5788C50.1734 22.2554 50.045 22.8901 49.7884 23.4828C49.5364 24.0708 49.1864 24.5911 48.7384 25.0438C48.2904 25.4918 47.77 25.8441 47.1774 26.1008C46.5847 26.3528 45.95 26.4788 45.2734 26.4788H42.0324ZM43.2084 25.3028H45.2734C45.7867 25.3028 46.2674 25.2071 46.7154 25.0158C47.168 24.8198 47.5647 24.5514 47.9054 24.2108C48.246 23.8701 48.512 23.4758 48.7034 23.0278C48.8994 22.5751 48.9974 22.0921 48.9974 21.5788C48.9974 21.0654 48.8994 20.5848 48.7034 20.1368C48.512 19.6841 48.2437 19.2874 47.8984 18.9468C47.5577 18.6061 47.1634 18.3401 46.7154 18.1488C46.2674 17.9528 45.7867 17.8548 45.2734 17.8548H43.2084V25.3028ZM54.3956 26.6608C53.7516 26.6608 53.1636 26.4951 52.6316 26.1638C52.1042 25.8324 51.6819 25.3891 51.3646 24.8338C51.0519 24.2738 50.8956 23.6554 50.8956 22.9788C50.8956 22.4654 50.9866 21.9871 51.1686 21.5438C51.3506 21.0958 51.6002 20.7038 51.9176 20.3678C52.2396 20.0271 52.6129 19.7611 53.0376 19.5698C53.4622 19.3784 53.9149 19.2828 54.3956 19.2828C55.0396 19.2828 55.6252 19.4484 56.1526 19.7798C56.6846 20.1111 57.1069 20.5568 57.4196 21.1168C57.7369 21.6768 57.8956 22.2974 57.8956 22.9788C57.8956 23.4874 57.8046 23.9634 57.6226 24.4068C57.4406 24.8501 57.1886 25.2421 56.8666 25.5828C56.5492 25.9188 56.1782 26.1824 55.7536 26.3738C55.3336 26.5651 54.8809 26.6608 54.3956 26.6608ZM54.3956 25.4848C54.8342 25.4848 55.2286 25.3704 55.5786 25.1418C55.9332 24.9084 56.2109 24.6028 56.4116 24.2248C56.6169 23.8421 56.7196 23.4268 56.7196 22.9788C56.7196 22.5214 56.6146 22.1014 56.4046 21.7188C56.1992 21.3361 55.9216 21.0304 55.5716 20.8018C55.2216 20.5731 54.8296 20.4588 54.3956 20.4588C53.9569 20.4588 53.5626 20.5754 53.2126 20.8088C52.8626 21.0374 52.5849 21.3431 52.3796 21.7258C52.1742 22.1084 52.0716 22.5261 52.0716 22.9788C52.0716 23.4454 52.1766 23.8701 52.3866 24.2528C52.5966 24.6308 52.8789 24.9318 53.2336 25.1558C53.5882 25.3751 53.9756 25.4848 54.3956 25.4848ZM62.5128 26.4788V16.6788H68.5258V17.8548H63.6888V20.6408H67.6508V21.8168H63.6888V25.3028H68.5258V26.4788H62.5128ZM70.0597 19.4788H71.2357V26.4788H70.0597V19.4788ZM70.6617 18.3378C70.475 18.3378 70.3187 18.2771 70.1927 18.1558C70.0667 18.0344 70.0037 17.8828 70.0037 17.7008C70.0037 17.5188 70.0667 17.3671 70.1927 17.2458C70.3187 17.1244 70.4727 17.0638 70.6547 17.0638C70.8367 17.0638 70.9907 17.1244 71.1167 17.2458C71.2427 17.3671 71.3057 17.5188 71.3057 17.7008C71.3057 17.8828 71.2427 18.0344 71.1167 18.1558C70.9954 18.2771 70.8437 18.3378 70.6617 18.3378ZM72.6371 23.8188V19.4788H73.8131V23.5598C73.8131 23.9144 73.8995 24.2364 74.0721 24.5258C74.2448 24.8151 74.4758 25.0461 74.7651 25.2188C75.0591 25.3868 75.3811 25.4708 75.7311 25.4708C76.0858 25.4708 76.4055 25.3868 76.6901 25.2188C76.9795 25.0461 77.2105 24.8151 77.3831 24.5258C77.5558 24.2364 77.6421 23.9144 77.6421 23.5598V19.4788H78.8181L78.8251 26.4788H77.6491L77.6421 25.5898C77.3948 25.9164 77.0821 26.1778 76.7041 26.3738C76.3261 26.5651 75.9178 26.6608 75.4791 26.6608C74.9565 26.6608 74.4781 26.5348 74.0441 26.2828C73.6148 26.0261 73.2718 25.6831 73.0151 25.2538C72.7631 24.8244 72.6371 24.3461 72.6371 23.8188ZM82.3666 26.6118C81.9886 26.5978 81.6199 26.5278 81.2606 26.4018C80.9059 26.2711 80.5932 26.0961 80.3226 25.8768C80.0566 25.6528 79.8629 25.3961 79.7416 25.1068L80.7496 24.6728C80.8196 24.8314 80.9456 24.9808 81.1276 25.1208C81.3096 25.2608 81.5196 25.3728 81.7576 25.4568C81.9956 25.5408 82.2359 25.5828 82.4786 25.5828C82.7352 25.5828 82.9756 25.5431 83.1996 25.4638C83.4236 25.3844 83.6056 25.2678 83.7456 25.1138C83.8902 24.9551 83.9626 24.7661 83.9626 24.5468C83.9626 24.3134 83.8832 24.1314 83.7246 24.0008C83.5706 23.8654 83.3746 23.7604 83.1366 23.6858C82.9032 23.6064 82.6652 23.5318 82.4226 23.4618C81.9419 23.3404 81.5126 23.1958 81.1346 23.0278C80.7566 22.8551 80.4579 22.6381 80.2386 22.3768C80.0239 22.1108 79.9166 21.7724 79.9166 21.3618C79.9166 20.9278 80.0356 20.5521 80.2736 20.2348C80.5162 19.9174 80.8336 19.6724 81.2256 19.4998C81.6176 19.3271 82.0376 19.2408 82.4856 19.2408C83.0502 19.2408 83.5659 19.3621 84.0326 19.6048C84.4992 19.8474 84.8469 20.1764 85.0756 20.5918L84.1306 21.1448C84.0512 20.9768 83.9299 20.8298 83.7666 20.7038C83.6032 20.5731 83.4166 20.4704 83.2066 20.3958C82.9966 20.3211 82.7819 20.2814 82.5626 20.2768C82.2919 20.2674 82.0376 20.3024 81.7996 20.3818C81.5662 20.4611 81.3772 20.5824 81.2326 20.7458C81.0926 20.9044 81.0226 21.1028 81.0226 21.3408C81.0226 21.5741 81.0972 21.7514 81.2466 21.8728C81.4006 21.9941 81.5989 22.0921 81.8416 22.1668C82.0889 22.2368 82.3572 22.3184 82.6466 22.4118C83.0712 22.5471 83.4679 22.7034 83.8366 22.8808C84.2052 23.0581 84.5016 23.2798 84.7256 23.5458C84.9542 23.8118 85.0662 24.1408 85.0616 24.5328C85.0616 24.9621 84.9332 25.3378 84.6766 25.6598C84.4199 25.9771 84.0862 26.2198 83.6756 26.3878C83.2696 26.5558 82.8332 26.6304 82.3666 26.6118ZM86.2609 26.4788V19.4788H87.4369V20.3538C87.6842 20.0271 87.9945 19.7681 88.3679 19.5768C88.7459 19.3808 89.1565 19.2828 89.5999 19.2828C90.1179 19.2828 90.5915 19.4088 91.0209 19.6608C91.4502 19.9128 91.7885 20.2464 92.0359 20.6618C92.2832 20.2464 92.6192 19.9128 93.0439 19.6608C93.4732 19.4088 93.9445 19.2828 94.4579 19.2828C94.9852 19.2828 95.4635 19.4111 95.8929 19.6678C96.3222 19.9198 96.6629 20.2604 96.9149 20.6898C97.1715 21.1191 97.2999 21.5974 97.2999 22.1248V26.4788H96.1239V22.4048C96.1239 22.0594 96.0399 21.7398 95.8719 21.4458C95.7039 21.1518 95.4775 20.9161 95.1929 20.7388C94.9082 20.5614 94.5932 20.4728 94.2479 20.4728C93.9025 20.4728 93.5875 20.5568 93.3029 20.7248C93.0182 20.8881 92.7919 21.1168 92.6239 21.4108C92.4559 21.7001 92.3719 22.0314 92.3719 22.4048V26.4788H91.1959V22.4048C91.1959 22.0314 91.1119 21.7001 90.9439 21.4108C90.7759 21.1168 90.5472 20.8881 90.2579 20.7248C89.9732 20.5568 89.6582 20.4728 89.3129 20.4728C88.9722 20.4728 88.6572 20.5614 88.3679 20.7388C88.0832 20.9161 87.8569 21.1518 87.6889 21.4458C87.5209 21.7398 87.4369 22.0594 87.4369 22.4048V26.4788H86.2609ZM101.646 26.6608C101.002 26.6608 100.414 26.4951 99.8816 26.1638C99.3542 25.8324 98.9319 25.3891 98.6146 24.8338C98.3019 24.2738 98.1456 23.6554 98.1456 22.9788C98.1456 22.4654 98.2366 21.9871 98.4186 21.5438C98.6006 21.0958 98.8502 20.7038 99.1676 20.3678C99.4896 20.0271 99.8629 19.7611 100.288 19.5698C100.712 19.3784 101.165 19.2828 101.646 19.2828C102.29 19.2828 102.875 19.4484 103.403 19.7798C103.935 20.1111 104.357 20.5568 104.67 21.1168C104.987 21.6768 105.146 22.2974 105.146 22.9788C105.146 23.4874 105.055 23.9634 104.873 24.4068C104.691 24.8501 104.439 25.2421 104.117 25.5828C103.799 25.9188 103.428 26.1824 103.004 26.3738C102.584 26.5651 102.131 26.6608 101.646 26.6608ZM101.646 25.4848C102.084 25.4848 102.479 25.3704 102.829 25.1418C103.183 24.9084 103.461 24.6028 103.662 24.2248C103.867 23.8421 103.97 23.4268 103.97 22.9788C103.97 22.5214 103.865 22.1014 103.655 21.7188C103.449 21.3361 103.172 21.0304 102.822 20.8018C102.472 20.5731 102.08 20.4588 101.646 20.4588C101.207 20.4588 100.813 20.5754 100.463 20.8088C100.113 21.0374 99.8349 21.3431 99.6296 21.7258C99.4242 22.1084 99.3216 22.5261 99.3216 22.9788C99.3216 23.4454 99.4266 23.8701 99.6366 24.2528C99.8466 24.6308 100.129 24.9318 100.484 25.1558C100.838 25.3751 101.226 25.4848 101.646 25.4848ZM111.898 15.9788H113.074V26.4788H111.898V25.2888C111.66 25.6994 111.34 26.0308 110.939 26.2828C110.537 26.5348 110.066 26.6608 109.525 26.6608C109.016 26.6608 108.54 26.5651 108.097 26.3738C107.653 26.1824 107.261 25.9188 106.921 25.5828C106.585 25.2421 106.321 24.8501 106.13 24.4068C105.938 23.9634 105.843 23.4874 105.843 22.9788C105.843 22.4701 105.938 21.9941 106.13 21.5508C106.321 21.1028 106.585 20.7108 106.921 20.3748C107.261 20.0341 107.653 19.7681 108.097 19.5768C108.54 19.3854 109.016 19.2898 109.525 19.2898C110.066 19.2898 110.537 19.4158 110.939 19.6678C111.34 19.9198 111.66 20.2511 111.898 20.6618V15.9788ZM109.539 25.5198C110.001 25.5198 110.4 25.4078 110.736 25.1838C111.076 24.9551 111.338 24.6471 111.52 24.2598C111.706 23.8724 111.8 23.4454 111.8 22.9788C111.8 22.5028 111.706 22.0734 111.52 21.6908C111.333 21.3034 111.069 20.9978 110.729 20.7738C110.393 20.5451 109.996 20.4308 109.539 20.4308C109.077 20.4308 108.657 20.5451 108.279 20.7738C107.905 21.0024 107.607 21.3104 107.383 21.6978C107.159 22.0804 107.047 22.5074 107.047 22.9788C107.047 23.4501 107.161 23.8794 107.39 24.2668C107.618 24.6494 107.922 24.9551 108.3 25.1838C108.678 25.4078 109.091 25.5198 109.539 25.5198ZM125.529 16.6788V17.8548H122.267V26.4788H121.091V17.8548H117.836V16.6788H125.529ZM128.935 26.6608C128.291 26.6608 127.703 26.4951 127.171 26.1638C126.643 25.8324 126.221 25.3891 125.904 24.8338C125.591 24.2738 125.435 23.6554 125.435 22.9788C125.435 22.4654 125.526 21.9871 125.708 21.5438C125.89 21.0958 126.139 20.7038 126.457 20.3678C126.779 20.0271 127.152 19.7611 127.577 19.5698C128.001 19.3784 128.454 19.2828 128.935 19.2828C129.462 19.2828 129.945 19.3901 130.384 19.6048C130.827 19.8148 131.205 20.1088 131.518 20.4868C131.835 20.8648 132.071 21.3034 132.225 21.8028C132.383 22.3021 132.442 22.8364 132.4 23.4058H126.688C126.744 23.8024 126.874 24.1571 127.08 24.4698C127.285 24.7778 127.546 25.0228 127.864 25.2048C128.186 25.3868 128.543 25.4801 128.935 25.4848C129.355 25.4848 129.735 25.3774 130.076 25.1628C130.416 24.9434 130.692 24.6448 130.902 24.2668L132.099 24.5468C131.819 25.1674 131.396 25.6761 130.832 26.0728C130.267 26.4648 129.635 26.6608 128.935 26.6608ZM126.653 22.4818H131.217C131.179 22.0898 131.053 21.7328 130.839 21.4108C130.624 21.0841 130.351 20.8228 130.02 20.6268C129.688 20.4308 129.327 20.3328 128.935 20.3328C128.543 20.3328 128.183 20.4284 127.857 20.6198C127.53 20.8111 127.259 21.0701 127.045 21.3968C126.835 21.7188 126.704 22.0804 126.653 22.4818ZM133.579 26.4788V19.4788H134.755V20.3538C135.003 20.0271 135.313 19.7681 135.686 19.5768C136.064 19.3808 136.475 19.2828 136.918 19.2828C137.436 19.2828 137.91 19.4088 138.339 19.6608C138.769 19.9128 139.107 20.2464 139.354 20.6618C139.602 20.2464 139.938 19.9128 140.362 19.6608C140.792 19.4088 141.263 19.2828 141.776 19.2828C142.304 19.2828 142.782 19.4111 143.211 19.6678C143.641 19.9198 143.981 20.2604 144.233 20.6898C144.49 21.1191 144.618 21.5974 144.618 22.1248V26.4788H143.442V22.4048C143.442 22.0594 143.358 21.7398 143.19 21.4458C143.022 21.1518 142.796 20.9161 142.511 20.7388C142.227 20.5614 141.912 20.4728 141.566 20.4728C141.221 20.4728 140.906 20.5568 140.621 20.7248C140.337 20.8881 140.11 21.1168 139.942 21.4108C139.774 21.7001 139.69 22.0314 139.69 22.4048V26.4788H138.514V22.4048C138.514 22.0314 138.43 21.7001 138.262 21.4108C138.094 21.1168 137.866 20.8881 137.576 20.7248C137.292 20.5568 136.977 20.4728 136.631 20.4728C136.291 20.4728 135.976 20.5614 135.686 20.7388C135.402 20.9161 135.175 21.1518 135.007 21.4458C134.839 21.7398 134.755 22.0594 134.755 22.4048V26.4788H133.579ZM147.197 29.9788H146.021V19.4788H147.197V20.6758C147.435 20.2651 147.752 19.9338 148.149 19.6818C148.545 19.4251 149.017 19.2968 149.563 19.2968C150.071 19.2968 150.547 19.3924 150.991 19.5838C151.439 19.7751 151.831 20.0411 152.167 20.3818C152.503 20.7178 152.766 21.1074 152.958 21.5508C153.149 21.9941 153.245 22.4701 153.245 22.9788C153.245 23.4874 153.149 23.9658 152.958 24.4138C152.766 24.8618 152.503 25.2561 152.167 25.5968C151.831 25.9328 151.439 26.1964 150.991 26.3878C150.547 26.5791 150.071 26.6748 149.563 26.6748C149.017 26.6748 148.545 26.5488 148.149 26.2968C147.752 26.0401 147.435 25.7064 147.197 25.2958V29.9788ZM149.549 20.4378C149.096 20.4378 148.699 20.5521 148.359 20.7808C148.018 21.0094 147.754 21.3151 147.568 21.6978C147.386 22.0804 147.295 22.5074 147.295 22.9788C147.295 23.4454 147.386 23.8724 147.568 24.2598C147.754 24.6471 148.016 24.9551 148.352 25.1838C148.692 25.4124 149.091 25.5268 149.549 25.5268C150.001 25.5268 150.417 25.4148 150.795 25.1908C151.173 24.9621 151.476 24.6564 151.705 24.2738C151.933 23.8864 152.048 23.4548 152.048 22.9788C152.048 22.5121 151.936 22.0874 151.712 21.7048C151.488 21.3174 151.187 21.0094 150.809 20.7808C150.431 20.5521 150.011 20.4378 149.549 20.4378ZM157.454 26.6608C156.81 26.6608 156.222 26.4951 155.69 26.1638C155.163 25.8324 154.74 25.3891 154.423 24.8338C154.11 24.2738 153.954 23.6554 153.954 22.9788C153.954 22.4654 154.045 21.9871 154.227 21.5438C154.409 21.0958 154.659 20.7038 154.976 20.3678C155.298 20.0271 155.671 19.7611 156.096 19.5698C156.521 19.3784 156.973 19.2828 157.454 19.2828C158.098 19.2828 158.684 19.4484 159.211 19.7798C159.743 20.1111 160.165 20.5568 160.478 21.1168C160.795 21.6768 160.954 22.2974 160.954 22.9788C160.954 23.4874 160.863 23.9634 160.681 24.4068C160.499 24.8501 160.247 25.2421 159.925 25.5828C159.608 25.9188 159.237 26.1824 158.812 26.3738C158.392 26.5651 157.939 26.6608 157.454 26.6608ZM157.454 25.4848C157.893 25.4848 158.287 25.3704 158.637 25.1418C158.992 24.9084 159.269 24.6028 159.47 24.2248C159.675 23.8421 159.778 23.4268 159.778 22.9788C159.778 22.5214 159.673 22.1014 159.463 21.7188C159.258 21.3361 158.98 21.0304 158.63 20.8018C158.28 20.5731 157.888 20.4588 157.454 20.4588C157.015 20.4588 156.621 20.5754 156.271 20.8088C155.921 21.0374 155.643 21.3431 155.438 21.7258C155.233 22.1084 155.13 22.5261 155.13 22.9788C155.13 23.4454 155.235 23.8701 155.445 24.2528C155.655 24.6308 155.937 24.9318 156.292 25.1558C156.647 25.3751 157.034 25.4848 157.454 25.4848ZM162.112 26.4788V19.4788H163.288V20.3538C163.536 20.0271 163.848 19.7681 164.226 19.5768C164.604 19.3808 165.015 19.2828 165.458 19.2828C165.729 19.2828 165.99 19.3178 166.242 19.3878L165.766 20.5638C165.575 20.5031 165.388 20.4728 165.206 20.4728C164.856 20.4728 164.534 20.5591 164.24 20.7318C163.951 20.8998 163.72 21.1284 163.547 21.4178C163.375 21.7071 163.288 22.0291 163.288 22.3838V26.4788H162.112ZM170.799 26.4788V16.6788H171.975V26.4788H170.799ZM180.058 22.1248V26.4788H178.882V22.3838C178.882 22.0291 178.796 21.7071 178.623 21.4178C178.451 21.1284 178.22 20.8998 177.93 20.7318C177.641 20.5591 177.319 20.4728 176.964 20.4728C176.614 20.4728 176.292 20.5591 175.998 20.7318C175.709 20.8998 175.478 21.1284 175.305 21.4178C175.133 21.7071 175.046 22.0291 175.046 22.3838V26.4788H173.87V19.4788H175.046V20.3538C175.294 20.0271 175.606 19.7681 175.984 19.5768C176.362 19.3808 176.773 19.2828 177.216 19.2828C177.739 19.2828 178.215 19.4111 178.644 19.6678C179.078 19.9198 179.421 20.2604 179.673 20.6898C179.93 21.1191 180.058 21.5974 180.058 22.1248ZM186.144 24.6308L187.194 25.1978C186.877 25.6411 186.473 25.9958 185.983 26.2618C185.498 26.5278 184.971 26.6608 184.401 26.6608C183.757 26.6608 183.169 26.4951 182.637 26.1638C182.11 25.8324 181.688 25.3891 181.37 24.8338C181.058 24.2738 180.901 23.6554 180.901 22.9788C180.901 22.4654 180.992 21.9871 181.174 21.5438C181.356 21.0958 181.606 20.7038 181.923 20.3678C182.245 20.0271 182.619 19.7611 183.043 19.5698C183.468 19.3784 183.921 19.2828 184.401 19.2828C184.971 19.2828 185.498 19.4158 185.983 19.6818C186.473 19.9478 186.877 20.3048 187.194 20.7528L186.144 21.3198C185.92 21.0444 185.654 20.8321 185.346 20.6828C185.038 20.5334 184.723 20.4588 184.401 20.4588C183.967 20.4588 183.573 20.5754 183.218 20.8088C182.868 21.0374 182.591 21.3431 182.385 21.7258C182.18 22.1084 182.077 22.5261 182.077 22.9788C182.077 23.4314 182.18 23.8491 182.385 24.2318C182.595 24.6098 182.875 24.9131 183.225 25.1418C183.58 25.3704 183.972 25.4848 184.401 25.4848C184.747 25.4848 185.071 25.4054 185.374 25.2468C185.678 25.0881 185.934 24.8828 186.144 24.6308ZM188.294 19.4788H189.47V26.4788H188.294V19.4788ZM188.896 18.3378C188.709 18.3378 188.553 18.2771 188.427 18.1558C188.301 18.0344 188.238 17.8828 188.238 17.7008C188.238 17.5188 188.301 17.3671 188.427 17.2458C188.553 17.1244 188.707 17.0638 188.889 17.0638C189.071 17.0638 189.225 17.1244 189.351 17.2458C189.477 17.3671 189.54 17.5188 189.54 17.7008C189.54 17.8828 189.477 18.0344 189.351 18.1558C189.23 18.2771 189.078 18.3378 188.896 18.3378ZM196.691 15.9788H197.867V26.4788H196.691V25.2888C196.453 25.6994 196.133 26.0308 195.732 26.2828C195.33 26.5348 194.859 26.6608 194.318 26.6608C193.809 26.6608 193.333 26.5651 192.89 26.3738C192.446 26.1824 192.054 25.9188 191.714 25.5828C191.378 25.2421 191.114 24.8501 190.923 24.4068C190.731 23.9634 190.636 23.4874 190.636 22.9788C190.636 22.4701 190.731 21.9941 190.923 21.5508C191.114 21.1028 191.378 20.7108 191.714 20.3748C192.054 20.0341 192.446 19.7681 192.89 19.5768C193.333 19.3854 193.809 19.2898 194.318 19.2898C194.859 19.2898 195.33 19.4158 195.732 19.6678C196.133 19.9198 196.453 20.2511 196.691 20.6618V15.9788ZM194.332 25.5198C194.794 25.5198 195.193 25.4078 195.529 25.1838C195.869 24.9551 196.131 24.6471 196.313 24.2598C196.499 23.8724 196.593 23.4454 196.593 22.9788C196.593 22.5028 196.499 22.0734 196.313 21.6908C196.126 21.3034 195.862 20.9978 195.522 20.7738C195.186 20.5451 194.789 20.4308 194.332 20.4308C193.87 20.4308 193.45 20.5451 193.072 20.7738C192.698 21.0024 192.4 21.3104 192.176 21.6978C191.952 22.0804 191.84 22.5074 191.84 22.9788C191.84 23.4501 191.954 23.8794 192.183 24.2668C192.411 24.6494 192.715 24.9551 193.093 25.1838C193.471 25.4078 193.884 25.5198 194.332 25.5198ZM199.546 19.4788H200.722V26.4788H199.546V19.4788ZM200.148 18.3378C199.961 18.3378 199.805 18.2771 199.679 18.1558C199.553 18.0344 199.49 17.8828 199.49 17.7008C199.49 17.5188 199.553 17.3671 199.679 17.2458C199.805 17.1244 199.959 17.0638 200.141 17.0638C200.323 17.0638 200.477 17.1244 200.603 17.2458C200.729 17.3671 200.792 17.5188 200.792 17.7008C200.792 17.8828 200.729 18.0344 200.603 18.1558C200.482 18.2771 200.33 18.3378 200.148 18.3378ZM207.943 15.9788H209.119V26.4788H207.943V25.2888C207.705 25.6994 207.385 26.0308 206.984 26.2828C206.582 26.5348 206.111 26.6608 205.57 26.6608C205.061 26.6608 204.585 26.5651 204.142 26.3738C203.698 26.1824 203.306 25.9188 202.966 25.5828C202.63 25.2421 202.366 24.8501 202.175 24.4068C201.983 23.9634 201.888 23.4874 201.888 22.9788C201.888 22.4701 201.983 21.9941 202.175 21.5508C202.366 21.1028 202.63 20.7108 202.966 20.3748C203.306 20.0341 203.698 19.7681 204.142 19.5768C204.585 19.3854 205.061 19.2898 205.57 19.2898C206.111 19.2898 206.582 19.4158 206.984 19.6678C207.385 19.9198 207.705 20.2511 207.943 20.6618V15.9788ZM205.584 25.5198C206.046 25.5198 206.445 25.4078 206.781 25.1838C207.121 24.9551 207.383 24.6471 207.565 24.2598C207.751 23.8724 207.845 23.4454 207.845 22.9788C207.845 22.5028 207.751 22.0734 207.565 21.6908C207.378 21.3034 207.114 20.9978 206.774 20.7738C206.438 20.5451 206.041 20.4308 205.584 20.4308C205.122 20.4308 204.702 20.5451 204.324 20.7738C203.95 21.0024 203.652 21.3104 203.428 21.6978C203.204 22.0804 203.092 22.5074 203.092 22.9788C203.092 23.4501 203.206 23.8794 203.435 24.2668C203.663 24.6494 203.967 24.9551 204.345 25.1838C204.723 25.4078 205.136 25.5198 205.584 25.5198ZM210.518 23.8188V19.4788H211.694V23.5598C211.694 23.9144 211.78 24.2364 211.953 24.5258C212.126 24.8151 212.357 25.0461 212.646 25.2188C212.94 25.3868 213.262 25.4708 213.612 25.4708C213.967 25.4708 214.286 25.3868 214.571 25.2188C214.86 25.0461 215.091 24.8151 215.264 24.5258C215.437 24.2364 215.523 23.9144 215.523 23.5598V19.4788H216.699L216.706 26.4788H215.53L215.523 25.5898C215.276 25.9164 214.963 26.1778 214.585 26.3738C214.207 26.5651 213.799 26.6608 213.36 26.6608C212.837 26.6608 212.359 26.5348 211.925 26.2828C211.496 26.0261 211.153 25.6831 210.896 25.2538C210.644 24.8244 210.518 24.3461 210.518 23.8188ZM224.3 22.1248V26.4788H223.124V22.3838C223.124 22.0291 223.038 21.7071 222.865 21.4178C222.693 21.1284 222.462 20.8998 222.172 20.7318C221.883 20.5591 221.561 20.4728 221.206 20.4728C220.856 20.4728 220.534 20.5591 220.24 20.7318C219.951 20.8998 219.72 21.1284 219.547 21.4178C219.375 21.7071 219.288 22.0291 219.288 22.3838V26.4788H218.112V19.4788H219.288V20.3538C219.536 20.0271 219.848 19.7681 220.226 19.5768C220.604 19.3808 221.015 19.2828 221.458 19.2828C221.981 19.2828 222.457 19.4111 222.886 19.6678C223.32 19.9198 223.663 20.2604 223.915 20.6898C224.172 21.1191 224.3 21.5974 224.3 22.1248ZM229.326 20.6548H227.737L227.73 26.4788H226.554L226.561 20.6548H225.357V19.4788H226.561L226.554 17.2808H227.73L227.737 19.4788H229.326V20.6548ZM237.78 26.6608C236.996 26.6608 236.315 26.4694 235.736 26.0868C235.162 25.7041 234.719 25.1908 234.406 24.5468C234.098 23.8981 233.944 23.1794 233.944 22.3908V16.6788H235.12V22.3908C235.12 22.9508 235.223 23.4664 235.428 23.9378C235.638 24.4091 235.939 24.7848 236.331 25.0648C236.728 25.3448 237.211 25.4848 237.78 25.4848C238.359 25.4848 238.844 25.3448 239.236 25.0648C239.628 24.7801 239.925 24.4044 240.125 23.9378C240.331 23.4664 240.433 22.9508 240.433 22.3908V16.6788H241.609V22.3908C241.609 22.9834 241.521 23.5388 241.343 24.0568C241.166 24.5701 240.909 25.0228 240.573 25.4148C240.242 25.8068 239.841 26.1124 239.369 26.3318C238.898 26.5511 238.368 26.6608 237.78 26.6608ZM246.922 20.6548H245.333L245.326 26.4788H244.15L244.157 20.6548H242.953V19.4788H244.157L244.15 17.2808H245.326L245.333 19.4788H246.922V20.6548ZM251.54 26.4788V16.6788H252.716V25.3028H257.105V26.4788H251.54ZM263.594 19.4788H264.77V26.4788H263.594L263.545 25.2958C263.326 25.7018 263.022 26.0308 262.635 26.2828C262.252 26.5348 261.795 26.6608 261.263 26.6608C260.75 26.6608 260.269 26.5651 259.821 26.3738C259.373 26.1778 258.976 25.9094 258.631 25.5688C258.29 25.2234 258.024 24.8268 257.833 24.3788C257.642 23.9308 257.546 23.4478 257.546 22.9298C257.546 22.4304 257.639 21.9591 257.826 21.5158C258.013 21.0724 258.272 20.6851 258.603 20.3538C258.939 20.0178 259.326 19.7564 259.765 19.5698C260.204 19.3784 260.675 19.2828 261.179 19.2828C261.73 19.2828 262.213 19.4134 262.628 19.6748C263.043 19.9314 263.379 20.2651 263.636 20.6758L263.594 19.4788ZM261.242 25.5198C261.704 25.5198 262.103 25.4078 262.439 25.1838C262.78 24.9551 263.041 24.6471 263.223 24.2598C263.41 23.8724 263.503 23.4454 263.503 22.9788C263.503 22.5028 263.41 22.0734 263.223 21.6908C263.036 21.3034 262.773 20.9978 262.432 20.7738C262.096 20.5451 261.699 20.4308 261.242 20.4308C260.78 20.4308 260.36 20.5451 259.982 20.7738C259.604 21.0024 259.303 21.3104 259.079 21.6978C258.86 22.0804 258.75 22.5074 258.75 22.9788C258.75 23.4501 258.864 23.8794 259.093 24.2668C259.322 24.6494 259.625 24.9551 260.003 25.1838C260.381 25.4078 260.794 25.5198 261.242 25.5198ZM269.793 19.2828C270.474 19.2828 271.093 19.4484 271.648 19.7798C272.208 20.1111 272.654 20.5568 272.985 21.1168C273.316 21.6721 273.482 22.2904 273.482 22.9718C273.482 23.4804 273.386 23.9588 273.195 24.4068C273.004 24.8501 272.738 25.2421 272.397 25.5828C272.061 25.9188 271.669 26.1824 271.221 26.3738C270.778 26.5651 270.302 26.6608 269.793 26.6608C269.252 26.6608 268.78 26.5348 268.379 26.2828C267.982 26.0261 267.665 25.6924 267.427 25.2818V26.4788H266.251V15.9788H267.427V20.6618C267.665 20.2511 267.982 19.9198 268.379 19.6678C268.78 19.4111 269.252 19.2828 269.793 19.2828ZM269.779 25.5128C270.241 25.5128 270.661 25.3984 271.039 25.1698C271.417 24.9411 271.718 24.6354 271.942 24.2528C272.166 23.8654 272.278 23.4384 272.278 22.9718C272.278 22.4958 272.164 22.0664 271.935 21.6838C271.706 21.2964 271.403 20.9908 271.025 20.7668C270.647 20.5381 270.232 20.4238 269.779 20.4238C269.322 20.4238 268.923 20.5381 268.582 20.7668C268.246 20.9954 267.985 21.3034 267.798 21.6908C267.616 22.0781 267.525 22.5051 267.525 22.9718C267.525 23.4431 267.616 23.8724 267.798 24.2598C267.985 24.6424 268.248 24.9481 268.589 25.1768C268.93 25.4008 269.326 25.5128 269.779 25.5128ZM277.685 26.6608C277.041 26.6608 276.453 26.4951 275.921 26.1638C275.393 25.8324 274.971 25.3891 274.654 24.8338C274.341 24.2738 274.185 23.6554 274.185 22.9788C274.185 22.4654 274.276 21.9871 274.458 21.5438C274.64 21.0958 274.889 20.7038 275.207 20.3678C275.529 20.0271 275.902 19.7611 276.327 19.5698C276.751 19.3784 277.204 19.2828 277.685 19.2828C278.329 19.2828 278.914 19.4484 279.442 19.7798C279.974 20.1111 280.396 20.5568 280.709 21.1168C281.026 21.6768 281.185 22.2974 281.185 22.9788C281.185 23.4874 281.094 23.9634 280.912 24.4068C280.73 24.8501 280.478 25.2421 280.156 25.5828C279.838 25.9188 279.467 26.1824 279.043 26.3738C278.623 26.5651 278.17 26.6608 277.685 26.6608ZM277.685 25.4848C278.123 25.4848 278.518 25.3704 278.868 25.1418C279.222 24.9084 279.5 24.6028 279.701 24.2248C279.906 23.8421 280.009 23.4268 280.009 22.9788C280.009 22.5214 279.904 22.1014 279.694 21.7188C279.488 21.3361 279.211 21.0304 278.861 20.8018C278.511 20.5731 278.119 20.4588 277.685 20.4588C277.246 20.4588 276.852 20.5754 276.502 20.8088C276.152 21.0374 275.874 21.3431 275.669 21.7258C275.463 22.1084 275.361 22.5261 275.361 22.9788C275.361 23.4454 275.466 23.8701 275.676 24.2528C275.886 24.6308 276.168 24.9318 276.523 25.1558C276.877 25.3751 277.265 25.4848 277.685 25.4848ZM282.343 26.4788V19.4788H283.519V20.3538C283.766 20.0271 284.079 19.7681 284.457 19.5768C284.835 19.3808 285.246 19.2828 285.689 19.2828C285.96 19.2828 286.221 19.3178 286.473 19.3878L285.997 20.5638C285.806 20.5031 285.619 20.4728 285.437 20.4728C285.087 20.4728 284.765 20.5591 284.471 20.7318C284.182 20.8998 283.951 21.1284 283.778 21.4178C283.605 21.7071 283.519 22.0291 283.519 22.3838V26.4788H282.343ZM290.058 26.6608C289.414 26.6608 288.826 26.4951 288.294 26.1638C287.766 25.8324 287.344 25.3891 287.027 24.8338C286.714 24.2738 286.558 23.6554 286.558 22.9788C286.558 22.4654 286.649 21.9871 286.831 21.5438C287.013 21.0958 287.262 20.7038 287.58 20.3678C287.902 20.0271 288.275 19.7611 288.7 19.5698C289.124 19.3784 289.577 19.2828 290.058 19.2828C290.585 19.2828 291.068 19.3901 291.507 19.6048C291.95 19.8148 292.328 20.1088 292.641 20.4868C292.958 20.8648 293.194 21.3034 293.348 21.8028C293.506 22.3021 293.565 22.8364 293.523 23.4058H287.811C287.867 23.8024 287.997 24.1571 288.203 24.4698C288.408 24.7778 288.669 25.0228 288.987 25.2048C289.309 25.3868 289.666 25.4801 290.058 25.4848C290.478 25.4848 290.858 25.3774 291.199 25.1628C291.539 24.9434 291.815 24.6448 292.025 24.2668L293.222 24.5468C292.942 25.1674 292.519 25.6761 291.955 26.0728C291.39 26.4648 290.758 26.6608 290.058 26.6608ZM287.776 22.4818H292.34C292.302 22.0898 292.176 21.7328 291.962 21.4108C291.747 21.0841 291.474 20.8228 291.143 20.6268C290.811 20.4308 290.45 20.3328 290.058 20.3328C289.666 20.3328 289.306 20.4284 288.98 20.6198C288.653 20.8111 288.382 21.0701 288.168 21.3968C287.958 21.7188 287.827 22.0804 287.776 22.4818ZM14.0187 43.4788V33.6788H20.0317V34.8548H15.1947V37.6408H19.1567V38.8168H15.1947V42.3028H20.0317V43.4788H14.0187ZM25.1916 37.6548H23.6026L23.5956 43.4788H22.4196L22.4266 37.6548H21.2226V36.4788H22.4266L22.4196 34.2808H23.5956L23.6026 36.4788H25.1916V37.6548ZM29.8097 43.4788L31.7067 33.6788H32.6097L35.2557 40.6368L37.8947 33.6788H38.7977L40.7017 43.4788H39.5047L38.1257 36.3668L35.6407 42.9468H34.8637L32.3787 36.3668L31.0067 43.4788H29.8097ZM47.4006 36.4788H48.5766V43.4788H47.4006L47.3516 42.2958C47.1323 42.7018 46.8289 43.0308 46.4416 43.2828C46.0589 43.5348 45.6016 43.6608 45.0696 43.6608C44.5563 43.6608 44.0756 43.5651 43.6276 43.3738C43.1796 43.1778 42.7829 42.9094 42.4376 42.5688C42.0969 42.2234 41.8309 41.8268 41.6396 41.3788C41.4483 40.9308 41.3526 40.4478 41.3526 39.9298C41.3526 39.4304 41.4459 38.9591 41.6326 38.5158C41.8193 38.0724 42.0783 37.6851 42.4096 37.3538C42.7456 37.0178 43.1329 36.7564 43.5716 36.5698C44.0103 36.3784 44.4816 36.2828 44.9856 36.2828C45.5363 36.2828 46.0193 36.4134 46.4346 36.6748C46.8499 36.9314 47.1859 37.2651 47.4426 37.6758L47.4006 36.4788ZM45.0486 42.5198C45.5106 42.5198 45.9096 42.4078 46.2456 42.1838C46.5863 41.9551 46.8476 41.6471 47.0296 41.2598C47.2163 40.8724 47.3096 40.4454 47.3096 39.9788C47.3096 39.5028 47.2163 39.0734 47.0296 38.6908C46.8429 38.3034 46.5793 37.9978 46.2386 37.7738C45.9026 37.5451 45.5059 37.4308 45.0486 37.4308C44.5866 37.4308 44.1666 37.5451 43.7886 37.7738C43.4106 38.0024 43.1096 38.3104 42.8856 38.6978C42.6663 39.0804 42.5566 39.5074 42.5566 39.9788C42.5566 40.4501 42.6709 40.8794 42.8996 41.2668C43.1283 41.6494 43.4316 41.9551 43.8096 42.1838C44.1876 42.4078 44.6006 42.5198 45.0486 42.5198ZM55.306 36.4788H56.482V43.7028C56.482 44.1648 56.3817 44.5941 56.181 44.9908C55.985 45.3921 55.719 45.7398 55.383 46.0338C55.047 46.3324 54.6643 46.5634 54.235 46.7268C53.8057 46.8948 53.3577 46.9788 52.891 46.9788C52.4057 46.9788 51.9367 46.8691 51.484 46.6498C51.0313 46.4351 50.6347 46.1458 50.294 45.7818C49.958 45.4224 49.7153 45.0188 49.566 44.5708L50.644 44.0808C50.7327 44.4028 50.8913 44.6921 51.12 44.9488C51.3533 45.2101 51.624 45.4154 51.932 45.5648C52.2447 45.7188 52.5643 45.7958 52.891 45.7958C53.199 45.7958 53.4953 45.7421 53.78 45.6348C54.0693 45.5274 54.3283 45.3781 54.557 45.1868C54.7903 45.0001 54.9723 44.7784 55.103 44.5218C55.2383 44.2698 55.306 43.9968 55.306 43.7028V42.3098C55.068 42.7111 54.753 43.0378 54.361 43.2898C53.9737 43.5371 53.521 43.6608 53.003 43.6608C52.5083 43.6608 52.044 43.5651 51.61 43.3738C51.176 43.1824 50.7957 42.9188 50.469 42.5828C50.1423 42.2421 49.8857 41.8501 49.699 41.4068C49.5123 40.9634 49.419 40.4874 49.419 39.9788C49.419 39.4701 49.5123 38.9941 49.699 38.5508C49.8857 38.1028 50.1423 37.7108 50.469 37.3748C50.7957 37.0341 51.176 36.7681 51.61 36.5768C52.044 36.3854 52.5083 36.2898 53.003 36.2898C53.521 36.2898 53.9737 36.4134 54.361 36.6608C54.753 36.9081 55.068 37.2348 55.306 37.6408V36.4788ZM53.01 42.5198C53.4627 42.5198 53.8547 42.4031 54.186 42.1698C54.522 41.9364 54.781 41.6261 54.963 41.2388C55.145 40.8514 55.236 40.4314 55.236 39.9788C55.236 39.5121 55.1427 39.0874 54.956 38.7048C54.774 38.3174 54.515 38.0094 54.179 37.7808C53.8477 37.5474 53.458 37.4308 53.01 37.4308C52.5713 37.4308 52.17 37.5451 51.806 37.7738C51.442 38.0024 51.1527 38.3104 50.938 38.6978C50.728 39.0804 50.623 39.5074 50.623 39.9788C50.623 40.4501 50.7303 40.8794 50.945 41.2668C51.1643 41.6494 51.4537 41.9551 51.813 42.1838C52.177 42.4078 52.576 42.5198 53.01 42.5198ZM64.3532 39.1248V43.4788H63.1772V39.3838C63.1772 39.0291 63.0908 38.7071 62.9182 38.4178C62.7455 38.1284 62.5145 37.8998 62.2252 37.7318C61.9358 37.5591 61.6138 37.4728 61.2592 37.4728C60.9092 37.4728 60.5872 37.5591 60.2932 37.7318C60.0038 37.8998 59.7728 38.1284 59.6002 38.4178C59.4275 38.7071 59.3412 39.0291 59.3412 39.3838V43.4788H58.1652V36.4788H59.3412V37.3538C59.5885 37.0271 59.9012 36.7681 60.2792 36.5768C60.6572 36.3808 61.0678 36.2828 61.5112 36.2828C62.0338 36.2828 62.5098 36.4111 62.9392 36.6678C63.3732 36.9198 63.7162 37.2604 63.9682 37.6898C64.2248 38.1191 64.3532 38.5974 64.3532 39.1248ZM71.2443 36.4788H72.4203V43.4788H71.2443L71.1953 42.2958C70.976 42.7018 70.6727 43.0308 70.2853 43.2828C69.9027 43.5348 69.4453 43.6608 68.9133 43.6608C68.4 43.6608 67.9193 43.5651 67.4713 43.3738C67.0233 43.1778 66.6267 42.9094 66.2813 42.5688C65.9407 42.2234 65.6747 41.8268 65.4833 41.3788C65.292 40.9308 65.1963 40.4478 65.1963 39.9298C65.1963 39.4304 65.2897 38.9591 65.4763 38.5158C65.663 38.0724 65.922 37.6851 66.2533 37.3538C66.5893 37.0178 66.9767 36.7564 67.4153 36.5698C67.854 36.3784 68.3253 36.2828 68.8293 36.2828C69.38 36.2828 69.863 36.4134 70.2783 36.6748C70.6937 36.9314 71.0297 37.2651 71.2863 37.6758L71.2443 36.4788ZM68.8923 42.5198C69.3543 42.5198 69.7533 42.4078 70.0893 42.1838C70.43 41.9551 70.6913 41.6471 70.8733 41.2598C71.06 40.8724 71.1533 40.4454 71.1533 39.9788C71.1533 39.5028 71.06 39.0734 70.8733 38.6908C70.6867 38.3034 70.423 37.9978 70.0823 37.7738C69.7463 37.5451 69.3497 37.4308 68.8923 37.4308C68.4303 37.4308 68.0103 37.5451 67.6323 37.7738C67.2543 38.0024 66.9533 38.3104 66.7293 38.6978C66.51 39.0804 66.4003 39.5074 66.4003 39.9788C66.4003 40.4501 66.5147 40.8794 66.7433 41.2668C66.972 41.6494 67.2753 41.9551 67.6533 42.1838C68.0313 42.4078 68.4443 42.5198 68.8923 42.5198ZM80.4657 33.6788H81.8867L85.4497 43.4788H84.2037L83.4757 41.4768H78.8767L78.1557 43.4788H76.9027L80.4657 33.6788ZM79.3107 40.3008H83.0417L81.1727 35.1838L79.3107 40.3008ZM86.7257 43.4788V32.9788H87.9017V43.4788H86.7257ZM89.5831 36.4788H90.7591V43.4788H89.5831V36.4788ZM90.1851 35.3378C89.9985 35.3378 89.8421 35.2771 89.7161 35.1558C89.5901 35.0344 89.5271 34.8828 89.5271 34.7008C89.5271 34.5188 89.5901 34.3671 89.7161 34.2458C89.8421 34.1244 89.9961 34.0638 90.1781 34.0638C90.3601 34.0638 90.5141 34.1244 90.6401 34.2458C90.7661 34.3671 90.8291 34.5188 90.8291 34.7008C90.8291 34.8828 90.7661 35.0344 90.6401 35.1558C90.5188 35.2771 90.3671 35.3378 90.1851 35.3378ZM95.6069 43.6748C94.9302 43.6748 94.3119 43.5091 93.7519 43.1778C93.1965 42.8464 92.7532 42.4008 92.4219 41.8408C92.0905 41.2808 91.9249 40.6601 91.9249 39.9788C91.9249 39.4701 92.0205 38.9941 92.2119 38.5508C92.4032 38.1074 92.6669 37.7178 93.0029 37.3818C93.3435 37.0411 93.7355 36.7751 94.1789 36.5838C94.6222 36.3924 95.0982 36.2968 95.6069 36.2968C96.1482 36.2968 96.6172 36.4251 97.0139 36.6818C97.4152 36.9338 97.7349 37.2651 97.9729 37.6758V36.4788H99.1489V46.9788H97.9729V42.2958C97.7349 42.7064 97.4152 43.0401 97.0139 43.2968C96.6172 43.5488 96.1482 43.6748 95.6069 43.6748ZM95.6209 37.4378C95.1589 37.4378 94.7389 37.5521 94.3609 37.7808C93.9829 38.0094 93.6819 38.3174 93.4579 38.7048C93.2385 39.0874 93.1289 39.5121 93.1289 39.9788C93.1289 40.4548 93.2409 40.8864 93.4649 41.2738C93.6935 41.6564 93.9969 41.9621 94.3749 42.1908C94.7529 42.4148 95.1682 42.5268 95.6209 42.5268C96.0829 42.5268 96.4819 42.4124 96.8179 42.1838C97.1539 41.9551 97.4129 41.6471 97.5949 41.2598C97.7815 40.8724 97.8749 40.4454 97.8749 39.9788C97.8749 39.5074 97.7815 39.0804 97.5949 38.6978C97.4129 38.3151 97.1515 38.0094 96.8109 37.7808C96.4749 37.5521 96.0782 37.4378 95.6209 37.4378ZM100.432 40.8188V36.4788H101.608V40.5598C101.608 40.9144 101.694 41.2364 101.867 41.5258C102.04 41.8151 102.271 42.0461 102.56 42.2188C102.854 42.3868 103.176 42.4708 103.526 42.4708C103.881 42.4708 104.2 42.3868 104.485 42.2188C104.774 42.0461 105.005 41.8151 105.178 41.5258C105.351 41.2364 105.437 40.9144 105.437 40.5598V36.4788H106.613L106.62 43.4788H105.444L105.437 42.5898C105.19 42.9164 104.877 43.1778 104.499 43.3738C104.121 43.5651 103.713 43.6608 103.274 43.6608C102.751 43.6608 102.273 43.5348 101.839 43.2828C101.41 43.0261 101.067 42.6831 100.81 42.2538C100.558 41.8244 100.432 41.3461 100.432 40.8188ZM113.586 36.4788H114.762V43.4788H113.586L113.537 42.2958C113.318 42.7018 113.014 43.0308 112.627 43.2828C112.244 43.5348 111.787 43.6608 111.255 43.6608C110.742 43.6608 110.261 43.5651 109.813 43.3738C109.365 43.1778 108.968 42.9094 108.623 42.5688C108.282 42.2234 108.016 41.8268 107.825 41.3788C107.634 40.9308 107.538 40.4478 107.538 39.9298C107.538 39.4304 107.631 38.9591 107.818 38.5158C108.005 38.0724 108.264 37.6851 108.595 37.3538C108.931 37.0178 109.318 36.7564 109.757 36.5698C110.196 36.3784 110.667 36.2828 111.171 36.2828C111.722 36.2828 112.205 36.4134 112.62 36.6748C113.035 36.9314 113.371 37.2651 113.628 37.6758L113.586 36.4788ZM111.234 42.5198C111.696 42.5198 112.095 42.4078 112.431 42.1838C112.772 41.9551 113.033 41.6471 113.215 41.2598C113.402 40.8724 113.495 40.4454 113.495 39.9788C113.495 39.5028 113.402 39.0734 113.215 38.6908C113.028 38.3034 112.765 37.9978 112.424 37.7738C112.088 37.5451 111.691 37.4308 111.234 37.4308C110.772 37.4308 110.352 37.5451 109.974 37.7738C109.596 38.0024 109.295 38.3104 109.071 38.6978C108.852 39.0804 108.742 39.5074 108.742 39.9788C108.742 40.4501 108.856 40.8794 109.085 41.2668C109.314 41.6494 109.617 41.9551 109.995 42.1838C110.373 42.4078 110.786 42.5198 111.234 42.5198ZM116.518 43.6608C116.341 43.6608 116.189 43.5978 116.063 43.4718C115.942 43.3458 115.881 43.1918 115.881 43.0098C115.881 42.8371 115.942 42.6878 116.063 42.5618C116.189 42.4358 116.341 42.3728 116.518 42.3728C116.7 42.3728 116.854 42.4358 116.98 42.5618C117.106 42.6878 117.169 42.8371 117.169 43.0098C117.169 43.1918 117.106 43.3458 116.98 43.4718C116.854 43.5978 116.7 43.6608 116.518 43.6608ZM126.054 43.6608C125.27 43.6608 124.589 43.4694 124.01 43.0868C123.436 42.7041 122.993 42.1908 122.68 41.5468C122.372 40.8981 122.218 40.1794 122.218 39.3908V33.6788H123.394V39.3908C123.394 39.9508 123.497 40.4664 123.702 40.9378C123.912 41.4091 124.213 41.7848 124.605 42.0648C125.002 42.3448 125.485 42.4848 126.054 42.4848C126.633 42.4848 127.118 42.3448 127.51 42.0648C127.902 41.7801 128.198 41.4044 128.399 40.9378C128.604 40.4664 128.707 39.9508 128.707 39.3908V33.6788H129.883V39.3908C129.883 39.9834 129.794 40.5388 129.617 41.0568C129.44 41.5701 129.183 42.0228 128.847 42.4148C128.516 42.8068 128.114 43.1124 127.643 43.3318C127.172 43.5511 126.642 43.6608 126.054 43.6608ZM135.195 37.6548H133.606L133.599 43.4788H132.423L132.43 37.6548H131.226V36.4788H132.43L132.423 34.2808H133.599L133.606 36.4788H135.195V37.6548ZM139.814 43.4788V33.6788H145.827V34.8548H140.99V37.6408H144.952V38.8168H140.99V42.3028H145.827V43.4788H139.814ZM153.548 39.1248V43.4788H152.372V39.3838C152.372 39.0291 152.286 38.7071 152.113 38.4178C151.941 38.1284 151.71 37.8998 151.42 37.7318C151.131 37.5591 150.809 37.4728 150.454 37.4728C150.104 37.4728 149.782 37.5591 149.488 37.7318C149.199 37.8998 148.968 38.1284 148.795 38.4178C148.623 38.7071 148.536 39.0291 148.536 39.3838V43.4788H147.36V36.4788H148.536V37.3538C148.784 37.0271 149.096 36.7681 149.474 36.5768C149.852 36.3808 150.263 36.2828 150.706 36.2828C151.229 36.2828 151.705 36.4111 152.134 36.6678C152.568 36.9198 152.911 37.2604 153.163 37.6898C153.42 38.1191 153.548 38.5974 153.548 39.1248ZM154.948 36.4788H156.124V43.4788H154.948V36.4788ZM155.55 35.3378C155.364 35.3378 155.207 35.2771 155.081 35.1558C154.955 35.0344 154.892 34.8828 154.892 34.7008C154.892 34.5188 154.955 34.3671 155.081 34.2458C155.207 34.1244 155.361 34.0638 155.543 34.0638C155.725 34.0638 155.879 34.1244 156.005 34.2458C156.131 34.3671 156.194 34.5188 156.194 34.7008C156.194 34.8828 156.131 35.0344 156.005 35.1558C155.884 35.2771 155.732 35.3378 155.55 35.3378ZM157.765 43.4788V36.4788H158.941V37.3538C159.188 37.0271 159.498 36.7681 159.872 36.5768C160.25 36.3808 160.66 36.2828 161.104 36.2828C161.622 36.2828 162.095 36.4088 162.525 36.6608C162.954 36.9128 163.292 37.2464 163.54 37.6618C163.787 37.2464 164.123 36.9128 164.548 36.6608C164.977 36.4088 165.448 36.2828 165.962 36.2828C166.489 36.2828 166.967 36.4111 167.397 36.6678C167.826 36.9198 168.167 37.2604 168.419 37.6898C168.675 38.1191 168.804 38.5974 168.804 39.1248V43.4788H167.628V39.4048C167.628 39.0594 167.544 38.7398 167.376 38.4458C167.208 38.1518 166.981 37.9161 166.697 37.7388C166.412 37.5614 166.097 37.4728 165.752 37.4728C165.406 37.4728 165.091 37.5568 164.807 37.7248C164.522 37.8881 164.296 38.1168 164.128 38.4108C163.96 38.7001 163.876 39.0314 163.876 39.4048V43.4788H162.7V39.4048C162.7 39.0314 162.616 38.7001 162.448 38.4108C162.28 38.1168 162.051 37.8881 161.762 37.7248C161.477 37.5568 161.162 37.4728 160.817 37.4728C160.476 37.4728 160.161 37.5614 159.872 37.7388C159.587 37.9161 159.361 38.1518 159.193 38.4458C159.025 38.7398 158.941 39.0594 158.941 39.4048V43.4788H157.765ZM176.852 33.6788H178.273L181.836 43.4788H180.59L179.862 41.4768H175.263L174.542 43.4788H173.289L176.852 33.6788ZM175.697 40.3008H179.428L177.559 35.1838L175.697 40.3008ZM188.173 32.9788H189.349V43.4788H188.173V42.2888C187.935 42.6994 187.616 43.0308 187.214 43.2828C186.813 43.5348 186.342 43.6608 185.8 43.6608C185.292 43.6608 184.816 43.5651 184.372 43.3738C183.929 43.1824 183.537 42.9188 183.196 42.5828C182.86 42.2421 182.597 41.8501 182.405 41.4068C182.214 40.9634 182.118 40.4874 182.118 39.9788C182.118 39.4701 182.214 38.9941 182.405 38.5508C182.597 38.1028 182.86 37.7108 183.196 37.3748C183.537 37.0341 183.929 36.7681 184.372 36.5768C184.816 36.3854 185.292 36.2898 185.8 36.2898C186.342 36.2898 186.813 36.4158 187.214 36.6678C187.616 36.9198 187.935 37.2511 188.173 37.6618V32.9788ZM185.814 42.5198C186.276 42.5198 186.675 42.4078 187.011 42.1838C187.352 41.9551 187.613 41.6471 187.795 41.2598C187.982 40.8724 188.075 40.4454 188.075 39.9788C188.075 39.5028 187.982 39.0734 187.795 38.6908C187.609 38.3034 187.345 37.9978 187.004 37.7738C186.668 37.5451 186.272 37.4308 185.814 37.4308C185.352 37.4308 184.932 37.5451 184.554 37.7738C184.181 38.0024 183.882 38.3104 183.658 38.6978C183.434 39.0804 183.322 39.5074 183.322 39.9788C183.322 40.4501 183.437 40.8794 183.665 41.2668C183.894 41.6494 184.197 41.9551 184.575 42.1838C184.953 42.4078 185.366 42.5198 185.814 42.5198ZM194.392 43.4788L196.289 33.6788H197.192L199.838 40.6368L202.477 33.6788H203.38L205.284 43.4788H204.087L202.708 36.3668L200.223 42.9468H199.446L196.961 36.3668L195.589 43.4788H194.392ZM206.806 36.4788H207.982V43.4788H206.806V36.4788ZM207.408 35.3378C207.221 35.3378 207.065 35.2771 206.939 35.1558C206.813 35.0344 206.75 34.8828 206.75 34.7008C206.75 34.5188 206.813 34.3671 206.939 34.2458C207.065 34.1244 207.219 34.0638 207.401 34.0638C207.583 34.0638 207.737 34.1244 207.863 34.2458C207.989 34.3671 208.052 34.5188 208.052 34.7008C208.052 34.8828 207.989 35.0344 207.863 35.1558C207.741 35.2771 207.59 35.3378 207.408 35.3378ZM215.81 39.1248V43.4788H214.634V39.3838C214.634 39.0291 214.548 38.7071 214.375 38.4178C214.203 38.1284 213.972 37.8998 213.682 37.7318C213.393 37.5591 213.071 37.4728 212.716 37.4728C212.366 37.4728 212.044 37.5591 211.75 37.7318C211.461 37.8998 211.23 38.1284 211.057 38.4178C210.885 38.7071 210.798 39.0291 210.798 39.3838V43.4788H209.622V36.4788H210.798V37.3538C211.046 37.0271 211.358 36.7681 211.736 36.5768C212.114 36.3808 212.525 36.2828 212.968 36.2828C213.491 36.2828 213.967 36.4111 214.396 36.6678C214.83 36.9198 215.173 37.2604 215.425 37.6898C215.682 38.1191 215.81 38.5974 215.81 39.1248ZM217.21 36.4788H218.386V43.4788H217.21V36.4788ZM217.812 35.3378C217.625 35.3378 217.469 35.2771 217.343 35.1558C217.217 35.0344 217.154 34.8828 217.154 34.7008C217.154 34.5188 217.217 34.3671 217.343 34.2458C217.469 34.1244 217.623 34.0638 217.805 34.0638C217.987 34.0638 218.141 34.1244 218.267 34.2458C218.393 34.3671 218.456 34.5188 218.456 34.7008C218.456 34.8828 218.393 35.0344 218.267 35.1558C218.146 35.2771 217.994 35.3378 217.812 35.3378ZM220.026 43.4788V36.4788H221.202V37.3538C221.45 37.0271 221.76 36.7681 222.133 36.5768C222.511 36.3808 222.922 36.2828 223.365 36.2828C223.883 36.2828 224.357 36.4088 224.786 36.6608C225.216 36.9128 225.554 37.2464 225.801 37.6618C226.049 37.2464 226.385 36.9128 226.809 36.6608C227.239 36.4088 227.71 36.2828 228.223 36.2828C228.751 36.2828 229.229 36.4111 229.658 36.6678C230.088 36.9198 230.428 37.2604 230.68 37.6898C230.937 38.1191 231.065 38.5974 231.065 39.1248V43.4788H229.889V39.4048C229.889 39.0594 229.805 38.7398 229.637 38.4458C229.469 38.1518 229.243 37.9161 228.958 37.7388C228.674 37.5614 228.359 37.4728 228.013 37.4728C227.668 37.4728 227.353 37.5568 227.068 37.7248C226.784 37.8881 226.557 38.1168 226.389 38.4108C226.221 38.7001 226.137 39.0314 226.137 39.4048V43.4788H224.961V39.4048C224.961 39.0314 224.877 38.7001 224.709 38.4108C224.541 38.1168 224.313 37.8881 224.023 37.7248C223.739 37.5568 223.424 37.4728 223.078 37.4728C222.738 37.4728 222.423 37.5614 222.133 37.7388C221.849 37.9161 221.622 38.1518 221.454 38.4458C221.286 38.7398 221.202 39.0594 221.202 39.4048V43.4788H220.026ZM238.939 43.4788L235.383 33.6788H236.629L239.667 42.0438L242.712 33.6788H243.951L240.395 43.4788H238.939ZM247.456 43.6608C246.812 43.6608 246.224 43.4951 245.692 43.1638C245.165 42.8324 244.742 42.3891 244.425 41.8338C244.112 41.2738 243.956 40.6554 243.956 39.9788C243.956 39.4654 244.047 38.9871 244.229 38.5438C244.411 38.0958 244.661 37.7038 244.978 37.3678C245.3 37.0271 245.673 36.7611 246.098 36.5698C246.523 36.3784 246.975 36.2828 247.456 36.2828C247.983 36.2828 248.466 36.3901 248.905 36.6048C249.348 36.8148 249.726 37.1088 250.039 37.4868C250.356 37.8648 250.592 38.3034 250.746 38.8028C250.905 39.3021 250.963 39.8364 250.921 40.4058H245.209C245.265 40.8024 245.396 41.1571 245.601 41.4698C245.806 41.7778 246.068 42.0228 246.385 42.2048C246.707 42.3868 247.064 42.4801 247.456 42.4848C247.876 42.4848 248.256 42.3774 248.597 42.1628C248.938 41.9434 249.213 41.6448 249.423 41.2668L250.62 41.5468C250.34 42.1674 249.918 42.6761 249.353 43.0728C248.788 43.4648 248.156 43.6608 247.456 43.6608ZM245.174 39.4818H249.738C249.701 39.0898 249.575 38.7328 249.36 38.4108C249.145 38.0841 248.872 37.8228 248.541 37.6268C248.21 37.4308 247.848 37.3328 247.456 37.3328C247.064 37.3328 246.705 37.4284 246.378 37.6198C246.051 37.8111 245.781 38.0701 245.566 38.3968C245.356 38.7188 245.225 39.0804 245.174 39.4818ZM258.289 39.1248V43.4788H257.113V39.3838C257.113 39.0291 257.026 38.7071 256.854 38.4178C256.681 38.1284 256.45 37.8998 256.161 37.7318C255.871 37.5591 255.549 37.4728 255.195 37.4728C254.845 37.4728 254.523 37.5591 254.229 37.7318C253.939 37.8998 253.708 38.1284 253.536 38.4178C253.363 38.7071 253.277 39.0291 253.277 39.3838V43.4788H252.101V36.4788H253.277V37.3538C253.524 37.0271 253.837 36.7681 254.215 36.5768C254.593 36.3808 255.003 36.2828 255.447 36.2828C255.969 36.2828 256.445 36.4111 256.875 36.6678C257.309 36.9198 257.652 37.2604 257.904 37.6898C258.16 38.1191 258.289 38.5974 258.289 39.1248ZM259.689 36.4788H260.865V43.4788H259.689V36.4788ZM260.291 35.3378C260.104 35.3378 259.948 35.2771 259.822 35.1558C259.696 35.0344 259.633 34.8828 259.633 34.7008C259.633 34.5188 259.696 34.3671 259.822 34.2458C259.948 34.1244 260.102 34.0638 260.284 34.0638C260.466 34.0638 260.62 34.1244 260.746 34.2458C260.872 34.3671 260.935 34.5188 260.935 34.7008C260.935 34.8828 260.872 35.0344 260.746 35.1558C260.624 35.2771 260.473 35.3378 260.291 35.3378ZM268.078 36.4788H269.254V43.4788H268.078L268.029 42.2958C267.81 42.7018 267.507 43.0308 267.119 43.2828C266.737 43.5348 266.279 43.6608 265.747 43.6608C265.234 43.6608 264.753 43.5651 264.305 43.3738C263.857 43.1778 263.461 42.9094 263.115 42.5688C262.775 42.2234 262.509 41.8268 262.317 41.3788C262.126 40.9308 262.03 40.4478 262.03 39.9298C262.03 39.4304 262.124 38.9591 262.31 38.5158C262.497 38.0724 262.756 37.6851 263.087 37.3538C263.423 37.0178 263.811 36.7564 264.249 36.5698C264.688 36.3784 265.159 36.2828 265.663 36.2828C266.214 36.2828 266.697 36.4134 267.112 36.6748C267.528 36.9314 267.864 37.2651 268.12 37.6758L268.078 36.4788ZM265.726 42.5198C266.188 42.5198 266.587 42.4078 266.923 42.1838C267.264 41.9551 267.525 41.6471 267.707 41.2598C267.894 40.8724 267.987 40.4454 267.987 39.9788C267.987 39.5028 267.894 39.0734 267.707 38.6908C267.521 38.3034 267.257 37.9978 266.916 37.7738C266.58 37.5451 266.184 37.4308 265.726 37.4308C265.264 37.4308 264.844 37.5451 264.466 37.7738C264.088 38.0024 263.787 38.3104 263.563 38.6978C263.344 39.0804 263.234 39.5074 263.234 39.9788C263.234 40.4501 263.349 40.8794 263.577 41.2668C263.806 41.6494 264.109 41.9551 264.487 42.1838C264.865 42.4078 265.278 42.5198 265.726 42.5198ZM270.653 43.4788V36.4788H271.829V37.3538C272.077 37.0271 272.387 36.7681 272.76 36.5768C273.138 36.3808 273.549 36.2828 273.992 36.2828C274.51 36.2828 274.984 36.4088 275.413 36.6608C275.843 36.9128 276.181 37.2464 276.428 37.6618C276.676 37.2464 277.012 36.9128 277.436 36.6608C277.866 36.4088 278.337 36.2828 278.85 36.2828C279.378 36.2828 279.856 36.4111 280.285 36.6678C280.715 36.9198 281.055 37.2604 281.307 37.6898C281.564 38.1191 281.692 38.5974 281.692 39.1248V43.4788H280.516V39.4048C280.516 39.0594 280.432 38.7398 280.264 38.4458C280.096 38.1518 279.87 37.9161 279.585 37.7388C279.301 37.5614 278.986 37.4728 278.64 37.4728C278.295 37.4728 277.98 37.5568 277.695 37.7248C277.411 37.8881 277.184 38.1168 277.016 38.4108C276.848 38.7001 276.764 39.0314 276.764 39.4048V43.4788H275.588V39.4048C275.588 39.0314 275.504 38.7001 275.336 38.4108C275.168 38.1168 274.94 37.8881 274.65 37.7248C274.366 37.5568 274.051 37.4728 273.705 37.4728C273.365 37.4728 273.05 37.5614 272.76 37.7388C272.476 37.9161 272.249 38.1518 272.081 38.4458C271.913 38.7398 271.829 39.0594 271.829 39.4048V43.4788H270.653ZM282.815 44.2628L283.249 41.8968H284.425L283.599 44.2628H282.815ZM22.6847 60.6818L21.5367 59.5338C21.1353 59.8791 20.6803 60.1498 20.1717 60.3458C19.6677 60.5371 19.1333 60.6328 18.5687 60.6328C17.9013 60.6328 17.276 60.5021 16.6927 60.2408C16.1093 59.9748 15.596 59.6108 15.1527 59.1488C14.7093 58.6821 14.3617 58.1408 14.1097 57.5248C13.8623 56.9088 13.7387 56.2508 13.7387 55.5508C13.7387 54.8508 13.8623 54.1951 14.1097 53.5838C14.3617 52.9678 14.7093 52.4264 15.1527 51.9598C15.596 51.4931 16.1093 51.1291 16.6927 50.8678C17.276 50.6018 17.9013 50.4688 18.5687 50.4688C19.236 50.4688 19.859 50.6018 20.4377 50.8678C21.021 51.1291 21.5343 51.4931 21.9777 51.9598C22.421 52.4264 22.7663 52.9678 23.0137 53.5838C23.2657 54.1951 23.3917 54.8508 23.3917 55.5508C23.3917 56.1481 23.2983 56.7128 23.1117 57.2448C22.9297 57.7768 22.6753 58.2598 22.3487 58.6938L23.5177 59.8488L22.6847 60.6818ZM18.5687 59.4568C18.9513 59.4568 19.327 59.3914 19.6957 59.2608C20.0643 59.1254 20.3933 58.9318 20.6827 58.6798L19.3807 57.3848L20.2137 56.5448L21.4737 57.8188C21.7163 57.4968 21.9007 57.1421 22.0267 56.7548C22.1527 56.3628 22.2157 55.9614 22.2157 55.5508C22.2157 55.0141 22.12 54.5101 21.9287 54.0388C21.742 53.5674 21.4807 53.1521 21.1447 52.7928C20.8087 52.4334 20.419 52.1534 19.9757 51.9528C19.537 51.7474 19.068 51.6448 18.5687 51.6448C18.06 51.6448 17.584 51.7498 17.1407 51.9598C16.702 52.1651 16.3147 52.4498 15.9787 52.8138C15.6473 53.1731 15.386 53.5884 15.1947 54.0598C15.008 54.5264 14.9147 55.0234 14.9147 55.5508C14.9147 56.0874 15.0103 56.5914 15.2017 57.0628C15.393 57.5341 15.6567 57.9518 15.9927 58.3158C16.3287 58.6751 16.716 58.9551 17.1547 59.1558C17.598 59.3564 18.0693 59.4568 18.5687 59.4568ZM24.5258 57.8188V53.4788H25.7018V57.5598C25.7018 57.9144 25.7881 58.2364 25.9608 58.5258C26.1335 58.8151 26.3645 59.0461 26.6538 59.2188C26.9478 59.3868 27.2698 59.4708 27.6198 59.4708C27.9745 59.4708 28.2941 59.3868 28.5788 59.2188C28.8681 59.0461 29.0991 58.8151 29.2718 58.5258C29.4445 58.2364 29.5308 57.9144 29.5308 57.5598V53.4788H30.7068L30.7138 60.4788H29.5378L29.5308 59.5898C29.2835 59.9164 28.9708 60.1778 28.5928 60.3738C28.2148 60.5651 27.8065 60.6608 27.3678 60.6608C26.8451 60.6608 26.3668 60.5348 25.9328 60.2828C25.5035 60.0261 25.1605 59.6831 24.9038 59.2538C24.6518 58.8244 24.5258 58.3461 24.5258 57.8188ZM32.1202 53.4788H33.2962V60.4788H32.1202V53.4788ZM32.7222 52.3378C32.5356 52.3378 32.3792 52.2771 32.2532 52.1558C32.1272 52.0344 32.0642 51.8828 32.0642 51.7008C32.0642 51.5188 32.1272 51.3671 32.2532 51.2458C32.3792 51.1244 32.5332 51.0638 32.7152 51.0638C32.8972 51.0638 33.0512 51.1244 33.1772 51.2458C33.3032 51.3671 33.3662 51.5188 33.3662 51.7008C33.3662 51.8828 33.3032 52.0344 33.1772 52.1558C33.0559 52.2771 32.9042 52.3378 32.7222 52.3378ZM37.0443 60.6118C36.6663 60.5978 36.2976 60.5278 35.9383 60.4018C35.5836 60.2711 35.271 60.0961 35.0003 59.8768C34.7343 59.6528 34.5406 59.3961 34.4193 59.1068L35.4273 58.6728C35.4973 58.8314 35.6233 58.9808 35.8053 59.1208C35.9873 59.2608 36.1973 59.3728 36.4353 59.4568C36.6733 59.5408 36.9136 59.5828 37.1563 59.5828C37.413 59.5828 37.6533 59.5431 37.8773 59.4638C38.1013 59.3844 38.2833 59.2678 38.4233 59.1138C38.568 58.9551 38.6403 58.7661 38.6403 58.5468C38.6403 58.3134 38.561 58.1314 38.4023 58.0008C38.2483 57.8654 38.0523 57.7604 37.8143 57.6858C37.581 57.6064 37.343 57.5318 37.1003 57.4618C36.6196 57.3404 36.1903 57.1958 35.8123 57.0278C35.4343 56.8551 35.1356 56.6381 34.9163 56.3768C34.7016 56.1108 34.5943 55.7724 34.5943 55.3618C34.5943 54.9278 34.7133 54.5521 34.9513 54.2348C35.194 53.9174 35.5113 53.6724 35.9033 53.4998C36.2953 53.3271 36.7153 53.2408 37.1633 53.2408C37.728 53.2408 38.2436 53.3621 38.7103 53.6048C39.177 53.8474 39.5246 54.1764 39.7533 54.5918L38.8083 55.1448C38.729 54.9768 38.6076 54.8298 38.4443 54.7038C38.281 54.5731 38.0943 54.4704 37.8843 54.3958C37.6743 54.3211 37.4596 54.2814 37.2403 54.2768C36.9696 54.2674 36.7153 54.3024 36.4773 54.3818C36.244 54.4611 36.055 54.5824 35.9103 54.7458C35.7703 54.9044 35.7003 55.1028 35.7003 55.3408C35.7003 55.5741 35.775 55.7514 35.9243 55.8728C36.0783 55.9941 36.2766 56.0921 36.5193 56.1668C36.7666 56.2368 37.035 56.3184 37.3243 56.4118C37.749 56.5471 38.1456 56.7034 38.5143 56.8808C38.883 57.0581 39.1793 57.2798 39.4033 57.5458C39.632 57.8118 39.744 58.1408 39.7393 58.5328C39.7393 58.9621 39.611 59.3378 39.3543 59.6598C39.0976 59.9771 38.764 60.2198 38.3533 60.3878C37.9473 60.5558 37.511 60.6304 37.0443 60.6118ZM44.3019 60.4788V50.6788H45.5759L50.4689 58.3508V50.6788H51.6449V60.4788H50.3779L45.4779 52.8068V60.4788H44.3019ZM56.337 60.6608C55.693 60.6608 55.105 60.4951 54.573 60.1638C54.0456 59.8324 53.6233 59.3891 53.306 58.8338C52.9933 58.2738 52.837 57.6554 52.837 56.9788C52.837 56.4654 52.928 55.9871 53.11 55.5438C53.292 55.0958 53.5416 54.7038 53.859 54.3678C54.181 54.0271 54.5543 53.7611 54.979 53.5698C55.4036 53.3784 55.8563 53.2828 56.337 53.2828C56.981 53.2828 57.5666 53.4484 58.094 53.7798C58.626 54.1111 59.0483 54.5568 59.361 55.1168C59.6783 55.6768 59.837 56.2974 59.837 56.9788C59.837 57.4874 59.746 57.9634 59.564 58.4068C59.382 58.8501 59.13 59.2421 58.808 59.5828C58.4906 59.9188 58.1196 60.1824 57.695 60.3738C57.275 60.5651 56.8223 60.6608 56.337 60.6608ZM56.337 59.4848C56.7756 59.4848 57.17 59.3704 57.52 59.1418C57.8746 58.9084 58.1523 58.6028 58.353 58.2248C58.5583 57.8421 58.661 57.4268 58.661 56.9788C58.661 56.5214 58.556 56.1014 58.346 55.7188C58.1406 55.3361 57.863 55.0304 57.513 54.8018C57.163 54.5731 56.771 54.4588 56.337 54.4588C55.8983 54.4588 55.504 54.5754 55.154 54.8088C54.804 55.0374 54.5263 55.3431 54.321 55.7258C54.1156 56.1084 54.013 56.5261 54.013 56.9788C54.013 57.4454 54.118 57.8701 54.328 58.2528C54.538 58.6308 54.8203 58.9318 55.175 59.1558C55.5296 59.3751 55.917 59.4848 56.337 59.4848ZM63.1576 60.6118C62.7796 60.5978 62.4109 60.5278 62.0516 60.4018C61.6969 60.2711 61.3843 60.0961 61.1136 59.8768C60.8476 59.6528 60.6539 59.3961 60.5326 59.1068L61.5406 58.6728C61.6106 58.8314 61.7366 58.9808 61.9186 59.1208C62.1006 59.2608 62.3106 59.3728 62.5486 59.4568C62.7866 59.5408 63.0269 59.5828 63.2696 59.5828C63.5263 59.5828 63.7666 59.5431 63.9906 59.4638C64.2146 59.3844 64.3966 59.2678 64.5366 59.1138C64.6813 58.9551 64.7536 58.7661 64.7536 58.5468C64.7536 58.3134 64.6743 58.1314 64.5156 58.0008C64.3616 57.8654 64.1656 57.7604 63.9276 57.6858C63.6943 57.6064 63.4563 57.5318 63.2136 57.4618C62.7329 57.3404 62.3036 57.1958 61.9256 57.0278C61.5476 56.8551 61.2489 56.6381 61.0296 56.3768C60.8149 56.1108 60.7076 55.7724 60.7076 55.3618C60.7076 54.9278 60.8266 54.5521 61.0646 54.2348C61.3073 53.9174 61.6246 53.6724 62.0166 53.4998C62.4086 53.3271 62.8286 53.2408 63.2766 53.2408C63.8413 53.2408 64.3569 53.3621 64.8236 53.6048C65.2903 53.8474 65.6379 54.1764 65.8666 54.5918L64.9216 55.1448C64.8423 54.9768 64.7209 54.8298 64.5576 54.7038C64.3943 54.5731 64.2076 54.4704 63.9976 54.3958C63.7876 54.3211 63.5729 54.2814 63.3536 54.2768C63.0829 54.2674 62.8286 54.3024 62.5906 54.3818C62.3573 54.4611 62.1683 54.5824 62.0236 54.7458C61.8836 54.9044 61.8136 55.1028 61.8136 55.3408C61.8136 55.5741 61.8883 55.7514 62.0376 55.8728C62.1916 55.9941 62.3899 56.0921 62.6326 56.1668C62.8799 56.2368 63.1483 56.3184 63.4376 56.4118C63.8623 56.5471 64.2589 56.7034 64.6276 56.8808C64.9963 57.0581 65.2926 57.2798 65.5166 57.5458C65.7453 57.8118 65.8573 58.1408 65.8526 58.5328C65.8526 58.9621 65.7243 59.3378 65.4676 59.6598C65.2109 59.9771 64.8773 60.2198 64.4666 60.3878C64.0606 60.5558 63.6243 60.6304 63.1576 60.6118ZM70.6779 54.6548H69.0889L69.0819 60.4788H67.9059L67.9129 54.6548H66.7089V53.4788H67.9129L67.9059 51.2808H69.0819L69.0889 53.4788H70.6779V54.6548ZM71.9327 60.4788V53.4788H73.1087V54.3538C73.3561 54.0271 73.6687 53.7681 74.0467 53.5768C74.4247 53.3808 74.8354 53.2828 75.2787 53.2828C75.5494 53.2828 75.8107 53.3178 76.0627 53.3878L75.5867 54.5638C75.3954 54.5031 75.2087 54.4728 75.0267 54.4728C74.6767 54.4728 74.3547 54.5591 74.0607 54.7318C73.7714 54.8998 73.5404 55.1284 73.3677 55.4178C73.1951 55.7071 73.1087 56.0291 73.1087 56.3838V60.4788H71.9327ZM76.6293 57.8188V53.4788H77.8053V57.5598C77.8053 57.9144 77.8916 58.2364 78.0643 58.5258C78.237 58.8151 78.468 59.0461 78.7573 59.2188C79.0513 59.3868 79.3733 59.4708 79.7233 59.4708C80.078 59.4708 80.3976 59.3868 80.6823 59.2188C80.9716 59.0461 81.2026 58.8151 81.3753 58.5258C81.548 58.2364 81.6343 57.9144 81.6343 57.5598V53.4788H82.8103L82.8173 60.4788H81.6413L81.6343 59.5898C81.387 59.9164 81.0743 60.1778 80.6963 60.3738C80.3183 60.5651 79.91 60.6608 79.4713 60.6608C78.9486 60.6608 78.4703 60.5348 78.0363 60.2828C77.607 60.0261 77.264 59.6831 77.0073 59.2538C76.7553 58.8244 76.6293 58.3461 76.6293 57.8188ZM89.7904 49.9788H90.9664V60.4788H89.7904V59.2888C89.5524 59.6994 89.2327 60.0308 88.8314 60.2828C88.4301 60.5348 87.9587 60.6608 87.4174 60.6608C86.9087 60.6608 86.4327 60.5651 85.9894 60.3738C85.5461 60.1824 85.1541 59.9188 84.8134 59.5828C84.4774 59.2421 84.2137 58.8501 84.0224 58.4068C83.8311 57.9634 83.7354 57.4874 83.7354 56.9788C83.7354 56.4701 83.8311 55.9941 84.0224 55.5508C84.2137 55.1028 84.4774 54.7108 84.8134 54.3748C85.1541 54.0341 85.5461 53.7681 85.9894 53.5768C86.4327 53.3854 86.9087 53.2898 87.4174 53.2898C87.9587 53.2898 88.4301 53.4158 88.8314 53.6678C89.2327 53.9198 89.5524 54.2511 89.7904 54.6618V49.9788ZM87.4314 59.5198C87.8934 59.5198 88.2924 59.4078 88.6284 59.1838C88.9691 58.9551 89.2304 58.6471 89.4124 58.2598C89.5991 57.8724 89.6924 57.4454 89.6924 56.9788C89.6924 56.5028 89.5991 56.0734 89.4124 55.6908C89.2257 55.3034 88.9621 54.9978 88.6214 54.7738C88.2854 54.5451 87.8887 54.4308 87.4314 54.4308C86.9694 54.4308 86.5494 54.5451 86.1714 54.7738C85.7981 55.0024 85.4994 55.3104 85.2754 55.6978C85.0514 56.0804 84.9394 56.5074 84.9394 56.9788C84.9394 57.4501 85.0537 57.8794 85.2824 58.2668C85.5111 58.6494 85.8144 58.9551 86.1924 59.1838C86.5704 59.4078 86.9834 59.5198 87.4314 59.5198ZM96.0089 60.4788V50.6788H102.022V51.8548H97.1849V54.6408H101.147V55.8168H97.1849V59.3028H102.022V60.4788H96.0089ZM102.893 60.4788L105.455 56.9648L102.907 53.4648H104.356L106.183 55.9568L108.003 53.4648H109.452L106.904 56.9648L109.466 60.4788H108.017L106.183 57.9588L104.342 60.4788H102.893ZM113.39 60.6608C112.746 60.6608 112.158 60.4951 111.626 60.1638C111.098 59.8324 110.676 59.3891 110.359 58.8338C110.046 58.2738 109.89 57.6554 109.89 56.9788C109.89 56.4654 109.981 55.9871 110.163 55.5438C110.345 55.0958 110.594 54.7038 110.912 54.3678C111.234 54.0271 111.607 53.7611 112.032 53.5698C112.456 53.3784 112.909 53.2828 113.39 53.2828C113.917 53.2828 114.4 53.3901 114.839 53.6048C115.282 53.8148 115.66 54.1088 115.973 54.4868C116.29 54.8648 116.526 55.3034 116.68 55.8028C116.838 56.3021 116.897 56.8364 116.855 57.4058H111.143C111.199 57.8024 111.329 58.1571 111.535 58.4698C111.74 58.7778 112.001 59.0228 112.319 59.2048C112.641 59.3868 112.998 59.4801 113.39 59.4848C113.81 59.4848 114.19 59.3774 114.531 59.1628C114.871 58.9434 115.147 58.6448 115.357 58.2668L116.554 58.5468C116.274 59.1674 115.851 59.6761 115.287 60.0728C114.722 60.4648 114.09 60.6608 113.39 60.6608ZM111.108 56.4818H115.672C115.634 56.0898 115.508 55.7328 115.294 55.4108C115.079 55.0841 114.806 54.8228 114.475 54.6268C114.143 54.4308 113.782 54.3328 113.39 54.3328C112.998 54.3328 112.638 54.4284 112.312 54.6198C111.985 54.8111 111.714 55.0701 111.5 55.3968C111.29 55.7188 111.159 56.0804 111.108 56.4818ZM118.034 60.4788V53.4788H119.21V54.3538C119.458 54.0271 119.77 53.7681 120.148 53.5768C120.526 53.3808 120.937 53.2828 121.38 53.2828C121.651 53.2828 121.912 53.3178 122.164 53.3878L121.688 54.5638C121.497 54.5031 121.31 54.4728 121.128 54.4728C120.778 54.4728 120.456 54.5591 120.162 54.7318C119.873 54.8998 119.642 55.1284 119.469 55.4178C119.297 55.7071 119.21 56.0291 119.21 56.3838V60.4788H118.034ZM127.492 58.6308L128.542 59.1978C128.225 59.6411 127.821 59.9958 127.331 60.2618C126.846 60.5278 126.318 60.6608 125.749 60.6608C125.105 60.6608 124.517 60.4951 123.985 60.1638C123.458 59.8324 123.035 59.3891 122.718 58.8338C122.405 58.2738 122.249 57.6554 122.249 56.9788C122.249 56.4654 122.34 55.9871 122.522 55.5438C122.704 55.0958 122.954 54.7038 123.271 54.3678C123.593 54.0271 123.966 53.7611 124.391 53.5698C124.816 53.3784 125.268 53.2828 125.749 53.2828C126.318 53.2828 126.846 53.4158 127.331 53.6818C127.821 53.9478 128.225 54.3048 128.542 54.7528L127.492 55.3198C127.268 55.0444 127.002 54.8321 126.694 54.6828C126.386 54.5334 126.071 54.4588 125.749 54.4588C125.315 54.4588 124.921 54.5754 124.566 54.8088C124.216 55.0374 123.938 55.3431 123.733 55.7258C123.528 56.1084 123.425 56.5261 123.425 56.9788C123.425 57.4314 123.528 57.8491 123.733 58.2318C123.943 58.6098 124.223 58.9131 124.573 59.1418C124.928 59.3704 125.32 59.4848 125.749 59.4848C126.094 59.4848 126.419 59.4054 126.722 59.2468C127.025 59.0881 127.282 58.8828 127.492 58.6308ZM129.642 53.4788H130.818V60.4788H129.642V53.4788ZM130.244 52.3378C130.057 52.3378 129.901 52.2771 129.775 52.1558C129.649 52.0344 129.586 51.8828 129.586 51.7008C129.586 51.5188 129.649 51.3671 129.775 51.2458C129.901 51.1244 130.055 51.0638 130.237 51.0638C130.419 51.0638 130.573 51.1244 130.699 51.2458C130.825 51.3671 130.888 51.5188 130.888 51.7008C130.888 51.8828 130.825 52.0344 130.699 52.1558C130.577 52.2771 130.426 52.3378 130.244 52.3378ZM136.125 54.6548H134.536L134.529 60.4788H133.353L133.36 54.6548H132.156V53.4788H133.36L133.353 51.2808H134.529L134.536 53.4788H136.125V54.6548ZM142.83 53.4788H144.006V60.4788H142.83L142.781 59.2958C142.562 59.7018 142.259 60.0308 141.871 60.2828C141.489 60.5348 141.031 60.6608 140.499 60.6608C139.986 60.6608 139.505 60.5651 139.057 60.3738C138.609 60.1778 138.213 59.9094 137.867 59.5688C137.527 59.2234 137.261 58.8268 137.069 58.3788C136.878 57.9308 136.782 57.4478 136.782 56.9298C136.782 56.4304 136.876 55.9591 137.062 55.5158C137.249 55.0724 137.508 54.6851 137.839 54.3538C138.175 54.0178 138.563 53.7564 139.001 53.5698C139.44 53.3784 139.911 53.2828 140.415 53.2828C140.966 53.2828 141.449 53.4134 141.864 53.6748C142.28 53.9314 142.616 54.2651 142.872 54.6758L142.83 53.4788ZM140.478 59.5198C140.94 59.5198 141.339 59.4078 141.675 59.1838C142.016 58.9551 142.277 58.6471 142.459 58.2598C142.646 57.8724 142.739 57.4454 142.739 56.9788C142.739 56.5028 142.646 56.0734 142.459 55.6908C142.273 55.3034 142.009 54.9978 141.668 54.7738C141.332 54.5451 140.936 54.4308 140.478 54.4308C140.016 54.4308 139.596 54.5451 139.218 54.7738C138.84 55.0024 138.539 55.3104 138.315 55.6978C138.096 56.0804 137.986 56.5074 137.986 56.9788C137.986 57.4501 138.101 57.8794 138.329 58.2668C138.558 58.6494 138.861 58.9551 139.239 59.1838C139.617 59.4078 140.03 59.5198 140.478 59.5198ZM149.031 54.6548H147.442L147.435 60.4788H146.259L146.266 54.6548H145.062V53.4788H146.266L146.259 51.2808H147.435L147.442 53.4788H149.031V54.6548ZM150.218 53.4788H151.394V60.4788H150.218V53.4788ZM150.82 52.3378C150.633 52.3378 150.477 52.2771 150.351 52.1558C150.225 52.0344 150.162 51.8828 150.162 51.7008C150.162 51.5188 150.225 51.3671 150.351 51.2458C150.477 51.1244 150.631 51.0638 150.813 51.0638C150.995 51.0638 151.149 51.1244 151.275 51.2458C151.401 51.3671 151.464 51.5188 151.464 51.7008C151.464 51.8828 151.401 52.0344 151.275 52.1558C151.154 52.2771 151.002 52.3378 150.82 52.3378ZM156.06 60.6608C155.416 60.6608 154.828 60.4951 154.296 60.1638C153.768 59.8324 153.346 59.3891 153.029 58.8338C152.716 58.2738 152.56 57.6554 152.56 56.9788C152.56 56.4654 152.651 55.9871 152.833 55.5438C153.015 55.0958 153.264 54.7038 153.582 54.3678C153.904 54.0271 154.277 53.7611 154.702 53.5698C155.126 53.3784 155.579 53.2828 156.06 53.2828C156.704 53.2828 157.289 53.4484 157.817 53.7798C158.349 54.1111 158.771 54.5568 159.084 55.1168C159.401 55.6768 159.56 56.2974 159.56 56.9788C159.56 57.4874 159.469 57.9634 159.287 58.4068C159.105 58.8501 158.853 59.2421 158.531 59.5828C158.213 59.9188 157.842 60.1824 157.418 60.3738C156.998 60.5651 156.545 60.6608 156.06 60.6608ZM156.06 59.4848C156.498 59.4848 156.893 59.3704 157.243 59.1418C157.597 58.9084 157.875 58.6028 158.076 58.2248C158.281 57.8421 158.384 57.4268 158.384 56.9788C158.384 56.5214 158.279 56.1014 158.069 55.7188C157.863 55.3361 157.586 55.0304 157.236 54.8018C156.886 54.5731 156.494 54.4588 156.06 54.4588C155.621 54.4588 155.227 54.5754 154.877 54.8088C154.527 55.0374 154.249 55.3431 154.044 55.7258C153.838 56.1084 153.736 56.5261 153.736 56.9788C153.736 57.4454 153.841 57.8701 154.051 58.2528C154.261 58.6308 154.543 58.9318 154.898 59.1558C155.252 59.3751 155.64 59.4848 156.06 59.4848ZM166.906 56.1248V60.4788H165.73V56.3838C165.73 56.0291 165.644 55.7071 165.471 55.4178C165.298 55.1284 165.067 54.8998 164.778 54.7318C164.489 54.5591 164.167 54.4728 163.812 54.4728C163.462 54.4728 163.14 54.5591 162.846 54.7318C162.557 54.8998 162.326 55.1284 162.153 55.4178C161.98 55.7071 161.894 56.0291 161.894 56.3838V60.4788H160.718V53.4788H161.894V54.3538C162.141 54.0271 162.454 53.7681 162.832 53.5768C163.21 53.3808 163.621 53.2828 164.064 53.2828C164.587 53.2828 165.063 53.4111 165.492 53.6678C165.926 53.9198 166.269 54.2604 166.521 54.6898C166.778 55.1191 166.906 55.5974 166.906 56.1248ZM175.505 60.6608C174.721 60.6608 174.04 60.4694 173.461 60.0868C172.887 59.7041 172.444 59.1908 172.131 58.5468C171.823 57.8981 171.669 57.1794 171.669 56.3908V50.6788H172.845V56.3908C172.845 56.9508 172.948 57.4664 173.153 57.9378C173.363 58.4091 173.664 58.7848 174.056 59.0648C174.453 59.3448 174.936 59.4848 175.505 59.4848C176.084 59.4848 176.569 59.3448 176.961 59.0648C177.353 58.7801 177.649 58.4044 177.85 57.9378C178.055 57.4664 178.158 56.9508 178.158 56.3908V50.6788H179.334V56.3908C179.334 56.9834 179.245 57.5388 179.068 58.0568C178.891 58.5701 178.634 59.0228 178.298 59.4148C177.967 59.8068 177.565 60.1124 177.094 60.3318C176.623 60.5511 176.093 60.6608 175.505 60.6608ZM180.925 60.4788V49.9788H182.101V60.4788H180.925ZM183.782 60.4788V49.9788H184.958V60.4788H183.782ZM192.199 53.4788H193.375V60.4788H192.199L192.15 59.2958C191.931 59.7018 191.628 60.0308 191.24 60.2828C190.858 60.5348 190.4 60.6608 189.868 60.6608C189.355 60.6608 188.874 60.5651 188.426 60.3738C187.978 60.1778 187.582 59.9094 187.236 59.5688C186.896 59.2234 186.63 58.8268 186.438 58.3788C186.247 57.9308 186.151 57.4478 186.151 56.9298C186.151 56.4304 186.245 55.9591 186.431 55.5158C186.618 55.0724 186.877 54.6851 187.208 54.3538C187.544 54.0178 187.932 53.7564 188.37 53.5698C188.809 53.3784 189.28 53.2828 189.784 53.2828C190.335 53.2828 190.818 53.4134 191.233 53.6748C191.649 53.9314 191.985 54.2651 192.241 54.6758L192.199 53.4788ZM189.847 59.5198C190.309 59.5198 190.708 59.4078 191.044 59.1838C191.385 58.9551 191.646 58.6471 191.828 58.2598C192.015 57.8724 192.108 57.4454 192.108 56.9788C192.108 56.5028 192.015 56.0734 191.828 55.6908C191.642 55.3034 191.378 54.9978 191.037 54.7738C190.701 54.5451 190.305 54.4308 189.847 54.4308C189.385 54.4308 188.965 54.5451 188.587 54.7738C188.209 55.0024 187.908 55.3104 187.684 55.6978C187.465 56.0804 187.355 56.5074 187.355 56.9788C187.355 57.4501 187.47 57.8794 187.698 58.2668C187.927 58.6494 188.23 58.9551 188.608 59.1838C188.986 59.4078 189.399 59.5198 189.847 59.5198ZM194.775 60.4788V53.4788H195.951V54.3538C196.198 54.0271 196.508 53.7681 196.882 53.5768C197.26 53.3808 197.67 53.2828 198.114 53.2828C198.632 53.2828 199.105 53.4088 199.535 53.6608C199.964 53.9128 200.302 54.2464 200.55 54.6618C200.797 54.2464 201.133 53.9128 201.558 53.6608C201.987 53.4088 202.458 53.2828 202.972 53.2828C203.499 53.2828 203.977 53.4111 204.407 53.6678C204.836 53.9198 205.177 54.2604 205.429 54.6898C205.685 55.1191 205.814 55.5974 205.814 56.1248V60.4788H204.638V56.4048C204.638 56.0594 204.554 55.7398 204.386 55.4458C204.218 55.1518 203.991 54.9161 203.707 54.7388C203.422 54.5614 203.107 54.4728 202.762 54.4728C202.416 54.4728 202.101 54.5568 201.817 54.7248C201.532 54.8881 201.306 55.1168 201.138 55.4108C200.97 55.7001 200.886 56.0314 200.886 56.4048V60.4788H199.71V56.4048C199.71 56.0314 199.626 55.7001 199.458 55.4108C199.29 55.1168 199.061 54.8881 198.772 54.7248C198.487 54.5568 198.172 54.4728 197.827 54.4728C197.486 54.4728 197.171 54.5614 196.882 54.7388C196.597 54.9161 196.371 55.1518 196.203 55.4458C196.035 55.7398 195.951 56.0594 195.951 56.4048V60.4788H194.775ZM211.902 58.6308L212.952 59.1978C212.635 59.6411 212.231 59.9958 211.741 60.2618C211.256 60.5278 210.729 60.6608 210.159 60.6608C209.515 60.6608 208.927 60.4951 208.395 60.1638C207.868 59.8324 207.446 59.3891 207.128 58.8338C206.816 58.2738 206.659 57.6554 206.659 56.9788C206.659 56.4654 206.75 55.9871 206.932 55.5438C207.114 55.0958 207.364 54.7038 207.681 54.3678C208.003 54.0271 208.377 53.7611 208.801 53.5698C209.226 53.3784 209.679 53.2828 210.159 53.2828C210.729 53.2828 211.256 53.4158 211.741 53.6818C212.231 53.9478 212.635 54.3048 212.952 54.7528L211.902 55.3198C211.678 55.0444 211.412 54.8321 211.104 54.6828C210.796 54.5334 210.481 54.4588 210.159 54.4588C209.725 54.4588 209.331 54.5754 208.976 54.8088C208.626 55.0374 208.349 55.3431 208.143 55.7258C207.938 56.1084 207.835 56.5261 207.835 56.9788C207.835 57.4314 207.938 57.8491 208.143 58.2318C208.353 58.6098 208.633 58.9131 208.983 59.1418C209.338 59.3704 209.73 59.4848 210.159 59.4848C210.505 59.4848 210.829 59.4054 211.132 59.2468C211.436 59.0881 211.692 58.8828 211.902 58.6308ZM217.173 60.6608C216.529 60.6608 215.941 60.4951 215.409 60.1638C214.882 59.8324 214.459 59.3891 214.142 58.8338C213.829 58.2738 213.673 57.6554 213.673 56.9788C213.673 56.4654 213.764 55.9871 213.946 55.5438C214.128 55.0958 214.378 54.7038 214.695 54.3678C215.017 54.0271 215.39 53.7611 215.815 53.5698C216.24 53.3784 216.692 53.2828 217.173 53.2828C217.817 53.2828 218.403 53.4484 218.93 53.7798C219.462 54.1111 219.884 54.5568 220.197 55.1168C220.514 55.6768 220.673 56.2974 220.673 56.9788C220.673 57.4874 220.582 57.9634 220.4 58.4068C220.218 58.8501 219.966 59.2421 219.644 59.5828C219.327 59.9188 218.956 60.1824 218.531 60.3738C218.111 60.5651 217.658 60.6608 217.173 60.6608ZM217.173 59.4848C217.612 59.4848 218.006 59.3704 218.356 59.1418C218.711 58.9084 218.988 58.6028 219.189 58.2248C219.394 57.8421 219.497 57.4268 219.497 56.9788C219.497 56.5214 219.392 56.1014 219.182 55.7188C218.977 55.3361 218.699 55.0304 218.349 54.8018C217.999 54.5731 217.607 54.4588 217.173 54.4588C216.734 54.4588 216.34 54.5754 215.99 54.8088C215.64 55.0374 215.362 55.3431 215.157 55.7258C214.952 56.1084 214.849 56.5261 214.849 56.9788C214.849 57.4454 214.954 57.8701 215.164 58.2528C215.374 58.6308 215.656 58.9318 216.011 59.1558C216.366 59.3751 216.753 59.4848 217.173 59.4848ZM225.29 60.4788V50.6788H226.466V59.3028H230.855V60.4788H225.29ZM237.344 53.4788H238.52V60.4788H237.344L237.295 59.2958C237.076 59.7018 236.772 60.0308 236.385 60.2828C236.002 60.5348 235.545 60.6608 235.013 60.6608C234.5 60.6608 234.019 60.5651 233.571 60.3738C233.123 60.1778 232.726 59.9094 232.381 59.5688C232.04 59.2234 231.774 58.8268 231.583 58.3788C231.392 57.9308 231.296 57.4478 231.296 56.9298C231.296 56.4304 231.389 55.9591 231.576 55.5158C231.763 55.0724 232.022 54.6851 232.353 54.3538C232.689 54.0178 233.076 53.7564 233.515 53.5698C233.954 53.3784 234.425 53.2828 234.929 53.2828C235.48 53.2828 235.963 53.4134 236.378 53.6748C236.793 53.9314 237.129 54.2651 237.386 54.6758L237.344 53.4788ZM234.992 59.5198C235.454 59.5198 235.853 59.4078 236.189 59.1838C236.53 58.9551 236.791 58.6471 236.973 58.2598C237.16 57.8724 237.253 57.4454 237.253 56.9788C237.253 56.5028 237.16 56.0734 236.973 55.6908C236.786 55.3034 236.523 54.9978 236.182 54.7738C235.846 54.5451 235.449 54.4308 234.992 54.4308C234.53 54.4308 234.11 54.5451 233.732 54.7738C233.354 55.0024 233.053 55.3104 232.829 55.6978C232.61 56.0804 232.5 56.5074 232.5 56.9788C232.5 57.4501 232.614 57.8794 232.843 58.2668C233.072 58.6494 233.375 58.9551 233.753 59.1838C234.131 59.4078 234.544 59.5198 234.992 59.5198ZM243.543 53.2828C244.224 53.2828 244.843 53.4484 245.398 53.7798C245.958 54.1111 246.404 54.5568 246.735 55.1168C247.066 55.6721 247.232 56.2904 247.232 56.9718C247.232 57.4804 247.136 57.9588 246.945 58.4068C246.754 58.8501 246.488 59.2421 246.147 59.5828C245.811 59.9188 245.419 60.1824 244.971 60.3738C244.528 60.5651 244.052 60.6608 243.543 60.6608C243.002 60.6608 242.53 60.5348 242.129 60.2828C241.732 60.0261 241.415 59.6924 241.177 59.2818V60.4788H240.001V49.9788H241.177V54.6618C241.415 54.2511 241.732 53.9198 242.129 53.6678C242.53 53.4111 243.002 53.2828 243.543 53.2828ZM243.529 59.5128C243.991 59.5128 244.411 59.3984 244.789 59.1698C245.167 58.9411 245.468 58.6354 245.692 58.2528C245.916 57.8654 246.028 57.4384 246.028 56.9718C246.028 56.4958 245.914 56.0664 245.685 55.6838C245.456 55.2964 245.153 54.9908 244.775 54.7668C244.397 54.5381 243.982 54.4238 243.529 54.4238C243.072 54.4238 242.673 54.5381 242.332 54.7668C241.996 54.9954 241.735 55.3034 241.548 55.6908C241.366 56.0781 241.275 56.5051 241.275 56.9718C241.275 57.4431 241.366 57.8724 241.548 58.2598C241.735 58.6424 241.998 58.9481 242.339 59.1768C242.68 59.4008 243.076 59.5128 243.529 59.5128ZM251.435 60.6608C250.791 60.6608 250.203 60.4951 249.671 60.1638C249.143 59.8324 248.721 59.3891 248.404 58.8338C248.091 58.2738 247.935 57.6554 247.935 56.9788C247.935 56.4654 248.026 55.9871 248.208 55.5438C248.39 55.0958 248.639 54.7038 248.957 54.3678C249.279 54.0271 249.652 53.7611 250.077 53.5698C250.501 53.3784 250.954 53.2828 251.435 53.2828C252.079 53.2828 252.664 53.4484 253.192 53.7798C253.724 54.1111 254.146 54.5568 254.459 55.1168C254.776 55.6768 254.935 56.2974 254.935 56.9788C254.935 57.4874 254.844 57.9634 254.662 58.4068C254.48 58.8501 254.228 59.2421 253.906 59.5828C253.588 59.9188 253.217 60.1824 252.793 60.3738C252.373 60.5651 251.92 60.6608 251.435 60.6608ZM251.435 59.4848C251.873 59.4848 252.268 59.3704 252.618 59.1418C252.972 58.9084 253.25 58.6028 253.451 58.2248C253.656 57.8421 253.759 57.4268 253.759 56.9788C253.759 56.5214 253.654 56.1014 253.444 55.7188C253.238 55.3361 252.961 55.0304 252.611 54.8018C252.261 54.5731 251.869 54.4588 251.435 54.4588C250.996 54.4588 250.602 54.5754 250.252 54.8088C249.902 55.0374 249.624 55.3431 249.419 55.7258C249.213 56.1084 249.111 56.5261 249.111 56.9788C249.111 57.4454 249.216 57.8701 249.426 58.2528C249.636 58.6308 249.918 58.9318 250.273 59.1558C250.627 59.3751 251.015 59.4848 251.435 59.4848ZM256.093 60.4788V53.4788H257.269V54.3538C257.516 54.0271 257.829 53.7681 258.207 53.5768C258.585 53.3808 258.996 53.2828 259.439 53.2828C259.71 53.2828 259.971 53.3178 260.223 53.3878L259.747 54.5638C259.556 54.5031 259.369 54.4728 259.187 54.4728C258.837 54.4728 258.515 54.5591 258.221 54.7318C257.932 54.8998 257.701 55.1284 257.528 55.4178C257.355 55.7071 257.269 56.0291 257.269 56.3838V60.4788H256.093ZM261.083 53.4788H262.259V60.4788H261.083V53.4788ZM261.685 52.3378C261.498 52.3378 261.342 52.2771 261.216 52.1558C261.09 52.0344 261.027 51.8828 261.027 51.7008C261.027 51.5188 261.09 51.3671 261.216 51.2458C261.342 51.1244 261.496 51.0638 261.678 51.0638C261.86 51.0638 262.014 51.1244 262.14 51.2458C262.266 51.3671 262.329 51.5188 262.329 51.7008C262.329 51.8828 262.266 52.0344 262.14 52.1558C262.019 52.2771 261.867 52.3378 261.685 52.3378ZM266.007 60.6118C265.629 60.5978 265.261 60.5278 264.901 60.4018C264.547 60.2711 264.234 60.0961 263.963 59.8768C263.697 59.6528 263.504 59.3961 263.382 59.1068L264.39 58.6728C264.46 58.8314 264.586 58.9808 264.768 59.1208C264.95 59.2608 265.16 59.3728 265.398 59.4568C265.636 59.5408 265.877 59.5828 266.119 59.5828C266.376 59.5828 266.616 59.5431 266.84 59.4638C267.064 59.3844 267.246 59.2678 267.386 59.1138C267.531 58.9551 267.603 58.7661 267.603 58.5468C267.603 58.3134 267.524 58.1314 267.365 58.0008C267.211 57.8654 267.015 57.7604 266.777 57.6858C266.544 57.6064 266.306 57.5318 266.063 57.4618C265.583 57.3404 265.153 57.1958 264.775 57.0278C264.397 56.8551 264.099 56.6381 263.879 56.3768C263.665 56.1108 263.557 55.7724 263.557 55.3618C263.557 54.9278 263.676 54.5521 263.914 54.2348C264.157 53.9174 264.474 53.6724 264.866 53.4998C265.258 53.3271 265.678 53.2408 266.126 53.2408C266.691 53.2408 267.207 53.3621 267.673 53.6048C268.14 53.8474 268.488 54.1764 268.716 54.5918L267.771 55.1448C267.692 54.9768 267.571 54.8298 267.407 54.7038C267.244 54.5731 267.057 54.4704 266.847 54.3958C266.637 54.3211 266.423 54.2814 266.203 54.2768C265.933 54.2674 265.678 54.3024 265.44 54.3818C265.207 54.4611 265.018 54.5824 264.873 54.7458C264.733 54.9044 264.663 55.1028 264.663 55.3408C264.663 55.5741 264.738 55.7514 264.887 55.8728C265.041 55.9941 265.24 56.0921 265.482 56.1668C265.73 56.2368 265.998 56.3184 266.287 56.4118C266.712 56.5471 267.109 56.7034 267.477 56.8808C267.846 57.0581 268.142 57.2798 268.366 57.5458C268.595 57.8118 268.707 58.1408 268.702 58.5328C268.702 58.9621 268.574 59.3378 268.317 59.6598C268.061 59.9771 267.727 60.2198 267.316 60.3878C266.91 60.5558 266.474 60.6304 266.007 60.6118ZM273.265 60.4788V50.6788H274.539L279.432 58.3508V50.6788H280.608V60.4788H279.341L274.441 52.8068V60.4788H273.265ZM282.288 53.4788H283.464V60.4788H282.288V53.4788ZM282.89 52.3378C282.704 52.3378 282.547 52.2771 282.421 52.1558C282.295 52.0344 282.232 51.8828 282.232 51.7008C282.232 51.5188 282.295 51.3671 282.421 51.2458C282.547 51.1244 282.701 51.0638 282.883 51.0638C283.065 51.0638 283.219 51.1244 283.345 51.2458C283.471 51.3671 283.534 51.5188 283.534 51.7008C283.534 51.8828 283.471 52.0344 283.345 52.1558C283.224 52.2771 283.072 52.3378 282.89 52.3378ZM287.212 60.6118C286.834 60.5978 286.466 60.5278 286.106 60.4018C285.752 60.2711 285.439 60.0961 285.168 59.8768C284.902 59.6528 284.709 59.3961 284.587 59.1068L285.595 58.6728C285.665 58.8314 285.791 58.9808 285.973 59.1208C286.155 59.2608 286.365 59.3728 286.603 59.4568C286.841 59.5408 287.082 59.5828 287.324 59.5828C287.581 59.5828 287.821 59.5431 288.045 59.4638C288.269 59.3844 288.451 59.2678 288.591 59.1138C288.736 58.9551 288.808 58.7661 288.808 58.5468C288.808 58.3134 288.729 58.1314 288.57 58.0008C288.416 57.8654 288.22 57.7604 287.982 57.6858C287.749 57.6064 287.511 57.5318 287.268 57.4618C286.788 57.3404 286.358 57.1958 285.98 57.0278C285.602 56.8551 285.304 56.6381 285.084 56.3768C284.87 56.1108 284.762 55.7724 284.762 55.3618C284.762 54.9278 284.881 54.5521 285.119 54.2348C285.362 53.9174 285.679 53.6724 286.071 53.4998C286.463 53.3271 286.883 53.2408 287.331 53.2408C287.896 53.2408 288.412 53.3621 288.878 53.6048C289.345 53.8474 289.693 54.1764 289.921 54.5918L288.976 55.1448C288.897 54.9768 288.776 54.8298 288.612 54.7038C288.449 54.5731 288.262 54.4704 288.052 54.3958C287.842 54.3211 287.628 54.2814 287.408 54.2768C287.138 54.2674 286.883 54.3024 286.645 54.3818C286.412 54.4611 286.223 54.5824 286.078 54.7458C285.938 54.9044 285.868 55.1028 285.868 55.3408C285.868 55.5741 285.943 55.7514 286.092 55.8728C286.246 55.9941 286.445 56.0921 286.687 56.1668C286.935 56.2368 287.203 56.3184 287.492 56.4118C287.917 56.5471 288.314 56.7034 288.682 56.8808C289.051 57.0581 289.347 57.2798 289.571 57.5458C289.8 57.8118 289.912 58.1408 289.907 58.5328C289.907 58.9621 289.779 59.3378 289.522 59.6598C289.266 59.9771 288.932 60.2198 288.521 60.3878C288.115 60.5558 287.679 60.6304 287.212 60.6118ZM291.011 53.4788H292.187V60.4788H291.011V53.4788ZM291.613 52.3378C291.426 52.3378 291.27 52.2771 291.144 52.1558C291.018 52.0344 290.955 51.8828 290.955 51.7008C290.955 51.5188 291.018 51.3671 291.144 51.2458C291.27 51.1244 291.424 51.0638 291.606 51.0638C291.788 51.0638 291.942 51.1244 292.068 51.2458C292.194 51.3671 292.257 51.5188 292.257 51.7008C292.257 51.8828 292.194 52.0344 292.068 52.1558C291.947 52.2771 291.795 52.3378 291.613 52.3378ZM17.8547 77.6608C17.0707 77.6608 16.3893 77.4694 15.8107 77.0868C15.2367 76.7041 14.7933 76.1908 14.4807 75.5468C14.1727 74.8981 14.0187 74.1794 14.0187 73.3908V67.6788H15.1947V73.3908C15.1947 73.9508 15.2973 74.4664 15.5027 74.9378C15.7127 75.4091 16.0137 75.7848 16.4057 76.0648C16.8023 76.3448 17.2853 76.4848 17.8547 76.4848C18.4333 76.4848 18.9187 76.3448 19.3107 76.0648C19.7027 75.7801 19.999 75.4044 20.1997 74.9378C20.405 74.4664 20.5077 73.9508 20.5077 73.3908V67.6788H21.6837V73.3908C21.6837 73.9834 21.595 74.5388 21.4177 75.0568C21.2403 75.5701 20.9837 76.0228 20.6477 76.4148C20.3163 76.8068 19.915 77.1124 19.4437 77.3318C18.9723 77.5511 18.4427 77.6608 17.8547 77.6608ZM26.9962 71.6548H25.4072L25.4002 77.4788H24.2242L24.2312 71.6548H23.0272V70.4788H24.2312L24.2242 68.2808H25.4002L25.4072 70.4788H26.9962V71.6548ZM34.8974 67.6788H36.3184L39.8814 77.4788H38.6354L37.9074 75.4768H33.3084L32.5874 77.4788H31.3344L34.8974 67.6788ZM33.7424 74.3008H37.4734L35.6044 69.1838L33.7424 74.3008ZM41.1574 77.4788V66.9788H42.3334V77.4788H41.1574ZM44.0148 70.4788H45.1908V77.4788H44.0148V70.4788ZM44.6168 69.3378C44.4301 69.3378 44.2738 69.2771 44.1478 69.1558C44.0218 69.0344 43.9588 68.8828 43.9588 68.7008C43.9588 68.5188 44.0218 68.3671 44.1478 68.2458C44.2738 68.1244 44.4278 68.0638 44.6098 68.0638C44.7918 68.0638 44.9458 68.1244 45.0718 68.2458C45.1978 68.3671 45.2608 68.5188 45.2608 68.7008C45.2608 68.8828 45.1978 69.0344 45.0718 69.1558C44.9504 69.2771 44.7988 69.3378 44.6168 69.3378ZM50.0385 77.6748C49.3618 77.6748 48.7435 77.5091 48.1835 77.1778C47.6282 76.8464 47.1848 76.4008 46.8535 75.8408C46.5222 75.2808 46.3565 74.6601 46.3565 73.9788C46.3565 73.4701 46.4522 72.9941 46.6435 72.5508C46.8348 72.1074 47.0985 71.7178 47.4345 71.3818C47.7752 71.0411 48.1672 70.7751 48.6105 70.5838C49.0538 70.3924 49.5298 70.2968 50.0385 70.2968C50.5798 70.2968 51.0488 70.4251 51.4455 70.6818C51.8468 70.9338 52.1665 71.2651 52.4045 71.6758V70.4788H53.5805V80.9788H52.4045V76.2958C52.1665 76.7064 51.8468 77.0401 51.4455 77.2968C51.0488 77.5488 50.5798 77.6748 50.0385 77.6748ZM50.0525 71.4378C49.5905 71.4378 49.1705 71.5521 48.7925 71.7808C48.4145 72.0094 48.1135 72.3174 47.8895 72.7048C47.6702 73.0874 47.5605 73.5121 47.5605 73.9788C47.5605 74.4548 47.6725 74.8864 47.8965 75.2738C48.1252 75.6564 48.4285 75.9621 48.8065 76.1908C49.1845 76.4148 49.5998 76.5268 50.0525 76.5268C50.5145 76.5268 50.9135 76.4124 51.2495 76.1838C51.5855 75.9551 51.8445 75.6471 52.0265 75.2598C52.2132 74.8724 52.3065 74.4454 52.3065 73.9788C52.3065 73.5074 52.2132 73.0804 52.0265 72.6978C51.8445 72.3151 51.5832 72.0094 51.2425 71.7808C50.9065 71.5521 50.5098 71.4378 50.0525 71.4378ZM54.8637 74.8188V70.4788H56.0397V74.5598C56.0397 74.9144 56.126 75.2364 56.2987 75.5258C56.4713 75.8151 56.7023 76.0461 56.9917 76.2188C57.2857 76.3868 57.6077 76.4708 57.9577 76.4708C58.3123 76.4708 58.632 76.3868 58.9167 76.2188C59.206 76.0461 59.437 75.8151 59.6097 75.5258C59.7823 75.2364 59.8687 74.9144 59.8687 74.5598V70.4788H61.0447L61.0517 77.4788H59.8757L59.8687 76.5898C59.6213 76.9164 59.3087 77.1778 58.9307 77.3738C58.5527 77.5651 58.1443 77.6608 57.7057 77.6608C57.183 77.6608 56.7047 77.5348 56.2707 77.2828C55.8413 77.0261 55.4983 76.6831 55.2417 76.2538C54.9897 75.8244 54.8637 75.3461 54.8637 74.8188ZM62.4581 70.4788H63.6341V77.4788H62.4581V70.4788ZM63.0601 69.3378C62.8735 69.3378 62.7171 69.2771 62.5911 69.1558C62.4651 69.0344 62.4021 68.8828 62.4021 68.7008C62.4021 68.5188 62.4651 68.3671 62.5911 68.2458C62.7171 68.1244 62.8711 68.0638 63.0531 68.0638C63.2351 68.0638 63.3891 68.1244 63.5151 68.2458C63.6411 68.3671 63.7041 68.5188 63.7041 68.7008C63.7041 68.8828 63.6411 69.0344 63.5151 69.1558C63.3938 69.2771 63.2421 69.3378 63.0601 69.3378ZM65.6726 77.6608C65.4952 77.6608 65.3436 77.5978 65.2176 77.4718C65.0962 77.3458 65.0356 77.1918 65.0356 77.0098C65.0356 76.8371 65.0962 76.6878 65.2176 76.5618C65.3436 76.4358 65.4952 76.3728 65.6726 76.3728C65.8546 76.3728 66.0086 76.4358 66.1346 76.5618C66.2606 76.6878 66.3236 76.8371 66.3236 77.0098C66.3236 77.1918 66.2606 77.3458 66.1346 77.4718C66.0086 77.5978 65.8546 77.6608 65.6726 77.6608Z" fill="#F2F2F2"/>
</svg>
