<svg width="110" height="38" viewBox="0 0 110 38" fill="none" xmlns="http://www.w3.org/2000/svg">
<path d="M55 2.25C53.3167 2.24963 51.6619 2.68508 50.1969 3.51396C48.7318 4.34285 47.5062 5.53692 46.6395 6.97997C45.7728 8.42301 45.2945 10.0659 45.2511 11.7486C45.2077 13.4314 45.6007 15.0967 46.3919 16.5825L45.3278 19.7747C45.2397 20.039 45.2269 20.3226 45.2909 20.5938C45.3549 20.8649 45.4931 21.1129 45.6901 21.3099C45.8871 21.5069 46.1351 21.6451 46.4062 21.7091C46.6774 21.7731 46.961 21.7603 47.2253 21.6722L50.4175 20.6081C51.7251 21.3036 53.1739 21.6921 54.6541 21.744C56.1342 21.7959 57.6067 21.51 58.9599 20.9079C60.313 20.3057 61.5112 19.4033 62.4634 18.269C63.4157 17.1346 64.097 15.7983 64.4557 14.3613C64.8144 12.9244 64.841 11.4246 64.5336 9.97578C64.2261 8.52701 63.5926 7.16732 62.6811 5.99992C61.7697 4.83253 60.6043 3.88811 59.2734 3.23836C57.9425 2.58861 56.481 2.25061 55 2.25ZM50.875 13.125C50.6525 13.125 50.435 13.059 50.25 12.9354C50.065 12.8118 49.9208 12.6361 49.8356 12.4305C49.7505 12.225 49.7282 11.9988 49.7716 11.7805C49.815 11.5623 49.9222 11.3618 50.0795 11.2045C50.2368 11.0472 50.4373 10.94 50.6555 10.8966C50.8737 10.8532 51.0999 10.8755 51.3055 10.9606C51.5111 11.0458 51.6868 11.19 51.8104 11.375C51.934 11.56 52 11.7775 52 12C52 12.2984 51.8815 12.5845 51.6705 12.7955C51.4595 13.0065 51.1734 13.125 50.875 13.125ZM55 13.125C54.7775 13.125 54.56 13.059 54.375 12.9354C54.19 12.8118 54.0458 12.6361 53.9606 12.4305C53.8755 12.225 53.8532 11.9988 53.8966 11.7805C53.94 11.5623 54.0472 11.3618 54.2045 11.2045C54.3618 11.0472 54.5623 10.94 54.7805 10.8966C54.9987 10.8532 55.2249 10.8755 55.4305 10.9606C55.6361 11.0458 55.8118 11.19 55.9354 11.375C56.059 11.56 56.125 11.7775 56.125 12C56.125 12.2984 56.0065 12.5845 55.7955 12.7955C55.5845 13.0065 55.2984 13.125 55 13.125ZM59.125 13.125C58.9025 13.125 58.685 13.059 58.5 12.9354C58.315 12.8118 58.1708 12.6361 58.0856 12.4305C58.0005 12.225 57.9782 11.9988 58.0216 11.7805C58.065 11.5623 58.1722 11.3618 58.3295 11.2045C58.4868 11.0472 58.6873 10.94 58.9055 10.8966C59.1237 10.8532 59.3499 10.8755 59.5555 10.9606C59.7611 11.0458 59.9368 11.19 60.0604 11.375C60.184 11.56 60.25 11.7775 60.25 12C60.25 12.2984 60.1315 12.5845 59.9205 12.7955C59.7095 13.0065 59.4234 13.125 59.125 13.125Z" fill="#FF9500"/>
<path d="M47.5488 36.13C47.0754 36.13 46.6304 36.0367 46.2138 35.85C45.7971 35.66 45.4304 35.3983 45.1138 35.065C44.8004 34.7317 44.5538 34.3467 44.3738 33.91C44.1971 33.47 44.1088 33 44.1088 32.5C44.1088 31.9967 44.1971 31.5267 44.3738 31.09C44.5538 30.65 44.8004 30.265 45.1138 29.935C45.4304 29.6017 45.7971 29.3417 46.2138 29.155C46.6304 28.965 47.0754 28.87 47.5488 28.87C48.1154 28.87 48.6371 29.0017 49.1138 29.265C49.5904 29.525 49.9854 29.8733 50.2988 30.31L49.2088 30.895C49.0121 30.6517 48.7671 30.4567 48.4738 30.31C48.1838 30.1633 47.8754 30.09 47.5488 30.09C47.2421 30.09 46.9538 30.1533 46.6838 30.28C46.4138 30.4033 46.1771 30.5767 45.9738 30.8C45.7704 31.02 45.6121 31.2767 45.4988 31.57C45.3854 31.86 45.3288 32.17 45.3288 32.5C45.3288 32.8333 45.3854 33.145 45.4988 33.435C45.6154 33.725 45.7754 33.9817 45.9788 34.205C46.1821 34.425 46.4171 34.5983 46.6838 34.725C46.9538 34.8483 47.2421 34.91 47.5488 34.91C47.8821 34.91 48.1921 34.8367 48.4788 34.69C48.7688 34.54 49.0121 34.3433 49.2088 34.1L50.2988 34.69C49.9854 35.1233 49.5904 35.4717 49.1138 35.735C48.6371 35.9983 48.1154 36.13 47.5488 36.13ZM56.0224 32.84V36H54.8024V33.16C54.8024 32.9633 54.754 32.785 54.6574 32.625C54.5607 32.4617 54.4307 32.3333 54.2674 32.24C54.1074 32.1433 53.929 32.095 53.7324 32.095C53.5357 32.095 53.3557 32.1433 53.1924 32.24C53.0324 32.3333 52.904 32.4617 52.8074 32.625C52.714 32.785 52.6674 32.9633 52.6674 33.16V36H51.4474L51.4424 28.5H52.6624L52.6674 31.445C52.8374 31.265 53.0407 31.1233 53.2774 31.02C53.514 30.9133 53.769 30.86 54.0424 30.86C54.4057 30.86 54.7374 30.95 55.0374 31.13C55.3374 31.3067 55.5757 31.545 55.7524 31.845C55.9324 32.1417 56.0224 32.4733 56.0224 32.84ZM60.8909 31H62.1109V36H60.8909L60.8359 35.38C60.6992 35.6033 60.5176 35.785 60.2909 35.925C60.0676 36.0617 59.8026 36.13 59.4959 36.13C59.1259 36.13 58.7792 36.06 58.4559 35.92C58.1326 35.78 57.8476 35.5867 57.6009 35.34C57.3576 35.0933 57.1659 34.8083 57.0259 34.485C56.8892 34.1617 56.8209 33.815 56.8209 33.445C56.8209 33.0883 56.8859 32.7533 57.0159 32.44C57.1492 32.1267 57.3342 31.8517 57.5709 31.615C57.8076 31.3783 58.0809 31.1933 58.3909 31.06C58.7009 30.9267 59.0342 30.86 59.3909 30.86C59.7209 30.86 60.0159 30.9333 60.2759 31.08C60.5392 31.2267 60.7626 31.4133 60.9459 31.64L60.8909 31ZM59.4659 34.955C59.7259 34.955 59.9559 34.89 60.1559 34.76C60.3559 34.63 60.5126 34.455 60.6259 34.235C60.7392 34.0117 60.7959 33.7667 60.7959 33.5C60.7959 33.23 60.7392 32.985 60.6259 32.765C60.5126 32.5417 60.3542 32.365 60.1509 32.235C59.9509 32.105 59.7226 32.04 59.4659 32.04C59.2092 32.04 58.9742 32.1067 58.7609 32.24C58.5509 32.37 58.3826 32.545 58.2559 32.765C58.1326 32.985 58.0709 33.23 58.0709 33.5C58.0709 33.77 58.1342 34.015 58.2609 34.235C58.3876 34.455 58.5559 34.63 58.7659 34.76C58.9792 34.89 59.2126 34.955 59.4659 34.955ZM65.9872 32.22H65.0172V36H63.7972V32.22H63.0572V31H63.7972V29.43H65.0172V31H65.9872V32.22Z" fill="#FF9500"/>
</svg>
