<svg width="288" height="58" viewBox="0 0 288 58" fill="none" xmlns="http://www.w3.org/2000/svg">
<rect width="288" height="58" rx="29" fill="url(#paint0_linear_81_4265)"/>
<path d="M99.644 35.208C98.8867 35.208 98.1747 35.0587 97.508 34.76C96.8413 34.456 96.2547 34.04 95.748 33.512C95.2467 32.9787 94.852 32.36 94.564 31.656C94.2813 30.952 94.14 30.2 94.14 29.4C94.14 28.6 94.2813 27.848 94.564 27.144C94.852 26.44 95.2467 25.824 95.748 25.296C96.2547 24.7627 96.8413 24.3467 97.508 24.048C98.1747 23.744 98.8867 23.592 99.644 23.592C100.551 23.592 101.385 23.8027 102.148 24.224C102.911 24.6453 103.543 25.2053 104.044 25.904L102.564 26.696C102.217 26.2587 101.788 25.9093 101.276 25.648C100.764 25.3867 100.22 25.256 99.644 25.256C99.1107 25.256 98.612 25.3653 98.148 25.584C97.684 25.8027 97.276 26.1013 96.924 26.48C96.572 26.8587 96.2973 27.2987 96.1 27.8C95.9027 28.3013 95.804 28.8347 95.804 29.4C95.804 29.9707 95.9027 30.5067 96.1 31.008C96.2973 31.504 96.572 31.944 96.924 32.328C97.2813 32.7067 97.692 33.0053 98.156 33.224C98.62 33.4373 99.116 33.544 99.644 33.544C100.231 33.544 100.777 33.4133 101.284 33.152C101.796 32.8853 102.223 32.5333 102.564 32.096L104.044 32.904C103.543 33.6027 102.911 34.1627 102.148 34.584C101.385 35 100.551 35.208 99.644 35.208ZM108.899 35.208C108.163 35.208 107.491 35.0187 106.883 34.64C106.28 34.2613 105.797 33.7547 105.435 33.12C105.077 32.48 104.899 31.7733 104.899 31C104.899 30.4133 105.003 29.8667 105.211 29.36C105.419 28.848 105.704 28.4 106.067 28.016C106.435 27.6267 106.861 27.3227 107.347 27.104C107.832 26.8853 108.349 26.776 108.899 26.776C109.635 26.776 110.304 26.9653 110.907 27.344C111.515 27.7227 111.997 28.232 112.355 28.872C112.717 29.512 112.899 30.2213 112.899 31C112.899 31.5813 112.795 32.1253 112.587 32.632C112.379 33.1387 112.091 33.5867 111.723 33.976C111.36 34.36 110.936 34.6613 110.451 34.88C109.971 35.0987 109.453 35.208 108.899 35.208ZM108.899 33.544C109.341 33.544 109.739 33.4267 110.091 33.192C110.443 32.9573 110.72 32.648 110.923 32.264C111.131 31.8747 111.235 31.4533 111.235 31C111.235 30.536 111.128 30.1093 110.915 29.72C110.707 29.3307 110.427 29.0213 110.075 28.792C109.723 28.5573 109.331 28.44 108.899 28.44C108.461 28.44 108.064 28.5573 107.707 28.792C107.355 29.0267 107.075 29.3387 106.867 29.728C106.664 30.1173 106.563 30.5413 106.563 31C106.563 31.4747 106.669 31.904 106.883 32.288C107.096 32.672 107.379 32.9787 107.731 33.208C108.088 33.432 108.477 33.544 108.899 33.544ZM121.591 29.984V35H119.927V30.392C119.927 30.0347 119.839 29.7093 119.663 29.416C119.493 29.1227 119.261 28.8907 118.967 28.72C118.679 28.544 118.354 28.456 117.991 28.456C117.639 28.456 117.317 28.544 117.023 28.72C116.73 28.8907 116.495 29.1227 116.319 29.416C116.143 29.7093 116.055 30.0347 116.055 30.392V35H114.391V27H116.055V27.848C116.333 27.5173 116.674 27.256 117.079 27.064C117.485 26.872 117.922 26.776 118.391 26.776C118.983 26.776 119.522 26.92 120.007 27.208C120.493 27.496 120.877 27.8827 121.159 28.368C121.447 28.8533 121.591 29.392 121.591 29.984ZM127.612 28.664H125.932L125.924 35H124.26L124.268 28.664H122.996V27H124.268L124.26 24.488H125.924L125.932 27H127.612V28.664ZM129.135 27H130.799V35H129.135V27ZM129.983 25.84C129.727 25.84 129.514 25.7573 129.343 25.592C129.172 25.4267 129.087 25.2187 129.087 24.968C129.087 24.7227 129.172 24.5173 129.343 24.352C129.514 24.1813 129.724 24.096 129.975 24.096C130.22 24.096 130.428 24.1813 130.599 24.352C130.77 24.5173 130.855 24.7227 130.855 24.968C130.855 25.2187 130.77 25.4267 130.599 25.592C130.434 25.7573 130.228 25.84 129.983 25.84ZM140.051 29.984V35H138.387V30.392C138.387 30.0347 138.299 29.7093 138.123 29.416C137.952 29.1227 137.72 28.8907 137.427 28.72C137.139 28.544 136.813 28.456 136.451 28.456C136.099 28.456 135.776 28.544 135.483 28.72C135.189 28.8907 134.955 29.1227 134.779 29.416C134.603 29.7093 134.515 30.0347 134.515 30.392V35H132.851V27H134.515V27.848C134.792 27.5173 135.133 27.256 135.539 27.064C135.944 26.872 136.381 26.776 136.851 26.776C137.443 26.776 137.981 26.92 138.467 27.208C138.952 27.496 139.336 27.8827 139.619 28.368C139.907 28.8533 140.051 29.392 140.051 29.984ZM141.528 32V27H143.192V31.592C143.192 31.9493 143.28 32.2747 143.456 32.568C143.632 32.8613 143.866 33.096 144.16 33.272C144.453 33.4427 144.776 33.528 145.128 33.528C145.485 33.528 145.808 33.4427 146.096 33.272C146.389 33.096 146.621 32.8613 146.792 32.568C146.968 32.2747 147.056 31.9493 147.056 31.592V27H148.72L148.728 35H147.064L147.056 34.136C146.784 34.4667 146.445 34.728 146.04 34.92C145.634 35.112 145.2 35.208 144.736 35.208C144.144 35.208 143.605 35.064 143.12 34.776C142.634 34.488 142.248 34.1013 141.96 33.616C141.672 33.1307 141.528 32.592 141.528 32ZM153.943 35.208C153.207 35.208 152.535 35.0187 151.927 34.64C151.324 34.2613 150.841 33.7547 150.479 33.12C150.121 32.48 149.943 31.7733 149.943 31C149.943 30.4133 150.047 29.8667 150.255 29.36C150.463 28.848 150.748 28.4 151.111 28.016C151.479 27.6267 151.905 27.3227 152.391 27.104C152.876 26.8853 153.393 26.776 153.943 26.776C154.556 26.776 155.119 26.904 155.631 27.16C156.143 27.4107 156.58 27.76 156.943 28.208C157.305 28.6507 157.572 29.1627 157.743 29.744C157.913 30.32 157.964 30.9333 157.895 31.584H151.727C151.796 31.952 151.929 32.2853 152.127 32.584C152.329 32.8773 152.585 33.1093 152.895 33.28C153.209 33.4507 153.559 33.5387 153.943 33.544C154.348 33.544 154.716 33.4427 155.047 33.24C155.383 33.0373 155.657 32.7573 155.871 32.4L157.559 32.792C157.239 33.5013 156.756 34.0827 156.111 34.536C155.465 34.984 154.743 35.208 153.943 35.208ZM151.671 30.312H156.215C156.161 29.928 156.025 29.5813 155.807 29.272C155.593 28.9573 155.324 28.7093 154.999 28.528C154.679 28.3413 154.327 28.248 153.943 28.248C153.564 28.248 153.212 28.3387 152.887 28.52C152.567 28.7013 152.3 28.9493 152.087 29.264C151.879 29.5733 151.74 29.9227 151.671 30.312Z" fill="white"/>
<path fill-rule="evenodd" clip-rule="evenodd" d="M181.335 29.0066L181.337 29.3607C181.349 30.7652 181.433 32.0183 181.579 32.8124C181.579 32.8267 181.739 33.6143 181.84 33.8764C181.999 34.2554 182.287 34.577 182.648 34.7808C182.938 34.9262 183.241 35 183.558 35C183.808 34.9884 184.219 34.8629 184.513 34.7576L184.757 34.664C186.374 34.0218 189.464 31.9234 190.648 30.6402L190.735 30.5505L191.125 30.1302C191.37 29.8085 191.5 29.4153 191.5 28.9923C191.5 28.6134 191.384 28.2344 191.153 27.9282C191.084 27.829 190.972 27.7017 190.873 27.5942L190.494 27.1974C189.19 25.8757 186.365 24.0218 184.901 23.4076C184.901 23.3943 183.991 23.0143 183.558 23H183.5C182.836 23 182.215 23.3789 181.898 23.9914C181.811 24.1588 181.728 24.4868 181.665 24.7748L181.551 25.3187C181.421 26.1933 181.335 27.535 181.335 29.0066ZM175.003 27.4817C174.173 27.4817 173.5 28.1613 173.5 28.9996C173.5 29.8378 174.173 30.5175 175.003 30.5175L178.702 30.1903C179.354 30.1903 179.882 29.6583 179.882 28.9996C179.882 28.3419 179.354 27.8088 178.702 27.8088L175.003 27.4817Z" fill="white"/>
<defs>
<linearGradient id="paint0_linear_81_4265" x1="288" y1="58" x2="167.098" y2="-116.064" gradientUnits="userSpaceOnUse">
<stop stop-color="#FF9500"/>
<stop offset="0.92" stop-color="#FFC97E"/>
</linearGradient>
</defs>
</svg>
