<svg width="132" height="15" viewBox="0 0 132 15" fill="none" xmlns="http://www.w3.org/2000/svg">
<path d="M5.13375 14.4007C4.30575 14.4007 3.54975 14.1877 2.86575 13.7617C2.18775 13.3357 1.64475 12.7657 1.23675 12.0517C0.83475 11.3317 0.63375 10.5367 0.63375 9.66675C0.63375 9.00675 0.75075 8.39175 0.98475 7.82175C1.21875 7.24575 1.53975 6.74175 1.94775 6.30975C2.36175 5.87175 2.84175 5.52975 3.38775 5.28375C3.93375 5.03775 4.51575 4.91475 5.13375 4.91475C5.96175 4.91475 6.71475 5.12775 7.39275 5.55375C8.07675 5.97975 8.61975 6.55275 9.02175 7.27275C9.42975 7.99275 9.63375 8.79075 9.63375 9.66675C9.63375 10.3207 9.51675 10.9327 9.28275 11.5027C9.04875 12.0727 8.72475 12.5767 8.31075 13.0147C7.90275 13.4467 7.42575 13.7857 6.87975 14.0317C6.33975 14.2777 5.75775 14.4007 5.13375 14.4007ZM5.13375 12.5287C5.63175 12.5287 6.07875 12.3967 6.47475 12.1327C6.87075 11.8687 7.18275 11.5207 7.41075 11.0887C7.64475 10.6507 7.76175 10.1767 7.76175 9.66675C7.76175 9.14475 7.64175 8.66475 7.40175 8.22675C7.16775 7.78875 6.85275 7.44075 6.45675 7.18275C6.06075 6.91875 5.61975 6.78675 5.13375 6.78675C4.64175 6.78675 4.19475 6.91875 3.79275 7.18275C3.39675 7.44675 3.08175 7.79775 2.84775 8.23575C2.61975 8.67375 2.50575 9.15075 2.50575 9.66675C2.50575 10.2007 2.62575 10.6837 2.86575 11.1157C3.10575 11.5477 3.42375 11.8927 3.81975 12.1507C4.22175 12.4027 4.65975 12.5287 5.13375 12.5287ZM11.2878 14.1667V5.16675H13.1598V6.12075C13.4718 5.74875 13.8558 5.45475 14.3118 5.23875C14.7678 5.02275 15.2598 4.91475 15.7878 4.91475C16.1238 4.91475 16.4568 4.95975 16.7868 5.04975L16.0398 6.93975C15.8058 6.84975 15.5718 6.80475 15.3378 6.80475C14.9418 6.80475 14.5788 6.90375 14.2488 7.10175C13.9188 7.29375 13.6548 7.55475 13.4568 7.88475C13.2588 8.21475 13.1598 8.58075 13.1598 8.98275V14.1667H11.2878ZM28.6566 11.6107L30.3306 12.5197C29.9226 13.0897 29.4036 13.5457 28.7736 13.8877C28.1496 14.2297 27.4716 14.4007 26.7396 14.4007C25.9116 14.4007 25.1556 14.1877 24.4716 13.7617C23.7936 13.3357 23.2506 12.7657 22.8426 12.0517C22.4406 11.3317 22.2396 10.5367 22.2396 9.66675C22.2396 9.00675 22.3566 8.39175 22.5906 7.82175C22.8246 7.24575 23.1456 6.74175 23.5536 6.30975C23.9676 5.87175 24.4476 5.52975 24.9936 5.28375C25.5396 5.03775 26.1216 4.91475 26.7396 4.91475C27.4716 4.91475 28.1496 5.08575 28.7736 5.42775C29.4036 5.76975 29.9226 6.22875 30.3306 6.80475L28.6566 7.71375C28.4046 7.41375 28.1106 7.18575 27.7746 7.02975C27.4386 6.86775 27.0936 6.78675 26.7396 6.78675C26.2476 6.78675 25.8006 6.92175 25.3986 7.19175C25.0026 7.45575 24.6876 7.80675 24.4536 8.24475C24.2256 8.67675 24.1116 9.15075 24.1116 9.66675C24.1116 10.1767 24.2286 10.6507 24.4626 11.0887C24.6966 11.5207 25.0116 11.8687 25.4076 12.1327C25.8096 12.3967 26.2536 12.5287 26.7396 12.5287C27.1116 12.5287 27.4656 12.4447 27.8016 12.2767C28.1376 12.1087 28.4226 11.8867 28.6566 11.6107ZM35.8869 14.4007C35.0589 14.4007 34.3029 14.1877 33.6189 13.7617C32.9409 13.3357 32.3979 12.7657 31.9899 12.0517C31.5879 11.3317 31.3869 10.5367 31.3869 9.66675C31.3869 9.00675 31.5039 8.39175 31.7379 7.82175C31.9719 7.24575 32.2929 6.74175 32.7009 6.30975C33.1149 5.87175 33.5949 5.52975 34.1409 5.28375C34.6869 5.03775 35.2689 4.91475 35.8869 4.91475C36.7149 4.91475 37.4679 5.12775 38.1459 5.55375C38.8299 5.97975 39.3729 6.55275 39.7749 7.27275C40.1829 7.99275 40.3869 8.79075 40.3869 9.66675C40.3869 10.3207 40.2699 10.9327 40.0359 11.5027C39.8019 12.0727 39.4779 12.5767 39.0639 13.0147C38.6559 13.4467 38.1789 13.7857 37.6329 14.0317C37.0929 14.2777 36.5109 14.4007 35.8869 14.4007ZM35.8869 12.5287C36.3849 12.5287 36.8319 12.3967 37.2279 12.1327C37.6239 11.8687 37.9359 11.5207 38.1639 11.0887C38.3979 10.6507 38.5149 10.1767 38.5149 9.66675C38.5149 9.14475 38.3949 8.66475 38.1549 8.22675C37.9209 7.78875 37.6059 7.44075 37.2099 7.18275C36.8139 6.91875 36.3729 6.78675 35.8869 6.78675C35.3949 6.78675 34.9479 6.91875 34.5459 7.18275C34.1499 7.44675 33.8349 7.79775 33.6009 8.23575C33.3729 8.67375 33.2589 9.15075 33.2589 9.66675C33.2589 10.2007 33.3789 10.6837 33.6189 11.1157C33.8589 11.5477 34.1769 11.8927 34.5729 12.1507C34.9749 12.4027 35.4129 12.5287 35.8869 12.5287ZM50.1409 8.52375V14.1667H48.2689V8.98275C48.2689 8.58075 48.1699 8.21475 47.9719 7.88475C47.7799 7.55475 47.5189 7.29375 47.1889 7.10175C46.8649 6.90375 46.4989 6.80475 46.0909 6.80475C45.6949 6.80475 45.3319 6.90375 45.0019 7.10175C44.6719 7.29375 44.4079 7.55475 44.2099 7.88475C44.0119 8.21475 43.9129 8.58075 43.9129 8.98275V14.1667H42.0409V5.16675H43.9129V6.12075C44.2249 5.74875 44.6089 5.45475 45.0649 5.23875C45.5209 5.02275 46.0129 4.91475 46.5409 4.91475C47.2069 4.91475 47.8129 5.07675 48.3589 5.40075C48.9049 5.72475 49.3369 6.15975 49.6549 6.70575C49.9789 7.25175 50.1409 7.85775 50.1409 8.52375ZM56.8894 7.03875H54.9994L54.9904 14.1667H53.1184L53.1274 7.03875H51.6964V5.16675H53.1274L53.1184 2.34075H54.9904L54.9994 5.16675H56.8894V7.03875ZM58.5777 5.16675H60.4497V14.1667H58.5777V5.16675ZM59.5317 3.86175C59.2437 3.86175 59.0037 3.76875 58.8117 3.58275C58.6197 3.39675 58.5237 3.16275 58.5237 2.88075C58.5237 2.60475 58.6197 2.37375 58.8117 2.18775C59.0037 1.99575 59.2407 1.89975 59.5227 1.89975C59.7987 1.89975 60.0327 1.99575 60.2247 2.18775C60.4167 2.37375 60.5127 2.60475 60.5127 2.88075C60.5127 3.16275 60.4167 3.39675 60.2247 3.58275C60.0387 3.76875 59.8077 3.86175 59.5317 3.86175ZM70.8327 8.52375V14.1667H68.9607V8.98275C68.9607 8.58075 68.8617 8.21475 68.6637 7.88475C68.4717 7.55475 68.2107 7.29375 67.8807 7.10175C67.5567 6.90375 67.1907 6.80475 66.7827 6.80475C66.3867 6.80475 66.0237 6.90375 65.6937 7.10175C65.3637 7.29375 65.0997 7.55475 64.9017 7.88475C64.7037 8.21475 64.6047 8.58075 64.6047 8.98275V14.1667H62.7327V5.16675H64.6047V6.12075C64.9167 5.74875 65.3007 5.45475 65.7567 5.23875C66.2127 5.02275 66.7047 4.91475 67.2327 4.91475C67.8987 4.91475 68.5047 5.07675 69.0507 5.40075C69.5967 5.72475 70.0287 6.15975 70.3467 6.70575C70.6707 7.25175 70.8327 7.85775 70.8327 8.52375ZM72.4692 10.7917V5.16675H74.3412V10.3327C74.3412 10.7347 74.4402 11.1007 74.6382 11.4307C74.8362 11.7607 75.1002 12.0247 75.4302 12.2227C75.7602 12.4147 76.1232 12.5107 76.5192 12.5107C76.9212 12.5107 77.2842 12.4147 77.6082 12.2227C77.9382 12.0247 78.1992 11.7607 78.3912 11.4307C78.5892 11.1007 78.6882 10.7347 78.6882 10.3327V5.16675H80.5602L80.5692 14.1667H78.6972L78.6882 13.1947C78.3822 13.5667 78.0012 13.8607 77.5452 14.0767C77.0892 14.2927 76.6002 14.4007 76.0782 14.4007C75.4122 14.4007 74.8062 14.2387 74.2602 13.9147C73.7142 13.5907 73.2792 13.1557 72.9552 12.6097C72.6312 12.0637 72.4692 11.4577 72.4692 10.7917ZM86.4111 14.4007C85.5831 14.4007 84.8271 14.1877 84.1431 13.7617C83.4651 13.3357 82.9221 12.7657 82.5141 12.0517C82.1121 11.3317 81.9111 10.5367 81.9111 9.66675C81.9111 9.00675 82.0281 8.39175 82.2621 7.82175C82.4961 7.24575 82.8171 6.74175 83.2251 6.30975C83.6391 5.87175 84.1191 5.52975 84.6651 5.28375C85.2111 5.03775 85.7931 4.91475 86.4111 4.91475C87.1011 4.91475 87.7341 5.05875 88.3101 5.34675C88.8861 5.62875 89.3781 6.02175 89.7861 6.52575C90.1941 7.02375 90.4941 7.59975 90.6861 8.25375C90.8781 8.90175 90.9351 9.59175 90.8571 10.3237H83.9181C83.9961 10.7377 84.1461 11.1127 84.3681 11.4487C84.5961 11.7787 84.8841 12.0397 85.2321 12.2317C85.5861 12.4237 85.9791 12.5227 86.4111 12.5287C86.8671 12.5287 87.2811 12.4147 87.6531 12.1867C88.0311 11.9587 88.3401 11.6437 88.5801 11.2417L90.4791 11.6827C90.1191 12.4807 89.5761 13.1347 88.8501 13.6447C88.1241 14.1487 87.3111 14.4007 86.4111 14.4007ZM83.8551 8.89275H88.9671C88.9071 8.46075 88.7541 8.07075 88.5081 7.72275C88.2681 7.36875 87.9651 7.08975 87.5991 6.88575C87.2391 6.67575 86.8431 6.57075 86.4111 6.57075C85.9851 6.57075 85.5891 6.67275 85.2231 6.87675C84.8631 7.08075 84.5631 7.35975 84.3231 7.71375C84.0891 8.06175 83.9331 8.45475 83.8551 8.89275ZM101.568 14.1667H99.705L96.69 5.16675H98.526L100.65 11.4847L102.756 5.16675H104.646L106.752 11.4847L108.867 5.16675H110.703L107.697 14.1667H105.816L103.692 7.80375L101.568 14.1667ZM112.301 5.16675H114.173V14.1667H112.301V5.16675ZM113.255 3.86175C112.967 3.86175 112.727 3.76875 112.535 3.58275C112.343 3.39675 112.247 3.16275 112.247 2.88075C112.247 2.60475 112.343 2.37375 112.535 2.18775C112.727 1.99575 112.964 1.89975 113.246 1.89975C113.522 1.89975 113.756 1.99575 113.948 2.18775C114.14 2.37375 114.236 2.60475 114.236 2.88075C114.236 3.16275 114.14 3.39675 113.948 3.58275C113.762 3.76875 113.531 3.86175 113.255 3.86175ZM121.278 7.03875H119.388L119.379 14.1667H117.507L117.516 7.03875H116.085V5.16675H117.516L117.507 2.34075H119.379L119.388 5.16675H121.278V7.03875ZM131.19 8.52375V14.1667H129.318V8.98275C129.318 8.58075 129.219 8.21475 129.021 7.88475C128.829 7.55475 128.568 7.29375 128.238 7.10175C127.914 6.90375 127.548 6.80475 127.14 6.80475C126.744 6.80475 126.381 6.90375 126.051 7.10175C125.721 7.29375 125.457 7.55475 125.259 7.88475C125.061 8.21475 124.962 8.58075 124.962 8.98275V14.1667H123.09V0.666747H124.962V6.12075C125.274 5.74875 125.658 5.45475 126.114 5.23875C126.57 5.02275 127.062 4.91475 127.59 4.91475C128.256 4.91475 128.862 5.07675 129.408 5.40075C129.954 5.72475 130.386 6.15975 130.704 6.70575C131.028 7.25175 131.19 7.85775 131.19 8.52375Z" fill="#616161"/>
</svg>
