<svg width="88" height="61" viewBox="0 0 88 61" fill="none" xmlns="http://www.w3.org/2000/svg">
<rect x="1" y="0.666748" width="86" height="59" rx="15.5" fill="white"/>
<rect x="1" y="0.666748" width="86" height="59" rx="15.5" stroke="#EEEEEE"/>
<g clip-path="url(#clip0_81_4331)">
<path d="M55.5078 30.3913C55.5078 29.408 55.4295 28.6905 55.2598 27.9464H44.2295V32.3844H50.7041C50.5736 33.4873 49.8687 35.1482 48.3022 36.2643L48.2802 36.4129L51.7678 39.1631L52.0095 39.1877C54.2285 37.1015 55.5078 34.0321 55.5078 30.3913Z" fill="#4285F4"/>
<path d="M44.2296 42.0843C47.4016 42.0843 50.0645 41.0213 52.0095 39.1877L48.3023 36.2643C47.3102 36.9686 45.9787 37.4602 44.2296 37.4602C41.1228 37.4602 38.486 35.3741 37.546 32.4907L37.4083 32.5026L33.7818 35.3595L33.7344 35.4937C35.6663 39.4002 39.6346 42.0843 44.2296 42.0843Z" fill="#FF9500"/>
<path d="M37.5462 32.4907C37.2982 31.7466 37.1547 30.9493 37.1547 30.1255C37.1547 29.3016 37.2982 28.5044 37.5332 27.7603L37.5266 27.6018L33.8547 24.6991L33.7346 24.7573C32.9383 26.3784 32.4814 28.1988 32.4814 30.1255C32.4814 32.0522 32.9383 33.8725 33.7346 35.4936L37.5462 32.4907Z" fill="#FBBC05"/>
<path d="M44.2295 22.7908C46.4356 22.7908 47.9237 23.7608 48.7722 24.5714L52.0878 21.276C50.0515 19.3493 47.4015 18.1667 44.2295 18.1667C39.6346 18.1667 35.6663 20.8508 33.7344 24.7573L37.533 27.7603C38.486 24.8769 41.1228 22.7908 44.2295 22.7908Z" fill="#EB4335"/>
</g>
<defs>
<clipPath id="clip0_81_4331">
<rect width="23.04" height="24" fill="white" transform="translate(32.48 18.1667)"/>
</clipPath>
</defs>
</svg>
