<svg width="21" height="18" viewBox="0 0 21 18" fill="none" xmlns="http://www.w3.org/2000/svg">
<path d="M19.7087 4.09546H14.3087" stroke="#1A1A1A" stroke-width="1.5" stroke-miterlimit="10" stroke-linecap="round" stroke-linejoin="round"/>
<path d="M5.30868 4.09546H1.70868" stroke="#1A1A1A" stroke-width="1.5" stroke-miterlimit="10" stroke-linecap="round" stroke-linejoin="round"/>
<path d="M8.90868 7.24543C10.6484 7.24543 12.0587 5.83513 12.0587 4.09543C12.0587 2.35574 10.6484 0.945435 8.90868 0.945435C7.16899 0.945435 5.75868 2.35574 5.75868 4.09543C5.75868 5.83513 7.16899 7.24543 8.90868 7.24543Z" stroke="#1A1A1A" stroke-width="1.5" stroke-miterlimit="10" stroke-linecap="round" stroke-linejoin="round"/>
<path d="M19.7087 13.9955H16.1087" stroke="#1A1A1A" stroke-width="1.5" stroke-miterlimit="10" stroke-linecap="round" stroke-linejoin="round"/>
<path d="M7.10868 13.9955H1.70868" stroke="#1A1A1A" stroke-width="1.5" stroke-miterlimit="10" stroke-linecap="round" stroke-linejoin="round"/>
<path d="M12.5087 17.1455C14.2484 17.1455 15.6587 15.7352 15.6587 13.9955C15.6587 12.2558 14.2484 10.8455 12.5087 10.8455C10.769 10.8455 9.35867 12.2558 9.35867 13.9955C9.35867 15.7352 10.769 17.1455 12.5087 17.1455Z" stroke="#1A1A1A" stroke-width="1.5" stroke-miterlimit="10" stroke-linecap="round" stroke-linejoin="round"/>
</svg>
