<svg width="380" height="72" viewBox="0 0 380 72" fill="none" xmlns="http://www.w3.org/2000/svg">
<rect y="0.333374" width="380" height="58" rx="29" fill="url(#paint0_linear_81_4323)"/>
<g filter="url(#filter0_d_81_4323)">
<path d="M167.283 35.5414C166.664 35.5414 166.069 35.4454 165.499 35.2534C164.933 35.056 164.437 34.776 164.011 34.4134C163.584 34.0454 163.277 33.6054 163.091 33.0934L164.923 32.4214C164.997 32.6347 165.149 32.8294 165.379 33.0054C165.608 33.1814 165.888 33.3227 166.219 33.4294C166.549 33.536 166.904 33.5894 167.283 33.5894C167.672 33.5894 168.035 33.5307 168.371 33.4134C168.712 33.2907 168.987 33.1227 169.195 32.9094C169.403 32.6907 169.507 32.4374 169.507 32.1494C169.507 31.856 169.397 31.616 169.179 31.4294C168.96 31.2374 168.68 31.0854 168.339 30.9734C167.997 30.8614 167.645 30.776 167.283 30.7174C166.488 30.5947 165.776 30.4054 165.147 30.1494C164.517 29.8934 164.019 29.5387 163.651 29.0854C163.288 28.632 163.107 28.0454 163.107 27.3254C163.107 26.648 163.301 26.056 163.691 25.5494C164.08 25.0427 164.592 24.648 165.227 24.3654C165.861 24.0827 166.547 23.9414 167.283 23.9414C167.896 23.9414 168.488 24.0374 169.059 24.2294C169.629 24.4214 170.128 24.7014 170.555 25.0694C170.987 25.4374 171.296 25.88 171.483 26.3974L169.643 27.0614C169.568 26.848 169.416 26.6534 169.187 26.4774C168.957 26.3014 168.677 26.1627 168.347 26.0614C168.016 25.9547 167.661 25.9014 167.283 25.9014C166.904 25.896 166.544 25.9574 166.203 26.0854C165.867 26.208 165.592 26.376 165.379 26.5894C165.165 26.8027 165.059 27.048 165.059 27.3254C165.059 27.6827 165.157 27.952 165.355 28.1334C165.557 28.3147 165.827 28.448 166.163 28.5334C166.499 28.6134 166.872 28.688 167.283 28.7574C168.029 28.8747 168.72 29.072 169.355 29.3494C169.989 29.6267 170.499 29.9974 170.883 30.4614C171.267 30.92 171.459 31.4827 171.459 32.1494C171.459 32.8267 171.267 33.4214 170.883 33.9334C170.499 34.44 169.989 34.8347 169.355 35.1174C168.72 35.4 168.029 35.5414 167.283 35.5414ZM173.247 27.3334H175.199V35.3334H173.247V27.3334ZM174.239 26.3014C173.951 26.3014 173.709 26.208 173.511 26.0214C173.314 25.8294 173.215 25.5894 173.215 25.3014C173.215 25.0187 173.314 24.7814 173.511 24.5894C173.709 24.3974 173.949 24.3014 174.231 24.3014C174.514 24.3014 174.751 24.3974 174.943 24.5894C175.141 24.7814 175.239 25.0187 175.239 25.3014C175.239 25.5894 175.143 25.8294 174.951 26.0214C174.759 26.208 174.522 26.3014 174.239 26.3014ZM183.071 27.3334H185.023V35.4854C185.023 36.0614 184.906 36.584 184.671 37.0534C184.436 37.528 184.116 37.9334 183.711 38.2694C183.306 38.6107 182.842 38.872 182.319 39.0534C181.796 39.24 181.247 39.3334 180.671 39.3334C180.111 39.3334 179.572 39.2187 179.055 38.9894C178.538 38.76 178.079 38.4454 177.679 38.0454C177.284 37.6507 176.983 37.2 176.775 36.6934L178.559 35.8854C178.666 36.1787 178.826 36.4347 179.039 36.6534C179.258 36.8774 179.508 37.0507 179.791 37.1734C180.074 37.3014 180.367 37.3654 180.671 37.3654C180.98 37.3654 181.276 37.3227 181.559 37.2374C181.847 37.152 182.106 37.0267 182.335 36.8614C182.564 36.7014 182.743 36.504 182.871 36.2694C183.004 36.04 183.071 35.7787 183.071 35.4854V34.3574C182.82 34.7094 182.506 34.9947 182.127 35.2134C181.748 35.432 181.311 35.5414 180.815 35.5414C180.239 35.5414 179.7 35.432 179.199 35.2134C178.698 34.9947 178.255 34.6934 177.871 34.3094C177.492 33.92 177.194 33.472 176.975 32.9654C176.762 32.4587 176.655 31.9147 176.655 31.3334C176.655 30.752 176.762 30.208 176.975 29.7014C177.194 29.1947 177.492 28.7494 177.871 28.3654C178.255 27.976 178.698 27.672 179.199 27.4534C179.7 27.2347 180.239 27.1254 180.815 27.1254C181.311 27.1254 181.748 27.2347 182.127 27.4534C182.506 27.6667 182.82 27.9494 183.071 28.3014V27.3334ZM180.839 33.6614C181.25 33.6614 181.612 33.5574 181.927 33.3494C182.247 33.136 182.498 32.8534 182.679 32.5014C182.86 32.144 182.951 31.7547 182.951 31.3334C182.951 30.9067 182.858 30.5174 182.671 30.1654C182.49 29.8134 182.239 29.5307 181.919 29.3174C181.604 29.104 181.244 28.9974 180.839 28.9974C180.439 28.9974 180.074 29.104 179.743 29.3174C179.412 29.5254 179.148 29.8054 178.951 30.1574C178.754 30.5094 178.655 30.9014 178.655 31.3334C178.655 31.7654 178.754 32.1574 178.951 32.5094C179.148 32.8614 179.412 33.1414 179.743 33.3494C180.074 33.5574 180.439 33.6614 180.839 33.6614ZM194.476 30.2774V35.3334H192.524V30.7894C192.524 30.4747 192.446 30.1894 192.292 29.9334C192.137 29.672 191.929 29.4667 191.668 29.3174C191.412 29.1627 191.126 29.0854 190.812 29.0854C190.497 29.0854 190.209 29.1627 189.948 29.3174C189.692 29.4667 189.486 29.672 189.332 29.9334C189.182 30.1894 189.108 30.4747 189.108 30.7894V35.3334H187.156L187.148 27.3334H189.1L189.108 28.0454C189.38 27.7574 189.705 27.5307 190.084 27.3654C190.462 27.1947 190.87 27.1094 191.308 27.1094C191.889 27.1094 192.42 27.2534 192.9 27.5414C193.38 27.824 193.761 28.2054 194.044 28.6854C194.332 29.16 194.476 29.6907 194.476 30.2774ZM199.993 32.3734V27.3334H201.945V31.8614C201.945 32.176 202.022 32.464 202.177 32.7254C202.332 32.9814 202.537 33.1867 202.793 33.3414C203.054 33.4907 203.34 33.5654 203.649 33.5654C203.969 33.5654 204.257 33.4907 204.513 33.3414C204.769 33.1867 204.974 32.9814 205.129 32.7254C205.284 32.464 205.361 32.176 205.361 31.8614V27.3334H207.313L207.321 35.3334H205.369L205.361 34.6054C205.084 34.8934 204.756 35.1227 204.377 35.2934C203.998 35.4587 203.593 35.5414 203.161 35.5414C202.58 35.5414 202.049 35.4 201.569 35.1174C201.089 34.8294 200.705 34.448 200.417 33.9734C200.134 33.4934 199.993 32.96 199.993 32.3734ZM210.715 39.3334H208.763V27.3334H210.715V28.3494C210.976 27.9867 211.296 27.6934 211.675 27.4694C212.059 27.24 212.507 27.1254 213.019 27.1254C213.606 27.1254 214.152 27.2347 214.659 27.4534C215.166 27.672 215.611 27.976 215.995 28.3654C216.384 28.7494 216.686 29.1947 216.899 29.7014C217.118 30.208 217.227 30.752 217.227 31.3334C217.227 31.9147 217.118 32.4614 216.899 32.9734C216.686 33.4854 216.384 33.936 215.995 34.3254C215.611 34.7094 215.166 35.0107 214.659 35.2294C214.152 35.448 213.606 35.5574 213.019 35.5574C212.507 35.5574 212.059 35.4454 211.675 35.2214C211.296 34.992 210.976 34.696 210.715 34.3334V39.3334ZM212.995 29.0054C212.59 29.0054 212.227 29.112 211.907 29.3254C211.587 29.5334 211.336 29.8134 211.155 30.1654C210.974 30.5174 210.883 30.9067 210.883 31.3334C210.883 31.76 210.974 32.152 211.155 32.5094C211.336 32.8614 211.587 33.144 211.907 33.3574C212.227 33.5654 212.59 33.6694 212.995 33.6694C213.406 33.6694 213.782 33.5654 214.123 33.3574C214.464 33.1494 214.736 32.8694 214.939 32.5174C215.142 32.16 215.243 31.7654 215.243 31.3334C215.243 30.9067 215.142 30.5174 214.939 30.1654C214.736 29.8134 214.464 29.5334 214.123 29.3254C213.787 29.112 213.411 29.0054 212.995 29.0054Z" fill="white"/>
</g>
<defs>
<filter id="filter0_d_81_4323" x="143.091" y="7.94141" width="102.136" height="63.392" filterUnits="userSpaceOnUse" color-interpolation-filters="sRGB">
<feFlood flood-opacity="0" result="BackgroundImageFix"/>
<feColorMatrix in="SourceAlpha" type="matrix" values="0 0 0 0 0 0 0 0 0 0 0 0 0 0 0 0 0 0 127 0" result="hardAlpha"/>
<feOffset dx="4" dy="8"/>
<feGaussianBlur stdDeviation="12"/>
<feComposite in2="hardAlpha" operator="out"/>
<feColorMatrix type="matrix" values="0 0 0 0 0.00392157 0 0 0 0 0.717647 0 0 0 0 0.388235 0 0 0 0.25 0"/>
<feBlend mode="normal" in2="BackgroundImageFix" result="effect1_dropShadow_81_4323"/>
<feBlend mode="normal" in="SourceGraphic" in2="effect1_dropShadow_81_4323" result="shape"/>
</filter>
<linearGradient id="paint0_linear_81_4323" x1="380" y1="58.3334" x2="273.637" y2="-143.715" gradientUnits="userSpaceOnUse">
<stop stop-color="#FF9500"/>
<stop offset="0.92" stop-color="#FFC97E"/>
</linearGradient>
</defs>
</svg>
