<svg width="380" height="20" viewBox="0 0 380 20" fill="none" xmlns="http://www.w3.org/2000/svg">
<path d="M86.2124 5.2H87.4304L91.0004 15H89.9574L89.1944 12.9H84.4554L83.6924 15H82.6494L86.2124 5.2ZM84.8124 11.92H88.8304L86.8214 6.404L84.8124 11.92ZM92.5084 15V4.5H93.4884V15H92.5084ZM95.3744 15V8H96.3544V8.966C96.6017 8.61133 96.9237 8.329 97.3204 8.119C97.717 7.909 98.1487 7.804 98.6154 7.804C98.886 7.804 99.1474 7.839 99.3994 7.909L99.0004 8.882C98.8044 8.82133 98.613 8.791 98.4264 8.791C98.0484 8.791 97.7007 8.88433 97.3834 9.071C97.0707 9.25767 96.821 9.50733 96.6344 9.82C96.4477 10.1327 96.3544 10.4803 96.3544 10.863V15H95.3744ZM103.193 15.182C102.549 15.182 101.961 15.0163 101.429 14.685C100.902 14.3537 100.48 13.9103 100.162 13.355C99.8498 12.795 99.6934 12.1767 99.6934 11.5C99.6934 10.9867 99.7844 10.5083 99.9664 10.065C100.148 9.617 100.398 9.225 100.715 8.889C101.037 8.54833 101.411 8.28233 101.835 8.091C102.26 7.89967 102.713 7.804 103.193 7.804C103.711 7.804 104.187 7.90667 104.621 8.112C105.06 8.31733 105.436 8.60433 105.748 8.973C106.066 9.34167 106.304 9.77333 106.462 10.268C106.626 10.7627 106.693 11.297 106.665 11.871H100.729C100.785 12.3143 100.925 12.711 101.149 13.061C101.378 13.411 101.667 13.6887 102.017 13.894C102.372 14.0947 102.764 14.1973 103.193 14.202C103.66 14.202 104.08 14.0807 104.453 13.838C104.831 13.5953 105.135 13.2617 105.363 12.837L106.357 13.068C106.077 13.6887 105.655 14.1973 105.09 14.594C104.526 14.986 103.893 15.182 103.193 15.182ZM100.701 11.08H105.678C105.646 10.646 105.513 10.2493 105.279 9.89C105.051 9.526 104.754 9.23667 104.39 9.022C104.026 8.80267 103.627 8.693 103.193 8.693C102.759 8.693 102.363 8.80033 102.003 9.015C101.644 9.225 101.35 9.512 101.121 9.876C100.893 10.2353 100.753 10.6367 100.701 11.08ZM113.751 8H114.731V15H113.751L113.716 13.698C113.487 14.1413 113.168 14.5007 112.757 14.776C112.346 15.0467 111.856 15.182 111.287 15.182C110.774 15.182 110.293 15.0863 109.845 14.895C109.397 14.699 109.003 14.4307 108.662 14.09C108.321 13.7493 108.055 13.355 107.864 12.907C107.673 12.459 107.577 11.9783 107.577 11.465C107.577 10.961 107.67 10.4873 107.857 10.044C108.048 9.60067 108.31 9.211 108.641 8.875C108.977 8.539 109.364 8.27767 109.803 8.091C110.246 7.89967 110.72 7.804 111.224 7.804C111.807 7.804 112.316 7.944 112.75 8.224C113.184 8.49933 113.529 8.861 113.786 9.309L113.751 8ZM111.266 14.23C111.765 14.23 112.195 14.1087 112.554 13.866C112.913 13.6187 113.189 13.2873 113.38 12.872C113.576 12.4567 113.674 11.9993 113.674 11.5C113.674 10.9867 113.576 10.5247 113.38 10.114C113.184 9.69867 112.906 9.36967 112.547 9.127C112.188 8.88433 111.761 8.763 111.266 8.763C110.771 8.763 110.319 8.88667 109.908 9.134C109.502 9.37667 109.178 9.70567 108.935 10.121C108.697 10.5363 108.578 10.996 108.578 11.5C108.578 12.0087 108.702 12.4707 108.949 12.886C109.196 13.2967 109.523 13.6233 109.929 13.866C110.34 14.1087 110.785 14.23 111.266 14.23ZM121.956 4.5H122.936V15H121.956V13.691C121.713 14.139 121.38 14.5007 120.955 14.776C120.535 15.0467 120.036 15.182 119.457 15.182C118.948 15.182 118.472 15.0863 118.029 14.895C117.586 14.7037 117.194 14.44 116.853 14.104C116.517 13.7633 116.253 13.3713 116.062 12.928C115.871 12.4847 115.775 12.0087 115.775 11.5C115.775 10.9913 115.871 10.5153 116.062 10.072C116.253 9.624 116.517 9.232 116.853 8.896C117.194 8.55533 117.586 8.28933 118.029 8.098C118.472 7.90667 118.948 7.811 119.457 7.811C120.036 7.811 120.535 7.94867 120.955 8.224C121.38 8.49467 121.713 8.85167 121.956 9.295V4.5ZM119.464 14.23C119.963 14.23 120.393 14.1087 120.752 13.866C121.111 13.6187 121.387 13.2873 121.578 12.872C121.774 12.4567 121.872 11.9993 121.872 11.5C121.872 10.9867 121.774 10.5247 121.578 10.114C121.382 9.69867 121.104 9.36967 120.745 9.127C120.386 8.88433 119.959 8.763 119.464 8.763C118.969 8.763 118.519 8.88667 118.113 9.134C117.707 9.37667 117.383 9.70567 117.14 10.121C116.897 10.5363 116.776 10.996 116.776 11.5C116.776 12.0087 116.9 12.4707 117.147 12.886C117.394 13.2967 117.721 13.6233 118.127 13.866C118.538 14.1087 118.983 14.23 119.464 14.23ZM129.407 8H130.443L126.614 18.5H125.571L126.845 15L124.332 8H125.403L127.335 13.649L129.407 8ZM141.712 10.667V15H140.732V10.863C140.732 10.4803 140.638 10.1327 140.452 9.82C140.265 9.50733 140.015 9.25767 139.703 9.071C139.39 8.88433 139.042 8.791 138.66 8.791C138.282 8.791 137.934 8.88433 137.617 9.071C137.304 9.25767 137.054 9.50733 136.868 9.82C136.681 10.1327 136.588 10.4803 136.588 10.863V15H135.608V4.5H136.588V8.966C136.835 8.61133 137.157 8.329 137.554 8.119C137.95 7.909 138.382 7.804 138.849 7.804C139.376 7.804 139.857 7.93233 140.291 8.189C140.725 8.44567 141.07 8.791 141.327 9.225C141.583 9.659 141.712 10.1397 141.712 10.667ZM148.931 8H149.911V15H148.931L148.896 13.698C148.667 14.1413 148.347 14.5007 147.937 14.776C147.526 15.0467 147.036 15.182 146.467 15.182C145.953 15.182 145.473 15.0863 145.025 14.895C144.577 14.699 144.182 14.4307 143.842 14.09C143.501 13.7493 143.235 13.355 143.044 12.907C142.852 12.459 142.757 11.9783 142.757 11.465C142.757 10.961 142.85 10.4873 143.037 10.044C143.228 9.60067 143.489 9.211 143.821 8.875C144.157 8.539 144.544 8.27767 144.983 8.091C145.426 7.89967 145.9 7.804 146.404 7.804C146.987 7.804 147.496 7.944 147.93 8.224C148.364 8.49933 148.709 8.861 148.966 9.309L148.931 8ZM146.446 14.23C146.945 14.23 147.374 14.1087 147.734 13.866C148.093 13.6187 148.368 13.2873 148.56 12.872C148.756 12.4567 148.854 11.9993 148.854 11.5C148.854 10.9867 148.756 10.5247 148.56 10.114C148.364 9.69867 148.086 9.36967 147.727 9.127C147.367 8.88433 146.94 8.763 146.446 8.763C145.951 8.763 145.498 8.88667 145.088 9.134C144.682 9.37667 144.357 9.70567 144.115 10.121C143.877 10.5363 143.758 10.996 143.758 11.5C143.758 12.0087 143.881 12.4707 144.129 12.886C144.376 13.2967 144.703 13.6233 145.109 13.866C145.519 14.1087 145.965 14.23 146.446 14.23ZM154.756 15H153.51L150.955 7.979H151.998L154.133 13.852L156.268 7.979H157.311L154.756 15ZM161.477 15.182C160.833 15.182 160.245 15.0163 159.713 14.685C159.186 14.3537 158.763 13.9103 158.446 13.355C158.133 12.795 157.977 12.1767 157.977 11.5C157.977 10.9867 158.068 10.5083 158.25 10.065C158.432 9.617 158.682 9.225 158.999 8.889C159.321 8.54833 159.694 8.28233 160.119 8.091C160.544 7.89967 160.996 7.804 161.477 7.804C161.995 7.804 162.471 7.90667 162.905 8.112C163.344 8.31733 163.719 8.60433 164.032 8.973C164.349 9.34167 164.587 9.77333 164.746 10.268C164.909 10.7627 164.977 11.297 164.949 11.871H159.013C159.069 12.3143 159.209 12.711 159.433 13.061C159.662 13.411 159.951 13.6887 160.301 13.894C160.656 14.0947 161.048 14.1973 161.477 14.202C161.944 14.202 162.364 14.0807 162.737 13.838C163.115 13.5953 163.418 13.2617 163.647 12.837L164.641 13.068C164.361 13.6887 163.939 14.1973 163.374 14.594C162.809 14.986 162.177 15.182 161.477 15.182ZM158.985 11.08H163.962C163.929 10.646 163.796 10.2493 163.563 9.89C163.334 9.526 163.038 9.23667 162.674 9.022C162.31 8.80267 161.911 8.693 161.477 8.693C161.043 8.693 160.646 8.80033 160.287 9.015C159.928 9.225 159.634 9.512 159.405 9.876C159.176 10.2353 159.036 10.6367 158.985 11.08ZM175.735 8H176.715V15H175.735L175.7 13.698C175.471 14.1413 175.151 14.5007 174.741 14.776C174.33 15.0467 173.84 15.182 173.271 15.182C172.757 15.182 172.277 15.0863 171.829 14.895C171.381 14.699 170.986 14.4307 170.646 14.09C170.305 13.7493 170.039 13.355 169.848 12.907C169.656 12.459 169.561 11.9783 169.561 11.465C169.561 10.961 169.654 10.4873 169.841 10.044C170.032 9.60067 170.293 9.211 170.625 8.875C170.961 8.539 171.348 8.27767 171.787 8.091C172.23 7.89967 172.704 7.804 173.208 7.804C173.791 7.804 174.3 7.944 174.734 8.224C175.168 8.49933 175.513 8.861 175.77 9.309L175.735 8ZM173.25 14.23C173.749 14.23 174.178 14.1087 174.538 13.866C174.897 13.6187 175.172 13.2873 175.364 12.872C175.56 12.4567 175.658 11.9993 175.658 11.5C175.658 10.9867 175.56 10.5247 175.364 10.114C175.168 9.69867 174.89 9.36967 174.531 9.127C174.171 8.88433 173.744 8.763 173.25 8.763C172.755 8.763 172.302 8.88667 171.892 9.134C171.486 9.37667 171.161 9.70567 170.919 10.121C170.681 10.5363 170.562 10.996 170.562 11.5C170.562 12.0087 170.685 12.4707 170.933 12.886C171.18 13.2967 171.507 13.6233 171.913 13.866C172.323 14.1087 172.769 14.23 173.25 14.23ZM184.419 10.667V15H183.439V10.863C183.439 10.4803 183.346 10.1327 183.159 9.82C182.973 9.50733 182.723 9.25767 182.41 9.071C182.098 8.88433 181.75 8.791 181.367 8.791C180.989 8.791 180.642 8.88433 180.324 9.071C180.012 9.25767 179.762 9.50733 179.575 9.82C179.389 10.1327 179.295 10.4803 179.295 10.863V15H178.315V8H179.295V8.966C179.543 8.61133 179.865 8.329 180.261 8.119C180.658 7.909 181.09 7.804 181.556 7.804C182.084 7.804 182.564 7.93233 182.998 8.189C183.432 8.44567 183.778 8.791 184.034 9.225C184.291 9.659 184.419 10.1397 184.419 10.667ZM195.339 8H196.319V15H195.339L195.304 13.698C195.075 14.1413 194.755 14.5007 194.345 14.776C193.934 15.0467 193.444 15.182 192.875 15.182C192.361 15.182 191.881 15.0863 191.433 14.895C190.985 14.699 190.59 14.4307 190.25 14.09C189.909 13.7493 189.643 13.355 189.452 12.907C189.26 12.459 189.165 11.9783 189.165 11.465C189.165 10.961 189.258 10.4873 189.445 10.044C189.636 9.60067 189.897 9.211 190.229 8.875C190.565 8.539 190.952 8.27767 191.391 8.091C191.834 7.89967 192.308 7.804 192.812 7.804C193.395 7.804 193.904 7.944 194.338 8.224C194.772 8.49933 195.117 8.861 195.374 9.309L195.339 8ZM192.854 14.23C193.353 14.23 193.782 14.1087 194.142 13.866C194.501 13.6187 194.776 13.2873 194.968 12.872C195.164 12.4567 195.262 11.9993 195.262 11.5C195.262 10.9867 195.164 10.5247 194.968 10.114C194.772 9.69867 194.494 9.36967 194.135 9.127C193.775 8.88433 193.348 8.763 192.854 8.763C192.359 8.763 191.906 8.88667 191.496 9.134C191.09 9.37667 190.765 9.70567 190.523 10.121C190.285 10.5363 190.166 10.996 190.166 11.5C190.166 12.0087 190.289 12.4707 190.537 12.886C190.784 13.2967 191.111 13.6233 191.517 13.866C191.927 14.1087 192.373 14.23 192.854 14.23ZM202.781 13.243L203.656 13.719C203.338 14.1623 202.935 14.517 202.445 14.783C201.959 15.049 201.432 15.182 200.863 15.182C200.219 15.182 199.631 15.0163 199.099 14.685C198.571 14.3537 198.149 13.9103 197.832 13.355C197.519 12.795 197.363 12.1767 197.363 11.5C197.363 10.9867 197.454 10.5083 197.636 10.065C197.818 9.617 198.067 9.225 198.385 8.889C198.707 8.54833 199.08 8.28233 199.505 8.091C199.929 7.89967 200.382 7.804 200.863 7.804C201.432 7.804 201.959 7.937 202.445 8.203C202.935 8.469 203.338 8.826 203.656 9.274L202.781 9.743C202.538 9.435 202.246 9.19933 201.906 9.036C201.565 8.868 201.217 8.784 200.863 8.784C200.391 8.784 199.964 8.91 199.582 9.162C199.199 9.40933 198.896 9.73833 198.672 10.149C198.452 10.5597 198.343 11.01 198.343 11.5C198.343 11.99 198.455 12.4403 198.679 12.851C198.907 13.2617 199.213 13.5907 199.596 13.838C199.978 14.0807 200.401 14.202 200.863 14.202C201.245 14.202 201.605 14.1133 201.941 13.936C202.277 13.7587 202.557 13.5277 202.781 13.243ZM210.022 13.243L210.897 13.719C210.579 14.1623 210.176 14.517 209.686 14.783C209.2 15.049 208.673 15.182 208.104 15.182C207.46 15.182 206.872 15.0163 206.34 14.685C205.812 14.3537 205.39 13.9103 205.073 13.355C204.76 12.795 204.604 12.1767 204.604 11.5C204.604 10.9867 204.695 10.5083 204.877 10.065C205.059 9.617 205.308 9.225 205.626 8.889C205.948 8.54833 206.321 8.28233 206.746 8.091C207.17 7.89967 207.623 7.804 208.104 7.804C208.673 7.804 209.2 7.937 209.686 8.203C210.176 8.469 210.579 8.826 210.897 9.274L210.022 9.743C209.779 9.435 209.487 9.19933 209.147 9.036C208.806 8.868 208.458 8.784 208.104 8.784C207.632 8.784 207.205 8.91 206.823 9.162C206.44 9.40933 206.137 9.73833 205.913 10.149C205.693 10.5597 205.584 11.01 205.584 11.5C205.584 11.99 205.696 12.4403 205.92 12.851C206.148 13.2617 206.454 13.5907 206.837 13.838C207.219 14.0807 207.642 14.202 208.104 14.202C208.486 14.202 208.846 14.1133 209.182 13.936C209.518 13.7587 209.798 13.5277 210.022 13.243ZM215.345 15.182C214.701 15.182 214.113 15.0163 213.581 14.685C213.053 14.3537 212.631 13.9103 212.314 13.355C212.001 12.795 211.845 12.1767 211.845 11.5C211.845 10.9867 211.936 10.5083 212.118 10.065C212.3 9.617 212.549 9.225 212.867 8.889C213.189 8.54833 213.562 8.28233 213.987 8.091C214.411 7.89967 214.864 7.804 215.345 7.804C215.989 7.804 216.574 7.96967 217.102 8.301C217.634 8.63233 218.056 9.078 218.369 9.638C218.686 10.198 218.845 10.8187 218.845 11.5C218.845 12.0087 218.754 12.4847 218.572 12.928C218.39 13.3713 218.138 13.7633 217.816 14.104C217.498 14.44 217.127 14.7037 216.703 14.895C216.283 15.0863 215.83 15.182 215.345 15.182ZM215.345 14.202C215.821 14.202 216.248 14.0783 216.626 13.831C217.008 13.579 217.309 13.2477 217.529 12.837C217.753 12.4263 217.865 11.9807 217.865 11.5C217.865 11.01 217.753 10.5597 217.529 10.149C217.305 9.73367 217.001 9.40233 216.619 9.155C216.241 8.90767 215.816 8.784 215.345 8.784C214.869 8.784 214.439 8.91 214.057 9.162C213.679 9.40933 213.378 9.73833 213.154 10.149C212.934 10.5597 212.825 11.01 212.825 11.5C212.825 12.004 212.939 12.4613 213.168 12.872C213.396 13.278 213.702 13.6023 214.085 13.845C214.467 14.083 214.887 14.202 215.345 14.202ZM219.882 12.319V8H220.862V12.123C220.862 12.5057 220.955 12.8533 221.142 13.166C221.329 13.4787 221.578 13.7283 221.891 13.915C222.208 14.1017 222.556 14.195 222.934 14.195C223.317 14.195 223.662 14.1017 223.97 13.915C224.283 13.7283 224.532 13.4787 224.719 13.166C224.906 12.8533 224.999 12.5057 224.999 12.123V8H225.979L225.986 15H225.006L224.999 14.02C224.752 14.3747 224.43 14.657 224.033 14.867C223.641 15.077 223.212 15.182 222.745 15.182C222.218 15.182 221.737 15.0537 221.303 14.797C220.869 14.5403 220.524 14.195 220.267 13.761C220.01 13.327 219.882 12.8463 219.882 12.319ZM233.685 10.667V15H232.705V10.863C232.705 10.4803 232.611 10.1327 232.425 9.82C232.238 9.50733 231.988 9.25767 231.676 9.071C231.363 8.88433 231.015 8.791 230.633 8.791C230.255 8.791 229.907 8.88433 229.59 9.071C229.277 9.25767 229.027 9.50733 228.841 9.82C228.654 10.1327 228.561 10.4803 228.561 10.863V15H227.581V8H228.561V8.966C228.808 8.61133 229.13 8.329 229.527 8.119C229.923 7.909 230.355 7.804 230.822 7.804C231.349 7.804 231.83 7.93233 232.264 8.189C232.698 8.44567 233.043 8.791 233.3 9.225C233.556 9.659 233.685 10.1397 233.685 10.667ZM238.863 8.98H237.19L237.183 15H236.203L236.21 8.98H234.943V8H236.21L236.203 5.802H237.183L237.19 8H238.863V8.98ZM242.448 11.633C242.448 11.171 242.562 10.7463 242.791 10.359C243.024 9.97167 243.344 9.666 243.75 9.442C244.039 9.29267 244.265 9.07333 244.429 8.784C244.592 8.49 244.674 8.168 244.674 7.818C244.674 7.47733 244.59 7.16933 244.422 6.894C244.258 6.61867 244.037 6.39933 243.757 6.236C243.481 6.07267 243.176 5.991 242.84 5.991C242.504 5.991 242.196 6.07267 241.916 6.236C241.64 6.39933 241.421 6.61867 241.258 6.894C241.094 7.16933 241.013 7.47733 241.013 7.818H240.033C240.033 7.3 240.159 6.82867 240.411 6.404C240.663 5.97933 241.001 5.641 241.426 5.389C241.855 5.137 242.326 5.011 242.84 5.011C243.358 5.011 243.829 5.137 244.254 5.389C244.683 5.641 245.024 5.97933 245.276 6.404C245.528 6.82867 245.654 7.3 245.654 7.818C245.654 8.34533 245.525 8.833 245.269 9.281C245.012 9.72433 244.66 10.0673 244.212 10.31C243.969 10.4407 243.778 10.6227 243.638 10.856C243.498 11.0893 243.428 11.3483 243.428 11.633H242.448ZM242.91 15.182C242.756 15.182 242.623 15.126 242.511 15.014C242.403 14.902 242.35 14.769 242.35 14.615C242.35 14.461 242.403 14.3303 242.511 14.223C242.623 14.1157 242.756 14.062 242.91 14.062C243.064 14.062 243.194 14.1157 243.302 14.223C243.414 14.3303 243.47 14.461 243.47 14.615C243.47 14.769 243.414 14.902 243.302 15.014C243.194 15.126 243.064 15.182 242.91 15.182Z" fill="#616161"/>
<path d="M258.833 15.182C258.296 15.182 257.781 15.098 257.286 14.93C256.791 14.762 256.36 14.5217 255.991 14.209C255.622 13.8917 255.359 13.516 255.2 13.082L256.565 12.571C256.644 12.795 256.796 12.9957 257.02 13.173C257.249 13.3457 257.519 13.481 257.832 13.579C258.149 13.677 258.483 13.726 258.833 13.726C259.206 13.726 259.556 13.6653 259.883 13.544C260.214 13.4227 260.48 13.2547 260.681 13.04C260.886 12.8253 260.989 12.5733 260.989 12.284C260.989 11.9853 260.882 11.7403 260.667 11.549C260.457 11.3577 260.186 11.206 259.855 11.094C259.528 10.982 259.188 10.898 258.833 10.842C258.147 10.73 257.531 10.5667 256.985 10.352C256.444 10.1373 256.014 9.83633 255.697 9.449C255.384 9.06167 255.228 8.55767 255.228 7.937C255.228 7.35367 255.394 6.845 255.725 6.411C256.061 5.977 256.502 5.641 257.048 5.403C257.599 5.16033 258.194 5.039 258.833 5.039C259.36 5.039 259.869 5.123 260.359 5.291C260.854 5.45433 261.288 5.69467 261.661 6.012C262.039 6.32467 262.31 6.705 262.473 7.153L261.094 7.65C261.015 7.42133 260.863 7.223 260.639 7.055C260.415 6.88233 260.144 6.747 259.827 6.649C259.514 6.551 259.183 6.502 258.833 6.502C258.46 6.49733 258.11 6.558 257.783 6.684C257.461 6.80533 257.197 6.97333 256.992 7.188C256.787 7.40267 256.684 7.65233 256.684 7.937C256.684 8.287 256.78 8.553 256.971 8.735C257.162 8.917 257.419 9.05233 257.741 9.141C258.068 9.225 258.432 9.302 258.833 9.372C259.477 9.47467 260.072 9.645 260.618 9.883C261.169 10.121 261.61 10.4383 261.941 10.835C262.277 11.227 262.445 11.71 262.445 12.284C262.445 12.8627 262.277 13.3713 261.941 13.81C261.61 14.244 261.169 14.5823 260.618 14.825C260.072 15.063 259.477 15.182 258.833 15.182ZM264.085 8H265.541V15H264.085V8ZM264.827 6.985C264.603 6.985 264.416 6.91267 264.267 6.768C264.118 6.62333 264.043 6.44133 264.043 6.222C264.043 6.00733 264.118 5.82767 264.267 5.683C264.416 5.53367 264.601 5.459 264.82 5.459C265.035 5.459 265.217 5.53367 265.366 5.683C265.515 5.82767 265.59 6.00733 265.59 6.222C265.59 6.44133 265.515 6.62333 265.366 6.768C265.221 6.91267 265.042 6.985 264.827 6.985ZM272.62 8H274.076V15.182C274.076 15.6627 273.973 16.106 273.768 16.512C273.567 16.918 273.294 17.268 272.949 17.562C272.603 17.8607 272.207 18.0917 271.759 18.255C271.315 18.4183 270.851 18.5 270.366 18.5C269.876 18.5 269.404 18.395 268.952 18.185C268.499 17.9797 268.1 17.6997 267.755 17.345C267.414 16.9903 267.16 16.589 266.992 16.141L268.329 15.539C268.422 15.8283 268.571 16.085 268.777 16.309C268.987 16.533 269.229 16.7103 269.505 16.841C269.785 16.9717 270.072 17.037 270.366 17.037C270.655 17.037 270.933 16.9903 271.199 16.897C271.469 16.8083 271.71 16.6823 271.92 16.519C272.134 16.3557 272.305 16.1597 272.431 15.931C272.557 15.7023 272.62 15.4527 272.62 15.182V13.999C272.391 14.3537 272.097 14.6407 271.738 14.86C271.378 15.0747 270.961 15.182 270.485 15.182C269.99 15.182 269.523 15.0863 269.085 14.895C268.646 14.7037 268.261 14.44 267.93 14.104C267.598 13.7633 267.339 13.3713 267.153 12.928C266.966 12.4847 266.873 12.0087 266.873 11.5C266.873 10.9913 266.966 10.5153 267.153 10.072C267.339 9.624 267.598 9.232 267.93 8.896C268.261 8.55533 268.646 8.28933 269.085 8.098C269.523 7.90667 269.99 7.811 270.485 7.811C270.961 7.811 271.378 7.92067 271.738 8.14C272.097 8.35467 272.391 8.64167 272.62 9.001V8ZM270.499 13.775C270.905 13.775 271.259 13.6723 271.563 13.467C271.866 13.257 272.102 12.9793 272.27 12.634C272.438 12.2887 272.522 11.9107 272.522 11.5C272.522 11.08 272.435 10.6997 272.263 10.359C272.095 10.0137 271.859 9.73833 271.556 9.533C271.252 9.323 270.9 9.218 270.499 9.218C270.107 9.218 269.747 9.32067 269.421 9.526C269.099 9.73133 268.842 10.0067 268.651 10.352C268.459 10.6973 268.364 11.08 268.364 11.5C268.364 11.92 268.459 12.3027 268.651 12.648C268.847 12.9933 269.106 13.2687 269.428 13.474C269.754 13.6747 270.111 13.775 270.499 13.775ZM282.256 10.611V15H280.8V10.968C280.8 10.6553 280.723 10.3707 280.569 10.114C280.419 9.85733 280.216 9.65433 279.96 9.505C279.708 9.351 279.423 9.274 279.106 9.274C278.798 9.274 278.515 9.351 278.259 9.505C278.002 9.65433 277.797 9.85733 277.643 10.114C277.489 10.3707 277.412 10.6553 277.412 10.968V15H275.956V8H277.412V8.742C277.654 8.45267 277.953 8.224 278.308 8.056C278.662 7.888 279.045 7.804 279.456 7.804C279.974 7.804 280.445 7.93 280.87 8.182C281.294 8.434 281.63 8.77233 281.878 9.197C282.13 9.62167 282.256 10.093 282.256 10.611ZM287.416 8H288.872V15H287.416V8ZM288.158 6.985C287.934 6.985 287.748 6.91267 287.598 6.768C287.449 6.62333 287.374 6.44133 287.374 6.222C287.374 6.00733 287.449 5.82767 287.598 5.683C287.748 5.53367 287.932 5.459 288.151 5.459C288.366 5.459 288.548 5.53367 288.697 5.683C288.847 5.82767 288.921 6.00733 288.921 6.222C288.921 6.44133 288.847 6.62333 288.697 6.768C288.553 6.91267 288.373 6.985 288.158 6.985ZM296.992 10.611V15H295.536V10.968C295.536 10.6553 295.459 10.3707 295.305 10.114C295.156 9.85733 294.953 9.65433 294.696 9.505C294.444 9.351 294.16 9.274 293.842 9.274C293.534 9.274 293.252 9.351 292.995 9.505C292.739 9.65433 292.533 9.85733 292.379 10.114C292.225 10.3707 292.148 10.6553 292.148 10.968V15H290.692V8H292.148V8.742C292.391 8.45267 292.69 8.224 293.044 8.056C293.399 7.888 293.782 7.804 294.192 7.804C294.71 7.804 295.182 7.93 295.606 8.182C296.031 8.434 296.367 8.77233 296.614 9.197C296.866 9.62167 296.992 10.093 296.992 10.611Z" fill="#FF9500"/>
</svg>
