<svg width="364" height="194" viewBox="0 0 364 194" fill="none" xmlns="http://www.w3.org/2000/svg">
<path d="M9.72 46L1.128 12.4H4.584L11.688 40.216L18.768 12.4H21.744L28.848 40.216L35.928 12.4H39.384L30.84 46H26.856L20.256 20.2L13.656 46H9.72ZM51.5963 46.624C49.3883 46.624 47.3723 46.056 45.5483 44.92C43.7403 43.784 42.2923 42.264 41.2043 40.36C40.1323 38.44 39.5963 36.32 39.5963 34C39.5963 32.24 39.9083 30.6 40.5323 29.08C41.1563 27.544 42.0123 26.2 43.1003 25.048C44.2043 23.88 45.4843 22.968 46.9403 22.312C48.3963 21.656 49.9483 21.328 51.5963 21.328C53.3723 21.328 55.0043 21.68 56.4923 22.384C57.9963 23.088 59.2843 24.072 60.3563 25.336C61.4443 26.6 62.2603 28.08 62.8043 29.776C63.3643 31.472 63.5963 33.304 63.5002 35.272H43.1483C43.3403 36.792 43.8203 38.152 44.5883 39.352C45.3723 40.552 46.3643 41.504 47.5643 42.208C48.7803 42.896 50.1243 43.248 51.5963 43.264C53.1963 43.264 54.6363 42.848 55.9163 42.016C57.2123 41.184 58.2523 40.04 59.0363 38.584L62.4443 39.376C61.4843 41.504 60.0363 43.248 58.1003 44.608C56.1643 45.952 53.9963 46.624 51.5963 46.624ZM43.0523 32.56H60.1163C60.0043 31.072 59.5483 29.712 58.7483 28.48C57.9643 27.232 56.9483 26.24 55.7003 25.504C54.4523 24.752 53.0843 24.376 51.5963 24.376C50.1083 24.376 48.7483 24.744 47.5163 25.48C46.2843 26.2 45.2763 27.184 44.4922 28.432C43.7083 29.664 43.2283 31.04 43.0523 32.56ZM67.4269 46V10H70.7869V46H67.4269ZM93.516 39.976L96.516 41.608C95.428 43.128 94.044 44.344 92.364 45.256C90.7 46.168 88.892 46.624 86.94 46.624C84.732 46.624 82.716 46.056 80.892 44.92C79.084 43.784 77.636 42.264 76.548 40.36C75.476 38.44 74.94 36.32 74.94 34C74.94 32.24 75.252 30.6 75.876 29.08C76.5 27.544 77.356 26.2 78.444 25.048C79.548 23.88 80.828 22.968 82.284 22.312C83.74 21.656 85.292 21.328 86.94 21.328C88.892 21.328 90.7 21.784 92.364 22.696C94.044 23.608 95.428 24.832 96.516 26.368L93.516 27.976C92.684 26.92 91.684 26.112 90.516 25.552C89.348 24.976 88.156 24.688 86.94 24.688C85.324 24.688 83.86 25.12 82.548 25.984C81.236 26.832 80.196 27.96 79.428 29.368C78.676 30.776 78.3 32.32 78.3 34C78.3 35.68 78.684 37.224 79.452 38.632C80.236 40.04 81.284 41.168 82.596 42.016C83.908 42.848 85.356 43.264 86.94 43.264C88.252 43.264 89.484 42.96 90.636 42.352C91.788 41.744 92.748 40.952 93.516 39.976ZM111.081 46.624C108.873 46.624 106.857 46.056 105.033 44.92C103.225 43.784 101.777 42.264 100.689 40.36C99.6166 38.44 99.0806 36.32 99.0806 34C99.0806 32.24 99.3926 30.6 100.017 29.08C100.641 27.544 101.497 26.2 102.585 25.048C103.689 23.88 104.969 22.968 106.425 22.312C107.881 21.656 109.433 21.328 111.081 21.328C113.289 21.328 115.297 21.896 117.105 23.032C118.929 24.168 120.377 25.696 121.449 27.616C122.537 29.536 123.081 31.664 123.081 34C123.081 35.744 122.769 37.376 122.145 38.896C121.521 40.416 120.657 41.76 119.553 42.928C118.465 44.08 117.193 44.984 115.737 45.64C114.297 46.296 112.745 46.624 111.081 46.624ZM111.081 43.264C112.713 43.264 114.177 42.84 115.473 41.992C116.785 41.128 117.817 39.992 118.569 38.584C119.337 37.176 119.721 35.648 119.721 34C119.721 32.32 119.337 30.776 118.569 29.368C117.801 27.944 116.761 26.808 115.449 25.96C114.153 25.112 112.697 24.688 111.081 24.688C109.449 24.688 107.977 25.12 106.665 25.984C105.369 26.832 104.337 27.96 103.569 29.368C102.817 30.776 102.441 32.32 102.441 34C102.441 35.728 102.833 37.296 103.617 38.704C104.401 40.096 105.449 41.208 106.761 42.04C108.073 42.856 109.513 43.264 111.081 43.264ZM127.146 46V22H130.506V25.312C131.37 24.096 132.474 23.128 133.818 22.408C135.162 21.688 136.634 21.328 138.234 21.328C140.042 21.328 141.698 21.776 143.202 22.672C144.706 23.552 145.882 24.728 146.73 26.2C147.578 24.728 148.746 23.552 150.234 22.672C151.722 21.776 153.37 21.328 155.178 21.328C156.986 21.328 158.634 21.768 160.122 22.648C161.61 23.528 162.794 24.712 163.674 26.2C164.554 27.688 164.994 29.336 164.994 31.144V46H161.634V31.888C161.634 30.608 161.322 29.424 160.698 28.336C160.074 27.248 159.234 26.376 158.178 25.72C157.138 25.048 155.978 24.712 154.698 24.712C153.418 24.712 152.25 25.024 151.194 25.648C150.154 26.256 149.322 27.104 148.698 28.192C148.074 29.264 147.762 30.496 147.762 31.888V46H144.402V31.888C144.402 30.496 144.09 29.264 143.466 28.192C142.842 27.104 142.002 26.256 140.946 25.648C139.89 25.024 138.722 24.712 137.442 24.712C136.178 24.712 135.018 25.048 133.962 25.72C132.906 26.376 132.066 27.248 131.442 28.336C130.818 29.424 130.506 30.608 130.506 31.888V46H127.146ZM179.893 46.624C177.685 46.624 175.669 46.056 173.845 44.92C172.037 43.784 170.589 42.264 169.501 40.36C168.429 38.44 167.893 36.32 167.893 34C167.893 32.24 168.205 30.6 168.829 29.08C169.453 27.544 170.309 26.2 171.397 25.048C172.501 23.88 173.781 22.968 175.237 22.312C176.693 21.656 178.245 21.328 179.893 21.328C181.669 21.328 183.301 21.68 184.789 22.384C186.293 23.088 187.581 24.072 188.653 25.336C189.741 26.6 190.557 28.08 191.101 29.776C191.661 31.472 191.893 33.304 191.797 35.272H171.445C171.637 36.792 172.117 38.152 172.885 39.352C173.669 40.552 174.661 41.504 175.861 42.208C177.077 42.896 178.421 43.248 179.893 43.264C181.493 43.264 182.933 42.848 184.213 42.016C185.509 41.184 186.549 40.04 187.333 38.584L190.741 39.376C189.781 41.504 188.333 43.248 186.397 44.608C184.461 45.952 182.293 46.624 179.893 46.624ZM171.349 32.56H188.413C188.301 31.072 187.845 29.712 187.045 28.48C186.261 27.232 185.245 26.24 183.997 25.504C182.749 24.752 181.381 24.376 179.893 24.376C178.405 24.376 177.045 24.744 175.813 25.48C174.581 26.2 173.573 27.184 172.789 28.432C172.005 29.664 171.525 31.04 171.349 32.56ZM219.941 25.36H214.205L214.181 46H210.821L210.845 25.36H206.501V22H210.845L210.821 14.464H214.181L214.205 22H219.941V25.36ZM234.128 46.624C231.92 46.624 229.904 46.056 228.08 44.92C226.272 43.784 224.824 42.264 223.736 40.36C222.664 38.44 222.128 36.32 222.128 34C222.128 32.24 222.44 30.6 223.064 29.08C223.688 27.544 224.544 26.2 225.632 25.048C226.736 23.88 228.016 22.968 229.472 22.312C230.928 21.656 232.48 21.328 234.128 21.328C236.336 21.328 238.344 21.896 240.152 23.032C241.976 24.168 243.424 25.696 244.496 27.616C245.584 29.536 246.128 31.664 246.128 34C246.128 35.744 245.816 37.376 245.192 38.896C244.568 40.416 243.704 41.76 242.6 42.928C241.512 44.08 240.24 44.984 238.784 45.64C237.344 46.296 235.792 46.624 234.128 46.624ZM234.128 43.264C235.76 43.264 237.224 42.84 238.52 41.992C239.832 41.128 240.864 39.992 241.616 38.584C242.384 37.176 242.768 35.648 242.768 34C242.768 32.32 242.384 30.776 241.616 29.368C240.848 27.944 239.808 26.808 238.496 25.96C237.2 25.112 235.744 24.688 234.128 24.688C232.496 24.688 231.024 25.12 229.712 25.984C228.416 26.832 227.384 27.96 226.616 29.368C225.864 30.776 225.488 32.32 225.488 34C225.488 35.728 225.88 37.296 226.664 38.704C227.448 40.096 228.496 41.208 229.808 42.04C231.12 42.856 232.56 43.264 234.128 43.264Z" fill="#212121"/>
<path d="M9.1125 111L1.0575 79.5H4.2975L10.9575 105.577L17.595 79.5H20.385L27.045 105.577L33.6825 79.5H36.9225L28.9125 111H25.1775L18.99 86.8125L12.8025 111H9.1125ZM60.6639 79.5H63.8139V111H60.6639V95.7H44.1264V111H40.9764V79.5H44.1264V92.55H60.6639V79.5ZM69.2332 111V79.5H88.4032V82.65H72.3832V92.55H85.6357V95.7H72.3832V107.85H88.4032V111H69.2332ZM93.6668 111V79.5H104.354C106.034 79.5 107.549 79.9125 108.899 80.7375C110.249 81.5475 111.322 82.65 112.117 84.045C112.912 85.425 113.309 86.9775 113.309 88.7025C113.309 90.2475 112.994 91.65 112.364 92.91C111.734 94.17 110.872 95.2125 109.777 96.0375C108.697 96.8625 107.474 97.41 106.109 97.68L113.804 111H110.159L102.577 97.9275H96.8168V111H93.6668ZM96.8168 94.7775H104.084C105.194 94.7775 106.207 94.5075 107.122 93.9675C108.052 93.4125 108.787 92.67 109.327 91.74C109.882 90.795 110.159 89.73 110.159 88.545C110.159 87.36 109.882 86.3025 109.327 85.3725C108.787 84.4275 108.052 83.685 107.122 83.145C106.207 82.59 105.194 82.3125 104.084 82.3125H96.8168V94.7775ZM119.375 111V79.5H138.545V82.65H122.525V92.55H135.777V95.7H122.525V107.85H138.545V111H119.375ZM169.868 111V79.5H180.51C182.04 79.5 183.428 79.815 184.673 80.445C185.933 81.06 186.93 81.9675 187.665 83.1675C188.415 84.3525 188.79 85.7925 188.79 87.4875C188.79 88.4475 188.618 89.3625 188.273 90.2325C187.928 91.1025 187.478 91.845 186.923 92.46C186.368 93.06 185.768 93.45 185.123 93.63C186.053 93.87 186.855 94.29 187.53 94.89C188.205 95.475 188.76 96.1725 189.195 96.9825C189.63 97.7775 189.945 98.6175 190.14 99.5025C190.35 100.387 190.455 101.257 190.455 102.112C190.455 103.882 190.065 105.435 189.285 106.77C188.52 108.105 187.493 109.147 186.203 109.897C184.913 110.632 183.48 111 181.905 111H169.868ZM173.018 108.188H181.658C182.753 108.188 183.743 107.902 184.628 107.332C185.528 106.762 186.24 105.982 186.765 104.992C187.305 104.002 187.575 102.885 187.575 101.64C187.575 100.53 187.305 99.4875 186.765 98.5125C186.24 97.5225 185.528 96.7275 184.628 96.1275C183.743 95.5125 182.753 95.205 181.658 95.205H173.018V108.188ZM173.018 92.4375H180.24C181.725 92.4375 182.993 92.01 184.043 91.155C185.108 90.285 185.64 89.055 185.64 87.465C185.64 85.725 185.108 84.435 184.043 83.595C182.993 82.74 181.725 82.3125 180.24 82.3125H173.018V92.4375ZM207.09 111.585C204.57 111.585 202.395 110.97 200.565 109.74C198.735 108.51 197.325 106.86 196.335 104.79C195.36 102.705 194.873 100.395 194.873 97.86V79.5H198.023V97.86C198.023 99.78 198.375 101.542 199.08 103.147C199.785 104.752 200.813 106.035 202.163 106.995C203.513 107.955 205.155 108.435 207.09 108.435C209.07 108.435 210.728 107.955 212.063 106.995C213.413 106.02 214.433 104.73 215.123 103.125C215.813 101.52 216.158 99.765 216.158 97.86V79.5H219.308V97.86C219.308 99.765 219.023 101.55 218.453 103.215C217.898 104.865 217.088 106.32 216.023 107.58C214.973 108.84 213.69 109.822 212.175 110.527C210.675 111.232 208.98 111.585 207.09 111.585ZM244.017 79.5H247.729L237.109 96.735V111H233.959V96.735L223.362 79.5H227.074L235.534 93.2925L244.017 79.5Z" fill="black"/>
<path d="M142.601 111V104.97C143.441 104.445 144.491 103.717 145.751 102.787C147.011 101.842 148.331 100.785 149.711 99.615C151.106 98.445 152.403 97.26 153.603 96.06C154.818 94.845 155.808 93.6975 156.573 92.6175C157.338 91.5225 157.721 90.6 157.721 89.85C157.721 89.085 157.533 88.3875 157.158 87.7575C156.783 87.1125 156.281 86.6025 155.651 86.2275C155.036 85.8525 154.346 85.665 153.581 85.665C152.816 85.665 152.118 85.8525 151.488 86.2275C150.858 86.6025 150.348 87.1125 149.958 87.7575C149.583 88.3875 149.396 89.085 149.396 89.85H142.646C142.646 87.78 143.148 85.92 144.153 84.27C145.158 82.62 146.486 81.315 148.136 80.355C149.801 79.395 151.616 78.915 153.581 78.915C155.576 78.915 157.398 79.4025 159.048 80.3775C160.698 81.3525 162.011 82.6725 162.986 84.3375C163.976 85.9875 164.471 87.825 164.471 89.85C164.471 90.855 164.336 91.815 164.066 92.73C163.796 93.63 163.398 94.5225 162.873 95.4075C162.363 96.2775 161.726 97.17 160.961 98.085C160.196 99 159.311 99.9675 158.306 100.987C157.316 101.992 156.221 103.08 155.021 104.25H164.471V111H142.601Z" fill="#FF9500"/>
<path d="M10.611 150.4V152.272H6.597V163H4.725V152.272H0.72V150.4H10.611ZM20.7179 157.357V163H18.8459V157.816C18.8459 157.414 18.7469 157.048 18.5489 156.718C18.3569 156.388 18.0959 156.127 17.7659 155.935C17.4419 155.737 17.0759 155.638 16.6679 155.638C16.2719 155.638 15.9089 155.737 15.5789 155.935C15.2489 156.127 14.9849 156.388 14.7869 156.718C14.5889 157.048 14.4899 157.414 14.4899 157.816V163H12.6179V149.5H14.4899V154.954C14.8019 154.582 15.1859 154.288 15.6419 154.072C16.0979 153.856 16.5899 153.748 17.1179 153.748C17.7839 153.748 18.3899 153.91 18.9359 154.234C19.4819 154.558 19.9139 154.993 20.2319 155.539C20.5559 156.085 20.7179 156.691 20.7179 157.357ZM26.4986 163.234C25.6706 163.234 24.9146 163.021 24.2306 162.595C23.5526 162.169 23.0096 161.599 22.6016 160.885C22.1996 160.165 21.9986 159.37 21.9986 158.5C21.9986 157.84 22.1156 157.225 22.3496 156.655C22.5836 156.079 22.9046 155.575 23.3126 155.143C23.7266 154.705 24.2066 154.363 24.7526 154.117C25.2986 153.871 25.8806 153.748 26.4986 153.748C27.1886 153.748 27.8216 153.892 28.3976 154.18C28.9736 154.462 29.4656 154.855 29.8736 155.359C30.2816 155.857 30.5816 156.433 30.7736 157.087C30.9656 157.735 31.0226 158.425 30.9446 159.157H24.0056C24.0836 159.571 24.2336 159.946 24.4556 160.282C24.6836 160.612 24.9716 160.873 25.3196 161.065C25.6736 161.257 26.0666 161.356 26.4986 161.362C26.9546 161.362 27.3686 161.248 27.7406 161.02C28.1186 160.792 28.4276 160.477 28.6676 160.075L30.5666 160.516C30.2066 161.314 29.6636 161.968 28.9376 162.478C28.2116 162.982 27.3986 163.234 26.4986 163.234ZM23.9426 157.726H29.0546C28.9946 157.294 28.8416 156.904 28.5956 156.556C28.3556 156.202 28.0526 155.923 27.6866 155.719C27.3266 155.509 26.9306 155.404 26.4986 155.404C26.0726 155.404 25.6766 155.506 25.3106 155.71C24.9506 155.914 24.6506 156.193 24.4106 156.547C24.1766 156.895 24.0206 157.288 23.9426 157.726ZM41.9975 153.748C42.8735 153.748 43.6685 153.961 44.3825 154.387C45.1025 154.813 45.6755 155.386 46.1015 156.106C46.5275 156.82 46.7405 157.615 46.7405 158.491C46.7405 159.145 46.6175 159.76 46.3715 160.336C46.1255 160.906 45.7835 161.41 45.3455 161.848C44.9135 162.28 44.4095 162.619 43.8335 162.865C43.2635 163.111 42.6515 163.234 41.9975 163.234C41.3675 163.234 40.8155 163.09 40.3415 162.802C39.8735 162.508 39.4895 162.133 39.1895 161.677V163H37.3175V149.5H39.1895V155.305C39.4895 154.843 39.8735 154.468 40.3415 154.18C40.8155 153.892 41.3675 153.748 41.9975 153.748ZM41.9795 161.416C42.5015 161.416 42.9785 161.284 43.4105 161.02C43.8425 160.756 44.1845 160.402 44.4365 159.958C44.6945 159.514 44.8235 159.025 44.8235 158.491C44.8235 157.945 44.6945 157.45 44.4365 157.006C44.1785 156.562 43.8335 156.211 43.4015 155.953C42.9695 155.689 42.4955 155.557 41.9795 155.557C41.4575 155.557 40.9985 155.689 40.6025 155.953C40.2065 156.217 39.8975 156.571 39.6755 157.015C39.4535 157.459 39.3425 157.951 39.3425 158.491C39.3425 159.031 39.4535 159.523 39.6755 159.967C39.8975 160.411 40.2065 160.765 40.6025 161.029C40.9985 161.287 41.4575 161.416 41.9795 161.416ZM52.3408 163.234C51.5128 163.234 50.7568 163.021 50.0728 162.595C49.3948 162.169 48.8518 161.599 48.4438 160.885C48.0418 160.165 47.8408 159.37 47.8408 158.5C47.8408 157.84 47.9578 157.225 48.1918 156.655C48.4258 156.079 48.7468 155.575 49.1548 155.143C49.5688 154.705 50.0488 154.363 50.5948 154.117C51.1408 153.871 51.7228 153.748 52.3408 153.748C53.0308 153.748 53.6638 153.892 54.2398 154.18C54.8158 154.462 55.3078 154.855 55.7158 155.359C56.1238 155.857 56.4238 156.433 56.6158 157.087C56.8078 157.735 56.8648 158.425 56.7868 159.157H49.8478C49.9258 159.571 50.0758 159.946 50.2978 160.282C50.5258 160.612 50.8138 160.873 51.1618 161.065C51.5158 161.257 51.9088 161.356 52.3408 161.362C52.7968 161.362 53.2108 161.248 53.5828 161.02C53.9608 160.792 54.2698 160.477 54.5098 160.075L56.4088 160.516C56.0488 161.314 55.5058 161.968 54.7798 162.478C54.0538 162.982 53.2408 163.234 52.3408 163.234ZM49.7848 157.726H54.8968C54.8368 157.294 54.6838 156.904 54.4378 156.556C54.1978 156.202 53.8948 155.923 53.5288 155.719C53.1688 155.509 52.7728 155.404 52.3408 155.404C51.9148 155.404 51.5188 155.506 51.1528 155.71C50.7928 155.914 50.4928 156.193 50.2528 156.547C50.0188 156.895 49.8628 157.288 49.7848 157.726ZM61.2124 163.171C60.7384 163.141 60.2764 163.045 59.8264 162.883C59.3764 162.721 58.9804 162.502 58.6384 162.226C58.3024 161.944 58.0504 161.614 57.8824 161.236L59.4754 160.552C59.5534 160.714 59.6884 160.873 59.8804 161.029C60.0784 161.185 60.3094 161.314 60.5734 161.416C60.8374 161.512 61.1134 161.56 61.4014 161.56C61.6834 161.56 61.9444 161.521 62.1844 161.443C62.4304 161.359 62.6314 161.233 62.7874 161.065C62.9434 160.897 63.0214 160.696 63.0214 160.462C63.0214 160.198 62.9314 159.994 62.7514 159.85C62.5774 159.7 62.3584 159.586 62.0944 159.508C61.8304 159.43 61.5664 159.355 61.3024 159.283C60.7144 159.151 60.1744 158.971 59.6824 158.743C59.1964 158.509 58.8094 158.212 58.5214 157.852C58.2334 157.486 58.0894 157.039 58.0894 156.511C58.0894 155.935 58.2454 155.437 58.5574 155.017C58.8694 154.591 59.2774 154.264 59.7814 154.036C60.2914 153.808 60.8344 153.694 61.4104 153.694C62.1304 153.694 62.7904 153.847 63.3904 154.153C63.9904 154.459 64.4494 154.879 64.7674 155.413L63.2824 156.295C63.1924 156.115 63.0574 155.953 62.8774 155.809C62.6974 155.665 62.4934 155.551 62.2654 155.467C62.0374 155.377 61.8004 155.326 61.5544 155.314C61.2484 155.302 60.9634 155.338 60.6994 155.422C60.4414 155.5 60.2344 155.626 60.0784 155.8C59.9224 155.974 59.8444 156.196 59.8444 156.466C59.8444 156.73 59.9374 156.928 60.1234 157.06C60.3094 157.186 60.5434 157.288 60.8254 157.366C61.1134 157.444 61.4074 157.531 61.7074 157.627C62.2414 157.795 62.7424 158.002 63.2104 158.248C63.6784 158.488 64.0564 158.785 64.3444 159.139C64.6324 159.493 64.7704 159.925 64.7584 160.435C64.7584 160.999 64.5874 161.494 64.2454 161.92C63.9094 162.346 63.4714 162.67 62.9314 162.892C62.3914 163.114 61.8184 163.207 61.2124 163.171ZM71.2515 155.872H69.3615L69.3525 163H67.4805L67.4895 155.872H66.0585V154H67.4895L67.4805 151.174H69.3525L69.3615 154H71.2515V155.872ZM79.459 167.5H77.587V154H79.459V155.323C79.759 154.861 80.143 154.486 80.611 154.198C81.079 153.91 81.631 153.766 82.267 153.766C82.921 153.766 83.533 153.889 84.103 154.135C84.679 154.381 85.183 154.723 85.615 155.161C86.047 155.593 86.386 156.094 86.632 156.664C86.878 157.234 87.001 157.846 87.001 158.5C87.001 159.154 86.878 159.769 86.632 160.345C86.386 160.921 86.047 161.428 85.615 161.866C85.183 162.298 84.679 162.637 84.103 162.883C83.533 163.129 82.921 163.252 82.267 163.252C81.631 163.252 81.079 163.108 80.611 162.82C80.143 162.526 79.759 162.151 79.459 161.695V167.5ZM82.249 155.575C81.727 155.575 81.268 155.707 80.872 155.971C80.476 156.235 80.167 156.589 79.945 157.033C79.723 157.471 79.612 157.96 79.612 158.5C79.612 159.04 79.723 159.532 79.945 159.976C80.167 160.42 80.476 160.774 80.872 161.038C81.268 161.302 81.727 161.434 82.249 161.434C82.765 161.434 83.239 161.305 83.671 161.047C84.103 160.783 84.448 160.429 84.706 159.985C84.964 159.541 85.093 159.046 85.093 158.5C85.093 157.966 84.964 157.477 84.706 157.033C84.454 156.589 84.112 156.235 83.68 155.971C83.248 155.707 82.771 155.575 82.249 155.575ZM95.6523 154H97.5243V163H95.6433L95.5713 161.695C95.3073 162.157 94.9503 162.529 94.5003 162.811C94.0503 163.093 93.5193 163.234 92.9073 163.234C92.2473 163.234 91.6263 163.111 91.0443 162.865C90.4623 162.613 89.9493 162.265 89.5053 161.821C89.0673 161.377 88.7253 160.867 88.4793 160.291C88.2333 159.709 88.1103 159.085 88.1103 158.419C88.1103 157.777 88.2303 157.174 88.4703 156.61C88.7103 156.04 89.0433 155.542 89.4693 155.116C89.8953 154.69 90.3873 154.357 90.9453 154.117C91.5093 153.871 92.1123 153.748 92.7543 153.748C93.4083 153.748 93.9843 153.898 94.4823 154.198C94.9863 154.492 95.4033 154.87 95.7333 155.332L95.6523 154ZM92.8623 161.425C93.3903 161.425 93.8523 161.296 94.2483 161.038C94.6443 160.774 94.9503 160.42 95.1663 159.976C95.3883 159.532 95.4993 159.04 95.4993 158.5C95.4993 157.954 95.3883 157.459 95.1663 157.015C94.9443 156.571 94.6353 156.22 94.2393 155.962C93.8493 155.698 93.3903 155.566 92.8623 155.566C92.3403 155.566 91.8633 155.698 91.4313 155.962C90.9993 156.226 90.6573 156.58 90.4053 157.024C90.1533 157.468 90.0273 157.96 90.0273 158.5C90.0273 159.046 90.1563 159.541 90.4143 159.985C90.6783 160.423 91.0233 160.774 91.4493 161.038C91.8813 161.296 92.3523 161.425 92.8623 161.425ZM99.5202 163V154H101.392V154.954C101.704 154.582 102.088 154.288 102.544 154.072C103 153.856 103.492 153.748 104.02 153.748C104.356 153.748 104.689 153.793 105.019 153.883L104.272 155.773C104.038 155.683 103.804 155.638 103.57 155.638C103.174 155.638 102.811 155.737 102.481 155.935C102.151 156.127 101.887 156.388 101.689 156.718C101.491 157.048 101.392 157.414 101.392 157.816V163H99.5202ZM111.24 155.872H109.35L109.341 163H107.469L107.478 155.872H106.047V154H107.478L107.469 151.174H109.341L109.35 154H111.24V155.872ZM115.628 163.171C115.154 163.141 114.692 163.045 114.242 162.883C113.792 162.721 113.396 162.502 113.054 162.226C112.718 161.944 112.466 161.614 112.298 161.236L113.891 160.552C113.969 160.714 114.104 160.873 114.296 161.029C114.494 161.185 114.725 161.314 114.989 161.416C115.253 161.512 115.529 161.56 115.817 161.56C116.099 161.56 116.36 161.521 116.6 161.443C116.846 161.359 117.047 161.233 117.203 161.065C117.359 160.897 117.437 160.696 117.437 160.462C117.437 160.198 117.347 159.994 117.167 159.85C116.993 159.7 116.774 159.586 116.51 159.508C116.246 159.43 115.982 159.355 115.718 159.283C115.13 159.151 114.59 158.971 114.098 158.743C113.612 158.509 113.225 158.212 112.937 157.852C112.649 157.486 112.505 157.039 112.505 156.511C112.505 155.935 112.661 155.437 112.973 155.017C113.285 154.591 113.693 154.264 114.197 154.036C114.707 153.808 115.25 153.694 115.826 153.694C116.546 153.694 117.206 153.847 117.806 154.153C118.406 154.459 118.865 154.879 119.183 155.413L117.698 156.295C117.608 156.115 117.473 155.953 117.293 155.809C117.113 155.665 116.909 155.551 116.681 155.467C116.453 155.377 116.216 155.326 115.97 155.314C115.664 155.302 115.379 155.338 115.115 155.422C114.857 155.5 114.65 155.626 114.494 155.8C114.338 155.974 114.26 156.196 114.26 156.466C114.26 156.73 114.353 156.928 114.539 157.06C114.725 157.186 114.959 157.288 115.241 157.366C115.529 157.444 115.823 157.531 116.123 157.627C116.657 157.795 117.158 158.002 117.626 158.248C118.094 158.488 118.472 158.785 118.76 159.139C119.048 159.493 119.186 159.925 119.174 160.435C119.174 160.999 119.003 161.494 118.661 161.92C118.325 162.346 117.887 162.67 117.347 162.892C116.807 163.114 116.234 163.207 115.628 163.171ZM129.399 163.234C128.571 163.234 127.815 163.021 127.131 162.595C126.453 162.169 125.91 161.599 125.502 160.885C125.1 160.165 124.899 159.37 124.899 158.5C124.899 157.84 125.016 157.225 125.25 156.655C125.484 156.079 125.805 155.575 126.213 155.143C126.627 154.705 127.107 154.363 127.653 154.117C128.199 153.871 128.781 153.748 129.399 153.748C130.089 153.748 130.722 153.892 131.298 154.18C131.874 154.462 132.366 154.855 132.774 155.359C133.182 155.857 133.482 156.433 133.674 157.087C133.866 157.735 133.923 158.425 133.845 159.157H126.906C126.984 159.571 127.134 159.946 127.356 160.282C127.584 160.612 127.872 160.873 128.22 161.065C128.574 161.257 128.967 161.356 129.399 161.362C129.855 161.362 130.269 161.248 130.641 161.02C131.019 160.792 131.328 160.477 131.568 160.075L133.467 160.516C133.107 161.314 132.564 161.968 131.838 162.478C131.112 162.982 130.299 163.234 129.399 163.234ZM126.843 157.726H131.955C131.895 157.294 131.742 156.904 131.496 156.556C131.256 156.202 130.953 155.923 130.587 155.719C130.227 155.509 129.831 155.404 129.399 155.404C128.973 155.404 128.577 155.506 128.211 155.71C127.851 155.914 127.551 156.193 127.311 156.547C127.077 156.895 126.921 157.288 126.843 157.726ZM135.694 156.664H141.454V158.536H135.694V156.664ZM149.699 160.444L151.373 161.353C150.965 161.923 150.446 162.379 149.816 162.721C149.192 163.063 148.514 163.234 147.782 163.234C146.954 163.234 146.198 163.021 145.514 162.595C144.836 162.169 144.293 161.599 143.885 160.885C143.483 160.165 143.282 159.37 143.282 158.5C143.282 157.84 143.399 157.225 143.633 156.655C143.867 156.079 144.188 155.575 144.596 155.143C145.01 154.705 145.49 154.363 146.036 154.117C146.582 153.871 147.164 153.748 147.782 153.748C148.514 153.748 149.192 153.919 149.816 154.261C150.446 154.603 150.965 155.062 151.373 155.638L149.699 156.547C149.447 156.247 149.153 156.019 148.817 155.863C148.481 155.701 148.136 155.62 147.782 155.62C147.29 155.62 146.843 155.755 146.441 156.025C146.045 156.289 145.73 156.64 145.496 157.078C145.268 157.51 145.154 157.984 145.154 158.5C145.154 159.01 145.271 159.484 145.505 159.922C145.739 160.354 146.054 160.702 146.45 160.966C146.852 161.23 147.296 161.362 147.782 161.362C148.154 161.362 148.508 161.278 148.844 161.11C149.18 160.942 149.465 160.72 149.699 160.444ZM156.929 163.234C156.101 163.234 155.345 163.021 154.661 162.595C153.983 162.169 153.44 161.599 153.032 160.885C152.63 160.165 152.429 159.37 152.429 158.5C152.429 157.84 152.546 157.225 152.78 156.655C153.014 156.079 153.335 155.575 153.743 155.143C154.157 154.705 154.637 154.363 155.183 154.117C155.729 153.871 156.311 153.748 156.929 153.748C157.757 153.748 158.51 153.961 159.188 154.387C159.872 154.813 160.415 155.386 160.817 156.106C161.225 156.826 161.429 157.624 161.429 158.5C161.429 159.154 161.312 159.766 161.078 160.336C160.844 160.906 160.52 161.41 160.106 161.848C159.698 162.28 159.221 162.619 158.675 162.865C158.135 163.111 157.553 163.234 156.929 163.234ZM156.929 161.362C157.427 161.362 157.874 161.23 158.27 160.966C158.666 160.702 158.978 160.354 159.206 159.922C159.44 159.484 159.557 159.01 159.557 158.5C159.557 157.978 159.437 157.498 159.197 157.06C158.963 156.622 158.648 156.274 158.252 156.016C157.856 155.752 157.415 155.62 156.929 155.62C156.437 155.62 155.99 155.752 155.588 156.016C155.192 156.28 154.877 156.631 154.643 157.069C154.415 157.507 154.301 157.984 154.301 158.5C154.301 159.034 154.421 159.517 154.661 159.949C154.901 160.381 155.219 160.726 155.615 160.984C156.017 161.236 156.455 161.362 156.929 161.362ZM163.083 163V154H164.955V154.954C165.267 154.582 165.648 154.288 166.098 154.072C166.554 153.856 167.046 153.748 167.574 153.748C168.216 153.748 168.807 153.904 169.347 154.216C169.887 154.522 170.316 154.93 170.634 155.44C170.952 154.93 171.375 154.522 171.903 154.216C172.437 153.904 173.025 153.748 173.667 153.748C174.333 153.748 174.939 153.91 175.485 154.234C176.031 154.558 176.466 154.993 176.79 155.539C177.114 156.085 177.276 156.691 177.276 157.357V163H175.404V157.834C175.404 157.438 175.308 157.075 175.116 156.745C174.924 156.415 174.666 156.148 174.342 155.944C174.018 155.74 173.658 155.638 173.262 155.638C172.866 155.638 172.506 155.734 172.182 155.926C171.858 156.118 171.6 156.379 171.408 156.709C171.216 157.039 171.12 157.414 171.12 157.834V163H169.248V157.834C169.248 157.414 169.152 157.039 168.96 156.709C168.768 156.379 168.507 156.118 168.177 155.926C167.853 155.734 167.493 155.638 167.097 155.638C166.707 155.638 166.347 155.74 166.017 155.944C165.693 156.148 165.435 156.415 165.243 156.745C165.051 157.075 164.955 157.438 164.955 157.834V163H163.083ZM179.279 163V154H181.151V154.954C181.463 154.582 181.844 154.288 182.294 154.072C182.75 153.856 183.242 153.748 183.77 153.748C184.412 153.748 185.003 153.904 185.543 154.216C186.083 154.522 186.512 154.93 186.83 155.44C187.148 154.93 187.571 154.522 188.099 154.216C188.633 153.904 189.221 153.748 189.863 153.748C190.529 153.748 191.135 153.91 191.681 154.234C192.227 154.558 192.662 154.993 192.986 155.539C193.31 156.085 193.472 156.691 193.472 157.357V163H191.6V157.834C191.6 157.438 191.504 157.075 191.312 156.745C191.12 156.415 190.862 156.148 190.538 155.944C190.214 155.74 189.854 155.638 189.458 155.638C189.062 155.638 188.702 155.734 188.378 155.926C188.054 156.118 187.796 156.379 187.604 156.709C187.412 157.039 187.316 157.414 187.316 157.834V163H185.444V157.834C185.444 157.414 185.348 157.039 185.156 156.709C184.964 156.379 184.703 156.118 184.373 155.926C184.049 155.734 183.689 155.638 183.293 155.638C182.903 155.638 182.543 155.74 182.213 155.944C181.889 156.148 181.631 156.415 181.439 156.745C181.247 157.075 181.151 157.438 181.151 157.834V163H179.279ZM199.26 163.234C198.432 163.234 197.676 163.021 196.992 162.595C196.314 162.169 195.771 161.599 195.363 160.885C194.961 160.165 194.76 159.37 194.76 158.5C194.76 157.84 194.877 157.225 195.111 156.655C195.345 156.079 195.666 155.575 196.074 155.143C196.488 154.705 196.968 154.363 197.514 154.117C198.06 153.871 198.642 153.748 199.26 153.748C199.95 153.748 200.583 153.892 201.159 154.18C201.735 154.462 202.227 154.855 202.635 155.359C203.043 155.857 203.343 156.433 203.535 157.087C203.727 157.735 203.784 158.425 203.706 159.157H196.767C196.845 159.571 196.995 159.946 197.217 160.282C197.445 160.612 197.733 160.873 198.081 161.065C198.435 161.257 198.828 161.356 199.26 161.362C199.716 161.362 200.13 161.248 200.502 161.02C200.88 160.792 201.189 160.477 201.429 160.075L203.328 160.516C202.968 161.314 202.425 161.968 201.699 162.478C200.973 162.982 200.16 163.234 199.26 163.234ZM196.704 157.726H201.816C201.756 157.294 201.603 156.904 201.357 156.556C201.117 156.202 200.814 155.923 200.448 155.719C200.088 155.509 199.692 155.404 199.26 155.404C198.834 155.404 198.438 155.506 198.072 155.71C197.712 155.914 197.412 156.193 197.172 156.547C196.938 156.895 196.782 157.288 196.704 157.726ZM205.396 163V154H207.268V154.954C207.58 154.582 207.964 154.288 208.42 154.072C208.876 153.856 209.368 153.748 209.896 153.748C210.232 153.748 210.565 153.793 210.895 153.883L210.148 155.773C209.914 155.683 209.68 155.638 209.446 155.638C209.05 155.638 208.687 155.737 208.357 155.935C208.027 156.127 207.763 156.388 207.565 156.718C207.367 157.048 207.268 157.414 207.268 157.816V163H205.396ZM217.59 160.444L219.264 161.353C218.856 161.923 218.337 162.379 217.707 162.721C217.083 163.063 216.405 163.234 215.673 163.234C214.845 163.234 214.089 163.021 213.405 162.595C212.727 162.169 212.184 161.599 211.776 160.885C211.374 160.165 211.173 159.37 211.173 158.5C211.173 157.84 211.29 157.225 211.524 156.655C211.758 156.079 212.079 155.575 212.487 155.143C212.901 154.705 213.381 154.363 213.927 154.117C214.473 153.871 215.055 153.748 215.673 153.748C216.405 153.748 217.083 153.919 217.707 154.261C218.337 154.603 218.856 155.062 219.264 155.638L217.59 156.547C217.338 156.247 217.044 156.019 216.708 155.863C216.372 155.701 216.027 155.62 215.673 155.62C215.181 155.62 214.734 155.755 214.332 156.025C213.936 156.289 213.621 156.64 213.387 157.078C213.159 157.51 213.045 157.984 213.045 158.5C213.045 159.01 213.162 159.484 213.396 159.922C213.63 160.354 213.945 160.702 214.341 160.966C214.743 161.23 215.187 161.362 215.673 161.362C216.045 161.362 216.399 161.278 216.735 161.11C217.071 160.942 217.356 160.72 217.59 160.444ZM224.82 163.234C223.992 163.234 223.236 163.021 222.552 162.595C221.874 162.169 221.331 161.599 220.923 160.885C220.521 160.165 220.32 159.37 220.32 158.5C220.32 157.84 220.437 157.225 220.671 156.655C220.905 156.079 221.226 155.575 221.634 155.143C222.048 154.705 222.528 154.363 223.074 154.117C223.62 153.871 224.202 153.748 224.82 153.748C225.51 153.748 226.143 153.892 226.719 154.18C227.295 154.462 227.787 154.855 228.195 155.359C228.603 155.857 228.903 156.433 229.095 157.087C229.287 157.735 229.344 158.425 229.266 159.157H222.327C222.405 159.571 222.555 159.946 222.777 160.282C223.005 160.612 223.293 160.873 223.641 161.065C223.995 161.257 224.388 161.356 224.82 161.362C225.276 161.362 225.69 161.248 226.062 161.02C226.44 160.792 226.749 160.477 226.989 160.075L228.888 160.516C228.528 161.314 227.985 161.968 227.259 162.478C226.533 162.982 225.72 163.234 224.82 163.234ZM222.264 157.726H227.376C227.316 157.294 227.163 156.904 226.917 156.556C226.677 156.202 226.374 155.923 226.008 155.719C225.648 155.509 225.252 155.404 224.82 155.404C224.394 155.404 223.998 155.506 223.632 155.71C223.272 155.914 222.972 156.193 222.732 156.547C222.498 156.895 222.342 157.288 222.264 157.726ZM239.077 163.234C238.345 163.234 237.691 163.057 237.115 162.703C236.545 162.349 236.095 161.884 235.765 161.308C235.441 160.726 235.279 160.099 235.279 159.427C235.279 159.043 235.315 158.707 235.387 158.419C235.465 158.131 235.594 157.849 235.774 157.573C235.96 157.297 236.212 156.988 236.53 156.646C236.854 156.304 237.262 155.887 237.754 155.395C237.478 155.113 237.247 154.867 237.061 154.657C236.875 154.447 236.728 154.252 236.62 154.072C236.512 153.886 236.434 153.694 236.386 153.496C236.344 153.298 236.323 153.073 236.323 152.821C236.323 152.293 236.449 151.822 236.701 151.408C236.953 150.988 237.289 150.658 237.709 150.418C238.129 150.172 238.585 150.049 239.077 150.049C239.581 150.049 240.043 150.175 240.463 150.427C240.883 150.673 241.216 151.006 241.462 151.426C241.714 151.84 241.84 152.305 241.84 152.821C241.84 153.079 241.816 153.31 241.768 153.514C241.72 153.712 241.639 153.904 241.525 154.09C241.417 154.276 241.27 154.474 241.084 154.684C240.898 154.888 240.67 155.125 240.4 155.395L243.118 158.113L245.287 155.944V158.59L244.432 159.445L246.673 161.677L245.35 163L243.118 160.777C242.62 161.275 242.197 161.683 241.849 162.001C241.507 162.319 241.198 162.568 240.922 162.748C240.646 162.928 240.364 163.054 240.076 163.126C239.794 163.198 239.461 163.234 239.077 163.234ZM239.077 161.362C239.317 161.362 239.521 161.335 239.689 161.281C239.863 161.221 240.04 161.122 240.22 160.984C240.4 160.84 240.61 160.645 240.85 160.399C241.096 160.147 241.411 159.826 241.795 159.436L239.077 156.718C238.681 157.114 238.357 157.438 238.105 157.69C237.853 157.936 237.658 158.146 237.52 158.32C237.388 158.494 237.295 158.668 237.241 158.842C237.187 159.01 237.16 159.211 237.16 159.445C237.16 159.811 237.247 160.138 237.421 160.426C237.601 160.714 237.835 160.942 238.123 161.11C238.417 161.278 238.735 161.362 239.077 161.362ZM239.077 154.333C239.383 154.027 239.614 153.799 239.77 153.649C239.932 153.493 240.04 153.358 240.094 153.244C240.154 153.124 240.184 152.971 240.184 152.785C240.184 152.455 240.067 152.191 239.833 151.993C239.605 151.789 239.353 151.687 239.077 151.687C238.777 151.687 238.519 151.795 238.303 152.011C238.087 152.227 237.979 152.485 237.979 152.785C237.979 152.971 238.009 153.127 238.069 153.253C238.135 153.373 238.246 153.511 238.402 153.667C238.564 153.823 238.789 154.045 239.077 154.333ZM257.156 163.234C256.328 163.234 255.572 163.021 254.888 162.595C254.21 162.169 253.667 161.599 253.259 160.885C252.857 160.165 252.656 159.37 252.656 158.5C252.656 157.84 252.773 157.225 253.007 156.655C253.241 156.079 253.562 155.575 253.97 155.143C254.384 154.705 254.864 154.363 255.41 154.117C255.956 153.871 256.538 153.748 257.156 153.748C257.984 153.748 258.737 153.961 259.415 154.387C260.099 154.813 260.642 155.386 261.044 156.106C261.452 156.826 261.656 157.624 261.656 158.5C261.656 159.154 261.539 159.766 261.305 160.336C261.071 160.906 260.747 161.41 260.333 161.848C259.925 162.28 259.448 162.619 258.902 162.865C258.362 163.111 257.78 163.234 257.156 163.234ZM257.156 161.362C257.654 161.362 258.101 161.23 258.497 160.966C258.893 160.702 259.205 160.354 259.433 159.922C259.667 159.484 259.784 159.01 259.784 158.5C259.784 157.978 259.664 157.498 259.424 157.06C259.19 156.622 258.875 156.274 258.479 156.016C258.083 155.752 257.642 155.62 257.156 155.62C256.664 155.62 256.217 155.752 255.815 156.016C255.419 156.28 255.104 156.631 254.87 157.069C254.642 157.507 254.528 157.984 254.528 158.5C254.528 159.034 254.648 159.517 254.888 159.949C255.128 160.381 255.446 160.726 255.842 160.984C256.244 161.236 256.682 161.362 257.156 161.362ZM271.41 157.357V163H269.538V157.816C269.538 157.414 269.439 157.048 269.241 156.718C269.049 156.388 268.788 156.127 268.458 155.935C268.134 155.737 267.768 155.638 267.36 155.638C266.964 155.638 266.601 155.737 266.271 155.935C265.941 156.127 265.677 156.388 265.479 156.718C265.281 157.048 265.182 157.414 265.182 157.816V163H263.31V154H265.182V154.954C265.494 154.582 265.878 154.288 266.334 154.072C266.79 153.856 267.282 153.748 267.81 153.748C268.476 153.748 269.082 153.91 269.628 154.234C270.174 154.558 270.606 154.993 270.924 155.539C271.248 156.085 271.41 156.691 271.41 157.357ZM273.476 163V149.5H275.348V163H273.476ZM277.702 154H279.574V163H277.702V154ZM278.656 152.695C278.368 152.695 278.128 152.602 277.936 152.416C277.744 152.23 277.648 151.996 277.648 151.714C277.648 151.438 277.744 151.207 277.936 151.021C278.128 150.829 278.365 150.733 278.647 150.733C278.923 150.733 279.157 150.829 279.349 151.021C279.541 151.207 279.637 151.438 279.637 151.714C279.637 151.996 279.541 152.23 279.349 152.416C279.163 152.602 278.932 152.695 278.656 152.695ZM289.957 157.357V163H288.085V157.816C288.085 157.414 287.986 157.048 287.788 156.718C287.596 156.388 287.335 156.127 287.005 155.935C286.681 155.737 286.315 155.638 285.907 155.638C285.511 155.638 285.148 155.737 284.818 155.935C284.488 156.127 284.224 156.388 284.026 156.718C283.828 157.048 283.729 157.414 283.729 157.816V163H281.857V154H283.729V154.954C284.041 154.582 284.425 154.288 284.881 154.072C285.337 153.856 285.829 153.748 286.357 153.748C287.023 153.748 287.629 153.91 288.175 154.234C288.721 154.558 289.153 154.993 289.471 155.539C289.795 156.085 289.957 156.691 289.957 157.357ZM295.738 163.234C294.91 163.234 294.154 163.021 293.47 162.595C292.792 162.169 292.249 161.599 291.841 160.885C291.439 160.165 291.238 159.37 291.238 158.5C291.238 157.84 291.355 157.225 291.589 156.655C291.823 156.079 292.144 155.575 292.552 155.143C292.966 154.705 293.446 154.363 293.992 154.117C294.538 153.871 295.12 153.748 295.738 153.748C296.428 153.748 297.061 153.892 297.637 154.18C298.213 154.462 298.705 154.855 299.113 155.359C299.521 155.857 299.821 156.433 300.013 157.087C300.205 157.735 300.262 158.425 300.184 159.157H293.245C293.323 159.571 293.473 159.946 293.695 160.282C293.923 160.612 294.211 160.873 294.559 161.065C294.913 161.257 295.306 161.356 295.738 161.362C296.194 161.362 296.608 161.248 296.98 161.02C297.358 160.792 297.667 160.477 297.907 160.075L299.806 160.516C299.446 161.314 298.903 161.968 298.177 162.478C297.451 162.982 296.638 163.234 295.738 163.234ZM293.182 157.726H298.294C298.234 157.294 298.081 156.904 297.835 156.556C297.595 156.202 297.292 155.923 296.926 155.719C296.566 155.509 296.17 155.404 295.738 155.404C295.312 155.404 294.916 155.506 294.55 155.71C294.19 155.914 293.89 156.193 293.65 156.547C293.416 156.895 293.26 157.288 293.182 157.726ZM309.257 163.171C308.783 163.141 308.321 163.045 307.871 162.883C307.421 162.721 307.025 162.502 306.683 162.226C306.347 161.944 306.095 161.614 305.927 161.236L307.52 160.552C307.598 160.714 307.733 160.873 307.925 161.029C308.123 161.185 308.354 161.314 308.618 161.416C308.882 161.512 309.158 161.56 309.446 161.56C309.728 161.56 309.989 161.521 310.229 161.443C310.475 161.359 310.676 161.233 310.832 161.065C310.988 160.897 311.066 160.696 311.066 160.462C311.066 160.198 310.976 159.994 310.796 159.85C310.622 159.7 310.403 159.586 310.139 159.508C309.875 159.43 309.611 159.355 309.347 159.283C308.759 159.151 308.219 158.971 307.727 158.743C307.241 158.509 306.854 158.212 306.566 157.852C306.278 157.486 306.134 157.039 306.134 156.511C306.134 155.935 306.29 155.437 306.602 155.017C306.914 154.591 307.322 154.264 307.826 154.036C308.336 153.808 308.879 153.694 309.455 153.694C310.175 153.694 310.835 153.847 311.435 154.153C312.035 154.459 312.494 154.879 312.812 155.413L311.327 156.295C311.237 156.115 311.102 155.953 310.922 155.809C310.742 155.665 310.538 155.551 310.31 155.467C310.082 155.377 309.845 155.326 309.599 155.314C309.293 155.302 309.008 155.338 308.744 155.422C308.486 155.5 308.279 155.626 308.123 155.8C307.967 155.974 307.889 156.196 307.889 156.466C307.889 156.73 307.982 156.928 308.168 157.06C308.354 157.186 308.588 157.288 308.87 157.366C309.158 157.444 309.452 157.531 309.752 157.627C310.286 157.795 310.787 158.002 311.255 158.248C311.723 158.488 312.101 158.785 312.389 159.139C312.677 159.493 312.815 159.925 312.803 160.435C312.803 160.999 312.632 161.494 312.29 161.92C311.954 162.346 311.516 162.67 310.976 162.892C310.436 163.114 309.863 163.207 309.257 163.171ZM319.296 155.872H317.406L317.397 163H315.525L315.534 155.872H314.103V154H315.534L315.525 151.174H317.397L317.406 154H319.296V155.872ZM324.856 163.234C324.028 163.234 323.272 163.021 322.588 162.595C321.91 162.169 321.367 161.599 320.959 160.885C320.557 160.165 320.356 159.37 320.356 158.5C320.356 157.84 320.473 157.225 320.707 156.655C320.941 156.079 321.262 155.575 321.67 155.143C322.084 154.705 322.564 154.363 323.11 154.117C323.656 153.871 324.238 153.748 324.856 153.748C325.684 153.748 326.437 153.961 327.115 154.387C327.799 154.813 328.342 155.386 328.744 156.106C329.152 156.826 329.356 157.624 329.356 158.5C329.356 159.154 329.239 159.766 329.005 160.336C328.771 160.906 328.447 161.41 328.033 161.848C327.625 162.28 327.148 162.619 326.602 162.865C326.062 163.111 325.48 163.234 324.856 163.234ZM324.856 161.362C325.354 161.362 325.801 161.23 326.197 160.966C326.593 160.702 326.905 160.354 327.133 159.922C327.367 159.484 327.484 159.01 327.484 158.5C327.484 157.978 327.364 157.498 327.124 157.06C326.89 156.622 326.575 156.274 326.179 156.016C325.783 155.752 325.342 155.62 324.856 155.62C324.364 155.62 323.917 155.752 323.515 156.016C323.119 156.28 322.804 156.631 322.57 157.069C322.342 157.507 322.228 157.984 322.228 158.5C322.228 159.034 322.348 159.517 322.588 159.949C322.828 160.381 323.146 160.726 323.542 160.984C323.944 161.236 324.382 161.362 324.856 161.362ZM331.01 163V154H332.882V154.954C333.194 154.582 333.578 154.288 334.034 154.072C334.49 153.856 334.982 153.748 335.51 153.748C335.846 153.748 336.179 153.793 336.509 153.883L335.762 155.773C335.528 155.683 335.294 155.638 335.06 155.638C334.664 155.638 334.301 155.737 333.971 155.935C333.641 156.127 333.377 156.388 333.179 156.718C332.981 157.048 332.882 157.414 332.882 157.816V163H331.01ZM341.287 163.234C340.459 163.234 339.703 163.021 339.019 162.595C338.341 162.169 337.798 161.599 337.39 160.885C336.988 160.165 336.787 159.37 336.787 158.5C336.787 157.84 336.904 157.225 337.138 156.655C337.372 156.079 337.693 155.575 338.101 155.143C338.515 154.705 338.995 154.363 339.541 154.117C340.087 153.871 340.669 153.748 341.287 153.748C341.977 153.748 342.61 153.892 343.186 154.18C343.762 154.462 344.254 154.855 344.662 155.359C345.07 155.857 345.37 156.433 345.562 157.087C345.754 157.735 345.811 158.425 345.733 159.157H338.794C338.872 159.571 339.022 159.946 339.244 160.282C339.472 160.612 339.76 160.873 340.108 161.065C340.462 161.257 340.855 161.356 341.287 161.362C341.743 161.362 342.157 161.248 342.529 161.02C342.907 160.792 343.216 160.477 343.456 160.075L345.355 160.516C344.995 161.314 344.452 161.968 343.726 162.478C343 162.982 342.187 163.234 341.287 163.234ZM338.731 157.726H343.843C343.783 157.294 343.63 156.904 343.384 156.556C343.144 156.202 342.841 155.923 342.475 155.719C342.115 155.509 341.719 155.404 341.287 155.404C340.861 155.404 340.465 155.506 340.099 155.71C339.739 155.914 339.439 156.193 339.199 156.547C338.965 156.895 338.809 157.288 338.731 157.726ZM8.082 179H9.954V188H8.073L8.001 186.695C7.737 187.157 7.38 187.529 6.93 187.811C6.48 188.093 5.949 188.234 5.337 188.234C4.677 188.234 4.056 188.111 3.474 187.865C2.892 187.613 2.379 187.265 1.935 186.821C1.497 186.377 1.155 185.867 0.909 185.291C0.663 184.709 0.54 184.085 0.54 183.419C0.54 182.777 0.66 182.174 0.9 181.61C1.14 181.04 1.473 180.542 1.899 180.116C2.325 179.69 2.817 179.357 3.375 179.117C3.939 178.871 4.542 178.748 5.184 178.748C5.838 178.748 6.414 178.898 6.912 179.198C7.416 179.492 7.833 179.87 8.163 180.332L8.082 179ZM5.292 186.425C5.82 186.425 6.282 186.296 6.678 186.038C7.074 185.774 7.38 185.42 7.596 184.976C7.818 184.532 7.929 184.04 7.929 183.5C7.929 182.954 7.818 182.459 7.596 182.015C7.374 181.571 7.065 181.22 6.669 180.962C6.279 180.698 5.82 180.566 5.292 180.566C4.77 180.566 4.293 180.698 3.861 180.962C3.429 181.226 3.087 181.58 2.835 182.024C2.583 182.468 2.457 182.96 2.457 183.5C2.457 184.046 2.586 184.541 2.844 184.985C3.108 185.423 3.453 185.774 3.879 186.038C4.311 186.296 4.782 186.425 5.292 186.425ZM13.8219 192.5H11.9499V179H13.8219V180.323C14.1219 179.861 14.5059 179.486 14.9739 179.198C15.4419 178.91 15.9939 178.766 16.6299 178.766C17.2839 178.766 17.8959 178.889 18.4659 179.135C19.0419 179.381 19.5459 179.723 19.9779 180.161C20.4099 180.593 20.7489 181.094 20.9949 181.664C21.2409 182.234 21.3639 182.846 21.3639 183.5C21.3639 184.154 21.2409 184.769 20.9949 185.345C20.7489 185.921 20.4099 186.428 19.9779 186.866C19.5459 187.298 19.0419 187.637 18.4659 187.883C17.8959 188.129 17.2839 188.252 16.6299 188.252C15.9939 188.252 15.4419 188.108 14.9739 187.82C14.5059 187.526 14.1219 187.151 13.8219 186.695V192.5ZM16.6119 180.575C16.0899 180.575 15.6309 180.707 15.2349 180.971C14.8389 181.235 14.5299 181.589 14.3079 182.033C14.0859 182.471 13.9749 182.96 13.9749 183.5C13.9749 184.04 14.0859 184.532 14.3079 184.976C14.5299 185.42 14.8389 185.774 15.2349 186.038C15.6309 186.302 16.0899 186.434 16.6119 186.434C17.1279 186.434 17.6019 186.305 18.0339 186.047C18.4659 185.783 18.8109 185.429 19.0689 184.985C19.3269 184.541 19.4559 184.046 19.4559 183.5C19.4559 182.966 19.3269 182.477 19.0689 182.033C18.8169 181.589 18.4749 181.235 18.0429 180.971C17.6109 180.707 17.1339 180.575 16.6119 180.575ZM24.9028 192.5H23.0308V179H24.9028V180.323C25.2028 179.861 25.5868 179.486 26.0548 179.198C26.5228 178.91 27.0748 178.766 27.7108 178.766C28.3648 178.766 28.9768 178.889 29.5468 179.135C30.1228 179.381 30.6268 179.723 31.0588 180.161C31.4908 180.593 31.8298 181.094 32.0758 181.664C32.3218 182.234 32.4448 182.846 32.4448 183.5C32.4448 184.154 32.3218 184.769 32.0758 185.345C31.8298 185.921 31.4908 186.428 31.0588 186.866C30.6268 187.298 30.1228 187.637 29.5468 187.883C28.9768 188.129 28.3648 188.252 27.7108 188.252C27.0748 188.252 26.5228 188.108 26.0548 187.82C25.5868 187.526 25.2028 187.151 24.9028 186.695V192.5ZM27.6928 180.575C27.1708 180.575 26.7118 180.707 26.3158 180.971C25.9198 181.235 25.6108 181.589 25.3888 182.033C25.1668 182.471 25.0558 182.96 25.0558 183.5C25.0558 184.04 25.1668 184.532 25.3888 184.976C25.6108 185.42 25.9198 185.774 26.3158 186.038C26.7118 186.302 27.1708 186.434 27.6928 186.434C28.2088 186.434 28.6828 186.305 29.1148 186.047C29.5468 185.783 29.8918 185.429 30.1498 184.985C30.4078 184.541 30.5368 184.046 30.5368 183.5C30.5368 182.966 30.4078 182.477 30.1498 182.033C29.8978 181.589 29.5558 181.235 29.1238 180.971C28.6918 180.707 28.2148 180.575 27.6928 180.575ZM42.7541 188.234C41.9261 188.234 41.1701 188.021 40.4861 187.595C39.8081 187.169 39.2651 186.599 38.8571 185.885C38.4551 185.165 38.2541 184.37 38.2541 183.5C38.2541 182.84 38.3711 182.225 38.6051 181.655C38.8391 181.079 39.1601 180.575 39.5681 180.143C39.9821 179.705 40.4621 179.363 41.0081 179.117C41.5541 178.871 42.1361 178.748 42.7541 178.748C43.5821 178.748 44.3351 178.961 45.0131 179.387C45.6971 179.813 46.2401 180.386 46.6421 181.106C47.0501 181.826 47.2541 182.624 47.2541 183.5C47.2541 184.154 47.1371 184.766 46.9031 185.336C46.6691 185.906 46.3451 186.41 45.9311 186.848C45.5231 187.28 45.0461 187.619 44.5001 187.865C43.9601 188.111 43.3781 188.234 42.7541 188.234ZM42.7541 186.362C43.2521 186.362 43.6991 186.23 44.0951 185.966C44.4911 185.702 44.8031 185.354 45.0311 184.922C45.2651 184.484 45.3821 184.01 45.3821 183.5C45.3821 182.978 45.2621 182.498 45.0221 182.06C44.7881 181.622 44.4731 181.274 44.0771 181.016C43.6811 180.752 43.2401 180.62 42.7541 180.62C42.2621 180.62 41.8151 180.752 41.4131 181.016C41.0171 181.28 40.7021 181.631 40.4681 182.069C40.2401 182.507 40.1261 182.984 40.1261 183.5C40.1261 184.034 40.2461 184.517 40.4861 184.949C40.7261 185.381 41.0441 185.726 41.4401 185.984C41.8421 186.236 42.2801 186.362 42.7541 186.362ZM51.3793 176.957V179H53.9173V180.872H51.3793V188H49.5073V180.872H48.4363V179H49.5073V176.957C49.5073 176.465 49.6273 176.018 49.8673 175.616C50.1073 175.208 50.4283 174.884 50.8303 174.644C51.2383 174.404 51.6913 174.284 52.1893 174.284C52.5493 174.284 52.9003 174.356 53.2423 174.5C53.5843 174.644 53.8903 174.866 54.1603 175.166L52.8193 176.489C52.7533 176.381 52.6603 176.3 52.5403 176.246C52.4263 176.186 52.3093 176.156 52.1893 176.156C51.9673 176.156 51.7753 176.234 51.6133 176.39C51.4573 176.546 51.3793 176.735 51.3793 176.957ZM64.9058 180.872H63.0158L63.0068 188H61.1348L61.1438 180.872H59.7128V179H61.1438L61.1348 176.174H63.0068L63.0158 179H64.9058V180.872ZM74.8171 182.357V188H72.9451V182.816C72.9451 182.414 72.8461 182.048 72.6481 181.718C72.4561 181.388 72.1951 181.127 71.8651 180.935C71.5411 180.737 71.1751 180.638 70.7671 180.638C70.3711 180.638 70.0081 180.737 69.6781 180.935C69.3481 181.127 69.0841 181.388 68.8861 181.718C68.6881 182.048 68.5891 182.414 68.5891 182.816V188H66.7171V174.5H68.5891V179.954C68.9011 179.582 69.2851 179.288 69.7411 179.072C70.1971 178.856 70.6891 178.748 71.2171 178.748C71.8831 178.748 72.4891 178.91 73.0351 179.234C73.5811 179.558 74.0131 179.993 74.3311 180.539C74.6551 181.085 74.8171 181.691 74.8171 182.357ZM80.5978 188.234C79.7698 188.234 79.0138 188.021 78.3298 187.595C77.6518 187.169 77.1088 186.599 76.7008 185.885C76.2988 185.165 76.0978 184.37 76.0978 183.5C76.0978 182.84 76.2148 182.225 76.4488 181.655C76.6828 181.079 77.0038 180.575 77.4118 180.143C77.8258 179.705 78.3058 179.363 78.8518 179.117C79.3978 178.871 79.9798 178.748 80.5978 178.748C81.2878 178.748 81.9208 178.892 82.4968 179.18C83.0728 179.462 83.5648 179.855 83.9728 180.359C84.3808 180.857 84.6808 181.433 84.8728 182.087C85.0648 182.735 85.1218 183.425 85.0438 184.157H78.1048C78.1828 184.571 78.3328 184.946 78.5548 185.282C78.7828 185.612 79.0708 185.873 79.4188 186.065C79.7728 186.257 80.1658 186.356 80.5978 186.362C81.0538 186.362 81.4678 186.248 81.8398 186.02C82.2178 185.792 82.5268 185.477 82.7668 185.075L84.6658 185.516C84.3058 186.314 83.7628 186.968 83.0368 187.478C82.3108 187.982 81.4978 188.234 80.5978 188.234ZM78.0418 182.726H83.1538C83.0938 182.294 82.9408 181.904 82.6948 181.556C82.4548 181.202 82.1518 180.923 81.7858 180.719C81.4258 180.509 81.0298 180.404 80.5978 180.404C80.1718 180.404 79.7758 180.506 79.4098 180.71C79.0498 180.914 78.7498 181.193 78.5098 181.547C78.2758 181.895 78.1198 182.288 78.0418 182.726ZM97.2937 185.444L98.9677 186.353C98.5597 186.923 98.0407 187.379 97.4107 187.721C96.7867 188.063 96.1087 188.234 95.3767 188.234C94.5487 188.234 93.7927 188.021 93.1087 187.595C92.4307 187.169 91.8877 186.599 91.4797 185.885C91.0777 185.165 90.8767 184.37 90.8767 183.5C90.8767 182.84 90.9937 182.225 91.2277 181.655C91.4617 181.079 91.7827 180.575 92.1907 180.143C92.6047 179.705 93.0847 179.363 93.6307 179.117C94.1767 178.871 94.7587 178.748 95.3767 178.748C96.1087 178.748 96.7867 178.919 97.4107 179.261C98.0407 179.603 98.5597 180.062 98.9677 180.638L97.2937 181.547C97.0417 181.247 96.7477 181.019 96.4117 180.863C96.0757 180.701 95.7307 180.62 95.3767 180.62C94.8847 180.62 94.4377 180.755 94.0357 181.025C93.6397 181.289 93.3247 181.64 93.0907 182.078C92.8627 182.51 92.7487 182.984 92.7487 183.5C92.7487 184.01 92.8657 184.484 93.0997 184.922C93.3337 185.354 93.6487 185.702 94.0447 185.966C94.4467 186.23 94.8907 186.362 95.3767 186.362C95.7487 186.362 96.1027 186.278 96.4387 186.11C96.7747 185.942 97.0597 185.72 97.2937 185.444ZM104.524 188.234C103.696 188.234 102.94 188.021 102.256 187.595C101.578 187.169 101.035 186.599 100.627 185.885C100.225 185.165 100.024 184.37 100.024 183.5C100.024 182.84 100.141 182.225 100.375 181.655C100.609 181.079 100.93 180.575 101.338 180.143C101.752 179.705 102.232 179.363 102.778 179.117C103.324 178.871 103.906 178.748 104.524 178.748C105.214 178.748 105.847 178.892 106.423 179.18C106.999 179.462 107.491 179.855 107.899 180.359C108.307 180.857 108.607 181.433 108.799 182.087C108.991 182.735 109.048 183.425 108.97 184.157H102.031C102.109 184.571 102.259 184.946 102.481 185.282C102.709 185.612 102.997 185.873 103.345 186.065C103.699 186.257 104.092 186.356 104.524 186.362C104.98 186.362 105.394 186.248 105.766 186.02C106.144 185.792 106.453 185.477 106.693 185.075L108.592 185.516C108.232 186.314 107.689 186.968 106.963 187.478C106.237 187.982 105.424 188.234 104.524 188.234ZM101.968 182.726H107.08C107.02 182.294 106.867 181.904 106.621 181.556C106.381 181.202 106.078 180.923 105.712 180.719C105.352 180.509 104.956 180.404 104.524 180.404C104.098 180.404 103.702 180.506 103.336 180.71C102.976 180.914 102.676 181.193 102.436 181.547C102.202 181.895 102.046 182.288 101.968 182.726ZM118.76 182.357V188H116.888V182.816C116.888 182.414 116.789 182.048 116.591 181.718C116.399 181.388 116.138 181.127 115.808 180.935C115.484 180.737 115.118 180.638 114.71 180.638C114.314 180.638 113.951 180.737 113.621 180.935C113.291 181.127 113.027 181.388 112.829 181.718C112.631 182.048 112.532 182.414 112.532 182.816V188H110.66V179H112.532V179.954C112.844 179.582 113.228 179.288 113.684 179.072C114.14 178.856 114.632 178.748 115.16 178.748C115.826 178.748 116.432 178.91 116.978 179.234C117.524 179.558 117.956 179.993 118.274 180.539C118.598 181.085 118.76 181.691 118.76 182.357ZM125.509 180.872H123.619L123.61 188H121.738L121.747 180.872H120.316V179H121.747L121.738 176.174H123.61L123.619 179H125.509V180.872ZM126.96 184.625V179H128.832V184.166C128.832 184.568 128.931 184.934 129.129 185.264C129.327 185.594 129.591 185.858 129.921 186.056C130.251 186.248 130.614 186.344 131.01 186.344C131.412 186.344 131.775 186.248 132.099 186.056C132.429 185.858 132.69 185.594 132.882 185.264C133.08 184.934 133.179 184.568 133.179 184.166V179H135.051L135.06 188H133.188L133.179 187.028C132.873 187.4 132.492 187.694 132.036 187.91C131.58 188.126 131.091 188.234 130.569 188.234C129.903 188.234 129.297 188.072 128.751 187.748C128.205 187.424 127.77 186.989 127.446 186.443C127.122 185.897 126.96 185.291 126.96 184.625ZM137.065 188V179H138.937V179.954C139.249 179.582 139.633 179.288 140.089 179.072C140.545 178.856 141.037 178.748 141.565 178.748C141.901 178.748 142.234 178.793 142.564 178.883L141.817 180.773C141.583 180.683 141.349 180.638 141.115 180.638C140.719 180.638 140.356 180.737 140.026 180.935C139.696 181.127 139.432 181.388 139.234 181.718C139.036 182.048 138.937 182.414 138.937 182.816V188H137.065ZM149.969 179H151.967L147.035 192.5H145.046L146.675 188L143.444 179H145.487L147.611 185.435L149.969 179ZM160.808 176.957V179H163.346V180.872H160.808V188H158.936V180.872H157.865V179H158.936V176.957C158.936 176.465 159.056 176.018 159.296 175.616C159.536 175.208 159.857 174.884 160.259 174.644C160.667 174.404 161.12 174.284 161.618 174.284C161.978 174.284 162.329 174.356 162.671 174.5C163.013 174.644 163.319 174.866 163.589 175.166L162.248 176.489C162.182 176.381 162.089 176.3 161.969 176.246C161.855 176.186 161.738 176.156 161.618 176.156C161.396 176.156 161.204 176.234 161.042 176.39C160.886 176.546 160.808 176.735 160.808 176.957ZM168.772 188.234C167.944 188.234 167.188 188.021 166.504 187.595C165.826 187.169 165.283 186.599 164.875 185.885C164.473 185.165 164.272 184.37 164.272 183.5C164.272 182.84 164.389 182.225 164.623 181.655C164.857 181.079 165.178 180.575 165.586 180.143C166 179.705 166.48 179.363 167.026 179.117C167.572 178.871 168.154 178.748 168.772 178.748C169.6 178.748 170.353 178.961 171.031 179.387C171.715 179.813 172.258 180.386 172.66 181.106C173.068 181.826 173.272 182.624 173.272 183.5C173.272 184.154 173.155 184.766 172.921 185.336C172.687 185.906 172.363 186.41 171.949 186.848C171.541 187.28 171.064 187.619 170.518 187.865C169.978 188.111 169.396 188.234 168.772 188.234ZM168.772 186.362C169.27 186.362 169.717 186.23 170.113 185.966C170.509 185.702 170.821 185.354 171.049 184.922C171.283 184.484 171.4 184.01 171.4 183.5C171.4 182.978 171.28 182.498 171.04 182.06C170.806 181.622 170.491 181.274 170.095 181.016C169.699 180.752 169.258 180.62 168.772 180.62C168.28 180.62 167.833 180.752 167.431 181.016C167.035 181.28 166.72 181.631 166.486 182.069C166.258 182.507 166.144 182.984 166.144 183.5C166.144 184.034 166.264 184.517 166.504 184.949C166.744 185.381 167.062 185.726 167.458 185.984C167.86 186.236 168.298 186.362 168.772 186.362ZM174.926 188V179H176.798V179.954C177.11 179.582 177.494 179.288 177.95 179.072C178.406 178.856 178.898 178.748 179.426 178.748C179.762 178.748 180.095 178.793 180.425 178.883L179.678 180.773C179.444 180.683 179.21 180.638 178.976 180.638C178.58 180.638 178.217 180.737 177.887 180.935C177.557 181.127 177.293 181.388 177.095 181.718C176.897 182.048 176.798 182.414 176.798 182.816V188H174.926ZM192.583 179H194.581L189.649 192.5H187.66L189.289 188L186.058 179H188.101L190.225 185.435L192.583 179ZM199.772 188.234C198.944 188.234 198.188 188.021 197.504 187.595C196.826 187.169 196.283 186.599 195.875 185.885C195.473 185.165 195.272 184.37 195.272 183.5C195.272 182.84 195.389 182.225 195.623 181.655C195.857 181.079 196.178 180.575 196.586 180.143C197 179.705 197.48 179.363 198.026 179.117C198.572 178.871 199.154 178.748 199.772 178.748C200.6 178.748 201.353 178.961 202.031 179.387C202.715 179.813 203.258 180.386 203.66 181.106C204.068 181.826 204.272 182.624 204.272 183.5C204.272 184.154 204.155 184.766 203.921 185.336C203.687 185.906 203.363 186.41 202.949 186.848C202.541 187.28 202.064 187.619 201.518 187.865C200.978 188.111 200.396 188.234 199.772 188.234ZM199.772 186.362C200.27 186.362 200.717 186.23 201.113 185.966C201.509 185.702 201.821 185.354 202.049 184.922C202.283 184.484 202.4 184.01 202.4 183.5C202.4 182.978 202.28 182.498 202.04 182.06C201.806 181.622 201.491 181.274 201.095 181.016C200.699 180.752 200.258 180.62 199.772 180.62C199.28 180.62 198.833 180.752 198.431 181.016C198.035 181.28 197.72 181.631 197.486 182.069C197.258 182.507 197.144 182.984 197.144 183.5C197.144 184.034 197.264 184.517 197.504 184.949C197.744 185.381 198.062 185.726 198.458 185.984C198.86 186.236 199.298 186.362 199.772 186.362ZM205.39 184.625V179H207.262V184.166C207.262 184.568 207.361 184.934 207.559 185.264C207.757 185.594 208.021 185.858 208.351 186.056C208.681 186.248 209.044 186.344 209.44 186.344C209.842 186.344 210.205 186.248 210.529 186.056C210.859 185.858 211.12 185.594 211.312 185.264C211.51 184.934 211.609 184.568 211.609 184.166V179H213.481L213.49 188H211.618L211.609 187.028C211.303 187.4 210.922 187.694 210.466 187.91C210.01 188.126 209.521 188.234 208.999 188.234C208.333 188.234 207.727 188.072 207.181 187.748C206.635 187.424 206.2 186.989 205.876 186.443C205.552 185.897 205.39 185.291 205.39 184.625ZM215.495 188V179H217.367V179.954C217.679 179.582 218.063 179.288 218.519 179.072C218.975 178.856 219.467 178.748 219.995 178.748C220.331 178.748 220.664 178.793 220.994 178.883L220.247 180.773C220.013 180.683 219.779 180.638 219.545 180.638C219.149 180.638 218.786 180.737 218.456 180.935C218.126 181.127 217.862 181.388 217.664 181.718C217.466 182.048 217.367 182.414 217.367 182.816V188H215.495ZM235.087 182.357V188H233.215V182.816C233.215 182.414 233.116 182.048 232.918 181.718C232.726 181.388 232.465 181.127 232.135 180.935C231.811 180.737 231.445 180.638 231.037 180.638C230.641 180.638 230.278 180.737 229.948 180.935C229.618 181.127 229.354 181.388 229.156 181.718C228.958 182.048 228.859 182.414 228.859 182.816V188H226.987V179H228.859V179.954C229.171 179.582 229.555 179.288 230.011 179.072C230.467 178.856 230.959 178.748 231.487 178.748C232.153 178.748 232.759 178.91 233.305 179.234C233.851 179.558 234.283 179.993 234.601 180.539C234.925 181.085 235.087 181.691 235.087 182.357ZM240.867 188.234C240.039 188.234 239.283 188.021 238.599 187.595C237.921 187.169 237.378 186.599 236.97 185.885C236.568 185.165 236.367 184.37 236.367 183.5C236.367 182.84 236.484 182.225 236.718 181.655C236.952 181.079 237.273 180.575 237.681 180.143C238.095 179.705 238.575 179.363 239.121 179.117C239.667 178.871 240.249 178.748 240.867 178.748C241.557 178.748 242.19 178.892 242.766 179.18C243.342 179.462 243.834 179.855 244.242 180.359C244.65 180.857 244.95 181.433 245.142 182.087C245.334 182.735 245.391 183.425 245.313 184.157H238.374C238.452 184.571 238.602 184.946 238.824 185.282C239.052 185.612 239.34 185.873 239.688 186.065C240.042 186.257 240.435 186.356 240.867 186.362C241.323 186.362 241.737 186.248 242.109 186.02C242.487 185.792 242.796 185.477 243.036 185.075L244.935 185.516C244.575 186.314 244.032 186.968 243.306 187.478C242.58 187.982 241.767 188.234 240.867 188.234ZM238.311 182.726H243.423C243.363 182.294 243.21 181.904 242.964 181.556C242.724 181.202 242.421 180.923 242.055 180.719C241.695 180.509 241.299 180.404 240.867 180.404C240.441 180.404 240.045 180.506 239.679 180.71C239.319 180.914 239.019 181.193 238.779 181.547C238.545 181.895 238.389 182.288 238.311 182.726ZM250.946 188.234C250.118 188.234 249.362 188.021 248.678 187.595C248 187.169 247.457 186.599 247.049 185.885C246.647 185.165 246.446 184.37 246.446 183.5C246.446 182.84 246.563 182.225 246.797 181.655C247.031 181.079 247.352 180.575 247.76 180.143C248.174 179.705 248.654 179.363 249.2 179.117C249.746 178.871 250.328 178.748 250.946 178.748C251.636 178.748 252.269 178.892 252.845 179.18C253.421 179.462 253.913 179.855 254.321 180.359C254.729 180.857 255.029 181.433 255.221 182.087C255.413 182.735 255.47 183.425 255.392 184.157H248.453C248.531 184.571 248.681 184.946 248.903 185.282C249.131 185.612 249.419 185.873 249.767 186.065C250.121 186.257 250.514 186.356 250.946 186.362C251.402 186.362 251.816 186.248 252.188 186.02C252.566 185.792 252.875 185.477 253.115 185.075L255.014 185.516C254.654 186.314 254.111 186.968 253.385 187.478C252.659 187.982 251.846 188.234 250.946 188.234ZM248.39 182.726H253.502C253.442 182.294 253.289 181.904 253.043 181.556C252.803 181.202 252.5 180.923 252.134 180.719C251.774 180.509 251.378 180.404 250.946 180.404C250.52 180.404 250.124 180.506 249.758 180.71C249.398 180.914 249.098 181.193 248.858 181.547C248.624 181.895 248.468 182.288 248.39 182.726ZM264.076 174.5H265.948V188H264.076V186.677C263.782 187.145 263.398 187.523 262.924 187.811C262.45 188.093 261.895 188.234 261.259 188.234C260.605 188.234 259.993 188.111 259.423 187.865C258.853 187.619 258.349 187.28 257.911 186.848C257.479 186.41 257.14 185.906 256.894 185.336C256.648 184.766 256.525 184.154 256.525 183.5C256.525 182.846 256.648 182.234 256.894 181.664C257.14 181.088 257.479 180.584 257.911 180.152C258.349 179.714 258.853 179.372 259.423 179.126C259.993 178.88 260.605 178.757 261.259 178.757C261.895 178.757 262.45 178.901 262.924 179.189C263.398 179.471 263.782 179.843 264.076 180.305V174.5ZM261.277 186.425C261.805 186.425 262.267 186.296 262.663 186.038C263.059 185.774 263.365 185.42 263.581 184.976C263.803 184.532 263.914 184.04 263.914 183.5C263.914 182.954 263.803 182.459 263.581 182.015C263.359 181.571 263.05 181.22 262.654 180.962C262.264 180.698 261.805 180.566 261.277 180.566C260.755 180.566 260.278 180.698 259.846 180.962C259.42 181.226 259.078 181.58 258.82 182.024C258.568 182.468 258.442 182.96 258.442 183.5C258.442 184.046 258.571 184.541 258.829 184.985C259.093 185.423 259.438 185.774 259.864 186.038C260.296 186.296 260.767 186.425 261.277 186.425ZM271.004 188.171C270.53 188.141 270.068 188.045 269.618 187.883C269.168 187.721 268.772 187.502 268.43 187.226C268.094 186.944 267.842 186.614 267.674 186.236L269.267 185.552C269.345 185.714 269.48 185.873 269.672 186.029C269.87 186.185 270.101 186.314 270.365 186.416C270.629 186.512 270.905 186.56 271.193 186.56C271.475 186.56 271.736 186.521 271.976 186.443C272.222 186.359 272.423 186.233 272.579 186.065C272.735 185.897 272.813 185.696 272.813 185.462C272.813 185.198 272.723 184.994 272.543 184.85C272.369 184.7 272.15 184.586 271.886 184.508C271.622 184.43 271.358 184.355 271.094 184.283C270.506 184.151 269.966 183.971 269.474 183.743C268.988 183.509 268.601 183.212 268.313 182.852C268.025 182.486 267.881 182.039 267.881 181.511C267.881 180.935 268.037 180.437 268.349 180.017C268.661 179.591 269.069 179.264 269.573 179.036C270.083 178.808 270.626 178.694 271.202 178.694C271.922 178.694 272.582 178.847 273.182 179.153C273.782 179.459 274.241 179.879 274.559 180.413L273.074 181.295C272.984 181.115 272.849 180.953 272.669 180.809C272.489 180.665 272.285 180.551 272.057 180.467C271.829 180.377 271.592 180.326 271.346 180.314C271.04 180.302 270.755 180.338 270.491 180.422C270.233 180.5 270.026 180.626 269.87 180.8C269.714 180.974 269.636 181.196 269.636 181.466C269.636 181.73 269.729 181.928 269.915 182.06C270.101 182.186 270.335 182.288 270.617 182.366C270.905 182.444 271.199 182.531 271.499 182.627C272.033 182.795 272.534 183.002 273.002 183.248C273.47 183.488 273.848 183.785 274.136 184.139C274.424 184.493 274.562 184.925 274.55 185.435C274.55 185.999 274.379 186.494 274.037 186.92C273.701 187.346 273.263 187.67 272.723 187.892C272.183 188.114 271.61 188.207 271.004 188.171ZM276.12 184.22V175.4H277.713V184.22H276.12ZM276.921 188.234C276.645 188.234 276.411 188.138 276.219 187.946C276.027 187.754 275.931 187.517 275.931 187.235C275.931 186.965 276.027 186.737 276.219 186.551C276.411 186.359 276.645 186.263 276.921 186.263C277.191 186.263 277.419 186.359 277.605 186.551C277.797 186.737 277.893 186.965 277.893 187.235C277.893 187.517 277.797 187.754 277.605 187.946C277.419 188.138 277.191 188.234 276.921 188.234Z" fill="#424242"/>
</svg>
