<svg width="155" height="19" viewBox="0 0 155 19" fill="none" xmlns="http://www.w3.org/2000/svg">
<path d="M0.44 18.5V1.7H10.364V4.628H3.368V8.036H9.212V10.964H3.368V18.5H0.44ZM11.4088 6.5H14.3368V18.5H11.4088V6.5ZM12.8968 4.952C12.4648 4.952 12.1008 4.812 11.8048 4.532C11.5088 4.244 11.3608 3.884 11.3608 3.452C11.3608 3.028 11.5088 2.672 11.8048 2.384C12.1008 2.096 12.4608 1.952 12.8848 1.952C13.3088 1.952 13.6648 2.096 13.9528 2.384C14.2488 2.672 14.3968 3.028 14.3968 3.452C14.3968 3.884 14.2528 4.244 13.9648 4.532C13.6768 4.812 13.3208 4.952 12.8968 4.952ZM17.2681 18.5V0.499999H20.1961V18.5H17.2681ZM23.0806 18.5V0.499999H26.0086V18.5H23.0806ZM44.9548 1.7H48.4108L42.6388 10.928V18.5H39.7108V10.928L33.9388 1.7H37.3948L41.1748 7.736L44.9548 1.7ZM53.2981 18.812C52.1941 18.812 51.1861 18.528 50.2741 17.96C49.3701 17.392 48.6461 16.632 48.1021 15.68C47.5661 14.72 47.2981 13.66 47.2981 12.5C47.2981 11.62 47.4541 10.8 47.7661 10.04C48.0781 9.272 48.5061 8.6 49.0501 8.024C49.6021 7.44 50.2421 6.984 50.9701 6.656C51.6981 6.328 52.4741 6.164 53.2981 6.164C54.4021 6.164 55.4061 6.448 56.3101 7.016C57.2221 7.584 57.9461 8.348 58.4821 9.308C59.0261 10.268 59.2981 11.332 59.2981 12.5C59.2981 13.372 59.1421 14.188 58.8301 14.948C58.5181 15.708 58.0861 16.38 57.5341 16.964C56.9901 17.54 56.3541 17.992 55.6261 18.32C54.9061 18.648 54.1301 18.812 53.2981 18.812ZM53.2981 15.884C53.8821 15.884 54.4061 15.728 54.8701 15.416C55.3341 15.104 55.6981 14.692 55.9621 14.18C56.2341 13.668 56.3701 13.108 56.3701 12.5C56.3701 11.876 56.2301 11.308 55.9501 10.796C55.6781 10.276 55.3061 9.864 54.8341 9.56C54.3701 9.248 53.8581 9.092 53.2981 9.092C52.7221 9.092 52.2021 9.248 51.7381 9.56C51.2741 9.872 50.9061 10.288 50.6341 10.808C50.3621 11.328 50.2261 11.892 50.2261 12.5C50.2261 13.132 50.3661 13.704 50.6461 14.216C50.9261 14.728 51.2981 15.136 51.7621 15.44C52.2341 15.736 52.7461 15.884 53.2981 15.884ZM60.4288 14.06V6.5H63.3568V13.292C63.3568 13.764 63.4728 14.196 63.7048 14.588C63.9368 14.972 64.2448 15.28 64.6288 15.512C65.0208 15.736 65.4488 15.848 65.9128 15.848C66.3928 15.848 66.8248 15.736 67.2088 15.512C67.5928 15.28 67.9008 14.972 68.1328 14.588C68.3648 14.196 68.4808 13.764 68.4808 13.292V6.5H71.4088L71.4208 18.5H68.4928L68.4808 17.408C68.0648 17.84 67.5728 18.184 67.0048 18.44C66.4368 18.688 65.8288 18.812 65.1808 18.812C64.3088 18.812 63.5128 18.6 62.7928 18.176C62.0728 17.744 61.4968 17.172 61.0648 16.46C60.6408 15.74 60.4288 14.94 60.4288 14.06ZM73.8348 18.5L73.8228 6.5H76.7508L76.7628 7.568C77.1708 7.136 77.6588 6.796 78.2268 6.548C78.7948 6.292 79.4068 6.164 80.0628 6.164C80.5028 6.164 80.9428 6.228 81.3828 6.356L80.2308 9.308C79.9268 9.188 79.6228 9.128 79.3188 9.128C78.8468 9.128 78.4148 9.244 78.0228 9.476C77.6388 9.7 77.3308 10.008 77.0988 10.4C76.8748 10.784 76.7628 11.212 76.7628 11.684V18.5H73.8348ZM88.8228 18.5V1.7H94.8228C95.7348 1.7 96.5588 1.928 97.2948 2.384C98.0388 2.84 98.6268 3.452 99.0588 4.22C99.4908 4.988 99.7068 5.832 99.7068 6.752C99.7068 7.696 99.4828 8.552 99.0348 9.32C98.5948 10.08 98.0028 10.688 97.2588 11.144C96.5148 11.592 95.7028 11.816 94.8228 11.816H91.7508V18.5H88.8228ZM91.7508 8.888H94.5108C94.9268 8.888 95.3068 8.784 95.6508 8.576C95.9948 8.368 96.2668 8.088 96.4668 7.736C96.6748 7.384 96.7788 6.992 96.7788 6.56C96.7788 6.12 96.6748 5.724 96.4668 5.372C96.2668 5.02 95.9948 4.74 95.6508 4.532C95.3068 4.324 94.9268 4.22 94.5108 4.22H91.7508V8.888ZM101.585 18.5L101.573 6.5H104.501L104.513 7.568C104.921 7.136 105.409 6.796 105.977 6.548C106.545 6.292 107.157 6.164 107.813 6.164C108.253 6.164 108.693 6.228 109.133 6.356L107.981 9.308C107.677 9.188 107.373 9.128 107.069 9.128C106.597 9.128 106.165 9.244 105.773 9.476C105.389 9.7 105.081 10.008 104.849 10.4C104.625 10.784 104.513 11.212 104.513 11.684V18.5H101.585ZM115.197 18.812C114.093 18.812 113.085 18.528 112.173 17.96C111.269 17.392 110.545 16.632 110.001 15.68C109.465 14.72 109.197 13.66 109.197 12.5C109.197 11.62 109.353 10.8 109.665 10.04C109.977 9.272 110.405 8.6 110.949 8.024C111.501 7.44 112.141 6.984 112.869 6.656C113.597 6.328 114.373 6.164 115.197 6.164C116.301 6.164 117.305 6.448 118.209 7.016C119.121 7.584 119.845 8.348 120.381 9.308C120.925 10.268 121.197 11.332 121.197 12.5C121.197 13.372 121.041 14.188 120.729 14.948C120.417 15.708 119.985 16.38 119.433 16.964C118.889 17.54 118.253 17.992 117.525 18.32C116.805 18.648 116.029 18.812 115.197 18.812ZM115.197 15.884C115.781 15.884 116.305 15.728 116.769 15.416C117.233 15.104 117.597 14.692 117.861 14.18C118.133 13.668 118.269 13.108 118.269 12.5C118.269 11.876 118.129 11.308 117.849 10.796C117.577 10.276 117.205 9.864 116.733 9.56C116.269 9.248 115.757 9.092 115.197 9.092C114.621 9.092 114.101 9.248 113.637 9.56C113.173 9.872 112.805 10.288 112.533 10.808C112.261 11.328 112.125 11.892 112.125 12.5C112.125 13.132 112.265 13.704 112.545 14.216C112.825 14.728 113.197 15.136 113.661 15.44C114.133 15.736 114.645 15.884 115.197 15.884ZM126.742 3.98V6.5H130.018V9.428H126.742V18.5H123.814V9.428H122.506V6.5H123.814V3.98C123.814 3.292 123.982 2.664 124.318 2.096C124.662 1.52 125.122 1.064 125.698 0.727999C126.274 0.383999 126.91 0.211999 127.606 0.211999C128.11 0.211999 128.61 0.316 129.106 0.524C129.602 0.731999 130.042 1.052 130.426 1.484L128.314 3.548C128.242 3.412 128.138 3.312 128.002 3.248C127.874 3.176 127.742 3.14 127.606 3.14C127.374 3.14 127.17 3.224 126.994 3.392C126.826 3.552 126.742 3.748 126.742 3.98ZM131.901 6.5H134.829V18.5H131.901V6.5ZM133.389 4.952C132.957 4.952 132.593 4.812 132.297 4.532C132.001 4.244 131.853 3.884 131.853 3.452C131.853 3.028 132.001 2.672 132.297 2.384C132.593 2.096 132.953 1.952 133.377 1.952C133.801 1.952 134.157 2.096 134.445 2.384C134.741 2.672 134.889 3.028 134.889 3.452C134.889 3.884 134.745 4.244 134.457 4.532C134.169 4.812 133.813 4.952 133.389 4.952ZM137.76 18.5V0.499999H140.688V18.5H137.76ZM148.665 18.812C147.561 18.812 146.553 18.528 145.641 17.96C144.737 17.392 144.013 16.628 143.469 15.668C142.933 14.708 142.665 13.648 142.665 12.488C142.665 11.616 142.821 10.8 143.133 10.04C143.445 9.272 143.873 8.6 144.417 8.024C144.969 7.44 145.609 6.984 146.337 6.656C147.065 6.328 147.841 6.164 148.665 6.164C149.601 6.164 150.457 6.364 151.233 6.764C152.017 7.156 152.681 7.696 153.225 8.384C153.769 9.072 154.165 9.856 154.413 10.736C154.661 11.616 154.717 12.536 154.581 13.496H145.809C145.921 13.944 146.105 14.348 146.361 14.708C146.617 15.06 146.941 15.344 147.333 15.56C147.725 15.768 148.169 15.876 148.665 15.884C149.177 15.892 149.641 15.772 150.057 15.524C150.481 15.268 150.833 14.924 151.113 14.492L154.101 15.188C153.613 16.252 152.885 17.124 151.917 17.804C150.949 18.476 149.865 18.812 148.665 18.812ZM145.713 11.3H151.617C151.529 10.82 151.341 10.388 151.053 10.004C150.773 9.612 150.425 9.3 150.009 9.068C149.593 8.836 149.145 8.72 148.665 8.72C148.185 8.72 147.741 8.836 147.333 9.068C146.925 9.292 146.577 9.6 146.289 9.992C146.009 10.376 145.817 10.812 145.713 11.3Z" fill="#212121"/>
</svg>
